<svg width="178" height="101" viewBox="0 0 178 101" fill="none" xmlns="http://www.w3.org/2000/svg">
<path d="M88.5201 32.6299L127.2 66.3099L88.5201 99.9899L49.8501 66.3099L88.5201 32.6299Z" stroke="black" stroke-miterlimit="10" stroke-linecap="round"/>
<path d="M75.8701 43.6602L114.54 77.3402" stroke="black" stroke-miterlimit="10" stroke-linecap="round"/>
<path d="M101.18 43.6602L62.5 77.3402" stroke="black" stroke-miterlimit="10" stroke-linecap="round"/>
<path d="M63.1201 54.7402L101.8 88.4202" stroke="black" stroke-miterlimit="10" stroke-linecap="round"/>
<path d="M113.92 54.7402L75.24 88.4202" stroke="black" stroke-miterlimit="10" stroke-linecap="round"/>
<path d="M72.2101 91.4403L65.6101 97.1903C62.5101 99.8903 57.8001 99.5703 55.1001 96.4603L54.6201 95.9103C51.9201 92.8103 52.2401 88.1003 55.3501 85.4003L60.3201 81.0703" stroke="black" stroke-linecap="round" stroke-linejoin="round"/>
<path d="M6.73006 26.5002L3.72006 23.9502C-0.599942 20.3102 -1.70994 9.48024 7.68006 3.47024C20.9701 -5.03976 34.0701 7.46024 34.0701 7.46024L72.7501 41.1402" stroke="black" stroke-miterlimit="10" stroke-linecap="round"/>
<path d="M7.9932 25.8969L7.25111 26.749C3.2796 31.3097 3.7572 38.2264 8.31786 42.1979L22.9406 54.9316C27.5012 58.9032 34.4179 58.4256 38.3894 53.8649L39.1315 53.0127C43.103 48.4521 42.6254 41.5354 38.0648 37.5639L23.4421 24.8301C18.8814 20.8586 11.9647 21.3362 7.9932 25.8969Z" stroke="black" stroke-linecap="round" stroke-linejoin="round"/>
<path d="M24.1301 55.7107L33.0701 33.2207" stroke="black" stroke-linecap="round" stroke-linejoin="round"/>
<path d="M40.1401 40.1211L15.8601 48.5911" stroke="black" stroke-linecap="round" stroke-linejoin="round"/>
<path d="M14.27 46.7401L22.98 24.6201" stroke="black" stroke-linecap="round" stroke-linejoin="round"/>
<path d="M30.52 31.1504L6.22998 39.5504" stroke="black" stroke-linecap="round" stroke-linejoin="round"/>
<path d="M104.83 91.4403L111.43 97.1903C114.53 99.8903 119.24 99.5703 121.94 96.4603L122.42 95.9103C125.12 92.8103 124.8 88.1003 121.69 85.4003L116.72 81.0703" stroke="black" stroke-linecap="round" stroke-linejoin="round"/>
<path d="M170.32 26.5002L173.33 23.9502C177.65 20.3102 178.76 9.48024 169.37 3.47024C156.08 -5.03976 142.98 7.46024 142.98 7.46024L104.3 41.1402" stroke="black" stroke-miterlimit="10" stroke-linecap="round"/>
<path d="M137.909 53.0111L138.651 53.8633C142.623 58.424 149.54 58.9015 154.1 54.93L168.723 42.1963C173.284 38.2248 173.761 31.3081 169.79 26.7474L169.048 25.8953C165.076 21.3346 158.159 20.857 153.599 24.8285L138.976 37.5623C134.415 41.5338 133.938 48.4505 137.909 53.0111Z" stroke="black" stroke-linecap="round" stroke-linejoin="round"/>
<path d="M152.91 55.7107L143.97 33.2207" stroke="black" stroke-linecap="round" stroke-linejoin="round"/>
<path d="M136.9 40.1211L161.18 48.5911" stroke="black" stroke-linecap="round" stroke-linejoin="round"/>
<path d="M162.77 46.7401L154.06 24.6201" stroke="black" stroke-linecap="round" stroke-linejoin="round"/>
<path d="M146.52 31.1504L170.81 39.5504" stroke="black" stroke-linecap="round" stroke-linejoin="round"/>
</svg>
