<svg width="130" height="55" viewBox="0 0 130 55" fill="none" xmlns="http://www.w3.org/2000/svg">
<g clip-path="url(#clip0_755_1672)">
<path d="M85.22 11.49C85.22 5.14 90.36 0 96.71 0C103.06 0 108.2 5.14 108.2 11.49" stroke="#231815" stroke-linecap="round" stroke-linejoin="round"/>
<path d="M107.76 42.28C107.76 48.63 102.62 53.77 96.27 53.77C89.92 53.77 84.78 48.63 84.78 42.28" stroke="#231815" stroke-linecap="round" stroke-linejoin="round"/>
<path d="M116.8 14.16C123.15 14.16 128.29 19.3 128.29 25.65C128.29 32 123.15 37.14 116.8 37.14" stroke="#231815" stroke-linecap="round" stroke-linejoin="round"/>
<path d="M79.87 31.48L97.33 16.28" stroke="#231815" stroke-linecap="round" stroke-linejoin="round"/>
<path d="M92.55 9.65002L107.75 27.11" stroke="#231815" stroke-linecap="round" stroke-linejoin="round"/>
<path d="M86.54 26.02L101.74 43.48" stroke="#231815" stroke-linecap="round" stroke-linejoin="round"/>
<path d="M96.87 37.81L114.33 22.61" stroke="#231815" stroke-linecap="round" stroke-linejoin="round"/>
<path d="M43.07 11.49C43.07 5.14 37.93 0 31.58 0C25.23 0 20.09 5.14 20.09 11.49" stroke="#231815" stroke-linecap="round" stroke-linejoin="round"/>
<path d="M20.54 42.28C20.54 48.63 25.68 53.77 32.03 53.77C38.38 53.77 43.52 48.63 43.52 42.28" stroke="#231815" stroke-linecap="round" stroke-linejoin="round"/>
<path d="M11.49 14.16C5.14 14.16 0 19.3 0 25.65C0 32 5.14 37.14 11.49 37.14" stroke="#231815" stroke-linecap="round" stroke-linejoin="round"/>
<path d="M46.92 31.48L64.38 16.28" stroke="#231815" stroke-linecap="round" stroke-linejoin="round"/>
<path d="M59.6 9.65002L74.8 27.11" stroke="#231815" stroke-linecap="round" stroke-linejoin="round"/>
<path d="M53.58 26.02L68.78 43.48" stroke="#231815" stroke-linecap="round" stroke-linejoin="round"/>
<path d="M63.92 37.81L81.38 22.61" stroke="#231815" stroke-linecap="round" stroke-linejoin="round"/>
<path d="M13.35 31.48L30.81 16.28" stroke="#231815" stroke-linecap="round" stroke-linejoin="round"/>
<path d="M26.04 9.65002L41.24 27.11" stroke="#231815" stroke-linecap="round" stroke-linejoin="round"/>
<path d="M20.02 26.02L35.22 43.48" stroke="#231815" stroke-linecap="round" stroke-linejoin="round"/>
<path d="M30.36 37.81L47.82 22.61" stroke="#231815" stroke-linecap="round" stroke-linejoin="round"/>
</g>
<defs>
<clipPath id="clip0_755_1672">
<rect width="129.29" height="54.77" fill="white"/>
</clipPath>
</defs>
</svg>
