<svg width="27" height="22" viewBox="0 0 27 22" fill="none" xmlns="http://www.w3.org/2000/svg">
<path d="M6.42188 21.9336C5.39062 21.9336 4.60547 21.668 4.06641 21.1367C3.53516 20.6055 3.26953 19.8242 3.26953 18.793V4.34375C3.26953 3.30469 3.53516 2.51953 4.06641 1.98828C4.60547 1.45703 5.39062 1.19141 6.42188 1.19141H20.8477C21.8867 1.19141 22.6719 1.46094 23.2031 2C23.7422 2.53906 24.0117 3.32031 24.0117 4.34375V18.793C24.0117 19.8164 23.7422 20.5938 23.2031 21.125C22.6719 21.6641 21.8867 21.9336 20.8477 21.9336H6.42188ZM6.45703 21.0664H20.8242C21.5586 21.0664 22.1289 20.8711 22.5352 20.4805C22.9414 20.0898 23.1445 19.5117 23.1445 18.7461V4.39062C23.1445 3.61719 22.9414 3.03516 22.5352 2.64453C22.1289 2.25391 21.5586 2.05859 20.8242 2.05859H6.45703C5.69141 2.05859 5.11328 2.25391 4.72266 2.64453C4.33203 3.03516 4.13672 3.61719 4.13672 4.39062V18.7461C4.13672 19.5117 4.33203 20.0898 4.72266 20.4805C5.11328 20.8711 5.69141 21.0664 6.45703 21.0664ZM8.69531 10.8711C8.57812 10.8711 8.48047 10.832 8.40234 10.7539C8.32422 10.6758 8.28516 10.5781 8.28516 10.4609V6.60547C8.28516 6.46484 8.32422 6.35938 8.40234 6.28906C8.48828 6.21094 8.59375 6.17188 8.71875 6.17188H12.5859C12.6953 6.17188 12.7891 6.21484 12.8672 6.30078C12.9531 6.37891 12.9961 6.46875 12.9961 6.57031C12.9961 6.6875 12.9531 6.78906 12.8672 6.875C12.7891 6.95313 12.6953 6.99219 12.5859 6.99219L11.5664 6.96875L9.59766 6.94531L12.8672 10.1445C12.9453 10.2305 12.9844 10.332 12.9844 10.4492C12.9922 10.5586 12.9531 10.6562 12.8672 10.7422C12.7891 10.8281 12.6875 10.8711 12.5625 10.8711C12.4453 10.8711 12.3438 10.8281 12.2578 10.7422L9.05859 7.47266L9.09375 9.58203V10.4609C9.09375 10.5781 9.05469 10.6758 8.97656 10.7539C8.89844 10.832 8.80469 10.8711 8.69531 10.8711ZM14.6953 16.8828C14.5859 16.8828 14.4883 16.8438 14.4023 16.7656C14.3242 16.6797 14.2852 16.5781 14.2852 16.4609C14.2852 16.3594 14.3242 16.2695 14.4023 16.1914C14.4883 16.1055 14.5859 16.0625 14.6953 16.0625L15.7148 16.0742L17.6836 16.0977L14.4141 12.9102C14.3359 12.8242 14.2969 12.7227 14.2969 12.6055C14.2969 12.4883 14.3359 12.3867 14.4141 12.3008C14.5 12.2148 14.6016 12.1719 14.7188 12.1719C14.8359 12.1719 14.9375 12.2188 15.0234 12.3125L18.2227 15.582L18.1875 13.4609V12.582C18.1875 12.4727 18.2266 12.3789 18.3047 12.3008C18.3828 12.2148 18.4805 12.1719 18.5977 12.1719C18.707 12.1719 18.8008 12.2148 18.8789 12.3008C18.957 12.3789 18.9961 12.4727 18.9961 12.582V16.4492C18.9961 16.582 18.957 16.6875 18.8789 16.7656C18.8008 16.8438 18.6953 16.8828 18.5625 16.8828H14.6953Z" fill="#FF3B30"/>
</svg>
