<svg width="64" height="64" viewBox="0 0 64 64" fill="none" xmlns="http://www.w3.org/2000/svg">
<path d="M36.9993 20.6431L30.1422 14M32.235 25.481L39.9058 18.0481M27.0007 20.3949L33.8578 27.038M31.765 15.557L24.0942 22.9898M36.9993 32.1286L30.1422 25.4855M32.235 36.962L39.9058 29.5291M27.0007 31.8759L33.8578 38.519M31.765 27.038L24.0942 34.4709M36.9993 43.6096L30.1422 36.9665M32.235 48.443L39.9058 41.0102M27.0007 43.3569L33.8578 50M31.765 38.5235L24.0942 45.9564M24.0987 32.1286L17.2417 25.4855M19.33 36.962L27.0007 29.5291M14.0956 31.8759L20.9527 38.519M18.8644 27.038L11.1937 34.4709M17.7344 23.7525C20.1707 19.551 24.4152 16.5228 29.4009 15.733M22.5212 45.4193C19.3119 43.1628 16.9478 39.7871 15.9941 35.8608M30.097 48.3076C28.3884 48.1136 26.7611 47.6533 25.2559 46.9763M46.2656 40.2881C43.8293 44.4897 39.5848 47.5179 34.5991 48.3076M41.4788 18.6213C44.6881 20.8778 47.0522 24.2535 48.0059 28.1798M33.9075 15.733C35.6161 15.927 37.2434 16.3874 38.7486 17.0643M14.0956 35.5495C13.2368 36.3392 12.0887 36.8221 10.8275 36.8221C8.16064 36.8221 6 34.6649 6 32.0023C6 29.3396 8.16064 27.1824 10.8275 27.1824C12.0887 27.1824 13.2368 27.6653 14.0956 28.4551M49.9044 35.5495C50.7632 36.3392 51.9113 36.8221 53.1725 36.8221C55.8394 36.8221 58 34.6649 58 32.0023C58 29.3396 55.8394 27.1824 53.1725 27.1824C51.9113 27.1824 50.7632 27.6653 49.9044 28.4551M49.9044 32.1286L43.0473 25.4855M45.1401 36.962L52.8108 29.5291M39.9058 31.8759L46.7629 38.519M44.67 27.038L36.9993 34.4709" stroke="black" stroke-linecap="round" stroke-linejoin="round"/>
</svg>
