<svg width="64" height="64" viewBox="0 0 64 64" fill="none" xmlns="http://www.w3.org/2000/svg">
<path d="M41.0352 25.4148C41.0352 22.6986 43.2388 20.5 45.9611 20.5C48.6835 20.5 50.8871 22.6986 50.8871 25.4148M50.6985 38.5852C50.6985 41.3014 48.4949 43.5 45.7725 43.5C43.0502 43.5 40.8466 41.3014 40.8466 38.5852M54.5741 26.5569C57.2964 26.5569 59.5 28.7555 59.5 31.4717C59.5 34.1879 57.2964 36.3866 54.5741 36.3866M38.7416 33.9655L46.2269 27.4637M44.1777 24.6278L50.6942 32.0962M41.6011 31.63L48.1176 39.0985M46.0297 36.6731L53.5151 30.1714M22.9648 25.4148C22.9648 22.6986 20.7612 20.5 18.0389 20.5C15.3165 20.5 13.1129 22.6986 13.1129 25.4148M13.3058 38.5852C13.3058 41.3014 15.5094 43.5 18.2318 43.5C20.9541 43.5 23.1577 41.3014 23.1577 38.5852M9.42595 26.5569C6.7036 26.5569 4.5 28.7555 4.5 31.4717C4.5 34.1879 6.7036 36.3866 9.42595 36.3866M24.6154 33.9655L32.1007 27.4637M30.0515 24.6278L36.568 32.0962M27.4706 31.63L33.9871 39.0985M31.9035 36.6731L39.3889 30.1714M10.2234 33.9655L17.7087 27.4637M15.6638 24.6278L22.1803 32.0962M13.0829 31.63L19.5994 39.0985M17.5158 36.6731L25.0012 30.1714" stroke="black" stroke-linecap="round" stroke-linejoin="round"/>
</svg>
