<svg width="132" height="110" viewBox="0 0 132 110" fill="none" xmlns="http://www.w3.org/2000/svg">
<g clip-path="url(#clip0_753_18482)">
<path d="M46.43 26.22H46.06C40.43 26.22 35.87 21.41 35.87 15.47V14.42C35.87 8.49004 40.43 3.67004 46.06 3.67004H46.43" stroke="#231815" stroke-linecap="round" stroke-linejoin="round"/>
<path d="M84.91 26.22H85.28C90.91 26.22 95.47 21.41 95.47 15.47V14.42C95.47 8.49004 90.91 3.67004 85.28 3.67004H84.91" stroke="#231815" stroke-linecap="round" stroke-linejoin="round"/>
<path d="M76.7301 15.22L61.5601 0.5" stroke="#231815" stroke-linecap="round" stroke-linejoin="round"/>
<path d="M66.1901 25.94L83.1601 9.46997" stroke="#231815" stroke-linecap="round" stroke-linejoin="round"/>
<path d="M54.6101 14.67L69.7801 29.39" stroke="#231815" stroke-linecap="round" stroke-linejoin="round"/>
<path d="M65.1501 3.94995L48.1801 20.42" stroke="#231815" stroke-linecap="round" stroke-linejoin="round"/>
<path d="M46.43 105.9H46.06C40.43 105.9 35.87 101.09 35.87 95.15V94.1C35.87 88.17 40.43 83.35 46.06 83.35H46.43" stroke="#231815" stroke-linecap="round" stroke-linejoin="round"/>
<path d="M84.91 105.9H85.28C90.91 105.9 95.47 101.09 95.47 95.15V94.1C95.47 88.17 90.91 83.35 85.28 83.35H84.91" stroke="#231815" stroke-linecap="round" stroke-linejoin="round"/>
<path d="M76.7301 94.9099L61.5601 80.1899" stroke="#231815" stroke-linecap="round" stroke-linejoin="round"/>
<path d="M66.1901 105.63L83.1601 89.1599" stroke="#231815" stroke-linecap="round" stroke-linejoin="round"/>
<path d="M54.6101 94.35L69.7801 109.07" stroke="#231815" stroke-linecap="round" stroke-linejoin="round"/>
<path d="M65.1501 83.6399L48.1801 100.11" stroke="#231815" stroke-linecap="round" stroke-linejoin="round"/>
<path d="M87.08 39.15C87.08 32.7 92.31 27.48 98.75 27.48C105.19 27.48 110.42 32.71 110.42 39.15" stroke="#231815" stroke-linecap="round" stroke-linejoin="round"/>
<path d="M109.98 70.4299C109.98 76.8799 104.75 82.0999 98.31 82.0999C91.87 82.0999 86.64 76.8699 86.64 70.4299" stroke="#231815" stroke-linecap="round" stroke-linejoin="round"/>
<path d="M119.17 41.86C125.62 41.86 130.84 47.09 130.84 53.53C130.84 59.97 125.61 65.2 119.17 65.2" stroke="#231815" stroke-linecap="round" stroke-linejoin="round"/>
<path d="M81.64 59.46L99.38 44.01" stroke="#231815" stroke-linecap="round" stroke-linejoin="round"/>
<path d="M94.53 37.28L109.98 55.02" stroke="#231815" stroke-linecap="round" stroke-linejoin="round"/>
<path d="M88.42 53.91L103.87 71.65" stroke="#231815" stroke-linecap="round" stroke-linejoin="round"/>
<path d="M98.92 65.8899L116.66 50.4399" stroke="#231815" stroke-linecap="round" stroke-linejoin="round"/>
<path d="M44.26 39.15C44.26 32.7 39.03 27.48 32.59 27.48C26.14 27.48 20.92 32.71 20.92 39.15" stroke="#231815" stroke-linecap="round" stroke-linejoin="round"/>
<path d="M21.36 70.4299C21.36 76.8799 26.59 82.0999 33.03 82.0999C39.48 82.0999 44.7 76.8699 44.7 70.4299" stroke="#231815" stroke-linecap="round" stroke-linejoin="round"/>
<path d="M12.17 41.86C5.72 41.86 0.5 47.09 0.5 53.53C0.5 59.98 5.73 65.2 12.17 65.2" stroke="#231815" stroke-linecap="round" stroke-linejoin="round"/>
<path d="M48.16 59.46L65.9 44.01" stroke="#231815" stroke-linecap="round" stroke-linejoin="round"/>
<path d="M61.05 37.28L76.5 55.02" stroke="#231815" stroke-linecap="round" stroke-linejoin="round"/>
<path d="M54.9399 53.91L70.3899 71.65" stroke="#231815" stroke-linecap="round" stroke-linejoin="round"/>
<path d="M65.4399 65.8899L83.1799 50.4399" stroke="#231815" stroke-linecap="round" stroke-linejoin="round"/>
<path d="M14.0699 59.46L31.8099 44.01" stroke="#231815" stroke-linecap="round" stroke-linejoin="round"/>
<path d="M26.96 37.28L42.41 55.02" stroke="#231815" stroke-linecap="round" stroke-linejoin="round"/>
<path d="M20.84 53.91L36.29 71.65" stroke="#231815" stroke-linecap="round" stroke-linejoin="round"/>
<path d="M31.34 65.8899L49.08 50.4399" stroke="#231815" stroke-linecap="round" stroke-linejoin="round"/>
</g>
<defs>
<clipPath id="clip0_753_18482">
<rect width="131.34" height="109.58" fill="white"/>
</clipPath>
</defs>
</svg>
