<svg width="64" height="64" viewBox="0 0 64 64" fill="none" xmlns="http://www.w3.org/2000/svg">
<path d="M36.0601 11.8718L36.9447 10.9838C37.7178 10.2079 38.9711 10.2079 39.7462 10.9838C40.5193 11.7597 40.5193 13.0177 39.7462 13.7957L38.8616 14.6837M42.6341 18.4702L43.5188 17.5822C44.2918 16.8063 45.5451 16.8063 46.3203 17.5822C47.0933 18.3581 47.0933 19.6161 46.3203 20.3941L45.4356 21.2821M49.1955 25.0559L50.0802 24.1679C50.8532 23.392 52.1065 23.392 52.8817 24.1679C53.6547 24.9439 53.6547 26.2018 52.8817 26.9798L51.997 27.8678M36.0601 52.1282L36.9447 53.0162C37.7178 53.7921 38.9711 53.7921 39.7462 53.0162C40.5193 52.2402 40.5193 50.9823 39.7462 50.2043L38.8616 49.3163M42.6341 45.5298L43.5188 46.4177C44.2918 47.1937 45.5451 47.1937 46.3203 46.4177C47.0933 45.6418 47.0933 44.3839 46.3203 43.6059L45.4356 42.7179M49.1955 38.9441L50.0802 39.832C50.8532 40.6079 52.1065 40.6079 52.8817 39.832C53.6547 39.0561 53.6547 37.7982 52.8817 37.0201L51.997 36.1322M27.942 11.8718L27.0574 10.9838C26.2843 10.2079 25.031 10.2079 24.2559 10.9838C23.4828 11.7597 23.4828 13.0177 24.2559 13.7957L25.1405 14.6837M21.3659 18.4702L20.4812 17.5822C19.7082 16.8063 18.4549 16.8063 17.6797 17.5822C16.9067 18.3581 16.9067 19.6161 17.6797 20.3941L18.5644 21.2821M14.8066 25.0559L13.9219 24.1679C13.1489 23.392 11.8956 23.392 11.1204 24.1679C10.3474 24.9439 10.3474 26.2018 11.1204 26.9798L12.0051 27.8678M27.942 52.1282L27.0574 53.0162C26.2843 53.7921 25.031 53.7921 24.2559 53.0162C23.4828 52.2402 23.4828 50.9823 24.2559 50.2043L25.1405 49.3163M21.3659 45.5298L20.4812 46.4177C19.7082 47.1937 18.4549 47.1937 17.6797 46.4177C16.9067 45.6418 16.9067 44.3839 17.6797 43.6059L18.5644 42.7179M14.8066 38.9441L13.9219 39.832C13.1489 40.6079 11.8956 40.6079 11.1204 39.832C10.3474 39.0561 10.3474 37.7982 11.1204 37.0201L12.0051 36.1322M12.359 28.7135L35.2744 51.7138M15.6323 25.428L38.5477 48.4284M18.9077 22.1425L41.821 45.1429M22.1811 18.8571L45.0944 41.8574M25.4544 15.5716L48.3677 38.572M28.7277 12.2862L51.641 35.2865M51.641 28.7156L28.7277 51.7138M48.3677 25.428L25.4544 48.4284M45.0944 22.1425L22.1811 45.1429M41.821 18.8571L18.9077 41.8574M38.5477 15.5716L15.6344 38.572M35.2744 12.2862L12.359 35.2865M54.9143 32.001C54.9143 32.001 55.9633 30.3287 57.461 30.3287C58.4004 30.3287 58.7754 31.0306 58.9207 31.5084C59.0134 31.8108 59.026 32.149 58.9523 32.4619C58.8322 32.963 58.4784 33.6734 57.4315 33.6734C55.898 33.6734 54.9122 32.001 54.9122 32.001H54.9143ZM9.08565 32.001C9.08565 32.001 8.03667 30.3287 6.53903 30.3287C5.59958 30.3287 5.22464 31.0306 5.0793 31.5084C4.98662 31.8108 4.97398 32.149 5.0477 32.4619C5.16777 32.963 5.52164 33.6734 6.56852 33.6734C8.10197 33.6734 9.08776 32.001 9.08776 32.001H9.08565ZM9.08752 32L32.0026 9L54.9176 32L32.0026 55L9.08752 32Z" stroke="black" stroke-linecap="round" stroke-linejoin="round"/>
</svg>
