<svg width="64" height="64" viewBox="0 0 64 64" fill="none" xmlns="http://www.w3.org/2000/svg">
<path d="M35.7094 8.03526L36.515 7.23795C37.2192 6.54101 38.3634 6.54101 39.0676 7.23795C39.7718 7.93489 39.7718 9.06742 39.0676 9.76436L38.262 10.5617M41.6203 13.8873L42.4259 13.09C43.13 12.393 44.2743 12.393 44.9785 13.09C45.6827 13.7869 45.6827 14.9194 44.9785 15.6164L44.1729 16.4137M47.6039 19.8075L48.4095 19.0102C49.1136 18.3132 50.2579 18.3132 50.9621 19.0102C51.6663 19.7071 51.6663 20.8397 50.9621 21.5366L50.1565 22.3339M53.5301 25.6728L54.3357 24.8755C55.0398 24.1785 56.1841 24.1785 56.8883 24.8755C57.5925 25.5724 57.5925 26.7049 56.8883 27.4019L56.0827 28.1992M35.7094 55.8098L36.515 56.6071C37.2192 57.304 38.3634 57.304 39.0676 56.6071C39.7718 55.9102 39.7718 54.7776 39.0676 54.0807L38.262 53.2834M41.6203 49.9597L42.4259 50.757C43.13 51.4539 44.2743 51.4539 44.9785 50.757C45.6827 50.06 45.6827 48.9275 44.9785 48.2306L44.1729 47.4332M47.6039 44.0375L48.4095 44.8349C49.1136 45.5318 50.2579 45.5318 50.9621 44.8349C51.6663 44.1379 51.6663 43.0054 50.9621 42.3085L50.1565 41.5111M53.5301 38.1723L54.3357 38.9696C55.0398 39.6665 56.1841 39.6665 56.8883 38.9696C57.5925 38.2726 57.5925 37.1401 56.8883 36.4432L56.0827 35.6459M28.2906 8.03526L27.485 7.23795C26.7809 6.54101 25.6366 6.54101 24.9324 7.23795C24.2282 7.93489 24.2282 9.06742 24.9324 9.76436L25.738 10.5617M22.3778 13.8873L21.5722 13.09C20.8681 12.393 19.7238 12.393 19.0196 13.09C18.3154 13.7869 18.3154 14.9194 19.0196 15.6164L19.8252 16.4137M16.3961 19.8075L15.5905 19.0102C14.8864 18.3132 13.7421 18.3132 13.0379 19.0102C12.3337 19.7071 12.3337 20.8397 13.0379 21.5366L13.8435 22.3339M10.4699 25.6728L9.66435 24.8755C8.96017 24.1785 7.81588 24.1785 7.1117 24.8755C6.40752 25.5724 6.40752 26.7049 7.1117 27.4019L7.9173 28.1992M28.2906 55.8098L27.485 56.6071C26.7809 57.304 25.6366 57.304 24.9324 56.6071C24.2282 55.9102 24.2282 54.7776 24.9324 54.0807L25.738 53.2834M22.3778 49.9597L21.5722 50.757C20.8681 51.4539 19.7238 51.4539 19.0196 50.757C18.3154 50.06 18.3154 48.9275 19.0196 48.2306L19.8252 47.4332M16.3961 44.0375L15.5905 44.8349C14.8864 45.5318 13.7421 45.5318 13.0379 44.8349C12.3337 44.1379 12.3337 43.0054 13.0379 42.3085L13.8435 41.5111M10.4699 38.1723L9.66435 38.9696C8.96017 39.6665 7.81588 39.6665 7.1117 38.9696C6.40752 38.2726 6.40752 37.1401 7.1117 36.4432L7.9173 35.6459M29.0254 55.556L55.7995 29.0571M26.0499 52.613L52.824 26.1122M23.0744 49.668L49.8503 23.1672M20.0988 46.723L46.8748 20.2241M17.1252 43.78L43.8993 17.2792M14.1497 40.835L40.9257 14.3342M11.1741 37.8901L37.9501 11.3893M8.19859 34.9451L34.9746 8.44623M29.0254 8.44623L55.7995 34.9451M26.0499 11.3893L52.824 37.8901M23.0744 14.3342L49.8503 40.835M20.0988 17.2792L46.8748 43.78M17.1252 20.2241L43.8993 46.723M14.1497 23.1672L40.9257 49.668M11.1741 26.1122L37.9501 52.613M8.19859 29.0571L34.9746 55.556M58.775 32.0021C58.775 32.0021 59.7299 30.5002 61.0961 30.5002C61.9534 30.5002 62.294 31.1309 62.428 31.5608C62.5122 31.8316 62.5236 32.1365 62.4567 32.4168C62.3476 32.8676 62.0261 33.5039 61.0713 33.5039C59.6725 33.5039 58.775 32.0021 58.775 32.0021ZM5.22496 32.0021C5.22496 32.0021 4.27011 30.5002 2.90385 30.5002C2.04659 30.5002 1.70599 31.1309 1.57204 31.5608C1.48784 31.8316 1.47636 32.1365 1.54334 32.4168C1.65241 32.8676 1.97388 33.5039 2.92873 33.5039C4.32752 33.5039 5.22496 32.0021 5.22496 32.0021ZM5.22476 32.0007L32.0006 5.5L58.7752 31.9993L31.9993 58.5L5.22476 32.0007Z" stroke="black" stroke-linecap="round" stroke-linejoin="round"/>
</svg>
