<svg width="98" height="77" viewBox="0 0 98 77" fill="none" xmlns="http://www.w3.org/2000/svg">
<g clip-path="url(#clip0_753_18446)">
<path d="M59.66 15.22L44.49 0.5" stroke="#231815" stroke-linecap="round" stroke-linejoin="round"/>
<path d="M49.12 25.94L66.09 9.46997" stroke="#231815" stroke-linecap="round" stroke-linejoin="round"/>
<path d="M37.54 14.67L52.71 29.39" stroke="#231815" stroke-linecap="round" stroke-linejoin="round"/>
<path d="M48.09 3.94995L31.12 20.42" stroke="#231815" stroke-linecap="round" stroke-linejoin="round"/>
<path d="M59.66 61.86L44.49 47.14" stroke="#231815" stroke-linecap="round" stroke-linejoin="round"/>
<path d="M49.12 72.57L66.09 56.1" stroke="#231815" stroke-linecap="round" stroke-linejoin="round"/>
<path d="M37.54 61.3L52.71 76.02" stroke="#231815" stroke-linecap="round" stroke-linejoin="round"/>
<path d="M48.09 50.5801L31.12 67.0501" stroke="#231815" stroke-linecap="round" stroke-linejoin="round"/>
<path d="M76.27 61.54C71.18 67.59 64.14 71.94 56.13 73.64" stroke="#231815" stroke-miterlimit="10" stroke-linecap="round"/>
<path d="M52.4 2.30005C62.06 3.31005 70.59 8.13005 76.46 15.22" stroke="#231815" stroke-miterlimit="10" stroke-linecap="round"/>
<path d="M82.1301 58.31C90.1768 58.31 96.7001 49.3333 96.7001 38.26C96.7001 27.1867 90.1768 18.21 82.1301 18.21C74.0833 18.21 67.5601 27.1867 67.5601 38.26C67.5601 49.3333 74.0833 58.31 82.1301 58.31Z" stroke="#231815" stroke-linecap="round" stroke-linejoin="round"/>
<path d="M67.8501 38.37L92.8101 24.63" stroke="#231815" stroke-linecap="round" stroke-linejoin="round"/>
<path d="M96.4201 38.37L71.4501 24.63" stroke="#231815" stroke-linecap="round" stroke-linejoin="round"/>
<path d="M71.4501 51.9L96.4201 38.16" stroke="#231815" stroke-linecap="round" stroke-linejoin="round"/>
<path d="M92.8201 51.9L67.8501 38.16" stroke="#231815" stroke-linecap="round" stroke-linejoin="round"/>
<path d="M20.9301 14.4C26.0201 8.35005 33.0601 4.00005 41.0701 2.30005" stroke="#231815" stroke-miterlimit="10" stroke-linecap="round"/>
<path d="M44.8 73.63C35.14 72.62 26.61 67.8 20.74 60.71" stroke="#231815" stroke-miterlimit="10" stroke-linecap="round"/>
<path d="M15.07 57.73C23.1168 57.73 29.64 48.7533 29.64 37.68C29.64 26.6067 23.1168 17.63 15.07 17.63C7.02321 17.63 0.5 26.6067 0.5 37.68C0.5 48.7533 7.02321 57.73 15.07 57.73Z" stroke="#231815" stroke-linecap="round" stroke-linejoin="round"/>
<path d="M29.36 37.5701L4.39001 51.3101" stroke="#231815" stroke-linecap="round" stroke-linejoin="round"/>
<path d="M0.790039 37.5701L25.76 51.3101" stroke="#231815" stroke-linecap="round" stroke-linejoin="round"/>
<path d="M25.76 24.04L0.790039 37.78" stroke="#231815" stroke-linecap="round" stroke-linejoin="round"/>
<path d="M4.39001 24.04L29.36 37.78" stroke="#231815" stroke-linecap="round" stroke-linejoin="round"/>
</g>
<defs>
<clipPath id="clip0_753_18446">
<rect width="97.2" height="76.53" fill="white"/>
</clipPath>
</defs>
</svg>
