<svg width="64" height="64" viewBox="0 0 64 64" fill="none" xmlns="http://www.w3.org/2000/svg">
<g clip-path="url(#clip0_1122_31823)">
<path d="M28.195 -15.4713L35.854 -19.2643M32.5587 -16.2098H35.854M31.4902 -18.5259H28.195M28.195 11.2643L35.854 7.47132M32.5587 10.5259H35.854M31.4902 8.20979H28.195M28.195 54.6448L35.854 50.8559M32.5587 53.9105H35.854M31.4902 51.5902H28.195M28.195 81.2462L35.854 77.4532M32.5587 80.5077H35.854M31.4902 78.1916H28.195M28.195 101L35.854 97.2112M32.5587 100.266H35.854M31.4902 97.9454H28.195M28.195 -33.207L35.854 -37M32.5587 -33.9455H35.854M31.4902 -36.2657H28.195M33.0033 82.5469V84.9552M31.0457 82.5468V84.9552M28.5335 45.4308L46.0007 27.4601M25.0384 41.835L42.5056 23.8643M21.5433 38.2434L39.0105 20.2727M18.0523 34.6475L35.5195 16.6769M28.5335 16.6769L46.0007 34.6475M25.0384 20.2727L42.5056 38.2434M21.5433 23.8643L39.0105 41.835M18.0523 27.4601L35.5195 45.4308M36.6411 15.8839L38.358 14.3482C39.1655 13.6266 40.3849 13.7147 41.0864 14.5413L41.2087 14.6881C41.9102 15.5189 41.8245 16.7734 41.0211 17.4951L39.7324 18.6531M37.265 46.2154L38.982 47.751C39.7895 48.4727 41.0089 48.3846 41.7103 47.558L41.8327 47.4112C42.5342 46.5804 42.4485 45.3259 41.6451 44.6042L40.3564 43.4462M43.7984 23.3944L70.5355 -4.11329C71.3267 -4.92728 72.6154 -4.92728 73.4066 -4.11329C74.1978 -3.29931 74.1978 -1.97343 73.4066 -1.15945L46.6695 26.3482M43.7984 38.4531L70.5355 65.9608C71.3267 66.7748 72.6154 66.7748 73.4066 65.9608C74.1978 65.1468 74.1978 63.821 73.4066 63.007L46.6695 35.4993M27.3589 15.8839L25.642 14.3482C24.8345 13.6266 23.6151 13.7147 22.9136 14.5413L22.7913 14.6881C22.0898 15.5189 22.1755 16.7734 22.9789 17.4951L24.2676 18.6531M26.7309 46.2154L25.0139 47.751C24.2064 48.4727 22.987 48.3846 22.2856 47.558L22.1632 47.4112C21.4618 46.5804 21.5474 45.3259 22.3508 44.6042L23.6396 43.4462M20.2016 23.3944L-6.53552 -4.11329C-7.3267 -4.92728 -8.61543 -4.92728 -9.40661 -4.11329C-10.1978 -3.29931 -10.1978 -1.97343 -9.40661 -1.15945L17.3305 26.3482M20.2016 38.4531L-6.53552 65.9608C-7.3267 66.7748 -8.61543 66.7748 -9.40661 65.9608C-10.1978 65.1468 -10.1978 63.821 -9.40661 63.007L17.3305 35.4993M32.2896 -6.61399L36.0497 -10.2769M33.1541 -5.72448L36.9143 -9.38742M33.7618 -8.36364L30.2015 -12.2322M34.6264 -9.25315L31.0661 -13.1217M32.7015 -4.07133L29.1411 -7.93986M33.5661 -4.96084L30.0057 -8.82937M26.9633 -7.88532L30.7235 -11.5483M27.8279 -6.99581L31.5881 -10.6587M32.2896 3.94685L36.0497 0.283912M33.1541 4.83636L36.9143 1.17342M33.7618 2.19301L30.2015 -1.67552M34.6264 1.30349L31.0661 -2.56504M32.7015 6.48531L29.1411 2.61678M33.5661 5.6L30.0057 1.73147M26.9633 2.67133L30.7235 -0.99161M27.8279 3.56084L31.5881 -0.102099M32.2896 62.9273L36.0497 59.2643M33.1541 63.8126L36.9143 60.1496M33.7618 61.1734L30.2015 57.3049M34.6264 60.2839L31.0661 56.4154M32.7015 65.4657L29.1411 61.5972M33.5661 64.5762L30.0057 60.7077M26.9633 61.6517L30.7235 57.9888M27.8279 62.5413L31.5881 58.8783M32.2896 73.3287L36.0497 69.6657M33.1541 74.214L36.9143 70.551M33.7618 71.5748L30.2015 67.7063M34.6264 70.6853L31.0661 66.8168M32.7015 75.8671L29.1411 71.9986M33.5661 74.9776L30.0057 71.1091M26.9633 72.0531L30.7235 68.3902M27.8279 72.9426L31.5881 69.2797M37.5872 87.2923C37.5872 85.5678 38.9453 84.1706 40.6214 84.1706C42.2976 84.1706 43.6557 85.5678 43.6557 87.2923M43.5333 95.6503C43.5333 97.3748 42.1753 98.772 40.4991 98.772C38.8229 98.772 37.4649 97.3748 37.4649 95.6503M45.9232 88.0182C47.5994 88.0182 48.9574 89.4154 48.9574 91.1398C48.9574 92.8643 47.5994 94.2615 45.9232 94.2615M36.1721 92.7175L40.7805 88.5888M39.5203 86.793L43.5333 91.5343M37.9339 91.2364L41.9469 95.9776M40.6622 94.4378L45.2707 90.3091M26.4617 87.2923C26.4617 85.5678 25.1037 84.1706 23.4275 84.1706C21.7513 84.1706 20.3933 85.5678 20.3933 87.2923M20.5156 95.6503C20.5156 97.3748 21.8737 98.772 23.5498 98.772C25.226 98.772 26.5841 97.3748 26.5841 95.6503M18.1298 88.0182C16.4537 88.0182 15.0956 89.4154 15.0956 91.1398C15.0956 92.8643 16.4537 94.2615 18.1298 94.2615M27.4772 92.7175L32.0856 88.5888M30.8255 86.793L34.8385 91.5343M29.239 91.2364L33.252 95.9776M31.9633 94.4378L36.5717 90.3091M18.6192 92.7175L23.2277 88.5888M21.9675 86.793L25.9805 91.5343M20.381 91.2364L24.394 95.9776M23.1094 94.4378L27.7178 90.3091M37.5872 -31.1133C37.5872 -32.8378 38.9453 -34.235 40.6214 -34.235C42.2976 -34.235 43.6557 -32.8378 43.6557 -31.1133M43.5333 -22.7511C43.5333 -21.0266 42.1753 -19.6294 40.4991 -19.6294C38.8229 -19.6294 37.4649 -21.0266 37.4649 -22.7511M45.9232 -30.3874C47.5994 -30.3874 48.9574 -28.9902 48.9574 -27.2657C48.9574 -25.5413 47.5994 -24.1441 45.9232 -24.1441M36.1721 -25.6839L40.7805 -29.8126M39.5203 -31.6084L43.5333 -26.8671M37.9339 -27.1692L41.9469 -22.428M40.6622 -23.9636L45.2707 -28.0923M26.4617 -31.1133C26.4617 -32.8378 25.1037 -34.235 23.4275 -34.235C21.7513 -34.235 20.3933 -32.8378 20.3933 -31.1133M20.5156 -22.7511C20.5156 -21.0266 21.8737 -19.6294 23.5498 -19.6294C25.226 -19.6294 26.5841 -21.0266 26.5841 -22.7511M18.1298 -30.3874C16.4537 -30.3874 15.0956 -28.9902 15.0956 -27.2657C15.0956 -25.5413 16.4537 -24.1441 18.1298 -24.1441M27.4772 -25.6839L32.0856 -29.8126M30.8255 -31.6084L34.8385 -26.8671M29.239 -27.1692L33.252 -22.428M31.9633 -23.9636L36.5717 -28.0923M18.6192 -25.6839L23.2277 -29.8126M21.9675 -31.6084L25.9805 -26.8671M20.381 -27.1692L24.394 -22.428M23.1094 -23.9636L27.7178 -28.0923M14.5604 31.051L32.0274 13.0806L49.4944 31.051L32.0274 49.0214L14.5604 31.051ZM49.4917 31.0517C49.4917 31.0517 53.5903 26.9315 59.0022 27.0112C62.5136 27.0615 63.9083 28.9916 64.4548 30.3385C64.8015 31.1902 64.8504 32.1468 64.5731 33.0238C64.1286 34.4378 62.8072 36.4224 58.9002 36.4392C52.8236 36.4643 49.4957 31.0475 49.4957 31.0475L49.4917 31.0517ZM14.5042 31.0517C14.5042 31.0517 10.4056 26.9315 4.99373 27.0112C1.48235 27.0615 0.0875836 28.9916 -0.458904 30.3385C-0.805556 31.1902 -0.854494 32.1468 -0.577172 33.0238C-0.132642 34.4378 1.18871 36.4224 5.09569 36.4392C11.1723 36.4643 14.5002 31.0475 14.5002 31.0475L14.5042 31.0517Z" stroke="black" stroke-linecap="round" stroke-linejoin="round"/>
</g>
<defs>
<clipPath id="clip0_1122_31823">
<rect width="64" height="64" fill="white"/>
</clipPath>
</defs>
</svg>
