<svg width="64" height="64" viewBox="0 0 64 64" fill="none" xmlns="http://www.w3.org/2000/svg">
<path d="M37.155 15.0126L38.3227 13.8777C39.3432 12.8859 40.9975 12.8859 42.0207 13.8777C43.0412 14.8694 43.0412 16.4773 42.0207 17.4718L40.853 18.6067M45.7632 23.379L46.931 22.2441C47.9515 21.2523 49.6058 21.2523 50.629 22.2441C51.6495 23.2358 51.6495 24.8437 50.629 25.8381L49.4612 26.9731M37.155 48.9862L38.3227 50.1212C39.3432 51.1129 40.9975 51.1129 42.0207 50.1212C43.0412 49.1294 43.0412 47.5215 42.0207 46.5271L40.853 45.3921M45.7632 40.6198L46.931 41.7548C47.9515 42.7465 49.6058 42.7465 50.629 41.7548C51.6495 40.763 51.6495 39.1552 50.629 38.1607L49.4612 37.0257M26.845 15.0126L25.6772 13.8777C24.6568 12.8859 23.0025 12.8859 21.9792 13.8777C20.9588 14.8694 20.9588 16.4773 21.9792 17.4718L23.147 18.6067M18.2368 23.379L17.069 22.2441C16.0485 21.2523 14.3942 21.2523 13.371 22.2441C12.3505 23.2358 12.3505 24.8437 13.371 25.8381L14.5388 26.9731M26.845 48.9862L25.6772 50.1212C24.6568 51.1129 23.0025 51.1129 21.9792 50.1212C20.9588 49.1294 20.9588 47.5215 21.9792 46.5271L23.147 45.3921M18.2368 40.6198L17.069 41.7548C16.0485 42.7465 14.3942 42.7465 13.371 41.7548C12.3505 40.763 12.3505 39.1552 13.371 38.1607L14.5388 37.0257M27.6792 48.7997L49.2861 27.8M23.3584 44.5976L44.9653 23.6006M19.0375 40.3982L40.6444 19.3985M14.7167 36.1988L36.3208 15.1991M27.6792 15.1991L49.2861 36.1988M23.3584 19.3985L44.9653 40.3982M19.0375 23.6006L40.6444 44.5976M14.7167 27.8L36.3208 48.7997M53.6069 31.9994C53.6069 31.9994 54.9916 29.8619 56.9685 29.8619C58.2085 29.8619 58.7035 30.7591 58.8953 31.3698C59.0177 31.7562 59.0343 32.1886 58.937 32.5885C58.7785 33.229 58.3114 34.137 56.9295 34.137C54.9054 34.137 53.6041 31.9994 53.6041 31.9994H53.6069ZM10.3931 31.9994C10.3931 31.9994 9.00843 29.8619 7.03153 29.8619C5.79145 29.8619 5.29653 30.7591 5.10468 31.3698C4.98234 31.7562 4.96565 32.1886 5.06297 32.5885C5.22146 33.229 5.68857 34.137 7.07046 34.137C9.09463 34.137 10.3959 31.9994 10.3959 31.9994H10.3931ZM10.3938 32L32.001 11L53.6082 32L32.001 53L10.3938 32Z" stroke="black" stroke-linecap="round" stroke-linejoin="round"/>
</svg>
