<svg width="320" height="281" viewBox="0 0 320 281" fill="none" xmlns="http://www.w3.org/2000/svg">
<path d="M179.28 13.8802L183.49 9.67016C187.17 5.99016 193.15 5.99016 196.83 9.67016C200.51 13.3502 200.51 19.3302 196.83 23.0102L192.62 27.2202" stroke="black" stroke-linecap="round" stroke-linejoin="round"/>
<path d="M210.17 44.7796L214.38 40.5696C218.06 36.8896 224.04 36.8896 227.72 40.5696C231.4 44.2496 231.4 50.2296 227.72 53.9096L223.51 58.1196" stroke="black" stroke-linecap="round" stroke-linejoin="round"/>
<path d="M241.44 76.0403L245.65 71.8303C249.33 68.1503 255.31 68.1503 258.99 71.8303C262.67 75.5103 262.67 81.4903 258.99 85.1703L254.78 89.3803" stroke="black" stroke-linecap="round" stroke-linejoin="round"/>
<path d="M272.41 107.01L276.62 102.8C280.3 99.12 286.28 99.12 289.96 102.8C293.64 106.48 293.64 112.46 289.96 116.14L285.75 120.35" stroke="black" stroke-linecap="round" stroke-linejoin="round"/>
<path d="M179.28 266.14L183.49 270.35C187.17 274.03 193.15 274.03 196.83 270.35C200.51 266.67 200.51 260.69 196.83 257.01L192.62 252.8" stroke="black" stroke-linecap="round" stroke-linejoin="round"/>
<path d="M210.17 235.25L214.38 239.46C218.06 243.14 224.04 243.14 227.72 239.46C231.4 235.78 231.4 229.8 227.72 226.12L223.51 221.91" stroke="black" stroke-linecap="round" stroke-linejoin="round"/>
<path d="M241.44 203.98L245.65 208.19C249.33 211.87 255.31 211.87 258.99 208.19C262.67 204.51 262.67 198.53 258.99 194.85L254.78 190.64" stroke="black" stroke-linecap="round" stroke-linejoin="round"/>
<path d="M272.41 173.01L276.62 177.22C280.3 180.9 286.28 180.9 289.96 177.22C293.64 173.54 293.64 167.56 289.96 163.88L285.75 159.67" stroke="black" stroke-linecap="round" stroke-linejoin="round"/>
<path d="M299.82 140.43C299.82 140.43 304.81 132.5 311.95 132.5C316.43 132.5 318.21 135.83 318.91 138.1C319.35 139.53 319.41 141.14 319.06 142.62C318.49 145 316.81 148.36 311.82 148.36C304.51 148.36 299.82 140.43 299.82 140.43Z" stroke="black" stroke-linecap="round" stroke-linejoin="round"/>
<path d="M140.51 13.8802L136.3 9.67016C132.62 5.99016 126.64 5.99016 122.96 9.67016C119.28 13.3502 119.28 19.3302 122.96 23.0102L127.17 27.2202" stroke="black" stroke-linecap="round" stroke-linejoin="round"/>
<path d="M109.61 44.7796L105.4 40.5696C101.72 36.8896 95.7398 36.8896 92.0598 40.5696C88.3798 44.2496 88.3798 50.2296 92.0598 53.9096L96.2698 58.1196" stroke="black" stroke-linecap="round" stroke-linejoin="round"/>
<path d="M78.3498 76.0403L74.1398 71.8303C70.4598 68.1503 64.4798 68.1503 60.7998 71.8303C57.1198 75.5103 57.1198 81.4903 60.7998 85.1703L65.0098 89.3803" stroke="black" stroke-linecap="round" stroke-linejoin="round"/>
<path d="M47.3798 107.01L43.1698 102.8C39.4898 99.12 33.5098 99.12 29.8298 102.8C26.1498 106.48 26.1498 112.46 29.8298 116.14L34.0398 120.35" stroke="black" stroke-linecap="round" stroke-linejoin="round"/>
<path d="M140.51 266.14L136.3 270.35C132.62 274.03 126.64 274.03 122.96 270.35C119.28 266.67 119.28 260.69 122.96 257.01L127.17 252.8" stroke="black" stroke-linecap="round" stroke-linejoin="round"/>
<path d="M109.61 235.25L105.4 239.46C101.72 243.14 95.7398 243.14 92.0598 239.46C88.3798 235.78 88.3798 229.8 92.0598 226.12L96.2698 221.91" stroke="black" stroke-linecap="round" stroke-linejoin="round"/>
<path d="M78.3498 203.98L74.1398 208.19C70.4598 211.87 64.4798 211.87 60.7998 208.19C57.1198 204.51 57.1198 198.53 60.7998 194.85L65.0098 190.64" stroke="black" stroke-linecap="round" stroke-linejoin="round"/>
<path d="M47.3798 173.01L43.1698 177.22C39.4898 180.9 33.5098 180.9 29.8298 177.22C26.1498 173.54 26.1498 167.56 29.8298 163.88L34.0398 159.67" stroke="black" stroke-linecap="round" stroke-linejoin="round"/>
<path d="M19.9699 140.43C19.9699 140.43 14.9799 132.5 7.83989 132.5C3.35989 132.5 1.57989 135.83 0.879893 138.1C0.439893 139.53 0.379893 141.14 0.729893 142.62C1.29989 145 2.97989 148.36 7.96989 148.36C15.2799 148.36 19.9699 140.43 19.9699 140.43Z" stroke="black" stroke-linecap="round" stroke-linejoin="round"/>
<path d="M159.898 0.493493L19.9688 140.423L159.891 280.345L299.82 140.416L159.898 0.493493Z" stroke="black" stroke-linecap="round" stroke-linejoin="round"/>
<path d="M144.35 264.8L284.27 124.88" stroke="black" stroke-linecap="round" stroke-linejoin="round"/>
<path d="M128.8 249.26L268.72 109.33" stroke="black" stroke-linecap="round" stroke-linejoin="round"/>
<path d="M113.25 233.71L253.18 93.7803" stroke="black" stroke-linecap="round" stroke-linejoin="round"/>
<path d="M97.6997 218.16L237.63 78.2402" stroke="black" stroke-linecap="round" stroke-linejoin="round"/>
<path d="M82.1599 202.619L222.08 62.6895" stroke="black" stroke-linecap="round" stroke-linejoin="round"/>
<path d="M66.6099 187.07L206.54 47.1396" stroke="black" stroke-linecap="round" stroke-linejoin="round"/>
<path d="M51.0598 171.52L190.99 31.5898" stroke="black" stroke-linecap="round" stroke-linejoin="round"/>
<path d="M35.5098 155.97L175.44 16.0498" stroke="black" stroke-linecap="round" stroke-linejoin="round"/>
<path d="M144.35 16.0498L284.27 155.97" stroke="black" stroke-linecap="round" stroke-linejoin="round"/>
<path d="M128.8 31.5898L268.72 171.52" stroke="black" stroke-linecap="round" stroke-linejoin="round"/>
<path d="M113.25 47.1396L253.18 187.07" stroke="black" stroke-linecap="round" stroke-linejoin="round"/>
<path d="M97.6997 62.6895L237.63 202.619" stroke="black" stroke-linecap="round" stroke-linejoin="round"/>
<path d="M82.1599 78.2402L222.08 218.16" stroke="black" stroke-linecap="round" stroke-linejoin="round"/>
<path d="M66.6099 93.7803L206.54 233.71" stroke="black" stroke-linecap="round" stroke-linejoin="round"/>
<path d="M51.0598 109.33L190.99 249.26" stroke="black" stroke-linecap="round" stroke-linejoin="round"/>
<path d="M35.5098 124.88L175.44 264.8" stroke="black" stroke-linecap="round" stroke-linejoin="round"/>
</svg>
