<svg width="219" height="490" viewBox="0 0 219 490" fill="none" xmlns="http://www.w3.org/2000/svg">
<g clip-path="url(#clip0_755_1335)">
<path d="M95.0107 14.6617L124.005 0.768433" stroke="#231815" stroke-miterlimit="10" stroke-linecap="round"/>
<path d="M111.53 11.9568H124.005" stroke="#231815" stroke-miterlimit="10" stroke-linecap="round"/>
<path d="M107.485 3.45795H95.0107" stroke="#231815" stroke-miterlimit="10" stroke-linecap="round"/>
<path d="M95.0107 88.1087L124.005 74.2308" stroke="#231815" stroke-miterlimit="10" stroke-linecap="round"/>
<path d="M111.53 85.4192H124.005" stroke="#231815" stroke-miterlimit="10" stroke-linecap="round"/>
<path d="M107.485 76.9203H95.0107" stroke="#231815" stroke-miterlimit="10" stroke-linecap="round"/>
<path d="M95.0107 107.98L124.005 94.0872" stroke="#231815" stroke-miterlimit="10" stroke-linecap="round"/>
<path d="M111.53 105.276H124.005" stroke="#231815" stroke-miterlimit="10" stroke-linecap="round"/>
<path d="M107.485 96.792H95.0107" stroke="#231815" stroke-miterlimit="10" stroke-linecap="round"/>
<path d="M95.0107 127.852L124.005 113.959" stroke="#231815" stroke-miterlimit="10" stroke-linecap="round"/>
<path d="M111.53 125.147H124.005" stroke="#231815" stroke-miterlimit="10" stroke-linecap="round"/>
<path d="M107.485 116.664H95.0107" stroke="#231815" stroke-miterlimit="10" stroke-linecap="round"/>
<path d="M95.0107 451.594L124.005 437.716" stroke="#231815" stroke-miterlimit="10" stroke-linecap="round"/>
<path d="M111.53 448.904H124.005" stroke="#231815" stroke-miterlimit="10" stroke-linecap="round"/>
<path d="M107.485 440.405H95.0107" stroke="#231815" stroke-miterlimit="10" stroke-linecap="round"/>
<path d="M90.7495 169.855H90.3789C84.8364 169.855 80.3591 165.628 80.3591 160.418V159.496C80.3591 154.286 84.8518 150.06 90.3789 150.06H90.7495" stroke="#231815" stroke-linecap="round" stroke-linejoin="round"/>
<path d="M128.59 169.855H128.961C134.503 169.855 138.98 165.628 138.98 160.418V159.496C138.98 154.286 134.488 150.06 128.961 150.06H128.59" stroke="#231815" stroke-linecap="round" stroke-linejoin="round"/>
<path d="M120.546 160.203L105.632 147.263" stroke="#231815" stroke-linecap="round" stroke-linejoin="round"/>
<path d="M110.187 169.609L126.876 155.147" stroke="#231815" stroke-linecap="round" stroke-linejoin="round"/>
<path d="M98.793 159.711L113.707 172.652" stroke="#231815" stroke-linecap="round" stroke-linejoin="round"/>
<path d="M109.168 150.306L92.4785 164.768" stroke="#231815" stroke-linecap="round" stroke-linejoin="round"/>
<path d="M113.213 20.84V29.6616" stroke="#231815" stroke-linecap="round" stroke-linejoin="round"/>
<path d="M105.802 20.84V29.6616" stroke="#231815" stroke-linecap="round" stroke-linejoin="round"/>
<path d="M113.213 132.294V141.115" stroke="#231815" stroke-linecap="round" stroke-linejoin="round"/>
<path d="M105.802 132.294V141.115" stroke="#231815" stroke-linecap="round" stroke-linejoin="round"/>
<path d="M113.213 425.206V434.027" stroke="#231815" stroke-linecap="round" stroke-linejoin="round"/>
<path d="M105.802 425.206V434.027" stroke="#231815" stroke-linecap="round" stroke-linejoin="round"/>
<path d="M152.458 384.525L157.507 388.889C159.869 390.949 163.945 390.15 166.6 387.107L167.064 386.569C169.719 383.526 169.951 379.407 167.589 377.347L163.791 374.059" stroke="#231815" stroke-linecap="round" stroke-linejoin="round"/>
<path d="M110.835 239.029L125.07 225.612" stroke="#231815" stroke-linecap="round" stroke-linejoin="round"/>
<path d="M114.109 242.272L128.343 228.855" stroke="#231815" stroke-linecap="round" stroke-linejoin="round"/>
<path d="M116.409 232.605L102.931 218.435" stroke="#231815" stroke-linecap="round" stroke-linejoin="round"/>
<path d="M119.682 229.347L106.204 215.177" stroke="#231815" stroke-linecap="round" stroke-linejoin="round"/>
<path d="M112.395 248.327L98.9167 234.157" stroke="#231815" stroke-linecap="round" stroke-linejoin="round"/>
<path d="M115.668 245.069L102.19 230.899" stroke="#231815" stroke-linecap="round" stroke-linejoin="round"/>
<path d="M90.6724 234.357L104.907 220.94" stroke="#231815" stroke-linecap="round" stroke-linejoin="round"/>
<path d="M93.9299 237.615L108.165 224.198" stroke="#231815" stroke-linecap="round" stroke-linejoin="round"/>
<path d="M110.835 201.453L125.07 188.036" stroke="#231815" stroke-linecap="round" stroke-linejoin="round"/>
<path d="M114.109 204.696L128.343 191.279" stroke="#231815" stroke-linecap="round" stroke-linejoin="round"/>
<path d="M116.409 195.029L102.931 180.859" stroke="#231815" stroke-linecap="round" stroke-linejoin="round"/>
<path d="M119.682 191.771L106.204 177.601" stroke="#231815" stroke-linecap="round" stroke-linejoin="round"/>
<path d="M112.395 210.751L98.9167 196.581" stroke="#231815" stroke-linecap="round" stroke-linejoin="round"/>
<path d="M115.668 207.493L102.19 193.323" stroke="#231815" stroke-linecap="round" stroke-linejoin="round"/>
<path d="M90.6724 196.781L104.907 183.364" stroke="#231815" stroke-linecap="round" stroke-linejoin="round"/>
<path d="M93.9299 200.039L108.165 186.622" stroke="#231815" stroke-linecap="round" stroke-linejoin="round"/>
<path d="M110.835 277.128L125.07 263.711" stroke="#231815" stroke-linecap="round" stroke-linejoin="round"/>
<path d="M114.109 280.371L128.343 266.954" stroke="#231815" stroke-linecap="round" stroke-linejoin="round"/>
<path d="M116.409 270.704L102.931 256.534" stroke="#231815" stroke-linecap="round" stroke-linejoin="round"/>
<path d="M119.682 267.446L106.204 253.276" stroke="#231815" stroke-linecap="round" stroke-linejoin="round"/>
<path d="M112.395 286.426L98.9167 272.256" stroke="#231815" stroke-linecap="round" stroke-linejoin="round"/>
<path d="M115.668 283.168L102.19 268.998" stroke="#231815" stroke-linecap="round" stroke-linejoin="round"/>
<path d="M90.6724 272.456L104.907 259.039" stroke="#231815" stroke-linecap="round" stroke-linejoin="round"/>
<path d="M93.9299 275.714L108.165 262.297" stroke="#231815" stroke-linecap="round" stroke-linejoin="round"/>
<path d="M129.578 36.3623C129.578 30.0458 134.72 24.928 141.065 24.928C147.41 24.928 152.551 30.0458 152.551 36.3623" stroke="#231815" stroke-linecap="round" stroke-linejoin="round"/>
<path d="M152.104 66.9768C152.104 73.2933 146.962 78.4111 140.617 78.4111C134.272 78.4111 129.131 73.2933 129.131 66.9768" stroke="#231815" stroke-linecap="round" stroke-linejoin="round"/>
<path d="M161.135 39.0211C167.481 39.0211 172.622 44.1389 172.622 50.4554C172.622 56.772 167.481 61.8897 161.135 61.8897" stroke="#231815" stroke-linecap="round" stroke-linejoin="round"/>
<path d="M124.237 56.2341L141.682 41.1113" stroke="#231815" stroke-linecap="round" stroke-linejoin="round"/>
<path d="M136.912 34.5334L152.104 51.9001" stroke="#231815" stroke-linecap="round" stroke-linejoin="round"/>
<path d="M130.891 50.8089L146.082 68.1755" stroke="#231815" stroke-linecap="round" stroke-linejoin="round"/>
<path d="M141.219 62.5352L158.665 47.4124" stroke="#231815" stroke-linecap="round" stroke-linejoin="round"/>
<path d="M87.4767 36.3623C87.4767 30.0458 82.3355 24.928 75.9902 24.928C69.6448 24.928 64.5037 30.0458 64.5037 36.3623" stroke="#231815" stroke-linecap="round" stroke-linejoin="round"/>
<path d="M64.9514 66.9768C64.9514 73.2933 70.0925 78.4111 76.4379 78.4111C82.7833 78.4111 87.9244 73.2933 87.9244 66.9768" stroke="#231815" stroke-linecap="round" stroke-linejoin="round"/>
<path d="M55.9196 39.0211C49.5742 39.0211 44.4331 44.1389 44.4331 50.4554C44.4331 56.772 49.5742 61.8897 55.9196 61.8897" stroke="#231815" stroke-linecap="round" stroke-linejoin="round"/>
<path d="M91.3054 56.2341L108.751 41.1113" stroke="#231815" stroke-linecap="round" stroke-linejoin="round"/>
<path d="M103.981 34.5334L119.173 51.9001" stroke="#231815" stroke-linecap="round" stroke-linejoin="round"/>
<path d="M97.9751 50.8089L113.167 68.1755" stroke="#231815" stroke-linecap="round" stroke-linejoin="round"/>
<path d="M108.304 62.5352L125.75 47.4124" stroke="#231815" stroke-linecap="round" stroke-linejoin="round"/>
<path d="M57.7722 56.2341L75.2181 41.1113" stroke="#231815" stroke-linecap="round" stroke-linejoin="round"/>
<path d="M70.4475 34.5334L85.6393 51.9001" stroke="#231815" stroke-linecap="round" stroke-linejoin="round"/>
<path d="M64.4419 50.8089L79.6337 68.1755" stroke="#231815" stroke-linecap="round" stroke-linejoin="round"/>
<path d="M74.7705 62.5352L92.2164 47.4124" stroke="#231815" stroke-linecap="round" stroke-linejoin="round"/>
<path d="M109.499 293.691L45.2971 357.601L109.499 421.512L173.702 357.601L109.499 293.691Z" stroke="#231815" stroke-linecap="round" stroke-linejoin="round"/>
<path d="M96.6626 408.73L160.873 344.812" stroke="#231815" stroke-linecap="round" stroke-linejoin="round"/>
<path d="M83.8174 395.944L148.028 332.041" stroke="#231815" stroke-linecap="round" stroke-linejoin="round"/>
<path d="M70.9878 383.172L135.182 319.254" stroke="#231815" stroke-linecap="round" stroke-linejoin="round"/>
<path d="M58.1426 370.386L122.337 306.467" stroke="#231815" stroke-linecap="round" stroke-linejoin="round"/>
<path d="M96.6626 306.467L160.873 370.386" stroke="#231815" stroke-linecap="round" stroke-linejoin="round"/>
<path d="M83.8174 319.254L148.028 383.172" stroke="#231815" stroke-linecap="round" stroke-linejoin="round"/>
<path d="M70.9878 332.041L135.182 395.944" stroke="#231815" stroke-linecap="round" stroke-linejoin="round"/>
<path d="M58.1426 344.812L122.337 408.73" stroke="#231815" stroke-linecap="round" stroke-linejoin="round"/>
<path d="M125.348 302.717L192.6 235.771C194.591 233.788 198.636 234.603 201.647 237.585C204.642 240.566 205.46 244.608 203.468 246.591L136.217 313.537" stroke="#231815" stroke-linecap="round" stroke-linejoin="round"/>
<path d="M127.602 409.822L205.939 487.802C208.255 490.108 212.577 489.57 215.573 486.573C218.568 483.591 219.124 479.288 216.808 476.983L138.471 399.002" stroke="#231815" stroke-linecap="round" stroke-linejoin="round"/>
<path d="M150.081 328.952L197.725 281.524C199.146 280.11 202.712 281.401 205.723 284.382C208.718 287.364 210.015 290.929 208.594 292.343L160.95 339.771" stroke="#231815" stroke-linecap="round" stroke-linejoin="round"/>
<path d="M173.78 357.614C173.78 357.614 179.029 350.698 185.961 350.821C190.453 350.913 192.244 354.141 192.939 356.415C193.387 357.845 193.449 359.458 193.094 360.934C192.522 363.316 190.824 366.651 185.822 366.666C178.041 366.712 173.78 357.614 173.78 357.614Z" stroke="#231815" stroke-linecap="round" stroke-linejoin="round"/>
<path d="M66.5414 384.525L61.4929 388.889C59.1308 390.949 55.0549 390.15 52.3994 387.107L51.9362 386.569C49.2808 383.526 49.0492 379.407 51.4113 377.347L55.2093 374.059" stroke="#231815" stroke-linecap="round" stroke-linejoin="round"/>
<path d="M93.6519 302.717L26.4003 235.771C24.4087 233.788 20.3637 234.603 17.3531 237.585C14.358 240.566 13.5398 244.608 15.5314 246.591L82.783 313.537" stroke="#231815" stroke-linecap="round" stroke-linejoin="round"/>
<path d="M91.4134 409.822L13.0767 487.802C10.7609 490.108 6.438 489.57 3.44287 486.573C0.447733 483.591 -0.108066 479.288 2.20776 476.983L80.5445 399.002" stroke="#231815" stroke-linecap="round" stroke-linejoin="round"/>
<path d="M68.9191 328.952L21.2748 281.524C19.8544 280.11 16.2881 281.401 13.2775 284.382C10.2824 287.364 8.9855 290.929 10.4059 292.343L58.0501 339.771" stroke="#231815" stroke-linecap="round" stroke-linejoin="round"/>
<path d="M45.2359 357.614C45.2359 357.614 39.9867 350.698 33.0547 350.821C28.562 350.913 26.7711 354.141 26.0763 356.415C25.6286 357.845 25.5668 359.458 25.9219 360.934C26.4932 363.316 28.1914 366.651 33.1936 366.666C40.9748 366.712 45.2359 357.614 45.2359 357.614Z" stroke="#231815" stroke-linecap="round" stroke-linejoin="round"/>
</g>
<defs>
<clipPath id="clip0_755_1335">
<rect width="219" height="490" fill="white"/>
</clipPath>
</defs>
</svg>
