<svg width="265" height="474" viewBox="0 0 265 474" fill="none" xmlns="http://www.w3.org/2000/svg">
<g clip-path="url(#clip0_755_888)">
<path d="M118.031 14.6807L146.969 0.769409" stroke="#231815" stroke-miterlimit="10" stroke-linecap="round"/>
<path d="M134.519 11.9723H146.969" stroke="#231815" stroke-miterlimit="10" stroke-linecap="round"/>
<path d="M130.481 3.4624H118.031" stroke="#231815" stroke-miterlimit="10" stroke-linecap="round"/>
<path d="M118.031 133.773L146.969 119.877" stroke="#231815" stroke-miterlimit="10" stroke-linecap="round"/>
<path d="M134.519 131.08H146.969" stroke="#231815" stroke-miterlimit="10" stroke-linecap="round"/>
<path d="M130.481 122.57H118.031" stroke="#231815" stroke-miterlimit="10" stroke-linecap="round"/>
<path d="M118.031 208.254L146.969 194.343" stroke="#231815" stroke-miterlimit="10" stroke-linecap="round"/>
<path d="M134.519 205.546H146.969" stroke="#231815" stroke-miterlimit="10" stroke-linecap="round"/>
<path d="M130.481 197.051H118.031" stroke="#231815" stroke-miterlimit="10" stroke-linecap="round"/>
<path d="M118.031 376.236L146.969 362.325" stroke="#231815" stroke-miterlimit="10" stroke-linecap="round"/>
<path d="M134.519 373.528H146.969" stroke="#231815" stroke-miterlimit="10" stroke-linecap="round"/>
<path d="M130.481 365.033H118.031" stroke="#231815" stroke-miterlimit="10" stroke-linecap="round"/>
<path d="M118.031 228.336L146.969 214.425" stroke="#231815" stroke-miterlimit="10" stroke-linecap="round"/>
<path d="M134.519 225.628H146.969" stroke="#231815" stroke-miterlimit="10" stroke-linecap="round"/>
<path d="M130.481 217.133H118.031" stroke="#231815" stroke-miterlimit="10" stroke-linecap="round"/>
<path d="M118.031 395.734L146.969 381.822" stroke="#231815" stroke-miterlimit="10" stroke-linecap="round"/>
<path d="M134.519 393.025H146.969" stroke="#231815" stroke-miterlimit="10" stroke-linecap="round"/>
<path d="M130.481 384.531H118.031" stroke="#231815" stroke-miterlimit="10" stroke-linecap="round"/>
<path d="M118.031 473.231L146.969 459.335" stroke="#231815" stroke-miterlimit="10" stroke-linecap="round"/>
<path d="M134.519 470.537H146.969" stroke="#231815" stroke-miterlimit="10" stroke-linecap="round"/>
<path d="M130.481 462.028H118.031" stroke="#231815" stroke-miterlimit="10" stroke-linecap="round"/>
<path d="M145.474 239.216L212.071 181.293C215.122 178.646 219.729 178.97 222.379 182.001L222.842 182.54C225.492 185.587 225.168 190.188 222.133 192.835L157.139 249.357" stroke="#231815" stroke-linecap="round" stroke-linejoin="round"/>
<path d="M119.541 239.216L52.9445 181.293C49.8935 178.646 45.2863 178.97 42.636 182.001L42.1738 182.54C39.5234 185.587 39.847 190.188 42.8826 192.835L107.877 249.357" stroke="#231815" stroke-linecap="round" stroke-linejoin="round"/>
<path d="M165.49 256.559L171.977 250.927C175.028 248.28 179.635 248.603 182.286 251.635L182.748 252.173C185.398 255.22 185.075 259.821 182.039 262.468L177.17 266.716" stroke="#231815" stroke-linecap="round" stroke-linejoin="round"/>
<path d="M185.275 273.871L187.232 272.178C190.283 269.532 194.89 269.855 197.541 272.886L198.003 273.425C200.653 276.472 200.33 281.073 197.294 283.72L196.955 284.012" stroke="#231815" stroke-linecap="round" stroke-linejoin="round"/>
<path d="M144.812 352.261L211.408 410.183C214.459 412.83 219.066 412.507 221.717 409.476L222.179 408.937C224.829 405.89 224.506 401.289 221.47 398.642L156.476 342.12" stroke="#231815" stroke-linecap="round" stroke-linejoin="round"/>
<path d="M185.059 316.913L251.656 374.836C254.707 377.483 259.314 377.159 261.964 374.128L262.427 373.589C265.077 370.542 264.753 365.941 261.718 363.294L196.724 306.772" stroke="#231815" stroke-linecap="round" stroke-linejoin="round"/>
<path d="M165.49 334.102L171.977 339.734C175.028 342.381 179.635 342.058 182.286 339.027L182.748 338.488C185.398 335.441 185.075 330.84 182.039 328.193L177.17 323.946" stroke="#231815" stroke-linecap="round" stroke-linejoin="round"/>
<path d="M99.5098 256.559L93.0227 250.927C89.9718 248.28 85.3646 248.603 82.7143 251.635L82.252 252.173C79.6017 255.22 79.9253 259.821 82.9608 262.468L87.83 266.716" stroke="#231815" stroke-linecap="round" stroke-linejoin="round"/>
<path d="M79.7404 273.871L77.7835 272.178C74.7325 269.532 70.1253 269.855 67.475 272.886L67.0127 273.425C64.3624 276.472 64.686 281.073 67.7215 283.72L68.0605 284.012" stroke="#231815" stroke-linecap="round" stroke-linejoin="round"/>
<path d="M120.188 352.261L53.5917 410.183C50.5408 412.83 45.9335 412.507 43.2832 409.476L42.821 408.937C40.1707 405.89 40.4942 401.289 43.5298 398.642L108.524 342.12" stroke="#231815" stroke-linecap="round" stroke-linejoin="round"/>
<path d="M79.9561 316.913L13.3594 374.836C10.3085 377.483 5.70124 377.159 3.05093 374.128L2.58867 373.589C-0.0616373 370.542 0.261947 365.941 3.29747 363.294L68.2916 306.772" stroke="#231815" stroke-linecap="round" stroke-linejoin="round"/>
<path d="M99.5098 334.102L93.0227 339.734C89.9718 342.381 85.3646 342.058 82.7143 339.027L82.252 338.488C79.6017 335.441 79.9253 330.84 82.9608 328.193L87.83 323.946" stroke="#231815" stroke-linecap="round" stroke-linejoin="round"/>
<path d="M61.8662 295.323L132.5 233.876L203.134 295.323L132.5 356.785L61.8662 295.323Z" stroke="#231815" stroke-miterlimit="10" stroke-linecap="round"/>
<path d="M122.407 347.998L193.041 286.551" stroke="#231815" stroke-miterlimit="10" stroke-linecap="round"/>
<path d="M112.315 339.227L182.948 277.764" stroke="#231815" stroke-miterlimit="10" stroke-linecap="round"/>
<path d="M102.222 330.44L172.871 268.993" stroke="#231815" stroke-miterlimit="10" stroke-linecap="round"/>
<path d="M92.129 321.668L162.778 260.221" stroke="#231815" stroke-miterlimit="10" stroke-linecap="round"/>
<path d="M82.0516 312.881L152.685 251.434" stroke="#231815" stroke-miterlimit="10" stroke-linecap="round"/>
<path d="M71.959 304.11L142.593 242.663" stroke="#231815" stroke-miterlimit="10" stroke-linecap="round"/>
<path d="M122.407 242.663L193.041 304.11" stroke="#231815" stroke-miterlimit="10" stroke-linecap="round"/>
<path d="M112.315 251.434L182.948 312.881" stroke="#231815" stroke-miterlimit="10" stroke-linecap="round"/>
<path d="M102.222 260.221L172.871 321.668" stroke="#231815" stroke-miterlimit="10" stroke-linecap="round"/>
<path d="M92.129 268.993L162.778 330.44" stroke="#231815" stroke-miterlimit="10" stroke-linecap="round"/>
<path d="M82.0516 277.764L152.685 339.227" stroke="#231815" stroke-miterlimit="10" stroke-linecap="round"/>
<path d="M71.959 286.551L142.593 347.998" stroke="#231815" stroke-miterlimit="10" stroke-linecap="round"/>
<path d="M113.609 176.046H113.239C107.707 176.046 103.239 171.814 103.239 166.597V165.674C103.239 160.457 107.723 156.225 113.239 156.225H113.609" stroke="#231815" stroke-linecap="round" stroke-linejoin="round"/>
<path d="M151.391 176.046H151.761C157.293 176.046 161.761 171.814 161.761 166.597V165.674C161.761 160.457 157.277 156.225 151.761 156.225H151.391" stroke="#231815" stroke-linecap="round" stroke-linejoin="round"/>
<path d="M143.363 166.366L128.478 153.409" stroke="#231815" stroke-linecap="round" stroke-linejoin="round"/>
<path d="M133.008 175.8L149.665 161.319" stroke="#231815" stroke-linecap="round" stroke-linejoin="round"/>
<path d="M121.652 165.889L136.537 178.846" stroke="#231815" stroke-linecap="round" stroke-linejoin="round"/>
<path d="M131.991 156.456L115.335 170.937" stroke="#231815" stroke-linecap="round" stroke-linejoin="round"/>
<path d="M113.609 437.76H113.239C107.707 437.76 103.239 433.528 103.239 428.311V427.388C103.239 422.171 107.723 417.939 113.239 417.939H113.609" stroke="#231815" stroke-linecap="round" stroke-linejoin="round"/>
<path d="M151.391 437.76H151.761C157.293 437.76 161.761 433.528 161.761 428.311V427.388C161.761 422.171 157.277 417.939 151.761 417.939H151.391" stroke="#231815" stroke-linecap="round" stroke-linejoin="round"/>
<path d="M143.363 428.08L128.478 415.123" stroke="#231815" stroke-linecap="round" stroke-linejoin="round"/>
<path d="M133.008 437.514L149.665 423.033" stroke="#231815" stroke-linecap="round" stroke-linejoin="round"/>
<path d="M121.652 427.603L136.537 440.561" stroke="#231815" stroke-linecap="round" stroke-linejoin="round"/>
<path d="M131.991 418.17L115.335 432.651" stroke="#231815" stroke-linecap="round" stroke-linejoin="round"/>
<path d="M136.198 20.8669V29.7" stroke="#231815" stroke-linecap="round" stroke-linejoin="round"/>
<path d="M128.802 20.8669V29.7" stroke="#231815" stroke-linecap="round" stroke-linejoin="round"/>
<path d="M136.198 107.397V116.23" stroke="#231815" stroke-linecap="round" stroke-linejoin="round"/>
<path d="M128.802 107.397V116.23" stroke="#231815" stroke-linecap="round" stroke-linejoin="round"/>
<path d="M136.198 139.175V148.023" stroke="#231815" stroke-linecap="round" stroke-linejoin="round"/>
<path d="M128.802 139.175V148.023" stroke="#231815" stroke-linecap="round" stroke-linejoin="round"/>
<path d="M136.198 182.17V191.003" stroke="#231815" stroke-linecap="round" stroke-linejoin="round"/>
<path d="M128.802 182.17V191.003" stroke="#231815" stroke-linecap="round" stroke-linejoin="round"/>
<path d="M136.198 401.32V410.168" stroke="#231815" stroke-linecap="round" stroke-linejoin="round"/>
<path d="M128.802 401.32V410.168" stroke="#231815" stroke-linecap="round" stroke-linejoin="round"/>
<path d="M136.198 445.516V454.364" stroke="#231815" stroke-linecap="round" stroke-linejoin="round"/>
<path d="M128.802 445.516V454.364" stroke="#231815" stroke-linecap="round" stroke-linejoin="round"/>
<path d="M132.5 100.241L94.5482 67.2328L132.5 34.2089L170.467 67.2328L132.5 100.241Z" stroke="#231815" stroke-miterlimit="10" stroke-linecap="round"/>
<path d="M144.919 89.4232L106.968 56.4146" stroke="#231815" stroke-miterlimit="10" stroke-linecap="round"/>
<path d="M120.081 89.4232L158.048 56.4146" stroke="#231815" stroke-miterlimit="10" stroke-linecap="round"/>
<path d="M157.431 78.5743L119.464 45.5503" stroke="#231815" stroke-miterlimit="10" stroke-linecap="round"/>
<path d="M107.569 78.5743L145.536 45.5503" stroke="#231815" stroke-miterlimit="10" stroke-linecap="round"/>
<path d="M148.51 42.5956L154.997 36.9634C158.048 34.3166 162.655 34.6397 165.305 37.6713L165.768 38.2099C168.418 41.2568 168.094 45.858 165.059 48.5049L160.19 52.7521" stroke="#231815" stroke-linecap="round" stroke-linejoin="round"/>
<path d="M212.78 106.243L215.738 108.751C219.976 112.321 221.07 122.94 211.855 128.833C198.804 137.174 185.953 124.925 185.953 124.925L147.986 91.9161" stroke="#231815" stroke-miterlimit="10" stroke-linecap="round"/>
<path d="M211.526 106.84L212.265 105.993C216.16 101.526 215.692 94.7508 211.219 90.8606L196.856 78.3696C192.383 74.4794 185.599 74.9472 181.703 79.4145L180.965 80.2617C177.069 84.729 177.538 91.5041 182.011 95.3943L196.374 107.885C200.847 111.775 207.631 111.308 211.526 106.84Z" stroke="#231815" stroke-linecap="round" stroke-linejoin="round"/>
<path d="M195.691 77.6201L186.924 99.672" stroke="#231815" stroke-linecap="round" stroke-linejoin="round"/>
<path d="M179.99 92.901L203.812 84.5912" stroke="#231815" stroke-linecap="round" stroke-linejoin="round"/>
<path d="M205.384 86.4071L196.832 108.09" stroke="#231815" stroke-linecap="round" stroke-linejoin="round"/>
<path d="M189.436 101.688L213.273 93.4551" stroke="#231815" stroke-linecap="round" stroke-linejoin="round"/>
<path d="M116.49 42.5956L110.003 36.9634C106.952 34.3166 102.345 34.6397 99.6947 37.6713L99.2325 38.2099C96.5822 41.2568 96.9057 45.858 99.9413 48.5049L104.81 52.7521" stroke="#231815" stroke-linecap="round" stroke-linejoin="round"/>
<path d="M52.2203 106.243L49.2618 108.751C45.0244 112.322 43.9304 122.94 53.1448 128.834C66.1961 137.174 79.047 124.925 79.047 124.925L117.014 91.9163" stroke="#231815" stroke-miterlimit="10" stroke-linecap="round"/>
<path d="M84.021 80.2652L83.2823 79.418C79.387 74.9507 72.603 74.4829 68.1299 78.3731L53.7672 90.8641C49.294 94.7543 48.8256 101.529 52.7209 105.997L53.4596 106.844C57.3549 111.311 64.1389 111.779 68.612 107.889L82.9748 95.3978C87.4479 91.5076 87.9163 84.7325 84.021 80.2652Z" stroke="#231815" stroke-linecap="round" stroke-linejoin="round"/>
<path d="M69.3086 77.6202L78.0762 99.6721" stroke="#231815" stroke-linecap="round" stroke-linejoin="round"/>
<path d="M85.0256 92.9012L61.1882 84.5913" stroke="#231815" stroke-linecap="round" stroke-linejoin="round"/>
<path d="M59.632 86.4071L68.1838 108.09" stroke="#231815" stroke-linecap="round" stroke-linejoin="round"/>
<path d="M75.5801 101.688L51.7273 93.4551" stroke="#231815" stroke-linecap="round" stroke-linejoin="round"/>
</g>
<defs>
<clipPath id="clip0_755_888">
<rect width="265" height="474" fill="white"/>
</clipPath>
</defs>
</svg>
