<svg width="63" height="44" viewBox="0 0 63 44" fill="none" xmlns="http://www.w3.org/2000/svg">
<g clip-path="url(#clip0_753_18338)">
<path d="M24.9 10.47H48.28" stroke="#231815" stroke-miterlimit="10" stroke-linecap="round"/>
<path d="M31.54 0.5L16.58 22.12" stroke="#231815" stroke-miterlimit="10" stroke-linecap="round"/>
<path d="M9.48999 12.03L24.06 32.75" stroke="#231815" stroke-miterlimit="10" stroke-linecap="round"/>
<path d="M16.25 38.79C14.27 40.9 11.3 41.99 8.24 41.44C3.44 40.58 0.239997 35.98 1.11 31.18C1.98 26.38 6.57 23.18 11.37 24.05" stroke="#231815" stroke-miterlimit="10" stroke-linecap="round"/>
<path d="M5.8 20.3999C3.15 19.2399 1.12 16.8099 0.620001 13.7399C-0.179999 8.92995 3.08 4.37995 7.9 3.57995C12.71 2.78995 17.26 6.03995 18.06 10.8599" stroke="#231815" stroke-miterlimit="10" stroke-linecap="round"/>
<path d="M37.27 32.9399H13.89" stroke="#231815" stroke-miterlimit="10" stroke-linecap="round"/>
<path d="M30.62 42.92L45.58 21.3" stroke="#231815" stroke-miterlimit="10" stroke-linecap="round"/>
<path d="M52.67 31.39L38.1 10.67" stroke="#231815" stroke-miterlimit="10" stroke-linecap="round"/>
<path d="M45.92 4.63003C47.9 2.52003 50.87 1.43003 53.93 1.98003C58.73 2.84003 61.93 7.44003 61.06 12.24C60.19 17.04 55.6 20.24 50.8 19.37" stroke="#231815" stroke-miterlimit="10" stroke-linecap="round"/>
<path d="M56.36 23.02C59.01 24.18 61.04 26.61 61.54 29.68C62.33 34.49 59.08 39.04 54.26 39.84C49.45 40.63 44.9 37.38 44.1 32.56" stroke="#231815" stroke-miterlimit="10" stroke-linecap="round"/>
</g>
<defs>
<clipPath id="clip0_753_18338">
<rect width="62.17" height="43.42" fill="white"/>
</clipPath>
</defs>
</svg>
