<svg width="199" height="95" viewBox="0 0 199 95" fill="none" xmlns="http://www.w3.org/2000/svg">
<g clip-path="url(#clip0_753_18351)">
<path d="M99.2657 0.705761L52.7947 47.1768L99.2657 93.6479L145.737 47.1768L99.2657 0.705761Z" stroke="#231815" stroke-miterlimit="10" stroke-linecap="round"/>
<path d="M68.2899 31.69L114.76 78.16" stroke="#231815" stroke-miterlimit="10" stroke-linecap="round"/>
<path d="M83.7799 16.2L130.25 62.67" stroke="#231815" stroke-miterlimit="10" stroke-linecap="round"/>
<path d="M130.25 31.69L83.7799 78.16" stroke="#231815" stroke-miterlimit="10" stroke-linecap="round"/>
<path d="M114.76 16.2L68.2899 62.67" stroke="#231815" stroke-miterlimit="10" stroke-linecap="round"/>
<path d="M117.52 15.64L118.29 14.87C121.96 11.2 127.91 11.2 131.59 14.87C135.26 18.54 135.26 24.49 131.59 28.17L130.82 28.94" stroke="#231815" stroke-linecap="round" stroke-linejoin="round"/>
<path d="M117.52 78.72L118.29 79.49C121.96 83.16 127.91 83.16 131.59 79.49C135.26 75.82 135.26 69.87 131.59 66.19L130.82 65.42" stroke="#231815" stroke-linecap="round" stroke-linejoin="round"/>
<path d="M81.02 15.64L80.25 14.87C76.58 11.2 70.63 11.2 66.95 14.87C63.28 18.54 63.28 24.49 66.95 28.17L67.72 28.94" stroke="#231815" stroke-linecap="round" stroke-linejoin="round"/>
<path d="M81.02 78.72L80.25 79.49C76.58 83.16 70.63 83.16 66.95 79.49C63.28 75.82 63.28 69.87 66.95 66.19L67.72 65.42" stroke="#231815" stroke-linecap="round" stroke-linejoin="round"/>
<path d="M44.26 31.52C44.26 25.07 39.03 19.85 32.59 19.85C26.14 19.85 20.92 25.08 20.92 31.52" stroke="#231815" stroke-linecap="round" stroke-linejoin="round"/>
<path d="M21.36 62.8C21.36 69.25 26.59 74.47 33.03 74.47C39.48 74.47 44.7 69.24 44.7 62.8" stroke="#231815" stroke-linecap="round" stroke-linejoin="round"/>
<path d="M12.17 34.24C5.72 34.24 0.5 39.47 0.5 45.91C0.5 52.36 5.73 57.58 12.17 57.58" stroke="#231815" stroke-linecap="round" stroke-linejoin="round"/>
<path d="M14.0699 51.83L31.8099 36.38" stroke="#231815" stroke-linecap="round" stroke-linejoin="round"/>
<path d="M26.96 29.66L42.41 47.4" stroke="#231815" stroke-linecap="round" stroke-linejoin="round"/>
<path d="M20.84 46.28L36.29 64.02" stroke="#231815" stroke-linecap="round" stroke-linejoin="round"/>
<path d="M31.34 58.26L49.08 42.81" stroke="#231815" stroke-linecap="round" stroke-linejoin="round"/>
<path d="M154.28 31.52C154.28 25.07 159.51 19.85 165.95 19.85C172.4 19.85 177.62 25.08 177.62 31.52" stroke="#231815" stroke-linecap="round" stroke-linejoin="round"/>
<path d="M177.17 62.8C177.17 69.25 171.94 74.47 165.5 74.47C159.05 74.47 153.83 69.24 153.83 62.8" stroke="#231815" stroke-linecap="round" stroke-linejoin="round"/>
<path d="M186.36 34.24C192.81 34.24 198.03 39.47 198.03 45.91C198.03 52.36 192.8 57.58 186.36 57.58" stroke="#231815" stroke-linecap="round" stroke-linejoin="round"/>
<path d="M184.47 51.83L166.73 36.38" stroke="#231815" stroke-linecap="round" stroke-linejoin="round"/>
<path d="M171.58 29.66L156.13 47.4" stroke="#231815" stroke-linecap="round" stroke-linejoin="round"/>
<path d="M177.69 46.28L162.24 64.02" stroke="#231815" stroke-linecap="round" stroke-linejoin="round"/>
<path d="M167.19 58.26L149.45 42.81" stroke="#231815" stroke-linecap="round" stroke-linejoin="round"/>
</g>
<defs>
<clipPath id="clip0_753_18351">
<rect width="198.53" height="94.36" fill="white"/>
</clipPath>
</defs>
</svg>
