<svg width="258" height="219" viewBox="0 0 258 219" fill="none" xmlns="http://www.w3.org/2000/svg">
<g clip-path="url(#clip0_753_18292)">
<path d="M147.96 14.0801L152.16 9.88006C155.83 6.21006 161.78 6.21006 165.46 9.88006C169.13 13.5501 169.13 19.5001 165.46 23.1801L161.26 27.3801" stroke="#231815" stroke-linecap="round" stroke-linejoin="round"/>
<path d="M179.17 45.29L183.37 41.09C187.04 37.42 192.99 37.42 196.67 41.09C200.34 44.76 200.34 50.71 196.67 54.39L192.47 58.59" stroke="#231815" stroke-linecap="round" stroke-linejoin="round"/>
<path d="M210.32 76.4401L214.52 72.24C218.19 68.57 224.14 68.57 227.82 72.24C231.49 75.91 231.49 81.8601 227.82 85.5401L223.62 89.74" stroke="#231815" stroke-linecap="round" stroke-linejoin="round"/>
<path d="M147.96 204.49L152.16 208.69C155.83 212.36 161.78 212.36 165.46 208.69C169.13 205.02 169.13 199.07 165.46 195.39L161.26 191.19" stroke="#231815" stroke-linecap="round" stroke-linejoin="round"/>
<path d="M179.17 173.28L183.37 177.48C187.04 181.15 192.99 181.15 196.67 177.48C200.34 173.81 200.34 167.86 196.67 164.18L192.47 159.98" stroke="#231815" stroke-linecap="round" stroke-linejoin="round"/>
<path d="M210.32 142.13L214.52 146.33C218.19 150 224.14 150 227.82 146.33C231.49 142.66 231.49 136.71 227.82 133.03L223.62 128.83" stroke="#231815" stroke-linecap="round" stroke-linejoin="round"/>
<path d="M109.42 14.0801L105.22 9.88006C101.55 6.21006 95.6 6.21006 91.92 9.88006C88.25 13.5501 88.25 19.5001 91.92 23.1801L96.12 27.3801" stroke="#231815" stroke-linecap="round" stroke-linejoin="round"/>
<path d="M78.2 45.29L74 41.09C70.33 37.42 64.38 37.42 60.7 41.09C57.03 44.76 57.03 50.71 60.7 54.39L64.9 58.59" stroke="#231815" stroke-linecap="round" stroke-linejoin="round"/>
<path d="M47.06 76.4401L42.86 72.24C39.19 68.57 33.24 68.57 29.56 72.24C25.89 75.91 25.89 81.8601 29.56 85.5401L33.76 89.74" stroke="#231815" stroke-linecap="round" stroke-linejoin="round"/>
<path d="M109.42 204.49L105.22 208.69C101.55 212.36 95.6 212.36 91.92 208.69C88.25 205.02 88.25 199.07 91.92 195.39L96.12 191.19" stroke="#231815" stroke-linecap="round" stroke-linejoin="round"/>
<path d="M78.2 173.28L74 177.48C70.33 181.15 64.38 181.15 60.7 177.48C57.03 173.81 57.03 167.86 60.7 164.18L64.9 159.98" stroke="#231815" stroke-linecap="round" stroke-linejoin="round"/>
<path d="M47.06 142.13L42.86 146.33C39.19 150 33.24 150 29.56 146.33C25.89 142.66 25.89 136.71 29.56 133.03L33.76 128.83" stroke="#231815" stroke-linecap="round" stroke-linejoin="round"/>
<path d="M237.47 109.29C237.47 109.29 242.45 101.38 249.56 101.38C254.02 101.38 255.8 104.7 256.49 106.96C256.93 108.39 256.99 109.99 256.64 111.47C256.07 113.84 254.39 117.2 249.42 117.2C242.14 117.2 237.46 109.29 237.46 109.29H237.47Z" stroke="#231815" stroke-linecap="round" stroke-linejoin="round"/>
<path d="M19.9 109.29C19.9 109.29 14.92 101.38 7.81001 101.38C3.35001 101.38 1.57001 104.7 0.880015 106.96C0.440015 108.39 0.380015 109.99 0.730015 111.47C1.30001 113.84 2.98001 117.2 7.95001 117.2C15.23 117.2 19.91 109.29 19.91 109.29H19.9Z" stroke="#231815" stroke-linecap="round" stroke-linejoin="round"/>
<path d="M128.697 0.496664L19.9089 109.285L128.697 218.073L237.486 109.285L128.697 0.496664Z" stroke="#231815" stroke-linecap="round" stroke-linejoin="round"/>
<path d="M35.4401 93.74L144.23 202.53" stroke="#231815" stroke-linecap="round" stroke-linejoin="round"/>
<path d="M50.98 78.2L159.77 186.99" stroke="#231815" stroke-linecap="round" stroke-linejoin="round"/>
<path d="M66.53 62.66L175.31 171.45" stroke="#231815" stroke-linecap="round" stroke-linejoin="round"/>
<path d="M82.0701 47.12L190.85 155.91" stroke="#231815" stroke-linecap="round" stroke-linejoin="round"/>
<path d="M97.6101 31.5801L206.39 140.37" stroke="#231815" stroke-linecap="round" stroke-linejoin="round"/>
<path d="M113.15 16.04L221.93 124.83" stroke="#231815" stroke-linecap="round" stroke-linejoin="round"/>
<path d="M221.93 93.75L113.15 202.53" stroke="#231815" stroke-linecap="round" stroke-linejoin="round"/>
<path d="M206.39 78.2L97.6101 186.99" stroke="#231815" stroke-linecap="round" stroke-linejoin="round"/>
<path d="M190.85 62.66L82.0701 171.45" stroke="#231815" stroke-linecap="round" stroke-linejoin="round"/>
<path d="M175.31 47.12L66.53 155.91" stroke="#231815" stroke-linecap="round" stroke-linejoin="round"/>
<path d="M159.77 31.5801L50.9901 140.37" stroke="#231815" stroke-linecap="round" stroke-linejoin="round"/>
<path d="M144.23 16.04L35.4401 124.83" stroke="#231815" stroke-linecap="round" stroke-linejoin="round"/>
</g>
<defs>
<clipPath id="clip0_753_18292">
<rect width="257.38" height="218.57" fill="white"/>
</clipPath>
</defs>
</svg>
