<svg width="320" height="509" viewBox="0 0 320 509" fill="none" xmlns="http://www.w3.org/2000/svg">
<g clip-path="url(#clip0_755_1015)">
<path d="M145.575 79.9372L174.61 65.9895" stroke="#231815" stroke-miterlimit="10" stroke-linecap="round"/>
<path d="M162.118 77.2218H174.61" stroke="#231815" stroke-miterlimit="10" stroke-linecap="round"/>
<path d="M158.067 68.705H145.575" stroke="#231815" stroke-miterlimit="10" stroke-linecap="round"/>
<path d="M145.575 178.25L174.61 164.302" stroke="#231815" stroke-miterlimit="10" stroke-linecap="round"/>
<path d="M162.118 175.535H174.61" stroke="#231815" stroke-miterlimit="10" stroke-linecap="round"/>
<path d="M158.067 167.018H145.575" stroke="#231815" stroke-miterlimit="10" stroke-linecap="round"/>
<path d="M145.575 337.77L174.61 323.838" stroke="#231815" stroke-miterlimit="10" stroke-linecap="round"/>
<path d="M162.118 335.07H174.61" stroke="#231815" stroke-miterlimit="10" stroke-linecap="round"/>
<path d="M158.067 326.538H145.575" stroke="#231815" stroke-miterlimit="10" stroke-linecap="round"/>
<path d="M145.575 435.589L174.61 421.641" stroke="#231815" stroke-miterlimit="10" stroke-linecap="round"/>
<path d="M162.118 432.874H174.61" stroke="#231815" stroke-miterlimit="10" stroke-linecap="round"/>
<path d="M158.067 424.357H145.575" stroke="#231815" stroke-miterlimit="10" stroke-linecap="round"/>
<path d="M145.575 508.229L174.61 494.296" stroke="#231815" stroke-miterlimit="10" stroke-linecap="round"/>
<path d="M162.118 505.528H174.61" stroke="#231815" stroke-miterlimit="10" stroke-linecap="round"/>
<path d="M158.067 496.996H145.575" stroke="#231815" stroke-miterlimit="10" stroke-linecap="round"/>
<path d="M145.575 14.7192L174.61 0.771423" stroke="#231815" stroke-miterlimit="10" stroke-linecap="round"/>
<path d="M162.118 12.0037H174.61" stroke="#231815" stroke-miterlimit="10" stroke-linecap="round"/>
<path d="M158.067 3.4715H145.575" stroke="#231815" stroke-miterlimit="10" stroke-linecap="round"/>
<path d="M163.803 440.372V449.228" stroke="#231815" stroke-linecap="round" stroke-linejoin="round"/>
<path d="M156.382 440.372V449.228" stroke="#231815" stroke-linecap="round" stroke-linejoin="round"/>
<path d="M160.104 184.929L93.8877 251.01L160.104 317.092L226.32 251.01L160.104 184.929Z" stroke="#231815" stroke-linecap="round" stroke-linejoin="round"/>
<path d="M146.859 303.888L213.076 237.806" stroke="#231815" stroke-linecap="round" stroke-linejoin="round"/>
<path d="M133.609 290.665L199.826 224.583" stroke="#231815" stroke-linecap="round" stroke-linejoin="round"/>
<path d="M120.359 277.458L186.576 211.376" stroke="#231815" stroke-linecap="round" stroke-linejoin="round"/>
<path d="M107.125 264.236L173.342 198.154" stroke="#231815" stroke-linecap="round" stroke-linejoin="round"/>
<path d="M146.859 198.154L213.076 264.236" stroke="#231815" stroke-linecap="round" stroke-linejoin="round"/>
<path d="M133.609 211.376L199.826 277.458" stroke="#231815" stroke-linecap="round" stroke-linejoin="round"/>
<path d="M120.359 224.583L186.576 290.665" stroke="#231815" stroke-linecap="round" stroke-linejoin="round"/>
<path d="M107.125 237.806L173.342 303.888" stroke="#231815" stroke-linecap="round" stroke-linejoin="round"/>
<path d="M177.594 195.238L184.103 189.591C187.164 186.937 191.787 187.261 194.446 190.3L194.91 190.84C197.569 193.895 197.244 198.508 194.198 201.162L189.313 205.421" stroke="#231815" stroke-linecap="round" stroke-linejoin="round"/>
<path d="M179.959 306.773L186.468 312.42C189.529 315.074 194.152 314.75 196.811 311.71L197.275 311.17C199.934 308.115 199.61 303.502 196.564 300.848L191.678 296.59" stroke="#231815" stroke-linecap="round" stroke-linejoin="round"/>
<path d="M204.727 222.855L306.086 121.703C309.085 118.71 313.97 118.71 316.97 121.703C319.969 124.696 319.969 129.572 316.97 132.565L215.611 233.717" stroke="#231815" stroke-linecap="round" stroke-linejoin="round"/>
<path d="M204.727 278.23L306.086 379.382C309.085 382.375 313.97 382.375 316.97 379.382C319.969 376.388 319.969 371.513 316.97 368.52L215.611 267.368" stroke="#231815" stroke-linecap="round" stroke-linejoin="round"/>
<path d="M226.31 251.013C226.31 251.013 241.848 235.862 262.364 236.155C275.675 236.34 280.962 243.438 283.034 248.39C284.348 251.522 284.534 255.04 283.482 258.265C281.797 263.464 276.788 270.762 261.977 270.824C238.941 270.916 226.325 250.998 226.325 250.998L226.31 251.013Z" stroke="#231815" stroke-linecap="round" stroke-linejoin="round"/>
<path d="M142.406 195.238L135.897 189.591C132.836 186.937 128.213 187.261 125.554 190.3L125.09 190.84C122.431 193.895 122.756 198.508 125.802 201.162L130.687 205.421" stroke="#231815" stroke-linecap="round" stroke-linejoin="round"/>
<path d="M140.025 306.773L133.516 312.42C130.455 315.074 125.833 314.75 123.173 311.71L122.71 311.17C120.05 308.115 120.375 303.502 123.421 300.848L128.306 296.59" stroke="#231815" stroke-linecap="round" stroke-linejoin="round"/>
<path d="M115.273 222.855L13.9144 121.703C10.9151 118.71 6.02958 118.71 3.03025 121.703C0.0309309 124.696 0.0309309 129.572 3.03025 132.565L104.389 233.717" stroke="#231815" stroke-linecap="round" stroke-linejoin="round"/>
<path d="M115.273 278.23L13.9144 379.382C10.9151 382.375 6.02958 382.375 3.03025 379.382C0.0309309 376.388 0.0309309 371.513 3.03025 368.52L104.389 267.368" stroke="#231815" stroke-linecap="round" stroke-linejoin="round"/>
<path d="M93.6747 251.013C93.6747 251.013 78.1369 235.862 57.6209 236.155C44.3095 236.34 39.022 243.438 36.9504 248.39C35.6362 251.522 35.4507 255.04 36.502 258.265C38.1872 263.464 43.1964 270.762 58.0075 270.824C81.0435 270.916 93.6592 250.998 93.6592 250.998L93.6747 251.013Z" stroke="#231815" stroke-linecap="round" stroke-linejoin="round"/>
<path d="M161.098 112.508L175.352 99.0382" stroke="#231815" stroke-linecap="round" stroke-linejoin="round"/>
<path d="M164.375 115.779L178.63 102.309" stroke="#231815" stroke-linecap="round" stroke-linejoin="round"/>
<path d="M166.679 106.074L153.182 91.8483" stroke="#231815" stroke-linecap="round" stroke-linejoin="round"/>
<path d="M169.957 102.803L156.46 88.5774" stroke="#231815" stroke-linecap="round" stroke-linejoin="round"/>
<path d="M162.659 121.858L149.162 107.632" stroke="#231815" stroke-linecap="round" stroke-linejoin="round"/>
<path d="M165.937 118.587L152.44 104.361" stroke="#231815" stroke-linecap="round" stroke-linejoin="round"/>
<path d="M140.906 107.833L155.161 94.3633" stroke="#231815" stroke-linecap="round" stroke-linejoin="round"/>
<path d="M144.184 111.104L158.439 97.6342" stroke="#231815" stroke-linecap="round" stroke-linejoin="round"/>
<path d="M161.098 151.342L175.352 137.873" stroke="#231815" stroke-linecap="round" stroke-linejoin="round"/>
<path d="M164.375 154.613L178.63 141.144" stroke="#231815" stroke-linecap="round" stroke-linejoin="round"/>
<path d="M166.679 144.893L153.182 130.667" stroke="#231815" stroke-linecap="round" stroke-linejoin="round"/>
<path d="M169.957 141.622L156.46 127.397" stroke="#231815" stroke-linecap="round" stroke-linejoin="round"/>
<path d="M162.659 160.677L149.162 146.451" stroke="#231815" stroke-linecap="round" stroke-linejoin="round"/>
<path d="M165.937 157.421L152.44 143.196" stroke="#231815" stroke-linecap="round" stroke-linejoin="round"/>
<path d="M140.906 146.652L155.161 133.182" stroke="#231815" stroke-linecap="round" stroke-linejoin="round"/>
<path d="M144.184 149.923L158.439 136.453" stroke="#231815" stroke-linecap="round" stroke-linejoin="round"/>
<path d="M161.098 368.227L175.352 354.757" stroke="#231815" stroke-linecap="round" stroke-linejoin="round"/>
<path d="M164.375 371.482L178.63 358.013" stroke="#231815" stroke-linecap="round" stroke-linejoin="round"/>
<path d="M166.679 361.777L153.182 347.552" stroke="#231815" stroke-linecap="round" stroke-linejoin="round"/>
<path d="M169.957 358.506L156.46 344.281" stroke="#231815" stroke-linecap="round" stroke-linejoin="round"/>
<path d="M162.659 377.561L149.162 363.336" stroke="#231815" stroke-linecap="round" stroke-linejoin="round"/>
<path d="M165.937 374.29L152.44 360.065" stroke="#231815" stroke-linecap="round" stroke-linejoin="round"/>
<path d="M140.906 363.536L155.161 350.067" stroke="#231815" stroke-linecap="round" stroke-linejoin="round"/>
<path d="M144.184 366.807L158.439 353.338" stroke="#231815" stroke-linecap="round" stroke-linejoin="round"/>
<path d="M161.098 406.475L175.352 393.005" stroke="#231815" stroke-linecap="round" stroke-linejoin="round"/>
<path d="M164.375 409.73L178.63 396.261" stroke="#231815" stroke-linecap="round" stroke-linejoin="round"/>
<path d="M166.679 400.025L153.182 385.8" stroke="#231815" stroke-linecap="round" stroke-linejoin="round"/>
<path d="M169.957 396.755L156.46 382.529" stroke="#231815" stroke-linecap="round" stroke-linejoin="round"/>
<path d="M162.659 415.809L149.162 401.584" stroke="#231815" stroke-linecap="round" stroke-linejoin="round"/>
<path d="M165.937 412.538L152.44 398.313" stroke="#231815" stroke-linecap="round" stroke-linejoin="round"/>
<path d="M140.906 401.784L155.161 388.315" stroke="#231815" stroke-linecap="round" stroke-linejoin="round"/>
<path d="M144.184 405.055L158.439 391.586" stroke="#231815" stroke-linecap="round" stroke-linejoin="round"/>
<path d="M181.181 457.822C181.181 451.481 186.329 446.343 192.683 446.343C199.037 446.343 204.186 451.481 204.186 457.822" stroke="#231815" stroke-linecap="round" stroke-linejoin="round"/>
<path d="M203.722 488.557C203.722 494.898 198.574 500.036 192.22 500.036C185.865 500.036 180.717 494.898 180.717 488.557" stroke="#231815" stroke-linecap="round" stroke-linejoin="round"/>
<path d="M212.782 460.491C219.136 460.491 224.285 465.629 224.285 471.971C224.285 478.312 219.136 483.45 212.782 483.45" stroke="#231815" stroke-linecap="round" stroke-linejoin="round"/>
<path d="M175.816 477.772L193.286 462.59" stroke="#231815" stroke-linecap="round" stroke-linejoin="round"/>
<path d="M188.509 455.986L203.722 473.421" stroke="#231815" stroke-linecap="round" stroke-linejoin="round"/>
<path d="M182.495 472.325L197.708 489.76" stroke="#231815" stroke-linecap="round" stroke-linejoin="round"/>
<path d="M192.838 484.098L210.308 468.916" stroke="#231815" stroke-linecap="round" stroke-linejoin="round"/>
<path d="M139.005 457.822C139.005 451.481 133.856 446.343 127.502 446.343C121.148 446.343 116 451.481 116 457.822" stroke="#231815" stroke-linecap="round" stroke-linejoin="round"/>
<path d="M116.463 488.557C116.463 494.898 121.612 500.036 127.966 500.036C134.32 500.036 139.468 494.898 139.468 488.557" stroke="#231815" stroke-linecap="round" stroke-linejoin="round"/>
<path d="M107.419 460.491C101.065 460.491 95.9165 465.629 95.9165 471.971C95.9165 478.312 101.065 483.45 107.419 483.45" stroke="#231815" stroke-linecap="round" stroke-linejoin="round"/>
<path d="M142.854 477.772L160.325 462.59" stroke="#231815" stroke-linecap="round" stroke-linejoin="round"/>
<path d="M155.547 455.986L170.76 473.421" stroke="#231815" stroke-linecap="round" stroke-linejoin="round"/>
<path d="M149.533 472.325L164.746 489.76" stroke="#231815" stroke-linecap="round" stroke-linejoin="round"/>
<path d="M159.861 484.098L177.331 468.916" stroke="#231815" stroke-linecap="round" stroke-linejoin="round"/>
<path d="M109.274 477.772L126.745 462.59" stroke="#231815" stroke-linecap="round" stroke-linejoin="round"/>
<path d="M121.967 455.986L137.18 473.421" stroke="#231815" stroke-linecap="round" stroke-linejoin="round"/>
<path d="M115.953 472.325L131.166 489.76" stroke="#231815" stroke-linecap="round" stroke-linejoin="round"/>
<path d="M126.296 484.098L143.767 468.916" stroke="#231815" stroke-linecap="round" stroke-linejoin="round"/>
<path d="M181.181 22.4182C181.181 16.0769 186.329 10.9391 192.683 10.9391C199.037 10.9391 204.186 16.0769 204.186 22.4182" stroke="#231815" stroke-linecap="round" stroke-linejoin="round"/>
<path d="M203.722 53.168C203.722 59.5093 198.574 64.6471 192.22 64.6471C185.865 64.6471 180.717 59.5093 180.717 53.168" stroke="#231815" stroke-linecap="round" stroke-linejoin="round"/>
<path d="M212.782 25.0874C219.136 25.0874 224.285 30.2252 224.285 36.5665C224.285 42.9078 219.136 48.0456 212.782 48.0456" stroke="#231815" stroke-linecap="round" stroke-linejoin="round"/>
<path d="M175.816 42.3832L193.286 27.2012" stroke="#231815" stroke-linecap="round" stroke-linejoin="round"/>
<path d="M188.509 20.5976L203.722 38.0323" stroke="#231815" stroke-linecap="round" stroke-linejoin="round"/>
<path d="M182.495 36.9214L197.708 54.3561" stroke="#231815" stroke-linecap="round" stroke-linejoin="round"/>
<path d="M192.838 48.7091L210.308 33.527" stroke="#231815" stroke-linecap="round" stroke-linejoin="round"/>
<path d="M139.005 22.4182C139.005 16.0769 133.856 10.9391 127.502 10.9391C121.148 10.9391 116 16.0769 116 22.4182" stroke="#231815" stroke-linecap="round" stroke-linejoin="round"/>
<path d="M116.463 53.168C116.463 59.5093 121.612 64.6471 127.966 64.6471C134.32 64.6471 139.468 59.5093 139.468 53.168" stroke="#231815" stroke-linecap="round" stroke-linejoin="round"/>
<path d="M107.419 25.0874C101.065 25.0874 95.9165 30.2252 95.9165 36.5665C95.9165 42.9078 101.065 48.0456 107.419 48.0456" stroke="#231815" stroke-linecap="round" stroke-linejoin="round"/>
<path d="M142.854 42.3832L160.325 27.2012" stroke="#231815" stroke-linecap="round" stroke-linejoin="round"/>
<path d="M155.547 20.5976L170.76 38.0323" stroke="#231815" stroke-linecap="round" stroke-linejoin="round"/>
<path d="M149.533 36.9214L164.746 54.3561" stroke="#231815" stroke-linecap="round" stroke-linejoin="round"/>
<path d="M159.861 48.7091L177.331 33.527" stroke="#231815" stroke-linecap="round" stroke-linejoin="round"/>
<path d="M109.274 42.3832L126.745 27.2012" stroke="#231815" stroke-linecap="round" stroke-linejoin="round"/>
<path d="M121.967 20.5976L137.18 38.0323" stroke="#231815" stroke-linecap="round" stroke-linejoin="round"/>
<path d="M115.953 36.9214L131.166 54.3561" stroke="#231815" stroke-linecap="round" stroke-linejoin="round"/>
<path d="M126.296 48.7091L143.767 33.527" stroke="#231815" stroke-linecap="round" stroke-linejoin="round"/>
</g>
<defs>
<clipPath id="clip0_755_1015">
<rect width="320" height="509" fill="white"/>
</clipPath>
</defs>
</svg>
