<svg width="64" height="64" viewBox="0 0 64 64" fill="none" xmlns="http://www.w3.org/2000/svg">
<g clip-path="url(#clip0_1122_31825)">
<path d="M28.4855 -19.2703C28.2368 -19.1503 28.1324 -18.8514 28.2524 -18.6027C28.3724 -18.354 28.6713 -18.2497 28.92 -18.3697L28.4855 -19.2703ZM35.511 -21.5497C35.7597 -21.6697 35.8641 -21.9686 35.7441 -22.2173C35.6241 -22.466 35.3252 -22.5703 35.0765 -22.4503L35.511 -21.5497ZM32.458 -19.9391C32.1819 -19.9391 31.958 -19.7153 31.958 -19.4391C31.958 -19.163 32.1819 -18.9391 32.458 -18.9391V-19.9391ZM35.2937 -18.9391C35.5699 -18.9391 35.7937 -19.163 35.7937 -19.4391C35.7937 -19.7153 35.5699 -19.9391 35.2937 -19.9391V-18.9391ZM31.5385 -20.8844C31.8146 -20.8844 32.0385 -21.1083 32.0385 -21.3844C32.0385 -21.6605 31.8146 -21.8844 31.5385 -21.8844V-20.8844ZM28.7027 -21.8844C28.4266 -21.8844 28.2027 -21.6605 28.2027 -21.3844C28.2027 -21.1083 28.4266 -20.8844 28.7027 -20.8844V-21.8844ZM28.4857 7.95294C28.2369 8.07283 28.1324 8.37168 28.2523 8.62044C28.3722 8.8692 28.6711 8.97367 28.9198 8.85378L28.4857 7.95294ZM35.5108 5.67731C35.7596 5.55743 35.8641 5.25858 35.7442 5.00982C35.6243 4.76106 35.3254 4.65659 35.0767 4.77647L35.5108 5.67731ZM32.458 7.28777C32.1819 7.28777 31.958 7.51163 31.958 7.78777C31.958 8.06391 32.1819 8.28777 32.458 8.28777V7.28777ZM35.2937 8.28777C35.5699 8.28777 35.7937 8.06391 35.7937 7.78777C35.7937 7.51163 35.5699 7.28777 35.2937 7.28777V8.28777ZM31.5385 6.34249C31.8146 6.34249 32.0385 6.11863 32.0385 5.84249C32.0385 5.56635 31.8146 5.34249 31.5385 5.34249V6.34249ZM28.7027 5.34249C28.4266 5.34249 28.2027 5.56635 28.2027 5.84249C28.2027 6.11863 28.4266 6.34249 28.7027 6.34249V5.34249ZM28.4855 24.9786C28.2368 25.0986 28.1324 25.3975 28.2524 25.6462C28.3724 25.8949 28.6713 25.9993 28.92 25.8793L28.4855 24.9786ZM35.511 22.6993C35.7597 22.5793 35.8641 22.2804 35.7441 22.0317C35.6241 21.783 35.3252 21.6787 35.0765 21.7986L35.511 22.6993ZM32.458 24.3099C32.1819 24.3099 31.958 24.5337 31.958 24.8099C31.958 25.086 32.1819 25.3099 32.458 25.3099V24.3099ZM35.2937 25.3099C35.5699 25.3099 35.7937 25.086 35.7937 24.8099C35.7937 24.5337 35.5699 24.3099 35.2937 24.3099V25.3099ZM31.5385 23.3681C31.8146 23.3681 32.0385 23.1442 32.0385 22.8681C32.0385 22.5919 31.8146 22.3681 31.5385 22.3681V23.3681ZM28.7027 22.3681C28.4266 22.3681 28.2027 22.5919 28.2027 22.8681C28.2027 23.1442 28.4266 23.3681 28.7027 23.3681V22.3681ZM28.4855 63.3777C28.2368 63.4977 28.1324 63.7966 28.2524 64.0453C28.3724 64.294 28.6713 64.3983 28.92 64.2783L28.4855 63.3777ZM35.511 61.0984C35.7597 60.9784 35.8641 60.6795 35.7441 60.4308C35.6241 60.1821 35.3252 60.0777 35.0765 60.1977L35.511 61.0984ZM32.458 62.7089C32.1819 62.7089 31.958 62.9328 31.958 63.2089C31.958 63.4851 32.1819 63.7089 32.458 63.7089V62.7089ZM35.2937 63.7089C35.5699 63.7089 35.7937 63.4851 35.7937 63.2089C35.7937 62.9328 35.5699 62.7089 35.2937 62.7089V63.7089ZM31.5385 61.7672C31.8146 61.7672 32.0385 61.5433 32.0385 61.2672C32.0385 60.991 31.8146 60.7672 31.5385 60.7672V61.7672ZM28.7027 60.7672C28.4266 60.7672 28.2027 60.991 28.2027 61.2672C28.2027 61.5433 28.4266 61.7672 28.7027 61.7672V60.7672ZM28.4855 29.5692C28.2368 29.6892 28.1324 29.9881 28.2524 30.2368C28.3724 30.4855 28.6713 30.5899 28.92 30.4699L28.4855 29.5692ZM35.511 27.2899C35.7597 27.1699 35.8641 26.871 35.7441 26.6223C35.6241 26.3736 35.3252 26.2692 35.0765 26.3892L35.511 27.2899ZM32.458 28.9004C32.1819 28.9004 31.958 29.1243 31.958 29.4004C31.958 29.6766 32.1819 29.9004 32.458 29.9004V28.9004ZM35.2937 29.9004C35.5699 29.9004 35.7937 29.6766 35.7937 29.4004C35.7937 29.1243 35.5699 28.9004 35.2937 28.9004V29.9004ZM31.5385 27.9587C31.8146 27.9587 32.0385 27.7348 32.0385 27.4587C32.0385 27.1825 31.8146 26.9587 31.5385 26.9587V27.9587ZM28.7027 26.9587C28.4266 26.9587 28.2027 27.1825 28.2027 27.4587C28.2027 27.7348 28.4266 27.9587 28.7027 27.9587V26.9587ZM28.4855 67.8346C28.2368 67.9546 28.1324 68.2535 28.2524 68.5022C28.3724 68.7509 28.6713 68.8553 28.92 68.7353L28.4855 67.8346ZM35.511 65.5553C35.7597 65.4353 35.8641 65.1364 35.7441 64.8877C35.6241 64.639 35.3252 64.5346 35.0765 64.6546L35.511 65.5553ZM32.458 67.1658C32.1819 67.1658 31.958 67.3897 31.958 67.6658C31.958 67.942 32.1819 68.1658 32.458 68.1658V67.1658ZM35.2937 68.1658C35.5699 68.1658 35.7937 67.942 35.7937 67.6658C35.7937 67.3897 35.5699 67.1658 35.2937 67.1658V68.1658ZM31.5385 66.2241C31.8146 66.2241 32.0385 66.0002 32.0385 65.7241C32.0385 65.4479 31.8146 65.2241 31.5385 65.2241V66.2241ZM28.7027 65.2241C28.4266 65.2241 28.2027 65.4479 28.2027 65.7241C28.2027 66.0002 28.4266 66.2241 28.7027 66.2241V65.2241ZM28.4857 85.5496C28.2369 85.6695 28.1324 85.9683 28.2523 86.2171C28.3722 86.4658 28.6711 86.5703 28.9198 86.4504L28.4857 85.5496ZM35.5108 83.274C35.7596 83.1541 35.8641 82.8552 35.7442 82.6065C35.6243 82.3577 35.3254 82.2532 35.0767 82.3731L35.5108 83.274ZM32.458 84.8844C32.1819 84.8844 31.958 85.1083 31.958 85.3844C31.958 85.6605 32.1819 85.8844 32.458 85.8844V84.8844ZM35.2937 85.8844C35.5699 85.8844 35.7937 85.6605 35.7937 85.3844C35.7937 85.1083 35.5699 84.8844 35.2937 84.8844V85.8844ZM31.5385 83.9391C31.8146 83.9391 32.0385 83.7153 32.0385 83.4391C32.0385 83.163 31.8146 82.9391 31.5385 82.9391V83.9391ZM28.7027 82.9391C28.4266 82.9391 28.2027 83.163 28.2027 83.4391C28.2027 83.7153 28.4266 83.9391 28.7027 83.9391V82.9391ZM34.6245 32.1299C34.4165 32.3115 34.395 32.6273 34.5766 32.8354C34.7582 33.0434 35.0741 33.0648 35.2821 32.8832L34.6245 32.1299ZM50.1218 19.266L49.7934 18.8889L49.7929 18.8893L50.1218 19.266ZM52.4697 19.4278L52.8497 19.1028L52.8467 19.0994L52.4697 19.4278ZM52.575 19.5509L52.1949 19.8759L52.1971 19.8784L52.575 19.5509ZM52.4135 21.9042L52.7423 22.2809L52.7428 22.2805L52.4135 21.9042ZM37.2813 34.448C37.0733 34.6296 37.0518 34.9454 37.2334 35.1535C37.415 35.3615 37.7308 35.383 37.9389 35.2014L37.2813 34.448ZM28.7179 32.8832C28.9259 33.0648 29.2418 33.0434 29.4234 32.8354C29.605 32.6273 29.5835 32.3115 29.3755 32.1299L28.7179 32.8832ZM13.8782 19.266L14.2071 18.8893L14.2066 18.8889L13.8782 19.266ZM11.5303 19.4278L11.1533 19.0994L11.1503 19.1028L11.5303 19.4278ZM11.425 19.5509L11.8029 19.8784L11.805 19.8759L11.425 19.5509ZM11.5865 21.9042L11.2572 22.2805L11.2577 22.2809L11.5865 21.9042ZM26.0611 35.2014C26.2692 35.383 26.585 35.3615 26.7666 35.1535C26.9482 34.9454 26.9268 34.6296 26.7187 34.448L26.0611 35.2014ZM39.1838 36.094C38.9756 36.2754 38.9539 36.5913 39.1353 36.7995C39.3167 37.0077 39.6326 37.0294 39.8407 36.848L39.1838 36.094ZM40.9898 35.1835L40.6615 34.8064L40.6613 34.8066L40.9898 35.1835ZM43.3377 35.3453L43.7177 35.0204L43.7147 35.0169L43.3377 35.3453ZM43.443 35.4684L43.063 35.7934L43.0652 35.7959L43.443 35.4684ZM43.2816 37.8218L42.9523 37.4455L42.9522 37.4456L43.2816 37.8218ZM41.8432 38.4165C41.6354 38.5984 41.6144 38.9142 41.7963 39.122C41.9782 39.3298 42.2941 39.3508 42.5019 39.1689L41.8432 38.4165ZM43.6908 40.0508C43.4823 40.2318 43.46 40.5476 43.641 40.7562C43.822 40.9647 44.1378 40.987 44.3464 40.806L43.6908 40.0508ZM44.4643 40.0414L44.7921 40.419L44.7926 40.4185L44.4643 40.0414ZM46.8122 40.2032L47.1922 39.8783L47.1892 39.8748L46.8122 40.2032ZM46.9175 40.3264L46.5375 40.6513L46.5397 40.6538L46.9175 40.3264ZM46.7561 42.6797L47.0833 43.0577L47.0853 43.056L46.7561 42.6797ZM46.3516 42.3685C46.1428 42.5492 46.1201 42.865 46.3008 43.0738C46.4816 43.2826 46.7973 43.3053 47.0061 43.1246L46.3516 42.3685ZM35.1312 57.9708C34.9232 57.7892 34.6073 57.8106 34.4257 58.0187C34.2441 58.2267 34.2656 58.5426 34.4736 58.7242L35.1312 57.9708ZM49.9708 71.588L49.642 71.9647L49.6425 71.9651L49.9708 71.588ZM52.3188 71.4262L52.6958 71.7547L52.6988 71.7512L52.3188 71.4262ZM52.424 71.3031L52.0462 70.9756L52.044 70.9781L52.424 71.3031ZM52.2626 68.9498L52.5919 68.5735L52.5914 68.5731L52.2626 68.9498ZM37.7879 55.6526C37.5799 55.471 37.264 55.4925 37.0825 55.7005C36.9009 55.9086 36.9223 56.2244 37.1304 56.406L37.7879 55.6526ZM44.2983 49.8907C44.0902 49.7091 43.7744 49.7305 43.5928 49.9385C43.4112 50.1466 43.4326 50.4624 43.6406 50.644L44.2983 49.8907ZM59.1379 63.5079L58.8091 63.8846L58.8096 63.885L59.1379 63.5079ZM61.4858 63.3461L61.8628 63.6745L61.8658 63.6711L61.4858 63.3461ZM61.5911 63.223L61.2132 62.8955L61.2111 62.898L61.5911 63.223ZM61.4296 60.8697L61.7589 60.4934L61.7584 60.493L61.4296 60.8697ZM46.955 47.5725C46.7469 47.3909 46.4311 47.4124 46.2495 47.6204C46.0679 47.8285 46.0894 48.1443 46.2974 48.3259L46.955 47.5725ZM39.8407 53.8196C39.6326 53.6382 39.3167 53.6599 39.1353 53.8681C38.9539 54.0763 38.9756 54.3922 39.1838 54.5736L39.8407 53.8196ZM40.9898 55.4841L40.6613 55.861L40.6615 55.8612L40.9898 55.4841ZM43.3377 55.3223L43.7148 55.6507L43.7177 55.6472L43.3377 55.3223ZM43.443 55.1992L43.0652 54.8717L43.063 54.8742L43.443 55.1992ZM43.2816 52.8458L42.9522 53.222L42.9523 53.2221L43.2816 52.8458ZM42.5019 51.4987C42.2941 51.3168 41.9782 51.3378 41.7963 51.5456C41.6144 51.7534 41.6354 52.0692 41.8432 52.2511L42.5019 51.4987ZM24.1557 36.848C24.3639 37.0294 24.6798 37.0077 24.8612 36.7995C25.0426 36.5913 25.0209 36.2754 24.8127 36.094L24.1557 36.848ZM23.0067 35.1835L23.3352 34.8065L23.335 34.8064L23.0067 35.1835ZM20.6588 35.3453L20.2817 35.0169L20.2788 35.0204L20.6588 35.3453ZM20.5535 35.4684L20.9313 35.7959L20.9335 35.7934L20.5535 35.4684ZM20.7149 37.8218L21.0443 37.4456L21.0442 37.4455L20.7149 37.8218ZM21.4946 39.1689C21.7024 39.3508 22.0183 39.3298 22.2002 39.122C22.3821 38.9142 22.3611 38.5984 22.1533 38.4165L21.4946 39.1689ZM19.6536 40.806C19.8622 40.987 20.178 40.9647 20.359 40.7562C20.54 40.5476 20.5177 40.2319 20.3092 40.0508L19.6536 40.806ZM19.5357 40.0414L19.2074 40.4185L19.2079 40.419L19.5357 40.0414ZM17.1878 40.2032L16.8108 39.8748L16.8078 39.8783L17.1878 40.2032ZM17.0825 40.3264L17.4603 40.6538L17.4625 40.6513L17.0825 40.3264ZM17.2439 42.6797L16.9147 43.056L16.9167 43.0577L17.2439 42.6797ZM16.9939 43.1246C17.2027 43.3053 17.5185 43.2826 17.6992 43.0738C17.8799 42.865 17.8572 42.5492 17.6484 42.3685L16.9939 43.1246ZM29.5229 58.7242C29.7309 58.5426 29.7524 58.2267 29.5708 58.0187C29.3892 57.8106 29.0733 57.7892 28.8653 57.9708L29.5229 58.7242ZM14.0256 71.588L14.354 71.9651L14.3545 71.9647L14.0256 71.588ZM11.6777 71.4262L11.2977 71.7512L11.3007 71.7546L11.6777 71.4262ZM11.5724 71.3031L11.9525 70.9781L11.9503 70.9756L11.5724 71.3031ZM11.7339 68.9498L11.4051 68.5731L11.4046 68.5735L11.7339 68.9498ZM26.8661 56.406C27.0742 56.2244 27.0956 55.9086 26.914 55.7005C26.7324 55.4925 26.4166 55.471 26.2085 55.6526L26.8661 56.406ZM20.3594 50.644C20.5674 50.4624 20.5888 50.1466 20.4072 49.9385C20.2256 49.7305 19.9098 49.7091 19.7017 49.8907L20.3594 50.644ZM4.86212 63.5079L5.19045 63.885L5.19092 63.8846L4.86212 63.5079ZM2.5142 63.3461L2.1342 63.6711L2.13718 63.6745L2.5142 63.3461ZM2.40892 63.223L2.78891 62.898L2.78676 62.8955L2.40892 63.223ZM2.57036 60.8697L2.24157 60.493L2.24108 60.4934L2.57036 60.8697ZM17.7026 48.3259C17.9106 48.1443 17.9321 47.8285 17.7505 47.6204C17.5689 47.4124 17.2531 47.3909 17.045 47.5725L17.7026 48.3259ZM24.8127 54.5736C25.0209 54.3922 25.0426 54.0763 24.8612 53.8681C24.6798 53.6599 24.3639 53.6382 24.1557 53.8196L24.8127 54.5736ZM23.0067 55.4841L23.335 55.8612L23.3352 55.861L23.0067 55.4841ZM20.6588 55.3223L20.2788 55.6473L20.2818 55.6507L20.6588 55.3223ZM20.5535 55.1992L20.9335 54.8742L20.9313 54.8717L20.5535 55.1992ZM20.7149 52.8458L21.0442 53.2221L21.0443 53.222L20.7149 52.8458ZM22.1533 52.2511C22.3611 52.0692 22.3821 51.7534 22.2002 51.5456C22.0183 51.3378 21.7024 51.3168 21.4946 51.4987L22.1533 52.2511ZM15.9103 45.332L15.5815 44.9554L15.1501 45.332L15.5814 45.7086L15.9103 45.332ZM31.9982 31.2859L32.3271 30.9093L31.9982 30.6222L31.6694 30.9093L31.9982 31.2859ZM48.0862 45.332L48.4151 45.7086L48.8464 45.332L48.415 44.9554L48.0862 45.332ZM31.9982 59.3817L31.6694 59.7583L31.9982 60.0455L32.3271 59.7583L31.9982 59.3817ZM29.3706 56.9964C29.1626 57.178 29.1412 57.4939 29.3228 57.7019C29.5044 57.9099 29.8203 57.9313 30.0283 57.7497L29.3706 56.9964ZM46.1163 43.7036C46.3243 43.522 46.3457 43.2061 46.1641 42.9981C45.9824 42.7901 45.6666 42.7687 45.4586 42.9503L46.1163 43.7036ZM27.0718 54.9914C26.8638 55.173 26.8424 55.4889 27.0241 55.6969C27.2057 55.9049 27.5216 55.9262 27.7296 55.7446L27.0718 54.9914ZM43.8175 41.695C44.0255 41.5133 44.0469 41.1975 43.8652 40.9895C43.6836 40.7815 43.3677 40.7601 43.1597 40.9418L43.8175 41.695ZM24.7731 52.9827C24.5651 53.1643 24.5436 53.4802 24.7252 53.6882C24.9068 53.8962 25.2227 53.9177 25.4307 53.7361L24.7731 52.9827ZM41.5222 39.69C41.7302 39.5084 41.7516 39.1925 41.57 38.9845C41.3885 38.7764 41.0726 38.755 40.8646 38.9366L41.5222 39.69ZM22.4743 50.9776C22.2663 51.1592 22.2449 51.4751 22.4264 51.6831C22.608 51.8912 22.9239 51.9126 23.1319 51.731L22.4743 50.9776ZM39.2234 37.6849C39.4314 37.5033 39.4529 37.1874 39.2713 36.9794C39.0897 36.7714 38.7738 36.7499 38.5658 36.9315L39.2234 37.6849ZM20.179 48.9691C19.971 49.1507 19.9496 49.4665 20.1312 49.6746C20.3128 49.8826 20.6287 49.904 20.8367 49.7224L20.179 48.9691ZM36.9246 35.6762C37.1327 35.4946 37.1541 35.1788 36.9724 34.9708C36.7908 34.7627 36.475 34.7413 36.267 34.9229L36.9246 35.6762ZM17.8802 46.964C17.6722 47.1456 17.6508 47.4615 17.8324 47.6695C18.014 47.8775 18.3299 47.8989 18.5379 47.7173L17.8802 46.964ZM34.6259 33.6712C34.8339 33.4895 34.8553 33.1737 34.6737 32.9657C34.4921 32.7577 34.1762 32.7363 33.9682 32.9179L34.6259 33.6712ZM30.0283 32.9179C29.8203 32.7363 29.5044 32.7577 29.3228 32.9657C29.1412 33.1737 29.1626 33.4895 29.3706 33.6712L30.0283 32.9179ZM45.4586 47.7173C45.6666 47.8989 45.9824 47.8775 46.1641 47.6695C46.3457 47.4615 46.3243 47.1456 46.1163 46.964L45.4586 47.7173ZM27.7295 34.9229C27.5215 34.7413 27.2057 34.7627 27.024 34.9708C26.8424 35.1788 26.8638 35.4946 27.0718 35.6762L27.7295 34.9229ZM43.1598 49.7224C43.3678 49.904 43.6837 49.8826 43.8653 49.6746C44.0469 49.4665 44.0255 49.1507 43.8175 48.9691L43.1598 49.7224ZM25.4307 36.9315C25.2227 36.7499 24.9068 36.7714 24.7252 36.9794C24.5436 37.1874 24.5651 37.5033 24.7731 37.6849L25.4307 36.9315ZM40.8646 51.731C41.0726 51.9126 41.3885 51.8911 41.57 51.6831C41.7516 51.4751 41.7302 51.1592 41.5222 50.9776L40.8646 51.731ZM23.1319 38.9366C22.9239 38.755 22.608 38.7764 22.4264 38.9845C22.2449 39.1925 22.2663 39.5084 22.4743 39.69L23.1319 38.9366ZM38.5658 53.7361C38.7738 53.9177 39.0897 53.8962 39.2713 53.6882C39.4529 53.4802 39.4314 53.1643 39.2234 52.9827L38.5658 53.7361ZM20.8367 40.9418C20.6288 40.7601 20.3129 40.7815 20.1313 40.9895C19.9496 41.1975 19.971 41.5133 20.179 41.695L20.8367 40.9418ZM36.2669 55.7446C36.4749 55.9262 36.7908 55.9049 36.9724 55.6969C37.154 55.4889 37.1327 55.173 36.9247 54.9914L36.2669 55.7446ZM18.5379 42.9503C18.3299 42.7687 18.014 42.7901 17.8324 42.9981C17.6508 43.2061 17.6722 43.522 17.8802 43.7036L18.5379 42.9503ZM33.9682 57.7497C34.1762 57.9313 34.4921 57.9099 34.6737 57.7019C34.8553 57.4939 34.8339 57.178 34.6259 56.9964L33.9682 57.7497ZM27.6955 18.5664C27.9716 18.5664 28.1955 18.3426 28.1955 18.0664C28.1955 17.7903 27.9716 17.5664 27.6955 17.5664V18.5664ZM27.6955 14.0357C27.9716 14.0357 28.1955 13.8118 28.1955 13.5357C28.1955 13.2595 27.9716 13.0357 27.6955 13.0357V14.0357ZM36.301 17.5664C36.0249 17.5664 35.801 17.7903 35.801 18.0664C35.801 18.3426 36.0249 18.5664 36.301 18.5664V17.5664ZM36.301 13.0357C36.0249 13.0357 35.801 13.2595 35.801 13.5357C35.801 13.8118 36.0249 14.0357 36.301 14.0357V13.0357ZM34.1435 16.2304C34.3515 16.412 34.6674 16.3907 34.849 16.1828C35.0307 15.9748 35.0094 15.659 34.8015 15.4773L34.1435 16.2304ZM31.4112 12.5154C31.2032 12.3337 30.8874 12.355 30.7057 12.563C30.524 12.7709 30.5453 13.0868 30.7533 13.2685L31.4112 12.5154ZM31.7853 17.6334C31.5773 17.815 31.5558 18.1308 31.7373 18.3389C31.9189 18.547 32.2347 18.5685 32.4428 18.3869L31.7853 17.6334ZM36.2366 15.0768C36.4447 14.8952 36.4662 14.5794 36.2847 14.3713C36.1031 14.1632 35.7873 14.1417 35.5792 14.3233L36.2366 15.0768ZM29.8565 15.3682C29.6485 15.1866 29.3326 15.2079 29.151 15.4158C28.9693 15.6238 28.9906 15.9396 29.1985 16.1213L29.8565 15.3682ZM32.5888 19.0832C32.7967 19.2649 33.1126 19.2436 33.2943 19.0356C33.476 18.8277 33.4547 18.5118 33.2467 18.3301L32.5888 19.0832ZM32.2111 13.9652C32.4192 13.7836 32.4407 13.4678 32.2592 13.2597C32.0776 13.0516 31.7618 13.0301 31.5537 13.2117L32.2111 13.9652ZM27.7598 16.5218C27.5518 16.7034 27.5303 17.0192 27.7118 17.2273C27.8934 17.4354 28.2092 17.4569 28.4173 17.2753L27.7598 16.5218ZM27.6955 78.3917C27.9716 78.3917 28.1955 78.1679 28.1955 77.8917C28.1955 77.6156 27.9716 77.3917 27.6955 77.3917V78.3917ZM27.6955 73.861C27.9716 73.861 28.1955 73.6371 28.1955 73.361C28.1955 73.0848 27.9716 72.861 27.6955 72.861V73.861ZM36.301 77.3917C36.0249 77.3917 35.801 77.6156 35.801 77.8917C35.801 78.1679 36.0249 78.3917 36.301 78.3917V77.3917ZM36.301 72.861C36.0249 72.861 35.801 73.0848 35.801 73.361C35.801 73.6371 36.0249 73.861 36.301 73.861V72.861ZM34.1435 76.0557C34.3515 76.2373 34.6674 76.216 34.849 76.0081C35.0307 75.8001 35.0094 75.4842 34.8015 75.3026L34.1435 76.0557ZM31.4112 72.3407C31.2032 72.159 30.8874 72.1803 30.7057 72.3883C30.524 72.5962 30.5453 72.9121 30.7533 73.0938L31.4112 72.3407ZM31.7853 77.4587C31.5773 77.6402 31.5558 77.9561 31.7373 78.1642C31.9189 78.3722 32.2347 78.3938 32.4428 78.2122L31.7853 77.4587ZM36.2366 74.9021C36.4447 74.7205 36.4662 74.4047 36.2847 74.1966C36.1031 73.9885 35.7873 73.967 35.5792 74.1486L36.2366 74.9021ZM29.8565 75.1935C29.6485 75.0118 29.3326 75.0331 29.151 75.2411C28.9693 75.4491 28.9906 75.7649 29.1985 75.9466L29.8565 75.1935ZM32.5888 78.9085C32.7967 79.0902 33.1126 79.0689 33.2943 78.8609C33.476 78.653 33.4547 78.3371 33.2467 78.1554L32.5888 78.9085ZM32.2111 73.7905C32.4192 73.6089 32.4407 73.2931 32.2592 73.085C32.0776 72.8769 31.7618 72.8554 31.5537 73.037L32.2111 73.7905ZM27.7598 76.3471C27.5518 76.5287 27.5303 76.8445 27.7118 77.0526C27.8934 77.2607 28.2092 77.2822 28.4173 77.1006L27.7598 76.3471ZM33.3405 -17.4059C33.3405 -17.682 33.1167 -17.9059 32.8405 -17.9059C32.5644 -17.9059 32.3405 -17.682 32.3405 -17.4059H33.3405ZM32.3405 -15.3867C32.3405 -15.1106 32.5644 -14.8867 32.8405 -14.8867C33.1167 -14.8867 33.3405 -15.1106 33.3405 -15.3867H32.3405ZM31.6559 -17.4059C31.6559 -17.682 31.4321 -17.9059 31.1559 -17.9059C30.8798 -17.9059 30.6559 -17.682 30.6559 -17.4059H31.6559ZM30.6559 -15.3867C30.6559 -15.1106 30.8798 -14.8867 31.1559 -14.8867C31.4321 -14.8867 31.6559 -15.1106 31.6559 -15.3867H30.6559ZM33.3405 2.37405C33.3405 2.09791 33.1167 1.87405 32.8405 1.87405C32.5644 1.87405 32.3405 2.09791 32.3405 2.37405H33.3405ZM32.3405 4.3932C32.3405 4.66934 32.5644 4.8932 32.8405 4.8932C33.1167 4.8932 33.3405 4.66934 33.3405 4.3932H32.3405ZM31.6559 2.37405C31.6559 2.09791 31.4321 1.87405 31.1559 1.87405C30.8798 1.87405 30.6559 2.09791 30.6559 2.37405H31.6559ZM30.6559 4.3932C30.6559 4.66934 30.8798 4.8932 31.1559 4.8932C31.4321 4.8932 31.6559 4.66934 31.6559 4.3932H30.6559ZM33.3405 9.63807C33.3405 9.36193 33.1167 9.13807 32.8405 9.13807C32.5644 9.13807 32.3405 9.36193 32.3405 9.63807H33.3405ZM32.3405 11.6607C32.3405 11.9369 32.5644 12.1607 32.8405 12.1607C33.1167 12.1607 33.3405 11.9369 33.3405 11.6607H32.3405ZM31.6559 9.63807C31.6559 9.36193 31.4321 9.13807 31.1559 9.13807C30.8798 9.13807 30.6559 9.36193 30.6559 9.63807H31.6559ZM30.6559 11.6607C30.6559 11.9369 30.8798 12.1607 31.1559 12.1607C31.4321 12.1607 31.6559 11.9369 31.6559 11.6607H30.6559ZM33.3405 19.4665C33.3405 19.1903 33.1167 18.9665 32.8405 18.9665C32.5644 18.9665 32.3405 19.1903 32.3405 19.4665H33.3405ZM32.3405 21.4856C32.3405 21.7618 32.5644 21.9856 32.8405 21.9856C33.1167 21.9856 33.3405 21.7618 33.3405 21.4856H32.3405ZM31.6559 19.4665C31.6559 19.1903 31.4321 18.9665 31.1559 18.9665C30.8798 18.9665 30.6559 19.1903 30.6559 19.4665H31.6559ZM30.6559 21.4856C30.6559 21.7618 30.8798 21.9856 31.1559 21.9856C31.4321 21.9856 31.6559 21.7618 31.6559 21.4856H30.6559ZM33.3405 69.5619C33.3405 69.2857 33.1167 69.0619 32.8405 69.0619C32.5644 69.0619 32.3405 69.2857 32.3405 69.5619H33.3405ZM32.3405 71.5845C32.3405 71.8607 32.5644 72.0845 32.8405 72.0845C33.1167 72.0845 33.3405 71.8607 33.3405 71.5845H32.3405ZM31.6559 69.5619C31.6559 69.2857 31.4321 69.0619 31.1559 69.0619C30.8798 69.0619 30.6559 69.2857 30.6559 69.5619H31.6559ZM30.6559 71.5845C30.6559 71.8607 30.8798 72.0845 31.1559 72.0845C31.4321 72.0845 31.6559 71.8607 31.6559 71.5845H30.6559ZM33.3405 79.6647C33.3405 79.3885 33.1167 79.1647 32.8405 79.1647C32.5644 79.1647 32.3405 79.3885 32.3405 79.6647H33.3405ZM32.3405 81.6873C32.3405 81.9635 32.5644 82.1873 32.8405 82.1873C33.1167 82.1873 33.3405 81.9635 33.3405 81.6873H32.3405ZM31.6559 79.6647C31.6559 79.3885 31.4321 79.1647 31.1559 79.1647C30.8798 79.1647 30.6559 79.3885 30.6559 79.6647H31.6559ZM30.6559 81.6873C30.6559 81.9635 30.8798 82.1873 31.1559 82.1873C31.4321 82.1873 31.6559 81.9635 31.6559 81.6873H30.6559ZM31.9982 0.738324L31.6694 1.115L31.9982 1.40196L32.327 1.11507L31.9982 0.738324ZM23.3541 -6.80711L23.0252 -7.18372L22.5939 -6.80703L23.0253 -6.43043L23.3541 -6.80711ZM31.9982 -14.3561L32.3271 -14.7327L31.9982 -15.0198L31.6694 -14.7327L31.9982 -14.3561ZM40.6459 -6.80711L40.9746 -6.43037L41.4063 -6.80703L40.9747 -7.18378L40.6459 -6.80711ZM34.4982 -1.35793C34.7062 -1.17633 35.0221 -1.19777 35.2037 -1.4058C35.3852 -1.61384 35.3638 -1.9297 35.1558 -2.11129L34.4982 -1.35793ZM26.5117 -9.65673C26.3036 -9.83832 25.9878 -9.81689 25.8062 -9.60885C25.6246 -9.40082 25.646 -9.08496 25.8541 -8.90337L26.5117 -9.65673ZM28.8408 -2.11135C28.6327 -1.9298 28.6112 -1.61395 28.7928 -1.40588C28.9743 -1.19781 29.2902 -1.17631 29.4982 -1.35786L28.8408 -2.11135ZM38.1459 -8.9033C38.3539 -9.08485 38.3754 -9.4007 38.1939 -9.60877C38.0123 -9.81685 37.6965 -9.83834 37.4884 -9.65679L38.1459 -8.9033ZM37.3479 -3.83791C37.556 -3.65631 37.8718 -3.67773 38.0534 -3.88576C38.235 -4.09379 38.2136 -4.40965 38.0056 -4.59125L37.3479 -3.83791ZM29.358 -12.1402C29.1499 -12.3218 28.8341 -12.3004 28.6525 -12.0923C28.4709 -11.8843 28.4923 -11.5685 28.7003 -11.3869L29.358 -12.1402ZM25.9909 -4.59125C25.7829 -4.40965 25.7615 -4.09379 25.9431 -3.88576C26.1247 -3.67773 26.4405 -3.65631 26.6485 -3.83791L25.9909 -4.59125ZM35.2962 -11.3869C35.5042 -11.5685 35.5256 -11.8843 35.344 -12.0923C35.1624 -12.3004 34.8466 -12.3218 34.6385 -12.1402L35.2962 -11.3869ZM35.3162 -12.8159C35.108 -12.6345 35.0863 -12.3186 35.2677 -12.1105C35.4491 -11.9023 35.765 -11.8806 35.9732 -12.062L35.3162 -12.8159ZM37.1222 -13.7264L36.7939 -14.1035L36.7938 -14.1034L37.1222 -13.7264ZM39.4702 -13.5646L39.8502 -13.8896L39.8472 -13.893L39.4702 -13.5646ZM39.5754 -13.4415L39.1954 -13.1165L39.1976 -13.114L39.5754 -13.4415ZM39.414 -11.0881L39.0847 -11.4644L39.0847 -11.4643L39.414 -11.0881ZM37.9756 -10.4935C37.7679 -10.3116 37.7469 -9.99569 37.9288 -9.78791C38.1107 -9.58014 38.4265 -9.55916 38.6343 -9.74105L37.9756 -10.4935ZM50.6072 1.72942C50.3969 1.55047 50.0813 1.57589 49.9024 1.78619C49.7234 1.9965 49.7489 2.31206 49.9592 2.49102L50.6072 1.72942ZM50.957 2.68361L50.633 3.0644L50.6342 3.06541L50.957 2.68361ZM50.0726 7.27419L50.3426 7.69506L50.3427 7.69495L50.0726 7.27419ZM44.173 6.38069L44.5186 6.01939L44.5104 6.01148L44.5017 6.00395L44.173 6.38069ZM35.8541 -1.54149C35.646 -1.72304 35.3302 -1.70154 35.1486 -1.49347C34.9671 -1.2854 34.9886 -0.96955 35.1967 -0.787998L35.8541 -1.54149ZM50.1659 2.05312L50.5434 2.38105L50.5434 2.38104L50.1659 2.05312ZM49.9977 2.24677L49.6202 1.91884L49.6202 1.91884L49.9977 2.24677ZM46.5465 2.48563L46.2177 2.86232L46.2177 2.86232L46.5465 2.48563ZM43.2751 -0.369687L43.6039 -0.74638L43.6039 -0.746381L43.2751 -0.369687ZM43.0368 -3.82886L42.6594 -4.15679L42.6594 -4.15679L43.0368 -3.82886ZM43.2051 -4.02251L43.5825 -3.69459L43.5825 -3.69459L43.2051 -4.02251ZM46.6563 -4.26137L46.9851 -4.63806L46.9851 -4.63806L46.6563 -4.26137ZM49.9276 -1.40606L49.5988 -1.02936L49.5988 -1.02936L49.9276 -1.40606ZM46.8559 -4.24852C46.9576 -4.50525 46.8319 -4.79582 46.5752 -4.89753C46.3185 -4.99923 46.0279 -4.87356 45.9262 -4.61683L46.8559 -4.24852ZM43.9293 0.424016C43.8275 0.680747 43.9532 0.971316 44.21 1.07302C44.4667 1.17473 44.7573 1.04905 44.859 0.792323L43.9293 0.424016ZM42.6496 -1.41153C42.3889 -1.32028 42.2516 -1.03503 42.3429 -0.774398C42.4341 -0.513766 42.7194 -0.376452 42.98 -0.467697L42.6496 -1.41153ZM48.4058 -2.36725C48.6665 -2.45849 48.8038 -2.74375 48.7125 -3.00438C48.6213 -3.26501 48.336 -3.40232 48.0754 -3.31108L48.4058 -2.36725ZM49.0639 -2.2412C49.1649 -2.4982 49.0385 -2.78843 48.7815 -2.88943C48.5245 -2.99043 48.2342 -2.86396 48.1332 -2.60695L49.0639 -2.2412ZM46.1854 2.34946C46.0844 2.60647 46.2109 2.8967 46.4679 2.9977C46.7249 3.0987 47.0151 2.97223 47.1161 2.71522L46.1854 2.34946ZM44.8024 0.596564C44.5415 0.687004 44.4033 0.971831 44.4937 1.23274C44.5842 1.49366 44.869 1.63185 45.1299 1.54141L44.8024 0.596564ZM50.5593 -0.340551C50.8202 -0.430991 50.9584 -0.715818 50.8679 -0.976731C50.7775 -1.23764 50.4927 -1.37584 50.2317 -1.2854L50.5593 -0.340551ZM28.0233 -12.062C28.2315 -11.8806 28.5473 -11.9023 28.7287 -12.1105C28.9102 -12.3186 28.8885 -12.6345 28.6803 -12.8159L28.0233 -12.062ZM26.8742 -13.7264L27.2027 -14.1034L27.2026 -14.1035L26.8742 -13.7264ZM24.5263 -13.5646L24.1493 -13.893L24.1463 -13.8895L24.5263 -13.5646ZM24.421 -13.4415L24.7989 -13.114L24.801 -13.1165L24.421 -13.4415ZM24.5825 -11.0881L24.9118 -11.4643L24.9118 -11.4644L24.5825 -11.0881ZM25.3622 -9.74105C25.5699 -9.55916 25.8858 -9.58014 26.0677 -9.78791C26.2496 -9.99568 26.2286 -10.3116 26.0209 -10.4935L25.3622 -9.74105ZM14.0373 2.49102C14.2476 2.31207 14.273 1.99651 14.0941 1.7862C13.9151 1.57589 13.5996 1.55047 13.3893 1.72943L14.0373 2.49102ZM13.0395 2.68361L13.3623 3.06541L13.3635 3.0644L13.0395 2.68361ZM13.9239 7.27419L13.6538 7.69495L13.6539 7.69506L13.9239 7.27419ZM19.8235 6.38069L19.4948 6.00395L19.4861 6.01148L19.4779 6.01939L19.8235 6.38069ZM28.7998 -0.787998C29.0079 -0.969549 29.0294 -1.2854 28.8479 -1.49347C28.6663 -1.70154 28.3505 -1.72304 28.1424 -1.54149L28.7998 -0.787998ZM20.7882 -4.02172L21.1656 -4.34965L21.1656 -4.34965L20.7882 -4.02172ZM20.9564 -3.82806L20.579 -3.50013L20.579 -3.50013L20.9564 -3.82806ZM20.7181 -0.36889L20.3893 -0.745584L20.3893 -0.745584L20.7181 -0.36889ZM17.4468 2.48642L17.7756 2.86312L17.7756 2.86312L17.4468 2.48642ZM13.9956 2.24757L14.373 1.91964L14.373 1.91964L13.9956 2.24757ZM13.8273 2.05391L13.4499 2.38184L13.4499 2.38184L13.8273 2.05391ZM14.0656 -1.40526L13.7368 -1.78195L13.7368 -1.78195L14.0656 -1.40526ZM17.337 -4.26057L17.0082 -4.63726L17.337 -4.26057ZM18.0703 -4.61683C17.9686 -4.87356 17.678 -4.99923 17.4213 -4.89753C17.1645 -4.79582 17.0389 -4.50525 17.1406 -4.24852L18.0703 -4.61683ZM19.1375 0.792323C19.2392 1.04905 19.5298 1.17473 19.7865 1.07302C20.0433 0.971316 20.1689 0.680747 20.0672 0.424016L19.1375 0.792323ZM21.0201 -0.467664C21.2807 -0.376471 21.566 -0.513843 21.6572 -0.774493C21.7483 -1.03514 21.611 -1.32037 21.3503 -1.41156L21.0201 -0.467664ZM15.921 -3.31111C15.6603 -3.4023 15.3751 -3.26493 15.2839 -3.00428C15.1927 -2.74363 15.3301 -2.45841 15.5908 -2.36721L15.921 -3.31111ZM15.8668 -2.60695C15.7658 -2.86396 15.4755 -2.99043 15.2185 -2.88943C14.9615 -2.78843 14.8351 -2.4982 14.9361 -2.2412L15.8668 -2.60695ZM16.8839 2.71522C16.9849 2.97223 17.2751 3.0987 17.5321 2.9977C17.7891 2.8967 17.9156 2.60647 17.8146 2.34946L16.8839 2.71522ZM18.8702 1.54144C19.1311 1.63183 19.4159 1.49358 19.5063 1.23265C19.5967 0.971719 19.4584 0.686919 19.1975 0.596531L18.8702 1.54144ZM13.7646 -1.28543C13.5037 -1.37582 13.2189 -1.23757 13.1285 -0.976636C13.0381 -0.715706 13.1764 -0.430906 13.4373 -0.340519L13.7646 -1.28543ZM28.92 -18.3697L35.511 -21.5497L35.0765 -22.4503L28.4855 -19.2703L28.92 -18.3697ZM32.458 -18.9391H35.2937V-19.9391H32.458V-18.9391ZM31.5385 -21.8844H28.7027V-20.8844H31.5385V-21.8844ZM28.9198 8.85378L35.5108 5.67731L35.0767 4.77647L28.4857 7.95294L28.9198 8.85378ZM32.458 8.28777H35.2937V7.28777H32.458V8.28777ZM31.5385 5.34249H28.7027V6.34249H31.5385V5.34249ZM28.92 25.8793L35.511 22.6993L35.0765 21.7986L28.4855 24.9786L28.92 25.8793ZM32.458 25.3099H35.2937V24.3099H32.458V25.3099ZM31.5385 22.3681H28.7027V23.3681H31.5385V22.3681ZM28.92 64.2783L35.511 61.0984L35.0765 60.1977L28.4855 63.3777L28.92 64.2783ZM32.458 63.7089H35.2937V62.7089H32.458V63.7089ZM31.5385 60.7672H28.7027V61.7672H31.5385V60.7672ZM28.92 30.4699L35.511 27.2899L35.0765 26.3892L28.4855 29.5692L28.92 30.4699ZM32.458 29.9004H35.2937V28.9004H32.458V29.9004ZM31.5385 26.9587H28.7027V27.9587H31.5385V26.9587ZM28.92 68.7353L35.511 65.5553L35.0765 64.6546L28.4855 67.8346L28.92 68.7353ZM32.458 68.1658H35.2937V67.1658H32.458V68.1658ZM31.5385 65.2241H28.7027V66.2241H31.5385V65.2241ZM28.9198 86.4504L35.5108 83.274L35.0767 82.3731L28.4857 85.5496L28.9198 86.4504ZM32.458 85.8844H35.2937V84.8844H32.458V85.8844ZM31.5385 82.9391H28.7027V83.9391H31.5385V82.9391ZM35.2821 32.8832L50.4506 19.6427L49.7929 18.8893L34.6245 32.1299L35.2821 32.8832ZM50.4501 19.6431C50.9365 19.2196 51.6701 19.2712 52.0927 19.7562L52.8467 19.0994C52.0619 18.1985 50.6968 18.1023 49.7934 18.8889L50.4501 19.6431ZM52.0897 19.7527L52.1949 19.8759L52.955 19.226L52.8497 19.1028L52.0897 19.7527ZM52.1971 19.8784C52.6205 20.3669 52.5686 21.1041 52.0842 21.528L52.7428 22.2805C53.6413 21.4943 53.7367 20.1279 52.9528 19.2234L52.1971 19.8784ZM52.0847 21.5275L37.2813 34.448L37.9389 35.2014L52.7423 22.2809L52.0847 21.5275ZM29.3755 32.1299L14.2071 18.8893L13.5494 19.6427L28.7179 32.8832L29.3755 32.1299ZM14.2066 18.8889C13.3032 18.1023 11.9381 18.1985 11.1533 19.0994L11.9074 19.7562C12.3299 19.2712 13.0635 19.2196 13.5499 19.6431L14.2066 18.8889ZM11.1503 19.1028L11.045 19.2259L11.805 19.8759L11.9103 19.7528L11.1503 19.1028ZM11.0472 19.2234C10.2633 20.1279 10.3588 21.4943 11.2572 22.2805L11.9158 21.528C11.4314 21.1041 11.3795 20.3669 11.8029 19.8784L11.0472 19.2234ZM11.2577 22.2809L26.0611 35.2014L26.7187 34.448L11.9153 21.5275L11.2577 22.2809ZM39.8407 36.848L41.3183 35.5605L40.6613 34.8066L39.1838 36.094L39.8407 36.848ZM41.3181 35.5606C41.8045 35.1371 42.5382 35.1887 42.9607 35.6737L43.7147 35.0169C42.93 34.116 41.5649 34.0199 40.6615 34.8064L41.3181 35.5606ZM42.9577 35.6703L43.063 35.7934L43.823 35.1435L43.7177 35.0204L42.9577 35.6703ZM43.0652 35.7959C43.4885 36.2844 43.4366 37.0217 42.9523 37.4455L43.6108 38.198C44.5093 37.4118 44.6048 36.0455 43.8208 35.141L43.0652 35.7959ZM42.9522 37.4456L41.8432 38.4165L42.5019 39.1689L43.6109 38.198L42.9522 37.4456ZM44.3464 40.806L44.7921 40.419L44.1365 39.6639L43.6908 40.0508L44.3464 40.806ZM44.7926 40.4185C45.279 39.995 46.0127 40.0466 46.4352 40.5317L47.1892 39.8748C46.4045 38.9739 45.0394 38.8778 44.136 39.6643L44.7926 40.4185ZM46.4322 40.5282L46.5375 40.6513L47.2975 40.0014L47.1922 39.8783L46.4322 40.5282ZM46.5397 40.6538C46.963 41.1423 46.9111 41.8796 46.4268 42.3034L47.0853 43.056C47.9838 42.2697 48.0793 40.9034 47.2953 39.9989L46.5397 40.6538ZM46.4288 42.3017L46.3516 42.3685L47.0061 43.1246L47.0833 43.0577L46.4288 42.3017ZM34.4736 58.7242L49.642 71.9647L50.2996 71.2114L35.1312 57.9708L34.4736 58.7242ZM49.6425 71.9651C50.5459 72.7517 51.911 72.6556 52.6958 71.7546L51.9417 71.0978C51.5192 71.5829 50.7856 71.6345 50.2992 71.211L49.6425 71.9651ZM52.6988 71.7512L52.804 71.6281L52.044 70.9781L51.9388 71.1013L52.6988 71.7512ZM52.8019 71.6306C53.5858 70.7261 53.4903 69.3598 52.5919 68.5735L51.9333 69.326C52.4176 69.7499 52.4696 70.4871 52.0462 70.9756L52.8019 71.6306ZM52.5914 68.5731L37.7879 55.6526L37.1304 56.406L51.9338 69.3265L52.5914 68.5731ZM43.6406 50.644L58.8091 63.8846L59.4667 63.1312L44.2983 49.8907L43.6406 50.644ZM58.8096 63.885C59.7129 64.6716 61.078 64.5754 61.8628 63.6745L61.1088 63.0177C60.6863 63.5027 59.9526 63.5543 59.4662 63.1308L58.8096 63.885ZM61.8658 63.6711L61.9711 63.548L61.2111 62.898L61.1058 63.0211L61.8658 63.6711ZM61.9689 63.5505C62.7528 62.646 62.6574 61.2796 61.7589 60.4934L61.1004 61.2459C61.5847 61.6698 61.6366 62.407 61.2132 62.8955L61.9689 63.5505ZM61.7584 60.493L46.955 47.5725L46.2974 48.3259L61.1009 61.2464L61.7584 60.493ZM39.1838 54.5736L40.6613 55.861L41.3183 55.1071L39.8407 53.8196L39.1838 54.5736ZM40.6615 55.8612C41.5649 56.6477 42.93 56.5516 43.7147 55.6507L42.9607 54.9938C42.5382 55.4789 41.8045 55.5305 41.3181 55.107L40.6615 55.8612ZM43.7177 55.6472L43.823 55.5241L43.063 54.8742L42.9577 54.9973L43.7177 55.6472ZM43.8208 55.5266C44.6048 54.6221 44.5093 53.2558 43.6108 52.4696L42.9523 53.2221C43.4366 53.6459 43.4885 54.3832 43.0652 54.8717L43.8208 55.5266ZM43.6109 52.4696L42.5019 51.4987L41.8432 52.2511L42.9522 53.222L43.6109 52.4696ZM24.8127 36.094L23.3352 34.8065L22.6782 35.5605L24.1557 36.848L24.8127 36.094ZM23.335 34.8064C22.4316 34.0199 21.0665 34.116 20.2818 35.0169L21.0358 35.6737C21.4583 35.1887 22.1919 35.1371 22.6784 35.5606L23.335 34.8064ZM20.2788 35.0204L20.1735 35.1435L20.9335 35.7934L21.0388 35.6703L20.2788 35.0204ZM20.1756 35.141C19.3917 36.0455 19.4872 37.4118 20.3856 38.198L21.0442 37.4455C20.5599 37.0217 20.5079 36.2844 20.9313 35.7959L20.1756 35.141ZM20.3856 38.198L21.4946 39.1689L22.1533 38.4165L21.0443 37.4456L20.3856 38.198ZM20.3092 40.0508L19.8635 39.6639L19.2079 40.419L19.6536 40.806L20.3092 40.0508ZM19.864 39.6643C18.9606 38.8778 17.5955 38.9739 16.8108 39.8748L17.5648 40.5317C17.9873 40.0466 18.721 39.995 19.2074 40.4185L19.864 39.6643ZM16.8078 39.8783L16.7025 40.0014L17.4625 40.6513L17.5678 40.5282L16.8078 39.8783ZM16.7047 39.9989C15.9207 40.9034 16.0162 42.2697 16.9147 43.056L17.5732 42.3034C17.0889 41.8796 17.037 41.1423 17.4603 40.6538L16.7047 39.9989ZM16.9167 43.0577L16.9939 43.1246L17.6484 42.3685L17.5712 42.3017L16.9167 43.0577ZM28.8653 57.9708L13.6968 71.2114L14.3545 71.9647L29.5229 58.7242L28.8653 57.9708ZM13.6973 71.211C13.2109 71.6345 12.4773 71.5829 12.0548 71.0978L11.3007 71.7546C12.0855 72.6556 13.4506 72.7517 14.354 71.9651L13.6973 71.211ZM12.0577 71.1013L11.9524 70.9781L11.1924 71.6281L11.2977 71.7512L12.0577 71.1013ZM11.9503 70.9756C11.5269 70.4871 11.5788 69.7499 12.0632 69.326L11.4046 68.5735C10.5062 69.3598 10.4107 70.7261 11.1946 71.6306L11.9503 70.9756ZM12.0627 69.3265L26.8661 56.406L26.2085 55.6526L11.4051 68.5731L12.0627 69.3265ZM19.7017 49.8907L4.53331 63.1312L5.19092 63.8846L20.3594 50.644L19.7017 49.8907ZM4.53379 63.1308C4.04738 63.5543 3.31375 63.5027 2.89122 63.0177L2.13718 63.6745C2.92196 64.5754 4.28706 64.6716 5.19045 63.885L4.53379 63.1308ZM2.89419 63.0211L2.78891 62.898L2.02893 63.548L2.13421 63.6711L2.89419 63.0211ZM2.78676 62.8955C2.36338 62.407 2.41532 61.6698 2.89963 61.2459L2.24108 60.4934C1.34262 61.2796 1.24715 62.646 2.03107 63.5505L2.78676 62.8955ZM2.89914 61.2464L17.7026 48.3259L17.045 47.5725L2.24157 60.493L2.89914 61.2464ZM24.1557 53.8196L22.6782 55.1071L23.3352 55.861L24.8127 54.5736L24.1557 53.8196ZM22.6784 55.107C22.1919 55.5305 21.4583 55.4789 21.0358 54.9938L20.2818 55.6507C21.0665 56.5516 22.4316 56.6477 23.335 55.8612L22.6784 55.107ZM21.0388 54.9973L20.9335 54.8742L20.1735 55.5241L20.2788 55.6472L21.0388 54.9973ZM20.9313 54.8717C20.5079 54.3832 20.5599 53.6459 21.0442 53.2221L20.3856 52.4696C19.4872 53.2558 19.3917 54.6221 20.1756 55.5266L20.9313 54.8717ZM21.0443 53.222L22.1533 52.2511L21.4946 51.4987L20.3856 52.4696L21.0443 53.222ZM16.2391 45.7087L32.3271 31.6626L31.6694 30.9093L15.5815 44.9554L16.2391 45.7087ZM31.6694 31.6626L47.7574 45.7087L48.415 44.9554L32.3271 30.9093L31.6694 31.6626ZM47.7573 44.9554L31.6694 59.0051L32.3271 59.7583L48.4151 45.7086L47.7573 44.9554ZM32.3271 59.0051L16.2392 44.9554L15.5814 45.7086L31.6694 59.7583L32.3271 59.0051ZM30.0283 57.7497L46.1163 43.7036L45.4586 42.9503L29.3706 56.9964L30.0283 57.7497ZM27.7296 55.7446L43.8175 41.695L43.1597 40.9418L27.0718 54.9914L27.7296 55.7446ZM25.4307 53.7361L41.5222 39.69L40.8646 38.9366L24.7731 52.9827L25.4307 53.7361ZM23.1319 51.731L39.2234 37.6849L38.5658 36.9315L22.4743 50.9776L23.1319 51.731ZM20.8367 49.7224L36.9246 35.6762L36.267 34.9229L20.179 48.9691L20.8367 49.7224ZM18.5379 47.7173L34.6259 33.6712L33.9682 32.9179L17.8802 46.964L18.5379 47.7173ZM29.3706 33.6712L45.4586 47.7173L46.1163 46.964L30.0283 32.9179L29.3706 33.6712ZM27.0718 35.6762L43.1598 49.7224L43.8175 48.9691L27.7295 34.9229L27.0718 35.6762ZM24.7731 37.6849L40.8646 51.731L41.5222 50.9776L25.4307 36.9315L24.7731 37.6849ZM22.4743 39.69L38.5658 53.7361L39.2234 52.9827L23.1319 38.9366L22.4743 39.69ZM20.179 41.695L36.2669 55.7446L36.9247 54.9914L20.8367 40.9418L20.179 41.695ZM17.8802 43.7036L33.9682 57.7497L34.6259 56.9964L18.5379 42.9503L17.8802 43.7036ZM27.6955 17.5664H27.6113V18.5664H27.6955V17.5664ZM27.6113 17.5664C26.6024 17.5664 25.8335 16.7986 25.8335 15.9066H24.8335C24.8335 17.3996 26.1002 18.5664 27.6113 18.5664V17.5664ZM25.8335 15.9066V15.6955H24.8335V15.9066H25.8335ZM25.8335 15.6955C25.8335 14.804 26.6054 14.0357 27.6113 14.0357V13.0357C26.1042 13.0357 24.8335 14.202 24.8335 15.6955H25.8335ZM27.6113 14.0357H27.6955V13.0357H27.6113V14.0357ZM36.301 18.5664H36.3852V17.5664H36.301V18.5664ZM36.3852 18.5664C37.8963 18.5664 39.163 17.3996 39.163 15.9066H38.163C38.163 16.7986 37.394 17.5664 36.3852 17.5664V18.5664ZM39.163 15.9066V15.6955H38.163V15.9066H39.163ZM39.163 15.6955C39.163 14.202 37.8923 13.0357 36.3852 13.0357V14.0357C37.391 14.0357 38.163 14.804 38.163 15.6955H39.163ZM36.3852 13.0357H36.301V14.0357H36.3852V13.0357ZM34.8015 15.4773L31.4112 12.5154L30.7533 13.2685L34.1435 16.2304L34.8015 15.4773ZM32.4428 18.3869L36.2366 15.0768L35.5792 14.3233L31.7853 17.6334L32.4428 18.3869ZM29.1985 16.1213L32.5888 19.0832L33.2467 18.3301L29.8565 15.3682L29.1985 16.1213ZM31.5537 13.2117L27.7598 16.5218L28.4173 17.2753L32.2111 13.9652L31.5537 13.2117ZM27.6955 77.3917H27.6113V78.3917H27.6955V77.3917ZM27.6113 77.3917C26.6024 77.3917 25.8335 76.6239 25.8335 75.7319H24.8335C24.8335 77.2249 26.1002 78.3917 27.6113 78.3917V77.3917ZM25.8335 75.7319V75.5208H24.8335V75.7319H25.8335ZM25.8335 75.5208C25.8335 74.6293 26.6054 73.861 27.6113 73.861V72.861C26.1042 72.861 24.8335 74.0273 24.8335 75.5208H25.8335ZM27.6113 73.861H27.6955V72.861H27.6113V73.861ZM36.301 78.3917H36.3852V77.3917H36.301V78.3917ZM36.3852 78.3917C37.8963 78.3917 39.163 77.2249 39.163 75.7319H38.163C38.163 76.6239 37.394 77.3917 36.3852 77.3917V78.3917ZM39.163 75.7319V75.5208H38.163V75.7319H39.163ZM39.163 75.5208C39.163 74.0273 37.8923 72.861 36.3852 72.861V73.861C37.391 73.861 38.163 74.6293 38.163 75.5208H39.163ZM36.3852 72.861H36.301V73.861H36.3852V72.861ZM34.8015 75.3026L31.4112 72.3407L30.7533 73.0938L34.1435 76.0557L34.8015 75.3026ZM32.4428 78.2122L36.2366 74.9021L35.5792 74.1486L31.7853 77.4587L32.4428 78.2122ZM29.1985 75.9466L32.5888 78.9085L33.2467 78.1554L29.8565 75.1935L29.1985 75.9466ZM31.5537 73.037L27.7598 76.3471L28.4173 77.1006L32.2111 73.7905L31.5537 73.037ZM32.3405 -17.4059V-15.3867H33.3405V-17.4059H32.3405ZM30.6559 -17.4059V-15.3867H31.6559V-17.4059H30.6559ZM32.3405 2.37405V4.3932H33.3405V2.37405H32.3405ZM30.6559 2.37405V4.3932H31.6559V2.37405H30.6559ZM32.3405 9.63807V11.6607H33.3405V9.63807H32.3405ZM30.6559 9.63807V11.6607H31.6559V9.63807H30.6559ZM32.3405 19.4665V21.4856H33.3405V19.4665H32.3405ZM30.6559 19.4665V21.4856H31.6559V19.4665H30.6559ZM32.3405 69.5619V71.5845H33.3405V69.5619H32.3405ZM30.6559 69.5619V71.5845H31.6559V69.5619H30.6559ZM32.3405 79.6647V81.6873H33.3405V79.6647H32.3405ZM30.6559 79.6647V81.6873H31.6559V79.6647H30.6559ZM32.327 0.361644L23.6829 -7.18379L23.0253 -6.43043L31.6694 1.115L32.327 0.361644ZM23.683 -6.43051L32.3271 -13.9795L31.6694 -14.7327L23.0252 -7.18372L23.683 -6.43051ZM31.6694 -13.9794L40.3171 -6.43044L40.9747 -7.18378L32.3271 -14.7327L31.6694 -13.9794ZM40.3171 -7.18386L31.6695 0.361578L32.327 1.11507L40.9746 -6.43037L40.3171 -7.18386ZM35.1558 -2.11129L26.5117 -9.65673L25.8541 -8.90337L34.4982 -1.35793L35.1558 -2.11129ZM29.4982 -1.35786L38.1459 -8.9033L37.4884 -9.65679L28.8408 -2.11135L29.4982 -1.35786ZM38.0056 -4.59125L29.358 -12.1402L28.7003 -11.3869L37.3479 -3.83791L38.0056 -4.59125ZM26.6485 -3.83791L35.2962 -11.3869L34.6385 -12.1402L25.9909 -4.59125L26.6485 -3.83791ZM35.9732 -12.062L37.4507 -13.3494L36.7938 -14.1034L35.3162 -12.8159L35.9732 -12.062ZM37.4506 -13.3493C37.937 -13.7728 38.6706 -13.7212 39.0931 -13.2362L39.8472 -13.893C39.0624 -14.7939 37.6973 -14.8901 36.7939 -14.1035L37.4506 -13.3493ZM39.0902 -13.2396L39.1954 -13.1165L39.9554 -13.7664L39.8502 -13.8896L39.0902 -13.2396ZM39.1976 -13.114C39.621 -12.6255 39.569 -11.8882 39.0847 -11.4644L39.7433 -10.7119C40.6417 -11.4981 40.7372 -12.8644 39.9533 -13.7689L39.1976 -13.114ZM39.0847 -11.4643L37.9756 -10.4935L38.6343 -9.74105L39.7433 -10.7119L39.0847 -11.4643ZM49.9592 2.49102L50.633 3.0644L51.2811 2.30281L50.6072 1.72942L49.9592 2.49102ZM50.6342 3.06541C50.9625 3.34304 51.2344 3.97659 51.1658 4.73463C51.0999 5.46321 50.7178 6.26584 49.8025 6.85342L50.3427 7.69495C51.5261 6.93526 52.0689 5.85065 52.1617 4.82478C52.2519 3.82838 51.9167 2.84028 51.2799 2.3018L50.6342 3.06541ZM49.8027 6.85331C48.5009 7.68827 47.2117 7.50406 46.2011 7.08117C45.6944 6.86912 45.2694 6.60059 44.9704 6.38367C44.8215 6.27568 44.7055 6.18175 44.6281 6.11604C44.5894 6.08323 44.5605 6.05756 44.542 6.04082C44.5327 6.03246 44.5261 6.02634 44.5222 6.02269C44.5202 6.02087 44.5189 6.01966 44.5183 6.0191C44.518 6.01882 44.5179 6.01871 44.518 6.01875C44.518 6.01878 44.5181 6.01884 44.5182 6.01895C44.5182 6.019 44.5183 6.01911 44.5184 6.01914C44.5185 6.01926 44.5186 6.01939 44.173 6.38069C43.8274 6.74199 43.8275 6.74215 43.8277 6.74231C43.8278 6.74238 43.828 6.74256 43.8281 6.74269C43.8284 6.74297 43.8287 6.74329 43.8291 6.74365C43.8299 6.74438 43.8308 6.74527 43.8319 6.74633C43.8342 6.74845 43.8371 6.75123 43.8408 6.75464C43.8481 6.76147 43.8583 6.77084 43.8712 6.78253C43.8971 6.80588 43.9339 6.8385 43.9811 6.87853C44.0753 6.9585 44.2113 7.06843 44.3832 7.19316C44.7259 7.44167 45.2185 7.754 45.8151 8.00365C47.0111 8.50415 48.6717 8.76668 50.3426 7.69506L49.8027 6.85331ZM44.5017 6.00395L35.8541 -1.54149L35.1967 -0.787998L43.8443 6.75744L44.5017 6.00395ZM49.7885 1.72519L49.6202 1.91884L50.3751 2.5747L50.5434 2.38105L49.7885 1.72519ZM49.6202 1.91884C48.9143 2.73135 47.6856 2.81622 46.8752 2.10893L46.2177 2.86232C47.445 3.93356 49.3066 3.80456 50.3751 2.5747L49.6202 1.91884ZM46.8752 2.10893L43.6039 -0.74638L42.9463 0.00700575L46.2177 2.86232L46.8752 2.10893ZM43.6039 -0.746381C42.7929 -1.45426 42.7078 -2.68776 43.4143 -3.50093L42.6594 -4.15679C41.5914 -2.9276 41.7197 -1.06365 42.9463 0.00700586L43.6039 -0.746381ZM43.4143 -3.50093L43.5825 -3.69459L42.8276 -4.35044L42.6594 -4.15679L43.4143 -3.50093ZM43.5825 -3.69459C44.2884 -4.50709 45.5171 -4.59197 46.3275 -3.88468L46.9851 -4.63806C45.7577 -5.70931 43.8961 -5.5803 42.8276 -4.35044L43.5825 -3.69459ZM46.3275 -3.88468L49.5988 -1.02936L50.2564 -1.78275L46.9851 -4.63806L46.3275 -3.88468ZM49.5988 -1.02936C50.4098 -0.321486 50.495 0.912013 49.7885 1.72519L50.5434 2.38104C51.6113 1.15185 51.483 -0.712094 50.2564 -1.78275L49.5988 -1.02936ZM45.9262 -4.61683L43.9293 0.424016L44.859 0.792323L46.8559 -4.24852L45.9262 -4.61683ZM42.98 -0.467697L48.4058 -2.36725L48.0754 -3.31108L42.6496 -1.41153L42.98 -0.467697ZM48.1332 -2.60695L46.1854 2.34946L47.1161 2.71522L49.0639 -2.2412L48.1332 -2.60695ZM45.1299 1.54141L50.5593 -0.340551L50.2317 -1.2854L44.8024 0.596564L45.1299 1.54141ZM28.6803 -12.8159L27.2027 -14.1034L26.5458 -13.3494L28.0233 -12.062L28.6803 -12.8159ZM27.2026 -14.1035C26.2992 -14.8901 24.9341 -14.7939 24.1493 -13.893L24.9034 -13.2362C25.3259 -13.7212 26.0595 -13.7728 26.5459 -13.3493L27.2026 -14.1035ZM24.1463 -13.8895L24.041 -13.7664L24.801 -13.1165L24.9063 -13.2396L24.1463 -13.8895ZM24.0432 -13.7689C23.2593 -12.8644 23.3548 -11.4981 24.2532 -10.7119L24.9118 -11.4644C24.4274 -11.8882 24.3755 -12.6255 24.7989 -13.114L24.0432 -13.7689ZM24.2531 -10.7119L25.3622 -9.74105L26.0209 -10.4935L24.9118 -11.4643L24.2531 -10.7119ZM13.3893 1.72943L12.7154 2.30281L13.3635 3.0644L14.0373 2.49102L13.3893 1.72943ZM12.7166 2.3018C12.0798 2.84028 11.7446 3.82838 11.8347 4.82478C11.9276 5.85065 12.4703 6.93526 13.6538 7.69495L14.194 6.85342C13.2787 6.26584 12.8966 5.46321 12.8307 4.73463C12.7621 3.97658 13.034 3.34304 13.3623 3.06541L12.7166 2.3018ZM13.6539 7.69506C15.3247 8.76668 16.9854 8.50415 18.1814 8.00365C18.778 7.754 19.2706 7.44167 19.6133 7.19316C19.7852 7.06843 19.9212 6.9585 20.0154 6.87853C20.0626 6.8385 20.0994 6.80588 20.1253 6.78253C20.1382 6.77084 20.1483 6.76147 20.1557 6.75464C20.1593 6.75123 20.1623 6.74845 20.1646 6.74633C20.1657 6.74527 20.1666 6.74438 20.1674 6.74365C20.1678 6.74329 20.1681 6.74297 20.1684 6.74269C20.1685 6.74256 20.1687 6.74238 20.1688 6.74231C20.169 6.74215 20.1691 6.74199 19.8235 6.38069C19.4779 6.01939 19.478 6.01926 19.4781 6.01914C19.4781 6.01911 19.4783 6.019 19.4783 6.01895C19.4784 6.01884 19.4785 6.01878 19.4785 6.01875C19.4786 6.01871 19.4785 6.01882 19.4782 6.0191C19.4776 6.01966 19.4763 6.02087 19.4743 6.02269C19.4704 6.02634 19.4638 6.03246 19.4545 6.04082C19.436 6.05756 19.4071 6.08323 19.3684 6.11604C19.291 6.18175 19.175 6.27568 19.0261 6.38367C18.7271 6.60059 18.3021 6.86912 17.7954 7.08117C16.7848 7.50406 15.4956 7.68827 14.1938 6.85331L13.6539 7.69506ZM20.1522 6.75744L28.7998 -0.787998L28.1424 -1.54149L19.4948 6.00395L20.1522 6.75744ZM20.4107 -3.69379L20.579 -3.50013L21.3339 -4.15599L21.1656 -4.34965L20.4107 -3.69379ZM20.579 -3.50013C21.2855 -2.68696 21.2003 -1.45346 20.3893 -0.745584L21.0469 0.00780289C22.2735 -1.06285 22.4018 -2.9268 21.3339 -4.15599L20.579 -3.50013ZM20.3893 -0.745584L17.118 2.10973L17.7756 2.86312L21.0469 0.00780284L20.3893 -0.745584ZM17.118 2.10973C16.3076 2.81702 15.0789 2.73214 14.373 1.91964L13.6181 2.5755C14.6866 3.80536 16.5482 3.93436 17.7756 2.86312L17.118 2.10973ZM14.373 1.91964L14.2048 1.72598L13.4499 2.38184L13.6181 2.5755L14.373 1.91964ZM14.2048 1.72598C13.4983 0.912811 13.5834 -0.320688 14.3944 -1.02856L13.7368 -1.78195C12.5102 -0.711295 12.3819 1.15265 13.4499 2.38184L14.2048 1.72598ZM14.3944 -1.02856L17.6657 -3.88388L17.0082 -4.63726L13.7368 -1.78195L14.3944 -1.02856ZM17.6657 -3.88388C18.4761 -4.59117 19.7048 -4.50629 20.4107 -3.69379L21.1656 -4.34965C20.0971 -5.57951 18.2355 -5.70851 17.0082 -4.63726L17.6657 -3.88388ZM17.1406 -4.24852L19.1375 0.792323L20.0672 0.424016L18.0703 -4.61683L17.1406 -4.24852ZM21.3503 -1.41156L15.921 -3.31111L15.5908 -2.36721L21.0201 -0.467664L21.3503 -1.41156ZM14.9361 -2.2412L16.8839 2.71522L17.8146 2.34946L15.8668 -2.60695L14.9361 -2.2412ZM19.1975 0.596531L13.7646 -1.28543L13.4373 -0.340519L18.8702 1.54144L19.1975 0.596531Z" fill="black"/>
</g>
<defs>
<clipPath id="clip0_1122_31825">
<rect width="64" height="64" fill="white"/>
</clipPath>
</defs>
</svg>
