<svg width="574" height="677" viewBox="0 0 574 677" fill="none" xmlns="http://www.w3.org/2000/svg">
<g clip-path="url(#clip0_755_629)">
<path d="M287.077 100.48L249.006 67.3572L287.077 34.2345L325.148 67.3572L287.077 100.48Z" stroke="#231815" stroke-miterlimit="10" stroke-linecap="round"/>
<path d="M299.531 89.6398L261.475 56.5171" stroke="#231815" stroke-miterlimit="10" stroke-linecap="round"/>
<path d="M274.624 89.6398L312.68 56.5171" stroke="#231815" stroke-miterlimit="10" stroke-linecap="round"/>
<path d="M312.077 78.7378L274.006 45.6151" stroke="#231815" stroke-miterlimit="10" stroke-linecap="round"/>
<path d="M262.078 78.7378L300.149 45.6151" stroke="#231815" stroke-miterlimit="10" stroke-linecap="round"/>
<path d="M303.131 42.6349L309.636 36.9831C312.695 34.3272 317.315 34.6514 319.972 37.6935L320.436 38.2339C323.093 41.2914 322.769 45.9085 319.725 48.5645L314.843 52.8264" stroke="#231815" stroke-linecap="round" stroke-linejoin="round"/>
<path d="M367.576 106.518L370.543 109.035C374.792 112.617 375.889 123.272 366.649 129.186C353.562 137.556 340.676 125.264 340.676 125.264L302.605 92.1412" stroke="#231815" stroke-miterlimit="10" stroke-linecap="round"/>
<path d="M366.329 107.111L367.069 106.261C370.975 101.779 370.505 94.98 366.02 91.0763L351.618 78.5422C347.133 74.6385 340.33 75.1079 336.424 79.5907L335.684 80.4408C331.778 84.9235 332.247 91.7221 336.733 95.6257L351.135 108.16C355.62 112.064 362.423 111.594 366.329 107.111Z" stroke="#231815" stroke-linecap="round" stroke-linejoin="round"/>
<path d="M350.441 77.7804L341.65 99.9085" stroke="#231815" stroke-linecap="round" stroke-linejoin="round"/>
<path d="M334.697 93.1295L358.584 84.7755" stroke="#231815" stroke-linecap="round" stroke-linejoin="round"/>
<path d="M360.145 86.5977L351.569 108.371" stroke="#231815" stroke-linecap="round" stroke-linejoin="round"/>
<path d="M344.153 101.947L368.071 93.6854" stroke="#231815" stroke-linecap="round" stroke-linejoin="round"/>
<path d="M271.024 42.6349L264.519 36.9831C261.46 34.3272 256.84 34.6514 254.182 37.6935L253.719 38.2339C251.061 41.2914 251.386 45.9085 254.429 48.5645L259.312 52.8264" stroke="#231815" stroke-linecap="round" stroke-linejoin="round"/>
<path d="M206.578 106.518L203.612 109.035C199.363 112.617 198.266 123.272 207.505 129.186C220.592 137.556 233.478 125.264 233.478 125.264L271.549 92.1412" stroke="#231815" stroke-miterlimit="10" stroke-linecap="round"/>
<path d="M238.481 80.4413L237.74 79.5912C233.834 75.1085 227.032 74.639 222.546 78.5427L208.145 91.0769C203.659 94.9805 203.189 101.779 207.095 106.262L207.836 107.112C211.742 111.595 218.545 112.064 223.03 108.16L237.432 95.6263C241.917 91.7226 242.387 84.9241 238.481 80.4413Z" stroke="#231815" stroke-linecap="round" stroke-linejoin="round"/>
<path d="M223.713 77.7804L232.505 99.9085" stroke="#231815" stroke-linecap="round" stroke-linejoin="round"/>
<path d="M239.458 93.1295L215.571 84.7755" stroke="#231815" stroke-linecap="round" stroke-linejoin="round"/>
<path d="M214.01 86.5977L222.585 108.371" stroke="#231815" stroke-linecap="round" stroke-linejoin="round"/>
<path d="M230.002 101.947L206.084 93.6854" stroke="#231815" stroke-linecap="round" stroke-linejoin="round"/>
<path d="M527.014 448.075L526.659 448.137C521.189 449.033 516.075 445.574 515.209 440.416L515.055 439.505C514.205 434.332 517.944 429.421 523.414 428.51L523.769 428.449" stroke="#231815" stroke-linecap="round" stroke-linejoin="round"/>
<path d="M564.39 441.914L564.745 441.852C570.215 440.957 573.954 436.031 573.104 430.858L572.95 429.946C572.1 424.773 566.97 421.315 561.5 422.226L561.145 422.287" stroke="#231815" stroke-linecap="round" stroke-linejoin="round"/>
<path d="M554.856 433.652L538 423.26" stroke="#231815" stroke-linecap="round" stroke-linejoin="round"/>
<path d="M546.158 444.678L560.264 427.615" stroke="#231815" stroke-linecap="round" stroke-linejoin="round"/>
<path d="M533.302 436.71L550.159 447.102" stroke="#231815" stroke-linecap="round" stroke-linejoin="round"/>
<path d="M542.001 425.7L527.895 442.763" stroke="#231815" stroke-linecap="round" stroke-linejoin="round"/>
<path d="M522.054 409.718L521.699 409.826C516.446 411.571 510.837 408.961 509.184 403.989L508.89 403.109C507.237 398.136 510.157 392.701 515.426 390.956L515.781 390.848" stroke="#231815" stroke-linecap="round" stroke-linejoin="round"/>
<path d="M557.993 397.797L558.348 397.689C563.601 395.944 566.522 390.493 564.884 385.536L564.59 384.656C562.937 379.683 557.344 377.074 552.075 378.819L551.72 378.927" stroke="#231815" stroke-linecap="round" stroke-linejoin="round"/>
<path d="M547.301 391.126L529.038 383.497" stroke="#231815" stroke-linecap="round" stroke-linejoin="round"/>
<path d="M540.425 403.371L551.689 384.316" stroke="#231815" stroke-linecap="round" stroke-linejoin="round"/>
<path d="M526.473 397.519L544.736 405.147" stroke="#231815" stroke-linecap="round" stroke-linejoin="round"/>
<path d="M533.349 385.273L522.085 404.328" stroke="#231815" stroke-linecap="round" stroke-linejoin="round"/>
<path d="M513.077 371.623L512.753 371.793C507.839 374.34 501.891 372.626 499.48 367.978L499.048 367.16C496.637 362.512 498.677 356.675 503.59 354.127L503.915 353.957" stroke="#231815" stroke-linecap="round" stroke-linejoin="round"/>
<path d="M546.714 354.22L547.038 354.05C551.951 351.502 553.991 345.665 551.581 341.017L551.148 340.199C548.738 335.551 542.805 333.837 537.876 336.384L537.551 336.554" stroke="#231815" stroke-linecap="round" stroke-linejoin="round"/>
<path d="M535.095 349.294L515.858 344.615" stroke="#231815" stroke-linecap="round" stroke-linejoin="round"/>
<path d="M530.228 362.466L538.37 341.882" stroke="#231815" stroke-linecap="round" stroke-linejoin="round"/>
<path d="M515.534 358.868L534.77 363.547" stroke="#231815" stroke-linecap="round" stroke-linejoin="round"/>
<path d="M520.401 345.696L512.258 366.28" stroke="#231815" stroke-linecap="round" stroke-linejoin="round"/>
<path d="M497.503 331.644L497.194 331.86C492.651 335.026 486.533 334.099 483.535 329.806L483.01 329.05C480.012 324.757 481.279 318.704 485.822 315.538L486.131 315.322" stroke="#231815" stroke-linecap="round" stroke-linejoin="round"/>
<path d="M528.59 310.01L528.899 309.794C533.441 306.628 534.708 300.59 531.711 296.282L531.185 295.525C528.188 291.233 522.085 290.306 517.527 293.472L517.218 293.688" stroke="#231815" stroke-linecap="round" stroke-linejoin="round"/>
<path d="M516.43 306.644L496.745 304.497" stroke="#231815" stroke-linecap="round" stroke-linejoin="round"/>
<path d="M513.324 320.34L518.732 298.876" stroke="#231815" stroke-linecap="round" stroke-linejoin="round"/>
<path d="M498.275 318.673L517.959 320.819" stroke="#231815" stroke-linecap="round" stroke-linejoin="round"/>
<path d="M501.396 304.991L495.988 326.455" stroke="#231815" stroke-linecap="round" stroke-linejoin="round"/>
<path d="M470.031 297.317L469.768 297.579C465.797 301.44 459.617 301.517 455.955 297.749L455.306 297.085C451.66 293.333 451.922 287.156 455.893 283.295L456.156 283.033" stroke="#231815" stroke-linecap="round" stroke-linejoin="round"/>
<path d="M497.225 270.958L497.487 270.695C501.458 266.835 501.736 260.673 498.074 256.905L497.425 256.241C493.779 252.489 487.599 252.551 483.612 256.411L483.35 256.674" stroke="#231815" stroke-linecap="round" stroke-linejoin="round"/>
<path d="M484.678 269.599L464.901 270.664" stroke="#231815" stroke-linecap="round" stroke-linejoin="round"/>
<path d="M483.813 283.604L485.683 261.553" stroke="#231815" stroke-linecap="round" stroke-linejoin="round"/>
<path d="M468.702 284.392L488.479 283.326" stroke="#231815" stroke-linecap="round" stroke-linejoin="round"/>
<path d="M469.567 270.386L467.698 292.437" stroke="#231815" stroke-linecap="round" stroke-linejoin="round"/>
<path d="M438.141 268.348L437.893 268.626C434.185 272.733 428.02 273.227 424.127 269.722L423.431 269.104C419.538 265.599 419.383 259.422 423.091 255.315L423.339 255.037" stroke="#231815" stroke-linecap="round" stroke-linejoin="round"/>
<path d="M463.495 240.213L463.743 239.935C467.451 235.827 467.296 229.651 463.403 226.145L462.707 225.528C458.814 222.022 452.649 222.516 448.941 226.624L448.693 226.902" stroke="#231815" stroke-linecap="round" stroke-linejoin="round"/>
<path d="M450.887 239.703L431.234 242.097" stroke="#231815" stroke-linecap="round" stroke-linejoin="round"/>
<path d="M450.98 253.74L451.35 231.612" stroke="#231815" stroke-linecap="round" stroke-linejoin="round"/>
<path d="M435.962 255.547L455.615 253.153" stroke="#231815" stroke-linecap="round" stroke-linejoin="round"/>
<path d="M435.869 241.51L435.499 263.638" stroke="#231815" stroke-linecap="round" stroke-linejoin="round"/>
<path d="M409.263 243.193L409.046 243.486C405.848 248.011 399.791 249.231 395.511 246.22L394.754 245.679C390.474 242.668 389.594 236.553 392.776 232.029L392.993 231.735" stroke="#231815" stroke-linecap="round" stroke-linejoin="round"/>
<path d="M431.094 212.263L431.311 211.97C434.509 207.445 433.613 201.33 429.333 198.319L428.576 197.779C424.296 194.768 418.239 195.987 415.041 200.512L414.825 200.805" stroke="#231815" stroke-linecap="round" stroke-linejoin="round"/>
<path d="M418.518 213.251L399.281 217.961" stroke="#231815" stroke-linecap="round" stroke-linejoin="round"/>
<path d="M420.264 227.18L418.008 205.16" stroke="#231815" stroke-linecap="round" stroke-linejoin="round"/>
<path d="M405.57 230.747L424.806 226.037" stroke="#231815" stroke-linecap="round" stroke-linejoin="round"/>
<path d="M403.808 216.818L406.064 238.838" stroke="#231815" stroke-linecap="round" stroke-linejoin="round"/>
<path d="M371.423 225.065L371.284 225.404C369.276 230.562 363.698 233.218 358.816 231.318L357.95 230.979C353.068 229.079 350.719 223.366 352.728 218.208L352.867 217.869" stroke="#231815" stroke-linecap="round" stroke-linejoin="round"/>
<path d="M385.113 189.765L385.252 189.425C387.261 184.267 384.912 178.538 380.03 176.654L379.165 176.315C374.282 174.415 368.689 177.071 366.696 182.229L366.557 182.569" stroke="#231815" stroke-linecap="round" stroke-linejoin="round"/>
<path d="M373.154 193.764L355.633 202.983" stroke="#231815" stroke-linecap="round" stroke-linejoin="round"/>
<path d="M378.237 206.843L370.713 186.028" stroke="#231815" stroke-linecap="round" stroke-linejoin="round"/>
<path d="M364.826 213.869L382.347 204.65" stroke="#231815" stroke-linecap="round" stroke-linejoin="round"/>
<path d="M359.758 200.79L367.283 221.605" stroke="#231815" stroke-linecap="round" stroke-linejoin="round"/>
<path d="M331.622 213.298L331.56 213.668C330.726 219.135 325.859 222.949 320.667 222.161L319.756 222.022C314.58 221.235 311.041 216.155 311.876 210.688L311.938 210.318" stroke="#231815" stroke-linecap="round" stroke-linejoin="round"/>
<path d="M337.308 175.882L337.37 175.512C338.204 170.045 334.681 164.965 329.49 164.177L328.578 164.038C323.402 163.251 318.52 167.05 317.685 172.531L317.624 172.902" stroke="#231815" stroke-linecap="round" stroke-linejoin="round"/>
<path d="M326.492 182.383L311.397 195.185" stroke="#231815" stroke-linecap="round" stroke-linejoin="round"/>
<path d="M334.295 194.057L322.429 175.373" stroke="#231815" stroke-linecap="round" stroke-linejoin="round"/>
<path d="M322.738 203.817L337.833 191.015" stroke="#231815" stroke-linecap="round" stroke-linejoin="round"/>
<path d="M314.951 192.142L326.817 210.827" stroke="#231815" stroke-linecap="round" stroke-linejoin="round"/>
<path d="M272.492 137.942L301.508 123.998" stroke="#231815" stroke-miterlimit="10" stroke-linecap="round"/>
<path d="M289.024 135.24H301.508" stroke="#231815" stroke-miterlimit="10" stroke-linecap="round"/>
<path d="M284.976 126.7H272.492" stroke="#231815" stroke-miterlimit="10" stroke-linecap="round"/>
<path d="M272.492 14.7315L301.508 0.772095" stroke="#231815" stroke-miterlimit="10" stroke-linecap="round"/>
<path d="M289.024 12.0137H301.508" stroke="#231815" stroke-miterlimit="10" stroke-linecap="round"/>
<path d="M284.976 3.47443H272.492" stroke="#231815" stroke-miterlimit="10" stroke-linecap="round"/>
<path d="M272.492 579.686L301.508 565.742" stroke="#231815" stroke-miterlimit="10" stroke-linecap="round"/>
<path d="M289.024 576.983H301.508" stroke="#231815" stroke-miterlimit="10" stroke-linecap="round"/>
<path d="M284.976 568.444H272.492" stroke="#231815" stroke-miterlimit="10" stroke-linecap="round"/>
<path d="M272.492 656.678L301.508 642.719" stroke="#231815" stroke-miterlimit="10" stroke-linecap="round"/>
<path d="M289.024 653.961H301.508" stroke="#231815" stroke-miterlimit="10" stroke-linecap="round"/>
<path d="M284.976 645.421H272.492" stroke="#231815" stroke-miterlimit="10" stroke-linecap="round"/>
<path d="M272.492 676.228L301.508 662.269" stroke="#231815" stroke-miterlimit="10" stroke-linecap="round"/>
<path d="M289.024 673.51H301.508" stroke="#231815" stroke-miterlimit="10" stroke-linecap="round"/>
<path d="M284.976 664.986H272.492" stroke="#231815" stroke-miterlimit="10" stroke-linecap="round"/>
<path d="M272.492 156.781L301.508 142.821" stroke="#231815" stroke-miterlimit="10" stroke-linecap="round"/>
<path d="M289.024 154.063H301.508" stroke="#231815" stroke-miterlimit="10" stroke-linecap="round"/>
<path d="M284.976 145.539H272.492" stroke="#231815" stroke-miterlimit="10" stroke-linecap="round"/>
<path d="M290.708 110.146V119.01" stroke="#231815" stroke-linecap="round" stroke-linejoin="round"/>
<path d="M283.292 110.146V119.01" stroke="#231815" stroke-linecap="round" stroke-linejoin="round"/>
<path d="M290.708 586.542V595.405" stroke="#231815" stroke-linecap="round" stroke-linejoin="round"/>
<path d="M283.292 586.542V595.405" stroke="#231815" stroke-linecap="round" stroke-linejoin="round"/>
<path d="M290.708 21.4023V30.2659" stroke="#231815" stroke-linecap="round" stroke-linejoin="round"/>
<path d="M283.292 21.4023V30.2659" stroke="#231815" stroke-linecap="round" stroke-linejoin="round"/>
<path d="M308.075 604.516C308.075 598.169 313.22 593.027 319.57 593.027C325.92 593.027 331.066 598.169 331.066 604.516" stroke="#231815" stroke-linecap="round" stroke-linejoin="round"/>
<path d="M330.602 635.292C330.602 641.638 325.457 646.78 319.107 646.78C312.756 646.78 307.611 641.638 307.611 635.292" stroke="#231815" stroke-linecap="round" stroke-linejoin="round"/>
<path d="M339.641 607.188C345.991 607.188 351.136 612.33 351.136 618.676C351.136 625.023 345.991 630.165 339.641 630.165" stroke="#231815" stroke-linecap="round" stroke-linejoin="round"/>
<path d="M302.713 624.498L320.173 609.303" stroke="#231815" stroke-linecap="round" stroke-linejoin="round"/>
<path d="M315.398 602.679L330.602 620.128" stroke="#231815" stroke-linecap="round" stroke-linejoin="round"/>
<path d="M309.388 619.031L324.592 636.481" stroke="#231815" stroke-linecap="round" stroke-linejoin="round"/>
<path d="M319.725 630.814L337.184 615.619" stroke="#231815" stroke-linecap="round" stroke-linejoin="round"/>
<path d="M265.925 604.516C265.925 598.169 260.779 593.027 254.429 593.027C248.079 593.027 242.934 598.169 242.934 604.516" stroke="#231815" stroke-linecap="round" stroke-linejoin="round"/>
<path d="M243.397 635.292C243.397 641.638 248.543 646.78 254.893 646.78C261.243 646.78 266.388 641.638 266.388 635.292" stroke="#231815" stroke-linecap="round" stroke-linejoin="round"/>
<path d="M234.343 607.188C227.993 607.188 222.848 612.33 222.848 618.676C222.848 625.023 227.993 630.165 234.343 630.165" stroke="#231815" stroke-linecap="round" stroke-linejoin="round"/>
<path d="M269.772 624.498L287.231 609.303" stroke="#231815" stroke-linecap="round" stroke-linejoin="round"/>
<path d="M282.457 602.679L297.661 620.128" stroke="#231815" stroke-linecap="round" stroke-linejoin="round"/>
<path d="M276.431 619.031L291.635 636.481" stroke="#231815" stroke-linecap="round" stroke-linejoin="round"/>
<path d="M286.768 630.814L304.228 615.619" stroke="#231815" stroke-linecap="round" stroke-linejoin="round"/>
<path d="M236.213 624.498L253.672 609.303" stroke="#231815" stroke-linecap="round" stroke-linejoin="round"/>
<path d="M248.898 602.679L264.102 620.128" stroke="#231815" stroke-linecap="round" stroke-linejoin="round"/>
<path d="M242.888 619.031L258.091 636.481" stroke="#231815" stroke-linecap="round" stroke-linejoin="round"/>
<path d="M253.208 630.814L270.668 615.619" stroke="#231815" stroke-linecap="round" stroke-linejoin="round"/>
<path d="M277.297 351.61L278.533 213.498C278.595 207.183 282.504 202.102 287.294 202.133H288.143C292.918 202.18 296.75 207.337 296.688 213.653L295.483 351.595" stroke="#231815" stroke-linecap="round" stroke-linejoin="round"/>
<path d="M393.302 449.928L496.421 433.266C501.134 432.51 505.583 435.706 506.341 440.416L506.48 441.25C507.237 445.96 504.038 450.407 499.326 451.163L392.066 468.489" stroke="#231815" stroke-linecap="round" stroke-linejoin="round"/>
<path d="M332.147 394.322L436.873 305.285C441.432 301.239 447.689 300.853 450.872 304.42L451.428 305.053C454.611 308.62 453.483 314.797 448.941 318.843L347.073 409.471" stroke="#231815" stroke-linecap="round" stroke-linejoin="round"/>
<path d="M362.246 424.403L476.273 368.596C481.047 365.986 486.78 367.268 489.066 371.453L489.468 372.194C491.755 376.379 489.746 381.892 484.972 384.501L376.569 439.829" stroke="#231815" stroke-linecap="round" stroke-linejoin="round"/>
<path d="M303.131 362.62L377.45 256.241C381.003 251.115 387.4 249.447 391.742 252.535L392.514 253.076C396.856 256.164 397.489 262.835 393.936 267.962L318.087 377.491" stroke="#231815" stroke-linecap="round" stroke-linejoin="round"/>
<path d="M46.9861 448.075L47.3415 448.137C52.8111 449.033 57.9253 445.574 58.7906 440.416L58.9451 439.505C59.7949 434.332 56.0558 429.421 50.5861 428.51L50.2308 428.449" stroke="#231815" stroke-linecap="round" stroke-linejoin="round"/>
<path d="M9.61033 441.914L9.25496 441.852C3.78535 440.956 0.0462374 436.03 0.896036 430.857L1.05054 429.946C1.90034 424.773 7.03003 421.314 12.4996 422.225L12.855 422.287" stroke="#231815" stroke-linecap="round" stroke-linejoin="round"/>
<path d="M19.1279 433.652L35.9848 423.26" stroke="#231815" stroke-linecap="round" stroke-linejoin="round"/>
<path d="M27.8269 444.678L13.7202 427.615" stroke="#231815" stroke-linecap="round" stroke-linejoin="round"/>
<path d="M40.6975 436.71L23.8406 447.102" stroke="#231815" stroke-linecap="round" stroke-linejoin="round"/>
<path d="M31.9985 425.7L46.1052 442.763" stroke="#231815" stroke-linecap="round" stroke-linejoin="round"/>
<path d="M51.9456 409.718L52.3009 409.826C57.5542 411.571 63.1629 408.961 64.8161 403.989L65.1097 403.109C66.7629 398.136 63.8427 392.701 58.574 390.956L58.2186 390.848" stroke="#231815" stroke-linecap="round" stroke-linejoin="round"/>
<path d="M16.0069 397.797L15.6516 397.689C10.3983 395.944 7.47806 390.493 9.11585 385.536L9.40942 384.656C11.0627 379.683 16.6559 377.074 21.9246 378.819L22.28 378.927" stroke="#231815" stroke-linecap="round" stroke-linejoin="round"/>
<path d="M26.6987 391.126L44.9617 383.497" stroke="#231815" stroke-linecap="round" stroke-linejoin="round"/>
<path d="M33.5745 403.371L22.3108 384.316" stroke="#231815" stroke-linecap="round" stroke-linejoin="round"/>
<path d="M47.5266 397.519L29.2637 405.147" stroke="#231815" stroke-linecap="round" stroke-linejoin="round"/>
<path d="M40.6509 385.273L51.9146 404.328" stroke="#231815" stroke-linecap="round" stroke-linejoin="round"/>
<path d="M60.9226 371.623L61.2471 371.793C66.1605 374.34 72.109 372.626 74.5194 367.978L74.952 367.16C77.3623 362.512 75.3228 356.675 70.4094 354.127L70.085 353.957" stroke="#231815" stroke-linecap="round" stroke-linejoin="round"/>
<path d="M27.286 354.22L26.9616 354.05C22.0482 351.502 20.0087 345.665 22.419 341.017L22.8516 340.199C25.262 335.551 31.1951 333.837 36.1239 336.384L36.4484 336.554" stroke="#231815" stroke-linecap="round" stroke-linejoin="round"/>
<path d="M38.8896 349.294L58.126 344.615" stroke="#231815" stroke-linecap="round" stroke-linejoin="round"/>
<path d="M43.7566 362.466L35.614 341.882" stroke="#231815" stroke-linecap="round" stroke-linejoin="round"/>
<path d="M58.4658 358.868L39.2295 363.547" stroke="#231815" stroke-linecap="round" stroke-linejoin="round"/>
<path d="M53.5989 345.696L61.7415 366.28" stroke="#231815" stroke-linecap="round" stroke-linejoin="round"/>
<path d="M76.4971 331.644L76.8061 331.86C81.3486 335.026 87.4672 334.099 90.4647 329.806L90.99 329.05C93.9875 324.757 92.7205 318.704 88.1779 315.538L87.8689 315.322" stroke="#231815" stroke-linecap="round" stroke-linejoin="round"/>
<path d="M45.4099 310.01L45.1009 309.794C40.5583 306.628 39.2913 300.59 42.2888 296.282L42.8141 295.525C45.8116 291.233 51.9147 290.306 56.4727 293.472L56.7817 293.688" stroke="#231815" stroke-linecap="round" stroke-linejoin="round"/>
<path d="M57.5542 306.644L77.2386 304.497" stroke="#231815" stroke-linecap="round" stroke-linejoin="round"/>
<path d="M60.6754 320.34L55.2676 298.876" stroke="#231815" stroke-linecap="round" stroke-linejoin="round"/>
<path d="M75.7091 318.673L56.0247 320.819" stroke="#231815" stroke-linecap="round" stroke-linejoin="round"/>
<path d="M72.6035 304.991L78.0113 326.455" stroke="#231815" stroke-linecap="round" stroke-linejoin="round"/>
<path d="M103.969 297.317L104.231 297.579C108.202 301.44 114.383 301.517 118.044 297.749L118.693 297.085C122.34 293.333 122.077 287.156 118.106 283.295L117.844 283.033" stroke="#231815" stroke-linecap="round" stroke-linejoin="round"/>
<path d="M76.7754 270.958L76.5127 270.695C72.5418 266.835 72.2637 260.673 75.9256 256.905L76.5745 256.241C80.2209 252.489 86.4012 252.551 90.3876 256.411L90.6502 256.674" stroke="#231815" stroke-linecap="round" stroke-linejoin="round"/>
<path d="M89.3213 269.599L109.098 270.664" stroke="#231815" stroke-linecap="round" stroke-linejoin="round"/>
<path d="M90.1708 283.604L88.3013 261.553" stroke="#231815" stroke-linecap="round" stroke-linejoin="round"/>
<path d="M105.282 284.392L85.5049 283.326" stroke="#231815" stroke-linecap="round" stroke-linejoin="round"/>
<path d="M104.432 270.386L106.302 292.437" stroke="#231815" stroke-linecap="round" stroke-linejoin="round"/>
<path d="M135.844 268.348L136.091 268.626C139.8 272.733 145.965 273.227 149.858 269.722L150.553 269.104C154.447 265.599 154.602 259.422 150.893 255.315L150.646 255.037" stroke="#231815" stroke-linecap="round" stroke-linejoin="round"/>
<path d="M110.505 240.213L110.257 239.935C106.549 235.827 106.704 229.651 110.597 226.145L111.293 225.528C115.186 222.022 121.351 222.516 125.059 226.624L125.307 226.902" stroke="#231815" stroke-linecap="round" stroke-linejoin="round"/>
<path d="M123.097 239.703L142.751 242.097" stroke="#231815" stroke-linecap="round" stroke-linejoin="round"/>
<path d="M123.02 253.74L122.649 231.612" stroke="#231815" stroke-linecap="round" stroke-linejoin="round"/>
<path d="M138.038 255.547L118.385 253.153" stroke="#231815" stroke-linecap="round" stroke-linejoin="round"/>
<path d="M138.131 241.51L138.501 263.638" stroke="#231815" stroke-linecap="round" stroke-linejoin="round"/>
<path d="M164.737 243.193L164.954 243.486C168.152 248.011 174.209 249.231 178.489 246.22L179.246 245.679C183.526 242.668 184.406 236.553 181.223 232.029L181.007 231.735" stroke="#231815" stroke-linecap="round" stroke-linejoin="round"/>
<path d="M142.905 212.263L142.689 211.97C139.491 207.445 140.387 201.33 144.667 198.319L145.424 197.779C149.704 194.768 155.76 195.987 158.959 200.512L159.175 200.805" stroke="#231815" stroke-linecap="round" stroke-linejoin="round"/>
<path d="M155.482 213.251L174.719 217.961" stroke="#231815" stroke-linecap="round" stroke-linejoin="round"/>
<path d="M153.736 227.18L155.992 205.16" stroke="#231815" stroke-linecap="round" stroke-linejoin="round"/>
<path d="M168.43 230.747L149.194 226.037" stroke="#231815" stroke-linecap="round" stroke-linejoin="round"/>
<path d="M170.176 216.818L167.92 238.838" stroke="#231815" stroke-linecap="round" stroke-linejoin="round"/>
<path d="M202.561 225.065L202.7 225.404C204.709 230.562 210.286 233.218 215.169 231.318L216.034 230.979C220.917 229.079 223.265 223.366 221.257 218.208L221.118 217.869" stroke="#231815" stroke-linecap="round" stroke-linejoin="round"/>
<path d="M188.871 189.765L188.732 189.425C186.724 184.267 189.072 178.538 193.955 176.654L194.82 176.315C199.702 174.415 205.296 177.071 207.289 182.229L207.428 182.569" stroke="#231815" stroke-linecap="round" stroke-linejoin="round"/>
<path d="M200.846 193.764L218.367 202.983" stroke="#231815" stroke-linecap="round" stroke-linejoin="round"/>
<path d="M195.763 206.843L203.287 186.028" stroke="#231815" stroke-linecap="round" stroke-linejoin="round"/>
<path d="M209.158 213.869L191.637 204.65" stroke="#231815" stroke-linecap="round" stroke-linejoin="round"/>
<path d="M214.242 200.79L206.717 221.605" stroke="#231815" stroke-linecap="round" stroke-linejoin="round"/>
<path d="M242.377 213.298L242.439 213.668C243.274 219.135 248.141 222.949 253.332 222.161L254.244 222.022C259.42 221.235 262.958 216.155 262.124 210.688L262.062 210.318" stroke="#231815" stroke-linecap="round" stroke-linejoin="round"/>
<path d="M236.692 175.882L236.63 175.512C235.796 170.045 239.319 164.965 244.51 164.177L245.422 164.038C250.598 163.251 255.48 167.05 256.315 172.531L256.376 172.902" stroke="#231815" stroke-linecap="round" stroke-linejoin="round"/>
<path d="M247.507 182.383L262.603 195.185" stroke="#231815" stroke-linecap="round" stroke-linejoin="round"/>
<path d="M239.705 194.057L251.571 175.373" stroke="#231815" stroke-linecap="round" stroke-linejoin="round"/>
<path d="M251.246 203.817L236.151 191.015" stroke="#231815" stroke-linecap="round" stroke-linejoin="round"/>
<path d="M259.049 192.142L247.183 210.827" stroke="#231815" stroke-linecap="round" stroke-linejoin="round"/>
<path d="M180.682 449.928L77.5632 433.266C72.8507 432.51 68.4009 435.706 67.6438 440.416L67.5047 441.25C66.7476 445.96 69.946 450.407 74.6585 451.163L181.918 468.489" stroke="#231815" stroke-linecap="round" stroke-linejoin="round"/>
<path d="M241.852 394.322L137.126 305.285C132.568 301.239 126.311 300.853 123.128 304.42L122.572 305.053C119.389 308.62 120.517 314.797 125.059 318.843L226.927 409.471" stroke="#231815" stroke-linecap="round" stroke-linejoin="round"/>
<path d="M211.754 424.403L97.7266 368.596C92.9523 365.986 87.22 367.268 84.9333 371.453L84.5316 372.194C82.2448 376.379 84.2535 381.892 89.0278 384.501L197.431 439.829" stroke="#231815" stroke-linecap="round" stroke-linejoin="round"/>
<path d="M270.869 362.62L196.55 256.241C192.997 251.115 186.6 249.447 182.258 252.535L181.486 253.076C177.144 256.164 176.511 262.835 180.064 267.962L255.913 377.491" stroke="#231815" stroke-linecap="round" stroke-linejoin="round"/>
<path d="M316.836 530.318L320.297 534.287C325.704 540.494 326.879 548.323 322.908 551.767L322.213 552.384C318.257 555.828 310.655 553.604 305.247 547.397L303.378 545.451" stroke="#231815" stroke-linecap="round" stroke-linejoin="round"/>
<path d="M346.996 500.16L351.538 505.364C358.615 513.487 361.149 522.875 357.193 526.334L356.498 526.952C352.543 530.395 343.581 526.612 336.505 518.474L334.094 515.896" stroke="#231815" stroke-linecap="round" stroke-linejoin="round"/>
<path d="M377.727 471.547L384.371 479.175C394.754 491.096 399.961 503.542 395.99 507.001L395.295 507.619C391.339 511.062 379.705 504.206 369.322 492.285L365.83 488.471" stroke="#231815" stroke-linecap="round" stroke-linejoin="round"/>
<path d="M251.942 530.318L248.481 534.287C243.073 540.494 241.899 548.323 245.87 551.767L246.565 552.384C250.521 555.828 258.122 553.604 263.53 547.397L265.4 545.451" stroke="#231815" stroke-linecap="round" stroke-linejoin="round"/>
<path d="M221.782 500.16L217.239 505.364C210.163 513.487 207.629 522.875 211.584 526.334L212.28 526.952C216.235 530.395 225.196 526.612 232.273 518.474L234.683 515.896" stroke="#231815" stroke-linecap="round" stroke-linejoin="round"/>
<path d="M191.065 471.547L184.421 479.175C174.039 491.096 168.832 503.542 172.802 507.001L173.498 507.619C177.453 511.062 189.088 504.206 199.471 492.285L202.963 488.471" stroke="#231815" stroke-linecap="round" stroke-linejoin="round"/>
<path d="M287.001 349.203L181.658 454.484L287.001 559.765L392.344 454.484L287.001 349.203Z" stroke="#231815" stroke-linecap="round" stroke-linejoin="round"/>
<path d="M196.705 439.443L302.049 544.71" stroke="#231815" stroke-linecap="round" stroke-linejoin="round"/>
<path d="M211.754 424.403L317.098 529.67" stroke="#231815" stroke-linecap="round" stroke-linejoin="round"/>
<path d="M226.803 409.363L332.147 514.629" stroke="#231815" stroke-linecap="round" stroke-linejoin="round"/>
<path d="M241.853 394.322L347.197 499.589" stroke="#231815" stroke-linecap="round" stroke-linejoin="round"/>
<path d="M256.902 379.282L362.246 484.549" stroke="#231815" stroke-linecap="round" stroke-linejoin="round"/>
<path d="M271.951 364.242L377.295 469.508" stroke="#231815" stroke-linecap="round" stroke-linejoin="round"/>
<path d="M377.295 439.443L271.951 544.71" stroke="#231815" stroke-linecap="round" stroke-linejoin="round"/>
<path d="M362.246 424.403L256.902 529.67" stroke="#231815" stroke-linecap="round" stroke-linejoin="round"/>
<path d="M347.197 409.363L241.853 514.629" stroke="#231815" stroke-linecap="round" stroke-linejoin="round"/>
<path d="M332.147 394.322L226.803 499.589" stroke="#231815" stroke-linecap="round" stroke-linejoin="round"/>
<path d="M317.098 379.282L211.754 484.549" stroke="#231815" stroke-linecap="round" stroke-linejoin="round"/>
<path d="M302.049 364.242L196.705 469.508" stroke="#231815" stroke-linecap="round" stroke-linejoin="round"/>
<path d="M294.632 162.757V185.889" stroke="#231815" stroke-linecap="round" stroke-linejoin="round"/>
<path d="M302.76 186.63H279.614" stroke="#231815" stroke-linecap="round" stroke-linejoin="round"/>
<path d="M294.385 171.358H271.24" stroke="#231815" stroke-linecap="round" stroke-linejoin="round"/>
<path d="M278.703 171.404V194.536" stroke="#231815" stroke-linecap="round" stroke-linejoin="round"/>
</g>
<defs>
<clipPath id="clip0_755_629">
<rect width="574" height="677" fill="white"/>
</clipPath>
</defs>
</svg>
