<svg width="345" height="831" viewBox="0 0 345 831" fill="none" xmlns="http://www.w3.org/2000/svg">
<g clip-path="url(#clip0_755_1140)">
<path d="M158.026 14.7342L186.974 0.772217" stroke="#231815" stroke-miterlimit="10" stroke-linecap="round"/>
<path d="M174.519 12.0159H186.974" stroke="#231815" stroke-miterlimit="10" stroke-linecap="round"/>
<path d="M170.481 3.47504H158.026" stroke="#231815" stroke-miterlimit="10" stroke-linecap="round"/>
<path d="M158.026 150.199L186.974 136.237" stroke="#231815" stroke-miterlimit="10" stroke-linecap="round"/>
<path d="M174.519 147.481H186.974" stroke="#231815" stroke-miterlimit="10" stroke-linecap="round"/>
<path d="M170.481 138.956H158.026" stroke="#231815" stroke-miterlimit="10" stroke-linecap="round"/>
<path d="M158.026 173.922L186.974 159.96" stroke="#231815" stroke-miterlimit="10" stroke-linecap="round"/>
<path d="M174.519 171.204H186.974" stroke="#231815" stroke-miterlimit="10" stroke-linecap="round"/>
<path d="M170.481 162.679H158.026" stroke="#231815" stroke-miterlimit="10" stroke-linecap="round"/>
<path d="M158.026 830.228L186.974 816.281" stroke="#231815" stroke-miterlimit="10" stroke-linecap="round"/>
<path d="M174.519 827.525H186.974" stroke="#231815" stroke-miterlimit="10" stroke-linecap="round"/>
<path d="M170.481 818.984H158.026" stroke="#231815" stroke-miterlimit="10" stroke-linecap="round"/>
<path d="M153.464 220.75H153.094C147.56 220.75 143.09 216.503 143.09 211.267V210.341C143.09 205.105 147.575 200.858 153.094 200.858H153.464" stroke="#231815" stroke-linecap="round" stroke-linejoin="round"/>
<path d="M191.259 220.75H191.629C197.163 220.75 201.633 216.503 201.633 211.267V210.341C201.633 205.105 197.147 200.858 191.629 200.858H191.259" stroke="#231815" stroke-linecap="round" stroke-linejoin="round"/>
<path d="M183.228 211.051L168.338 198.047" stroke="#231815" stroke-linecap="round" stroke-linejoin="round"/>
<path d="M172.87 220.503L189.533 205.97" stroke="#231815" stroke-linecap="round" stroke-linejoin="round"/>
<path d="M161.494 210.557L176.384 223.562" stroke="#231815" stroke-linecap="round" stroke-linejoin="round"/>
<path d="M171.853 201.105L155.19 215.638" stroke="#231815" stroke-linecap="round" stroke-linejoin="round"/>
<path d="M153.464 789.361H153.094C147.56 789.361 143.09 785.114 143.09 779.878V778.952C143.09 773.716 147.575 769.469 153.094 769.469H153.464" stroke="#231815" stroke-linecap="round" stroke-linejoin="round"/>
<path d="M191.259 789.361H191.629C197.163 789.361 201.633 785.114 201.633 779.878V778.952C201.633 773.716 197.147 769.469 191.629 769.469H191.259" stroke="#231815" stroke-linecap="round" stroke-linejoin="round"/>
<path d="M183.228 779.646L168.338 766.642" stroke="#231815" stroke-linecap="round" stroke-linejoin="round"/>
<path d="M172.87 789.114L189.533 774.581" stroke="#231815" stroke-linecap="round" stroke-linejoin="round"/>
<path d="M161.494 779.168L176.384 792.172" stroke="#231815" stroke-linecap="round" stroke-linejoin="round"/>
<path d="M171.853 769.7L155.19 784.234" stroke="#231815" stroke-linecap="round" stroke-linejoin="round"/>
<path d="M56.6626 638.189H65.5257" stroke="#231815" stroke-linecap="round" stroke-linejoin="round"/>
<path d="M56.6626 645.602H65.5257" stroke="#231815" stroke-linecap="round" stroke-linejoin="round"/>
<path d="M43.73 626.281C43.73 619.933 38.5971 614.79 32.2618 614.79C25.9266 614.79 20.7937 619.933 20.7937 626.281" stroke="#231815" stroke-linecap="round" stroke-linejoin="round"/>
<path d="M21.2561 657.047C21.2561 663.395 26.389 668.538 32.7242 668.538C39.0595 668.538 44.1924 663.395 44.1924 657.047" stroke="#231815" stroke-linecap="round" stroke-linejoin="round"/>
<path d="M12.2389 628.953C5.90367 628.953 0.770752 634.096 0.770752 640.444C0.770752 646.792 5.90367 651.935 12.2389 651.935" stroke="#231815" stroke-linecap="round" stroke-linejoin="round"/>
<path d="M14.0886 646.251L31.5066 631.053" stroke="#231815" stroke-linecap="round" stroke-linejoin="round"/>
<path d="M26.7437 624.443L41.9112 641.896" stroke="#231815" stroke-linecap="round" stroke-linejoin="round"/>
<path d="M20.7476 640.799L35.9151 658.251" stroke="#231815" stroke-linecap="round" stroke-linejoin="round"/>
<path d="M31.0442 652.583L48.4622 637.386" stroke="#231815" stroke-linecap="round" stroke-linejoin="round"/>
<path d="M56.6626 346.98H65.5257" stroke="#231815" stroke-linecap="round" stroke-linejoin="round"/>
<path d="M56.6626 354.393H65.5257" stroke="#231815" stroke-linecap="round" stroke-linejoin="round"/>
<path d="M43.73 335.072C43.73 328.724 38.5971 323.581 32.2618 323.581C25.9266 323.581 20.7937 328.724 20.7937 335.072" stroke="#231815" stroke-linecap="round" stroke-linejoin="round"/>
<path d="M21.2561 365.853C21.2561 372.201 26.389 377.344 32.7242 377.344C39.0595 377.344 44.1924 372.201 44.1924 365.853" stroke="#231815" stroke-linecap="round" stroke-linejoin="round"/>
<path d="M12.2389 337.744C5.90367 337.744 0.770752 342.887 0.770752 349.235C0.770752 355.582 5.90367 360.725 12.2389 360.725" stroke="#231815" stroke-linecap="round" stroke-linejoin="round"/>
<path d="M14.0886 355.057L31.5066 339.86" stroke="#231815" stroke-linecap="round" stroke-linejoin="round"/>
<path d="M26.7437 333.234L41.9112 350.686" stroke="#231815" stroke-linecap="round" stroke-linejoin="round"/>
<path d="M20.7476 349.59L35.9151 367.042" stroke="#231815" stroke-linecap="round" stroke-linejoin="round"/>
<path d="M31.0442 361.374L48.4622 346.177" stroke="#231815" stroke-linecap="round" stroke-linejoin="round"/>
<path d="M157.009 481.982C150.673 481.982 145.541 487.125 145.541 493.472C145.541 499.82 150.673 504.963 157.009 504.963" stroke="#231815" stroke-linecap="round" stroke-linejoin="round"/>
<path d="M187.714 504.5C194.049 504.5 199.182 499.357 199.182 493.009C199.182 486.661 194.049 481.518 187.714 481.518" stroke="#231815" stroke-linecap="round" stroke-linejoin="round"/>
<path d="M161.124 511.419C161.124 517.767 166.257 522.91 172.592 522.91C178.928 522.91 184.061 517.767 184.061 511.419" stroke="#231815" stroke-linecap="round" stroke-linejoin="round"/>
<path d="M176.939 511.682L161.772 494.229" stroke="#231815" stroke-linecap="round" stroke-linejoin="round"/>
<path d="M155.174 499.001L172.592 483.804" stroke="#231815" stroke-linecap="round" stroke-linejoin="round"/>
<path d="M171.498 505.01L188.916 489.812" stroke="#231815" stroke-linecap="round" stroke-linejoin="round"/>
<path d="M183.259 494.692L168.092 477.24" stroke="#231815" stroke-linecap="round" stroke-linejoin="round"/>
<path d="M288.337 638.189H279.49" stroke="#231815" stroke-linecap="round" stroke-linejoin="round"/>
<path d="M288.337 645.602H279.49" stroke="#231815" stroke-linecap="round" stroke-linejoin="round"/>
<path d="M301.27 626.281C301.27 619.933 306.403 614.79 312.738 614.79C319.073 614.79 324.206 619.933 324.206 626.281" stroke="#231815" stroke-linecap="round" stroke-linejoin="round"/>
<path d="M323.744 657.047C323.744 663.395 318.611 668.538 312.276 668.538C305.941 668.538 300.808 663.395 300.808 657.047" stroke="#231815" stroke-linecap="round" stroke-linejoin="round"/>
<path d="M332.777 628.953C339.112 628.953 344.245 634.096 344.245 640.444C344.245 646.791 339.112 651.934 332.777 651.934" stroke="#231815" stroke-linecap="round" stroke-linejoin="round"/>
<path d="M330.911 646.251L313.493 631.053" stroke="#231815" stroke-linecap="round" stroke-linejoin="round"/>
<path d="M318.256 624.443L303.089 641.896" stroke="#231815" stroke-linecap="round" stroke-linejoin="round"/>
<path d="M324.268 640.799L309.1 658.251" stroke="#231815" stroke-linecap="round" stroke-linejoin="round"/>
<path d="M313.956 652.583L296.538 637.386" stroke="#231815" stroke-linecap="round" stroke-linejoin="round"/>
<path d="M288.337 346.98H279.49" stroke="#231815" stroke-linecap="round" stroke-linejoin="round"/>
<path d="M288.337 354.393H279.49" stroke="#231815" stroke-linecap="round" stroke-linejoin="round"/>
<path d="M301.27 335.072C301.27 328.724 306.403 323.581 312.738 323.581C319.073 323.581 324.206 328.724 324.206 335.072" stroke="#231815" stroke-linecap="round" stroke-linejoin="round"/>
<path d="M323.744 365.853C323.744 372.201 318.611 377.344 312.276 377.344C305.941 377.344 300.808 372.201 300.808 365.853" stroke="#231815" stroke-linecap="round" stroke-linejoin="round"/>
<path d="M332.777 337.744C339.112 337.744 344.245 342.887 344.245 349.235C344.245 355.582 339.112 360.725 332.777 360.725" stroke="#231815" stroke-linecap="round" stroke-linejoin="round"/>
<path d="M330.911 355.057L313.493 339.86" stroke="#231815" stroke-linecap="round" stroke-linejoin="round"/>
<path d="M318.256 333.234L303.089 350.686" stroke="#231815" stroke-linecap="round" stroke-linejoin="round"/>
<path d="M324.268 349.59L309.1 367.042" stroke="#231815" stroke-linecap="round" stroke-linejoin="round"/>
<path d="M313.956 361.374L296.538 346.177" stroke="#231815" stroke-linecap="round" stroke-linejoin="round"/>
<path d="M184.878 119.542L189.286 123.387C191.352 125.194 194.496 124.978 196.284 122.909L196.608 122.538C198.411 120.468 198.196 117.318 196.13 115.526L192.816 112.638" stroke="#231815" stroke-linecap="round" stroke-linejoin="round"/>
<path d="M205.656 98.7222L210.064 102.568C212.13 104.375 215.274 104.159 217.062 102.089L217.386 101.719C219.189 99.6489 218.974 96.4982 216.908 94.7066L213.594 91.8185" stroke="#231815" stroke-linecap="round" stroke-linejoin="round"/>
<path d="M187.621 33.4995L192.03 29.6537C194.095 27.8467 197.24 28.0629 199.028 30.1325L199.352 30.5032C201.155 32.5728 200.939 35.7235 198.874 37.5151L195.56 40.4032" stroke="#231815" stroke-linecap="round" stroke-linejoin="round"/>
<path d="M208.4 54.3034L212.808 50.4577C214.874 48.6507 218.018 48.8669 219.806 50.9365L220.13 51.3072C221.933 53.3767 221.718 56.5274 219.652 58.319L216.338 61.2072" stroke="#231815" stroke-linecap="round" stroke-linejoin="round"/>
<path d="M159.83 119.542L155.421 123.387C153.356 125.194 150.211 124.978 148.423 122.909L148.099 122.538C146.296 120.468 146.512 117.318 148.577 115.526L151.891 112.638" stroke="#231815" stroke-linecap="round" stroke-linejoin="round"/>
<path d="M139.067 98.7222L134.658 102.568C132.593 104.375 129.448 104.159 127.66 102.089L127.336 101.719C125.533 99.6489 125.749 96.4982 127.814 94.7066L131.128 91.8185" stroke="#231815" stroke-linecap="round" stroke-linejoin="round"/>
<path d="M157.086 33.4995L152.677 29.6537C150.612 27.8467 147.467 28.0629 145.679 30.1325L145.356 30.5032C143.552 32.5728 143.768 35.7235 145.833 37.5151L149.148 40.4032" stroke="#231815" stroke-linecap="round" stroke-linejoin="round"/>
<path d="M136.323 54.3034L131.914 50.4577C129.849 48.6507 126.704 48.8669 124.916 50.9365L124.593 51.3072C122.789 53.3767 123.005 56.5274 125.071 58.319L128.385 61.2072" stroke="#231815" stroke-linecap="round" stroke-linejoin="round"/>
<path d="M183.922 439.586L190.473 445.3C193.556 447.988 198.226 447.664 200.908 444.575L201.386 444.034C204.068 440.945 203.744 436.265 200.662 433.578L195.729 429.269" stroke="#231815" stroke-linecap="round" stroke-linejoin="round"/>
<path d="M205.517 417.933L212.068 423.647C215.151 426.334 219.821 426.01 222.504 422.921L222.981 422.381C225.663 419.292 225.34 414.612 222.257 411.925L217.324 407.615" stroke="#231815" stroke-linecap="round" stroke-linejoin="round"/>
<path d="M227.297 396.109L233.848 401.824C236.931 404.511 241.602 404.187 244.284 401.098L244.762 400.557C247.444 397.468 247.12 392.789 244.037 390.101L239.105 385.792" stroke="#231815" stroke-linecap="round" stroke-linejoin="round"/>
<path d="M249.463 373.915L256.014 379.63C259.097 382.317 263.767 381.993 266.449 378.904L266.927 378.363C269.609 375.274 269.286 370.595 266.203 367.907L261.27 363.598" stroke="#231815" stroke-linecap="round" stroke-linejoin="round"/>
<path d="M184.893 261.447L191.444 255.733C194.527 253.045 199.197 253.37 201.879 256.459L202.357 256.999C205.039 260.088 204.716 264.768 201.633 267.455L196.7 271.764" stroke="#231815" stroke-linecap="round" stroke-linejoin="round"/>
<path d="M206.488 283.101L213.039 277.386C216.122 274.699 220.793 275.023 223.475 278.112L223.953 278.653C226.635 281.742 226.311 286.421 223.228 289.109L218.296 293.418" stroke="#231815" stroke-linecap="round" stroke-linejoin="round"/>
<path d="M228.269 304.924L234.82 299.209C237.902 296.522 242.573 296.846 245.255 299.935L245.733 300.476C248.415 303.565 248.091 308.245 245.008 310.932L240.076 315.241" stroke="#231815" stroke-linecap="round" stroke-linejoin="round"/>
<path d="M250.434 327.118L256.985 321.403C260.068 318.716 264.738 319.04 267.421 322.129L267.898 322.67C270.58 325.759 270.257 330.439 267.174 333.126L262.241 337.435" stroke="#231815" stroke-linecap="round" stroke-linejoin="round"/>
<path d="M160.801 439.586L154.25 445.3C151.167 447.988 146.496 447.664 143.814 444.575L143.336 444.034C140.654 440.945 140.978 436.265 144.061 433.578L148.994 429.269" stroke="#231815" stroke-linecap="round" stroke-linejoin="round"/>
<path d="M139.19 417.933L132.639 423.647C129.556 426.334 124.886 426.01 122.203 422.921L121.726 422.381C119.044 419.292 119.367 414.612 122.45 411.925L127.383 407.615" stroke="#231815" stroke-linecap="round" stroke-linejoin="round"/>
<path d="M117.425 396.109L110.874 401.824C107.791 404.511 103.121 404.187 100.439 401.098L99.961 400.557C97.2789 397.468 97.6026 392.789 100.685 390.101L105.618 385.792" stroke="#231815" stroke-linecap="round" stroke-linejoin="round"/>
<path d="M95.2597 373.915L88.7087 379.63C85.6259 382.317 80.9554 381.993 78.2733 378.904L77.7955 378.363C75.1134 375.274 75.4371 370.595 78.5199 367.907L83.4525 363.598" stroke="#231815" stroke-linecap="round" stroke-linejoin="round"/>
<path d="M159.83 261.447L153.279 255.733C150.196 253.045 145.525 253.37 142.843 256.459L142.365 256.999C139.683 260.088 140.007 264.768 143.09 267.455L148.022 271.764" stroke="#231815" stroke-linecap="round" stroke-linejoin="round"/>
<path d="M138.219 283.101L131.668 277.386C128.585 274.699 123.915 275.023 121.233 278.112L120.755 278.653C118.073 281.742 118.396 286.421 121.479 289.109L126.412 293.418" stroke="#231815" stroke-linecap="round" stroke-linejoin="round"/>
<path d="M116.454 304.924L109.903 299.209C106.82 296.522 102.15 296.846 99.4676 299.935L98.9898 300.476C96.3077 303.565 96.6314 308.245 99.7143 310.932L104.647 315.241" stroke="#231815" stroke-linecap="round" stroke-linejoin="round"/>
<path d="M94.2885 327.118L87.7375 321.403C84.6547 318.716 79.9842 319.04 77.3021 322.129L76.8243 322.67C74.1422 325.759 74.4659 330.439 77.5488 333.126L82.4813 337.435" stroke="#231815" stroke-linecap="round" stroke-linejoin="round"/>
<path d="M172.353 24.4951L121.464 75.4854L172.353 126.476L223.243 75.4854L172.353 24.4951Z" stroke="#231815" stroke-linecap="round" stroke-linejoin="round"/>
<path d="M162.188 116.283L213.07 65.2846" stroke="#231815" stroke-linecap="round" stroke-linejoin="round"/>
<path d="M151.999 106.074L202.897 55.0911" stroke="#231815" stroke-linecap="round" stroke-linejoin="round"/>
<path d="M141.826 95.8805L192.723 44.8976" stroke="#231815" stroke-linecap="round" stroke-linejoin="round"/>
<path d="M131.652 85.687L182.535 34.6887" stroke="#231815" stroke-linecap="round" stroke-linejoin="round"/>
<path d="M162.188 34.6887L213.07 85.687" stroke="#231815" stroke-linecap="round" stroke-linejoin="round"/>
<path d="M151.999 44.8976L202.897 95.8805" stroke="#231815" stroke-linecap="round" stroke-linejoin="round"/>
<path d="M141.826 55.0911L192.723 106.074" stroke="#231815" stroke-linecap="round" stroke-linejoin="round"/>
<path d="M131.652 65.2846L182.535 116.283" stroke="#231815" stroke-linecap="round" stroke-linejoin="round"/>
<path d="M172.525 256.408L78.6477 350.47L172.525 444.533L266.402 350.47L172.525 256.408Z" stroke="#231815" stroke-linecap="round" stroke-linejoin="round"/>
<path d="M89.0786 340.014L182.951 434.072" stroke="#231815" stroke-linecap="round" stroke-linejoin="round"/>
<path d="M99.5139 329.558L193.386 423.616" stroke="#231815" stroke-linecap="round" stroke-linejoin="round"/>
<path d="M109.949 319.102L203.822 413.175" stroke="#231815" stroke-linecap="round" stroke-linejoin="round"/>
<path d="M120.369 308.661L214.257 402.719" stroke="#231815" stroke-linecap="round" stroke-linejoin="round"/>
<path d="M130.805 298.205L224.677 392.263" stroke="#231815" stroke-linecap="round" stroke-linejoin="round"/>
<path d="M141.24 287.749L235.112 381.823" stroke="#231815" stroke-linecap="round" stroke-linejoin="round"/>
<path d="M151.66 277.309L245.548 371.367" stroke="#231815" stroke-linecap="round" stroke-linejoin="round"/>
<path d="M162.095 266.853L255.968 360.911" stroke="#231815" stroke-linecap="round" stroke-linejoin="round"/>
<path d="M255.968 340.014L162.095 434.072" stroke="#231815" stroke-linecap="round" stroke-linejoin="round"/>
<path d="M245.548 329.558L151.66 423.616" stroke="#231815" stroke-linecap="round" stroke-linejoin="round"/>
<path d="M235.112 319.102L141.24 413.175" stroke="#231815" stroke-linecap="round" stroke-linejoin="round"/>
<path d="M224.677 308.661L130.805 402.719" stroke="#231815" stroke-linecap="round" stroke-linejoin="round"/>
<path d="M214.257 298.205L120.369 392.263" stroke="#231815" stroke-linecap="round" stroke-linejoin="round"/>
<path d="M203.822 287.749L109.949 381.823" stroke="#231815" stroke-linecap="round" stroke-linejoin="round"/>
<path d="M193.386 277.309L99.5139 371.367" stroke="#231815" stroke-linecap="round" stroke-linejoin="round"/>
<path d="M182.951 266.853L89.0786 360.911" stroke="#231815" stroke-linecap="round" stroke-linejoin="round"/>
<path d="M183.922 731.675L190.473 737.39C193.556 740.077 198.226 739.753 200.908 736.664L201.386 736.123C204.068 733.035 203.744 728.355 200.662 725.667L195.729 721.358" stroke="#231815" stroke-linecap="round" stroke-linejoin="round"/>
<path d="M205.517 710.022L212.068 715.737C215.151 718.424 219.821 718.1 222.504 715.011L222.981 714.47C225.663 711.381 225.34 706.701 222.257 704.014L217.324 699.705" stroke="#231815" stroke-linecap="round" stroke-linejoin="round"/>
<path d="M227.297 688.199L233.848 693.913C236.931 696.601 241.602 696.276 244.284 693.187L244.762 692.647C247.444 689.558 247.12 684.878 244.037 682.191L239.105 677.882" stroke="#231815" stroke-linecap="round" stroke-linejoin="round"/>
<path d="M249.463 666.005L256.014 671.719C259.097 674.407 263.767 674.082 266.449 670.993L266.927 670.453C269.609 667.364 269.286 662.684 266.203 659.997L261.27 655.688" stroke="#231815" stroke-linecap="round" stroke-linejoin="round"/>
<path d="M184.893 553.552L191.444 547.838C194.527 545.15 199.197 545.474 201.879 548.563L202.357 549.104C205.039 552.193 204.716 556.873 201.633 559.56L196.7 563.869" stroke="#231815" stroke-linecap="round" stroke-linejoin="round"/>
<path d="M206.488 575.19L213.039 569.476C216.122 566.788 220.793 567.113 223.475 570.201L223.953 570.742C226.635 573.831 226.311 578.511 223.228 581.198L218.296 585.507" stroke="#231815" stroke-linecap="round" stroke-linejoin="round"/>
<path d="M228.269 597.013L234.82 591.299C237.902 588.611 242.573 588.936 245.255 592.025L245.733 592.565C248.415 595.654 248.091 600.334 245.008 603.021L240.076 607.33" stroke="#231815" stroke-linecap="round" stroke-linejoin="round"/>
<path d="M250.434 619.223L256.985 613.508C260.068 610.821 264.738 611.145 267.421 614.234L267.898 614.775C270.58 617.864 270.257 622.543 267.174 625.231L262.241 629.54" stroke="#231815" stroke-linecap="round" stroke-linejoin="round"/>
<path d="M160.801 731.675L154.25 737.39C151.167 740.077 146.496 739.753 143.814 736.664L143.336 736.123C140.654 733.035 140.978 728.355 144.061 725.667L148.994 721.358" stroke="#231815" stroke-linecap="round" stroke-linejoin="round"/>
<path d="M139.19 710.022L132.639 715.737C129.556 718.424 124.886 718.1 122.203 715.011L121.726 714.47C119.044 711.381 119.367 706.701 122.45 704.014L127.383 699.705" stroke="#231815" stroke-linecap="round" stroke-linejoin="round"/>
<path d="M117.425 688.199L110.874 693.913C107.791 696.601 103.121 696.276 100.439 693.187L99.961 692.647C97.2789 689.558 97.6026 684.878 100.685 682.191L105.618 677.882" stroke="#231815" stroke-linecap="round" stroke-linejoin="round"/>
<path d="M95.2597 666.005L88.7087 671.719C85.6259 674.407 80.9554 674.082 78.2733 670.993L77.7955 670.453C75.1134 667.364 75.4371 662.684 78.5199 659.997L83.4525 655.688" stroke="#231815" stroke-linecap="round" stroke-linejoin="round"/>
<path d="M159.83 553.552L153.279 547.838C150.196 545.15 145.525 545.474 142.843 548.563L142.365 549.104C139.683 552.193 140.007 556.873 143.09 559.56L148.022 563.869" stroke="#231815" stroke-linecap="round" stroke-linejoin="round"/>
<path d="M138.219 575.19L131.668 569.476C128.585 566.788 123.915 567.113 121.233 570.201L120.755 570.742C118.073 573.831 118.396 578.511 121.479 581.198L126.412 585.507" stroke="#231815" stroke-linecap="round" stroke-linejoin="round"/>
<path d="M116.454 597.013L109.903 591.299C106.82 588.611 102.15 588.936 99.4676 592.025L98.9898 592.565C96.3077 595.654 96.6314 600.334 99.7143 603.021L104.647 607.33" stroke="#231815" stroke-linecap="round" stroke-linejoin="round"/>
<path d="M94.2885 619.223L87.7375 613.508C84.6547 610.821 79.9842 611.145 77.3021 614.234L76.8243 614.775C74.1422 617.864 74.4659 622.543 77.5488 625.231L82.4813 629.54" stroke="#231815" stroke-linecap="round" stroke-linejoin="round"/>
<path d="M172.355 547.595L78.4783 641.658L172.355 735.72L266.232 641.658L172.355 547.595Z" stroke="#231815" stroke-linecap="round" stroke-linejoin="round"/>
<path d="M88.9089 631.208L182.797 725.281" stroke="#231815" stroke-linecap="round" stroke-linejoin="round"/>
<path d="M99.3442 620.767L193.217 714.825" stroke="#231815" stroke-linecap="round" stroke-linejoin="round"/>
<path d="M109.78 610.311L203.652 704.369" stroke="#231815" stroke-linecap="round" stroke-linejoin="round"/>
<path d="M120.2 599.855L214.087 693.913" stroke="#231815" stroke-linecap="round" stroke-linejoin="round"/>
<path d="M130.635 589.399L224.507 683.473" stroke="#231815" stroke-linecap="round" stroke-linejoin="round"/>
<path d="M141.071 578.958L234.943 673.017" stroke="#231815" stroke-linecap="round" stroke-linejoin="round"/>
<path d="M151.506 568.503L245.378 662.561" stroke="#231815" stroke-linecap="round" stroke-linejoin="round"/>
<path d="M161.926 558.047L255.814 652.12" stroke="#231815" stroke-linecap="round" stroke-linejoin="round"/>
<path d="M255.814 631.208L161.926 725.281" stroke="#231815" stroke-linecap="round" stroke-linejoin="round"/>
<path d="M245.378 620.767L151.506 714.825" stroke="#231815" stroke-linecap="round" stroke-linejoin="round"/>
<path d="M234.943 610.311L141.071 704.369" stroke="#231815" stroke-linecap="round" stroke-linejoin="round"/>
<path d="M224.507 599.855L130.635 693.913" stroke="#231815" stroke-linecap="round" stroke-linejoin="round"/>
<path d="M214.087 589.399L120.2 683.473" stroke="#231815" stroke-linecap="round" stroke-linejoin="round"/>
<path d="M203.652 578.958L109.78 673.017" stroke="#231815" stroke-linecap="round" stroke-linejoin="round"/>
<path d="M193.217 568.503L99.3442 662.561" stroke="#231815" stroke-linecap="round" stroke-linejoin="round"/>
<path d="M182.797 558.047L88.9089 652.12" stroke="#231815" stroke-linecap="round" stroke-linejoin="round"/>
<path d="M242.527 75.4781C242.527 79.3547 240.153 82.5054 235.066 82.5054C229.979 82.5054 224.107 75.4781 224.107 75.4781C224.107 75.4781 229.979 68.4507 235.066 68.4507C240.153 68.4507 242.527 71.6015 242.527 75.4781Z" stroke="#231815" stroke-linecap="round" stroke-linejoin="round"/>
<path d="M102.196 75.4781C102.196 79.3547 104.57 82.5054 109.656 82.5054C114.743 82.5054 120.616 75.4781 120.616 75.4781C120.616 75.4781 114.743 68.4507 109.656 68.4507C104.57 68.4507 102.196 71.6015 102.196 75.4781Z" stroke="#231815" stroke-linecap="round" stroke-linejoin="round"/>
<path d="M176.061 232.473V241.338" stroke="#231815" stroke-linecap="round" stroke-linejoin="round"/>
<path d="M168.662 232.473V241.338" stroke="#231815" stroke-linecap="round" stroke-linejoin="round"/>
<path d="M176.061 456.452V465.317" stroke="#231815" stroke-linecap="round" stroke-linejoin="round"/>
<path d="M168.662 456.452V465.317" stroke="#231815" stroke-linecap="round" stroke-linejoin="round"/>
<path d="M176.061 530.818V539.683" stroke="#231815" stroke-linecap="round" stroke-linejoin="round"/>
<path d="M168.662 530.818V539.683" stroke="#231815" stroke-linecap="round" stroke-linejoin="round"/>
<path d="M176.061 748.695V757.561" stroke="#231815" stroke-linecap="round" stroke-linejoin="round"/>
<path d="M168.662 748.696V757.561" stroke="#231815" stroke-linecap="round" stroke-linejoin="round"/>
<path d="M176.061 801.254V810.134" stroke="#231815" stroke-linecap="round" stroke-linejoin="round"/>
<path d="M168.662 801.254V810.134" stroke="#231815" stroke-linecap="round" stroke-linejoin="round"/>
<path d="M176.061 180.455V189.321" stroke="#231815" stroke-linecap="round" stroke-linejoin="round"/>
<path d="M168.662 180.455V189.321" stroke="#231815" stroke-linecap="round" stroke-linejoin="round"/>
</g>
<defs>
<clipPath id="clip0_755_1140">
<rect width="345" height="831" fill="white"/>
</clipPath>
</defs>
</svg>
