<svg width="64" height="64" viewBox="0 0 64 64" fill="none" xmlns="http://www.w3.org/2000/svg">
<path d="M18.8256 32L18.4744 31.6441L18.1138 32L18.4744 32.3559L18.8256 32ZM32.0002 19L32.3514 18.6441L32.0002 18.2976L31.649 18.6441L32.0002 19ZM45.1748 32L45.526 32.3559L45.8867 32L45.526 31.6441L45.1748 32ZM32.0002 45L31.649 45.3559L32.0002 45.7024L32.3514 45.3559L32.0002 45ZM23.5697 27.3118C23.3732 27.1178 23.0566 27.1199 22.8626 27.3165C22.6687 27.513 22.6708 27.8296 22.8674 28.0236L23.5697 27.3118ZM36.0417 41.0233C36.2382 41.2172 36.5548 41.2151 36.7488 41.0186C36.9427 40.822 36.9406 40.5054 36.744 40.3115L36.0417 41.0233ZM27.9612 22.9785C27.7646 22.7846 27.448 22.7867 27.2541 22.9832C27.0601 23.1798 27.0622 23.4964 27.2588 23.6903L27.9612 22.9785ZM40.4331 36.69C40.6297 36.884 40.9462 36.8819 41.1402 36.6853C41.3341 36.4888 41.332 36.1722 41.1355 35.9782L40.4331 36.69ZM41.1355 28.0236C41.332 27.8296 41.3341 27.513 41.1402 27.3165C40.9462 27.1199 40.6297 27.1178 40.4331 27.3118L41.1355 28.0236ZM27.2588 40.3115C27.0622 40.5054 27.0601 40.822 27.2541 41.0186C27.448 41.2151 27.7646 41.2172 27.9612 41.0233L27.2588 40.3115ZM36.744 23.6903C36.9406 23.4964 36.9427 23.1798 36.7488 22.9832C36.5548 22.7867 36.2382 22.7846 36.0417 22.9785L36.744 23.6903ZM22.8674 35.9782C22.6708 36.1722 22.6687 36.4888 22.8626 36.6853C23.0566 36.8819 23.3732 36.884 23.5697 36.69L22.8674 35.9782ZM36.8241 22.8219C36.6276 23.0158 36.6255 23.3324 36.8194 23.529C37.0134 23.7255 37.3299 23.7276 37.5265 23.5337L36.8241 22.8219ZM37.3936 22.9624L37.7448 23.3183V23.3183L37.3936 22.9624ZM41.1642 22.9624L41.5154 22.6065L41.5149 22.606L41.1642 22.9624ZM41.1642 26.683L41.5154 27.0389L41.5159 27.0384L41.1642 26.683ZM40.5947 26.5425C40.3981 26.7364 40.396 27.053 40.59 27.2496C40.7839 27.4461 41.1005 27.4482 41.2971 27.2543L40.5947 26.5425ZM37.5265 40.4681C37.3299 40.2742 37.0134 40.2763 36.8194 40.4728C36.6255 40.6694 36.6276 40.986 36.8241 41.1799L37.5265 40.4681ZM37.3936 41.0394L37.7448 40.6835L37.3936 41.0394ZM41.1642 41.0394L41.5149 41.3958L41.5154 41.3953L41.1642 41.0394ZM41.1642 37.3188L41.5159 36.9634L41.5154 36.9629L41.1642 37.3188ZM41.2971 36.7475C41.1005 36.5536 40.7839 36.5557 40.59 36.7522C40.396 36.9488 40.3981 37.2654 40.5947 37.4593L41.2971 36.7475ZM26.4763 23.5337C26.6729 23.7276 26.9895 23.7255 27.1834 23.529C27.3774 23.3324 27.3753 23.0158 27.1787 22.8219L26.4763 23.5337ZM26.6092 22.9624L26.9604 22.6065L26.9604 22.6065L26.6092 22.9624ZM22.8387 22.9624L22.488 22.606L22.4875 22.6065L22.8387 22.9624ZM22.8387 26.683L22.487 27.0384L22.4875 27.0389L22.8387 26.683ZM22.7058 27.2543C22.9023 27.4482 23.2189 27.4461 23.4129 27.2495C23.6068 27.053 23.6047 26.7364 23.4081 26.5425L22.7058 27.2543ZM27.1787 41.1799C27.3753 40.986 27.3774 40.6694 27.1834 40.4728C26.9895 40.2763 26.6729 40.2742 26.4763 40.4681L27.1787 41.1799ZM26.6092 41.0394L26.9604 41.3953V41.3953L26.6092 41.0394ZM22.8387 41.0394L22.4875 41.3953L22.488 41.3958L22.8387 41.0394ZM22.8387 37.3188L22.4875 36.9629L22.487 36.9634L22.8387 37.3188ZM23.4081 37.4593C23.6047 37.2654 23.6068 36.9488 23.4129 36.7522C23.2189 36.5557 22.9023 36.5536 22.7058 36.7475L23.4081 37.4593ZM15.906 27.6201C15.906 27.8962 16.1299 28.1201 16.406 28.1201C16.6822 28.1201 16.906 27.8962 16.906 27.6201H15.906ZM9.2891 27.6201C9.2891 27.8962 9.51295 28.1201 9.7891 28.1201C10.0652 28.1201 10.2891 27.8962 10.2891 27.6201H9.2891ZM10.4138 36.3705C10.4138 36.0944 10.19 35.8705 9.91384 35.8705C9.63769 35.8705 9.41384 36.0944 9.41384 36.3705H10.4138ZM17.0308 36.3705C17.0308 36.0944 16.8069 35.8705 16.5308 35.8705C16.2546 35.8705 16.0308 36.0944 16.0308 36.3705H17.0308ZM7.30846 28.881C7.5846 28.881 7.80846 28.6571 7.80846 28.381C7.80846 28.1049 7.5846 27.881 7.30846 27.881V28.881ZM7.30846 35.4102C7.5846 35.4102 7.80846 35.1864 7.80846 34.9102C7.80846 34.6341 7.5846 34.4102 7.30846 34.4102V35.4102ZM7.52123 32.9225C7.3118 33.1025 7.28792 33.4182 7.4679 33.6276C7.64788 33.837 7.96356 33.8609 8.17299 33.6809L7.52123 32.9225ZM13.2023 29.3589C13.4117 29.1789 13.4356 28.8632 13.2556 28.6538C13.0757 28.4443 12.76 28.4205 12.5505 28.6004L13.2023 29.3589ZM11.8763 26.7689C11.6936 26.5619 11.3776 26.5422 11.1706 26.7249C10.9635 26.9076 10.9438 27.2236 11.1266 27.4306L11.8763 26.7689ZM15.5067 32.3933C15.6894 32.6003 16.0054 32.62 16.2124 32.4373C16.4194 32.2546 16.4391 31.9386 16.2564 31.7316L15.5067 32.3933ZM10.1413 31.4183C9.95855 31.2112 9.64259 31.1915 9.43555 31.3743C9.22851 31.557 9.20881 31.873 9.39154 32.08L10.1413 31.4183ZM13.7716 37.0426C13.9544 37.2497 14.2703 37.2694 14.4774 37.0867C14.6844 36.9039 14.7041 36.588 14.5214 36.3809L13.7716 37.0426ZM12.4173 34.7212C12.2079 34.9012 12.184 35.2169 12.364 35.4263C12.5439 35.6358 12.8596 35.6596 13.0691 35.4797L12.4173 34.7212ZM18.0984 31.1576C18.3078 30.9776 18.3317 30.662 18.1517 30.4525C17.9717 30.2431 17.656 30.2192 17.4466 30.3992L18.0984 31.1576ZM47.0968 27.6201C47.0968 27.8962 47.3207 28.1201 47.5968 28.1201C47.873 28.1201 48.0968 27.8962 48.0968 27.6201H47.0968ZM53.7137 27.6201C53.7137 27.8962 53.9376 28.1201 54.2137 28.1201C54.4899 28.1201 54.7137 27.8962 54.7137 27.6201H53.7137ZM54.5862 36.3705C54.5862 36.0944 54.3623 35.8705 54.0862 35.8705C53.81 35.8705 53.5862 36.0944 53.5862 36.3705H54.5862ZM47.9692 36.3705C47.9692 36.0944 47.7454 35.8705 47.4692 35.8705C47.1931 35.8705 46.9692 36.0944 46.9692 36.3705H47.9692ZM56.6915 27.881C56.4154 27.881 56.1915 28.1049 56.1915 28.381C56.1915 28.6571 56.4154 28.881 56.6915 28.881V27.881ZM56.6915 34.4102C56.4154 34.4102 56.1915 34.6341 56.1915 34.9102C56.1915 35.1864 56.4154 35.4102 56.6915 35.4102V34.4102ZM55.8298 33.6809C56.0393 33.8609 56.355 33.837 56.5349 33.6276C56.7149 33.4182 56.691 33.1025 56.4816 32.9225L55.8298 33.6809ZM51.4523 28.6004C51.2429 28.4205 50.9272 28.4443 50.7472 28.6538C50.5672 28.8632 50.5911 29.1789 50.8005 29.3589L51.4523 28.6004ZM52.8763 27.4306C53.059 27.2236 53.0393 26.9076 52.8323 26.7249C52.6252 26.5422 52.3093 26.5619 52.1265 26.7689L52.8763 27.4306ZM47.7464 31.7316C47.5637 31.9386 47.5834 32.2546 47.7904 32.4373C47.9975 32.62 48.3134 32.6003 48.4962 32.3933L47.7464 31.7316ZM54.6085 32.08C54.7912 31.873 54.7715 31.557 54.5645 31.3743C54.3574 31.1915 54.0415 31.2112 53.8587 31.4183L54.6085 32.08ZM49.4786 36.3809C49.2959 36.588 49.3156 36.9039 49.5226 37.0867C49.7297 37.2694 50.0456 37.2497 50.2284 37.0426L49.4786 36.3809ZM50.9309 35.4797C51.1404 35.6596 51.4561 35.6358 51.636 35.4263C51.816 35.2169 51.7921 34.9012 51.5827 34.7212L50.9309 35.4797ZM46.5534 30.3992C46.344 30.2192 46.0283 30.2431 45.8483 30.4525C45.6683 30.662 45.6922 30.9776 45.9016 31.1576L46.5534 30.3992ZM19.1768 32.3559L32.3514 19.3559L31.649 18.6441L18.4744 31.6441L19.1768 32.3559ZM31.649 19.3559L44.8236 32.3559L45.526 31.6441L32.3514 18.6441L31.649 19.3559ZM44.8236 31.6441L31.649 44.6441L32.3514 45.3559L45.526 32.3559L44.8236 31.6441ZM32.3514 44.6441L19.1768 31.6441L18.4744 32.3559L31.649 45.3559L32.3514 44.6441ZM22.8674 28.0236L36.0417 41.0233L36.744 40.3115L23.5697 27.3118L22.8674 28.0236ZM27.2588 23.6903L40.4331 36.69L41.1355 35.9782L27.9612 22.9785L27.2588 23.6903ZM40.4331 27.3118L27.2588 40.3115L27.9612 41.0233L41.1355 28.0236L40.4331 27.3118ZM36.0417 22.9785L22.8674 35.9782L23.5697 36.69L36.744 23.6903L36.0417 22.9785ZM37.5265 23.5337L37.7448 23.3183L37.0424 22.6065L36.8241 22.8219L37.5265 23.5337ZM37.7448 23.3183C38.5903 22.484 39.9645 22.4833 40.8135 23.3187L41.5149 22.606C40.2773 21.3881 38.2778 21.3874 37.0424 22.6065L37.7448 23.3183ZM40.813 23.3183C41.6548 24.1489 41.6555 25.4935 40.8125 26.3275L41.5159 27.0384C42.7538 25.8135 42.7545 23.8292 41.5154 22.6065L40.813 23.3183ZM40.813 26.3271L40.5947 26.5425L41.2971 27.2543L41.5154 27.0389L40.813 26.3271ZM36.8241 41.1799L37.0424 41.3953L37.7448 40.6835L37.5265 40.4681L36.8241 41.1799ZM37.0424 41.3953C38.2778 42.6144 40.2773 42.6137 41.5149 41.3958L40.8135 40.683C39.9645 41.5185 38.5903 41.5178 37.7448 40.6835L37.0424 41.3953ZM41.5154 41.3953C42.7545 40.1726 42.7538 38.1883 41.5159 36.9634L40.8125 37.6743C41.6555 38.5083 41.6548 39.8529 40.813 40.6835L41.5154 41.3953ZM41.5154 36.9629L41.2971 36.7475L40.5947 37.4593L40.813 37.6747L41.5154 36.9629ZM27.1787 22.8219L26.9604 22.6065L26.258 23.3183L26.4763 23.5337L27.1787 22.8219ZM26.9604 22.6065C25.725 21.3874 23.7256 21.3881 22.488 22.606L23.1894 23.3187C24.0383 22.4833 25.4126 22.484 26.258 23.3183L26.9604 22.6065ZM22.4875 22.6065C21.2483 23.8292 21.249 25.8135 22.487 27.0384L23.1903 26.3275C22.3474 25.4935 22.3481 24.1489 23.1898 23.3183L22.4875 22.6065ZM22.4875 27.0389L22.7058 27.2543L23.4081 26.5425L23.1898 26.3271L22.4875 27.0389ZM26.4763 40.4681L26.258 40.6835L26.9604 41.3953L27.1787 41.1799L26.4763 40.4681ZM26.258 40.6835C25.4126 41.5178 24.0383 41.5185 23.1894 40.683L22.488 41.3958C23.7256 42.6137 25.725 42.6144 26.9604 41.3953L26.258 40.6835ZM23.1898 40.6835C22.3481 39.8529 22.3474 38.5083 23.1903 37.6743L22.487 36.9634C21.249 38.1883 21.2483 40.1726 22.4875 41.3953L23.1898 40.6835ZM23.1898 37.6747L23.4081 37.4593L22.7058 36.7475L22.4875 36.9629L23.1898 37.6747ZM16.906 27.6201C16.906 25.5331 15.1929 23.8555 13.0976 23.8555V24.8555C14.6538 24.8555 15.906 26.0984 15.906 27.6201H16.906ZM13.0976 23.8555C10.9989 23.8555 9.2891 25.5364 9.2891 27.6201H10.2891C10.2891 26.1007 11.5391 24.8555 13.0976 24.8555V23.8555ZM9.41384 36.3705C9.41384 38.4575 11.127 40.1351 13.2223 40.1351V39.1351C11.6661 39.1351 10.4138 37.8922 10.4138 36.3705H9.41384ZM13.2223 40.1351C15.321 40.1351 17.0308 38.4542 17.0308 36.3705H16.0308C16.0308 37.8899 14.7808 39.1351 13.2223 39.1351V40.1351ZM7.30846 27.881C5.20976 27.881 3.5 29.5619 3.5 31.6456H4.5C4.5 30.1262 5.74999 28.881 7.30846 28.881V27.881ZM3.5 31.6456C3.5 33.7327 5.21316 35.4102 7.30846 35.4102V34.4102C5.75226 34.4102 4.5 33.1673 4.5 31.6456H3.5ZM8.17299 33.6809L13.2023 29.3589L12.5505 28.6004L7.52123 32.9225L8.17299 33.6809ZM11.1266 27.4306L15.5067 32.3933L16.2564 31.7316L11.8763 26.7689L11.1266 27.4306ZM9.39154 32.08L13.7716 37.0426L14.5214 36.3809L10.1413 31.4183L9.39154 32.08ZM13.0691 35.4797L18.0984 31.1576L17.4466 30.3992L12.4173 34.7212L13.0691 35.4797ZM48.0968 27.6201C48.0968 26.0984 49.3491 24.8555 50.9053 24.8555V23.8555C48.81 23.8555 47.0968 25.5331 47.0968 27.6201H48.0968ZM50.9053 24.8555C52.4637 24.8555 53.7137 26.1007 53.7137 27.6201H54.7137C54.7137 25.5364 53.004 23.8555 50.9053 23.8555V24.8555ZM53.5862 36.3705C53.5862 37.8922 52.3339 39.1351 50.7777 39.1351V40.1351C52.873 40.1351 54.5862 38.4575 54.5862 36.3705H53.5862ZM50.7777 39.1351C49.2192 39.1351 47.9692 37.8899 47.9692 36.3705H46.9692C46.9692 38.4542 48.679 40.1351 50.7777 40.1351V39.1351ZM56.6915 28.881C58.25 28.881 59.5 30.1262 59.5 31.6456H60.5C60.5 29.5619 58.7902 27.881 56.6915 27.881V28.881ZM59.5 31.6456C59.5 33.1673 58.2477 34.4102 56.6915 34.4102V35.4102C58.7868 35.4102 60.5 33.7327 60.5 31.6456H59.5ZM56.4816 32.9225L51.4523 28.6004L50.8005 29.3589L55.8298 33.6809L56.4816 32.9225ZM52.1265 26.7689L47.7464 31.7316L48.4962 32.3933L52.8763 27.4306L52.1265 26.7689ZM53.8587 31.4183L49.4786 36.3809L50.2284 37.0426L54.6085 32.08L53.8587 31.4183ZM51.5827 34.7212L46.5534 30.3992L45.9016 31.1576L50.9309 35.4797L51.5827 34.7212Z" fill="black"/>
</svg>
