<svg width="64" height="64" viewBox="0 0 64 64" fill="none" xmlns="http://www.w3.org/2000/svg">
<path d="M27.3527 23.786H44.9377M32.3469 16.5L21.0949 32.2996M15.7623 24.926L26.7209 40.0679M20.8467 44.4819C19.3575 46.0238 17.1236 46.8204 14.8221 46.4184C11.2118 45.79 8.805 42.4283 9.45936 38.9206C10.1137 35.4128 13.566 33.0743 17.1763 33.71M12.9869 31.0427C10.9937 30.195 9.46688 28.4191 9.09081 26.1756C8.4891 22.6605 10.9411 19.3355 14.5664 18.7508C18.1842 18.1735 21.6064 20.5486 22.2081 24.071M36.6567 40.2067H19.0717M31.6549 47.5L42.9069 31.7004M48.2396 39.074L37.2809 23.9321M43.1626 19.5182C44.6519 17.9762 46.8857 17.1796 49.1873 17.5816C52.7975 18.21 55.2044 21.5717 54.55 25.0794C53.8957 28.5872 50.4433 30.9257 46.8331 30.29M51.015 32.9573C53.0081 33.805 54.535 35.5809 54.911 37.8244C55.5052 41.3395 53.0608 44.6645 49.4355 45.2492C45.8177 45.8265 42.3955 43.4514 41.7938 39.929" stroke="black" stroke-miterlimit="10" stroke-linecap="round"/>
</svg>
