<svg width="196" height="157" viewBox="0 0 196 157" fill="none" xmlns="http://www.w3.org/2000/svg">
<g clip-path="url(#clip0_753_18269)">
<path d="M116.15 15.35L120.35 11.15C124.02 7.47996 129.97 7.47996 133.65 11.15C137.32 14.82 137.32 20.77 133.65 24.45L129.45 28.65" stroke="#231815" stroke-linecap="round" stroke-linejoin="round"/>
<path d="M147.11 46.31L151.31 42.11C154.98 38.44 160.93 38.44 164.61 42.11C168.28 45.78 168.28 51.73 164.61 55.41L160.41 59.61" stroke="#231815" stroke-linecap="round" stroke-linejoin="round"/>
<path d="M116.15 141.07L120.35 145.27C124.02 148.94 129.97 148.94 133.65 145.27C137.32 141.6 137.32 135.65 133.65 131.97L129.45 127.77" stroke="#231815" stroke-linecap="round" stroke-linejoin="round"/>
<path d="M147.11 110.11L151.31 114.31C154.98 117.98 160.93 117.98 164.61 114.31C168.28 110.64 168.28 104.69 164.61 101.01L160.41 96.8101" stroke="#231815" stroke-linecap="round" stroke-linejoin="round"/>
<path d="M79.07 15.35L74.87 11.15C71.2 7.47996 65.25 7.47996 61.57 11.15C57.9 14.82 57.9 20.77 61.57 24.45L65.77 28.65" stroke="#231815" stroke-linecap="round" stroke-linejoin="round"/>
<path d="M48.11 46.31L43.91 42.11C40.24 38.44 34.29 38.44 30.61 42.11C26.94 45.78 26.94 51.73 30.61 55.41L34.81 59.61" stroke="#231815" stroke-linecap="round" stroke-linejoin="round"/>
<path d="M79.07 141.07L74.87 145.27C71.2 148.94 65.25 148.94 61.57 145.27C57.9 141.6 57.9 135.65 61.57 131.97L65.77 127.77" stroke="#231815" stroke-linecap="round" stroke-linejoin="round"/>
<path d="M48.11 110.11L43.91 114.31C40.24 117.98 34.29 117.98 30.61 114.31C26.94 110.64 26.94 104.69 30.61 101.01L34.81 96.8101" stroke="#231815" stroke-linecap="round" stroke-linejoin="round"/>
<path d="M175.32 78.21C175.32 78.21 180.3 70.3 187.41 70.3C191.87 70.3 193.65 73.62 194.34 75.88C194.78 77.31 194.84 78.91 194.49 80.39C193.92 82.76 192.24 86.12 187.27 86.12C179.99 86.12 175.31 78.21 175.31 78.21H175.32Z" stroke="#231815" stroke-linecap="round" stroke-linejoin="round"/>
<path d="M19.9 78.21C19.9 78.21 14.92 70.3 7.81001 70.3C3.35001 70.3 1.57001 73.62 0.880015 75.88C0.440015 77.31 0.380015 78.91 0.730015 80.39C1.30001 82.76 2.98001 86.12 7.95001 86.12C15.23 86.12 19.91 78.21 19.91 78.21H19.9Z" stroke="#231815" stroke-linecap="round" stroke-linejoin="round"/>
<path d="M97.6135 0.501129L19.9025 78.2122L97.6135 155.923L175.325 78.2122L97.6135 0.501129Z" stroke="#231815" stroke-linecap="round" stroke-linejoin="round"/>
<path d="M82.0699 140.38L159.78 62.67" stroke="#231815" stroke-linecap="round" stroke-linejoin="round"/>
<path d="M66.53 124.83L144.24 47.13" stroke="#231815" stroke-linecap="round" stroke-linejoin="round"/>
<path d="M50.99 109.29L128.7 31.58" stroke="#231815" stroke-linecap="round" stroke-linejoin="round"/>
<path d="M35.45 93.75L113.15 16.04" stroke="#231815" stroke-linecap="round" stroke-linejoin="round"/>
<path d="M82.0699 16.04L159.78 93.75" stroke="#231815" stroke-linecap="round" stroke-linejoin="round"/>
<path d="M66.53 31.58L144.24 109.29" stroke="#231815" stroke-linecap="round" stroke-linejoin="round"/>
<path d="M50.99 47.13L128.7 124.83" stroke="#231815" stroke-linecap="round" stroke-linejoin="round"/>
<path d="M35.45 62.67L113.15 140.38" stroke="#231815" stroke-linecap="round" stroke-linejoin="round"/>
</g>
<defs>
<clipPath id="clip0_753_18269">
<rect width="195.22" height="156.42" fill="white"/>
</clipPath>
</defs>
</svg>
