<svg width="117" height="81" viewBox="0 0 117 81" fill="none" xmlns="http://www.w3.org/2000/svg">
<g clip-path="url(#clip0_753_18410)">
<path d="M69.08 15.22L53.91 0.5" stroke="#231815" stroke-linecap="round" stroke-linejoin="round"/>
<path d="M58.54 25.94L75.51 9.46997" stroke="#231815" stroke-linecap="round" stroke-linejoin="round"/>
<path d="M46.9601 14.67L62.1301 29.39" stroke="#231815" stroke-linecap="round" stroke-linejoin="round"/>
<path d="M57.5 3.94995L40.53 20.42" stroke="#231815" stroke-linecap="round" stroke-linejoin="round"/>
<path d="M69.08 40.6699L53.91 25.95" stroke="#231815" stroke-linecap="round" stroke-linejoin="round"/>
<path d="M58.54 51.3799L75.51 34.9099" stroke="#231815" stroke-linecap="round" stroke-linejoin="round"/>
<path d="M46.9601 40.11L62.1301 54.83" stroke="#231815" stroke-linecap="round" stroke-linejoin="round"/>
<path d="M57.5 29.3899L40.53 45.8599" stroke="#231815" stroke-linecap="round" stroke-linejoin="round"/>
<path d="M69.08 66.11L53.91 51.39" stroke="#231815" stroke-linecap="round" stroke-linejoin="round"/>
<path d="M58.54 76.82L75.51 60.35" stroke="#231815" stroke-linecap="round" stroke-linejoin="round"/>
<path d="M46.9601 65.55L62.1301 80.27" stroke="#231815" stroke-linecap="round" stroke-linejoin="round"/>
<path d="M57.5 54.84L40.53 71.31" stroke="#231815" stroke-linecap="round" stroke-linejoin="round"/>
<path d="M40.54 40.6699L25.37 25.95" stroke="#231815" stroke-linecap="round" stroke-linejoin="round"/>
<path d="M29.99 51.3799L46.96 34.9099" stroke="#231815" stroke-linecap="round" stroke-linejoin="round"/>
<path d="M18.41 40.11L33.58 54.83" stroke="#231815" stroke-linecap="round" stroke-linejoin="round"/>
<path d="M28.96 29.3899L11.99 45.8599" stroke="#231815" stroke-linecap="round" stroke-linejoin="round"/>
<path d="M26.46 22.11C31.85 12.8 41.24 6.08997 52.27 4.33997" stroke="#231815" stroke-linecap="round" stroke-linejoin="round"/>
<path d="M37.05 70.1199C29.95 65.1199 24.72 57.6399 22.61 48.9399" stroke="#231815" stroke-linecap="round" stroke-linejoin="round"/>
<path d="M53.81 76.5199C50.03 76.0899 46.43 75.0699 43.1 73.5699" stroke="#231815" stroke-linecap="round" stroke-linejoin="round"/>
<path d="M89.58 58.75C84.19 68.06 74.8 74.77 63.77 76.52" stroke="#231815" stroke-linecap="round" stroke-linejoin="round"/>
<path d="M78.99 10.74C86.09 15.74 91.32 23.22 93.43 31.92" stroke="#231815" stroke-linecap="round" stroke-linejoin="round"/>
<path d="M62.24 4.33997C66.02 4.76997 69.62 5.78997 72.95 7.28997" stroke="#231815" stroke-linecap="round" stroke-linejoin="round"/>
<path d="M18.41 48.25C16.51 50 13.97 51.07 11.18 51.07C5.28 51.07 0.5 46.29 0.5 40.39C0.5 34.49 5.28 29.71 11.18 29.71C13.97 29.71 16.51 30.78 18.41 32.53" stroke="#231815" stroke-linecap="round" stroke-linejoin="round"/>
<path d="M97.63 48.25C99.53 50 102.07 51.07 104.86 51.07C110.76 51.07 115.54 46.29 115.54 40.39C115.54 34.49 110.76 29.71 104.86 29.71C102.07 29.71 99.53 30.78 97.63 32.53" stroke="#231815" stroke-linecap="round" stroke-linejoin="round"/>
<path d="M97.63 40.6699L82.46 25.95" stroke="#231815" stroke-linecap="round" stroke-linejoin="round"/>
<path d="M87.09 51.3799L104.06 34.9099" stroke="#231815" stroke-linecap="round" stroke-linejoin="round"/>
<path d="M75.51 40.11L90.68 54.83" stroke="#231815" stroke-linecap="round" stroke-linejoin="round"/>
<path d="M86.05 29.3899L69.08 45.8599" stroke="#231815" stroke-linecap="round" stroke-linejoin="round"/>
</g>
<defs>
<clipPath id="clip0_753_18410">
<rect width="116.04" height="80.78" fill="white"/>
</clipPath>
</defs>
</svg>
