<svg width="73" height="49" viewBox="0 0 73 49" fill="none" xmlns="http://www.w3.org/2000/svg">
<path d="M30.51 21.1298L52.86 11.5498" stroke="black" stroke-miterlimit="10" stroke-linecap="round"/>
<path d="M42.11 4.12012L27.54 24.8601" stroke="black" stroke-miterlimit="10" stroke-linecap="round"/>
<path d="M53.04 37.8005L42.72 20.5605" stroke="black" stroke-miterlimit="10" stroke-linecap="round"/>
<path d="M59.54 24.7107L36.22 18.6807" stroke="black" stroke-miterlimit="10" stroke-linecap="round"/>
<path d="M41.9301 27.9404L19.5801 37.5104" stroke="black" stroke-miterlimit="10" stroke-linecap="round"/>
<path d="M30.3301 44.9406L44.8401 24.3506" stroke="black" stroke-miterlimit="10" stroke-linecap="round"/>
<path d="M19.3999 11.2705L29.7199 28.5005" stroke="black" stroke-miterlimit="10" stroke-linecap="round"/>
<path d="M12.8999 24.3506L36.2199 30.3806" stroke="black" stroke-miterlimit="10" stroke-linecap="round"/>
<path d="M57.5 31.4902C60.15 32.6502 62.18 35.0802 62.68 38.1502C63.47 42.9602 60.22 47.5102 55.4 48.3102C50.59 49.1002 46.04 45.8502 45.24 41.0302" stroke="black" stroke-miterlimit="10" stroke-linecap="round"/>
<path d="M57.5 17.4402C60.15 16.2802 62.18 13.8502 62.68 10.7802C63.47 5.97023 60.22 1.42023 55.4 0.620232C50.59 -0.169768 46.04 3.08023 45.24 7.90023" stroke="black" stroke-miterlimit="10" stroke-linecap="round"/>
<path d="M58.8899 16.7506C61.4299 15.3706 64.5999 15.2706 67.3299 16.7506C71.6199 19.0806 73.1999 24.4506 70.8699 28.7406C68.5399 33.0306 63.1699 34.6106 58.8799 32.2806" stroke="black" stroke-miterlimit="10" stroke-linecap="round"/>
<path d="M14.9399 31.4902C12.2899 32.6502 10.2599 35.0802 9.75988 38.1502C8.96988 42.9602 12.2199 47.5102 17.0399 48.3102C21.8499 49.1002 26.3999 45.8502 27.1999 41.0302" stroke="black" stroke-miterlimit="10" stroke-linecap="round"/>
<path d="M14.9399 17.4402C12.2899 16.2802 10.2599 13.8502 9.75988 10.7802C8.96988 5.97023 12.2199 1.42023 17.0399 0.620232C21.8499 -0.169768 26.3999 3.08023 27.1999 7.90023" stroke="black" stroke-miterlimit="10" stroke-linecap="round"/>
<path d="M13.55 16.7506C11.01 15.3706 7.83999 15.2706 5.10999 16.7506C0.829985 19.0906 -0.760015 24.4506 1.57999 28.7406C3.90999 33.0306 9.27999 34.6106 13.57 32.2806" stroke="black" stroke-miterlimit="10" stroke-linecap="round"/>
</svg>
