<svg width="64" height="64" viewBox="0 0 64 64" fill="none" xmlns="http://www.w3.org/2000/svg">
<g clip-path="url(#clip0_1122_31829)">
<path d="M32.4568 -44.0406H35.2852M31.5397 -46H28.7113M28.7114 -12.3396L35.2852 -15.5427M32.4568 -12.9632H35.2852M31.5397 -14.919H28.7113M28.7114 -6.89725L35.2852 -10.1003M32.4568 -7.52085H35.2852M31.5397 -9.4767H28.7113M27.6752 3.84573H27.5912C26.3346 3.84573 25.3194 2.87135 25.3194 1.67021V1.45762C25.3194 0.256475 26.3381 -0.717905 27.5912 -0.717905H27.6752M36.2583 3.84573H36.3423C37.5989 3.84573 38.614 2.87135 38.614 1.67021V1.45762C38.614 0.256475 37.5954 -0.717905 36.3423 -0.717905H36.2583M5.69255 99.6113H7.70529M5.69255 101.312H7.70529M2.75569 96.8795C2.75569 95.4233 1.59005 94.2434 0.151371 94.2434C-1.2873 94.2434 -2.45295 95.4233 -2.45295 96.8795M-2.34793 103.938C-2.34793 105.394 -1.18229 106.574 0.256383 106.574C1.69506 106.574 2.8607 105.394 2.8607 103.938M-4.39568 97.4925C-5.83436 97.4925 -7 98.6724 -7 100.129C-7 101.585 -5.83436 102.765 -4.39568 102.765M5.69255 32.8043H7.70529M5.69255 34.505H7.70529M2.75569 30.0725C2.75569 28.6162 1.59005 27.4364 0.151371 27.4364C-1.2873 27.4364 -2.45295 28.6162 -2.45295 30.0725M-2.34793 37.1341C-2.34793 38.5904 -1.18229 39.7702 0.256383 39.7702C1.69506 39.7702 2.8607 38.5904 2.8607 37.1341M-4.39568 30.6855C-5.83436 30.6855 -7 31.8654 -7 33.3216C-7 34.7779 -5.83436 35.9578 -4.39568 35.9578M28.4803 63.7754C27.0416 63.7754 25.876 64.9553 25.876 66.4116C25.876 67.8678 27.0416 69.0477 28.4803 69.0477M35.4532 68.9414C36.8918 68.9414 38.0575 67.7615 38.0575 66.3052C38.0575 64.849 36.8918 63.6691 35.4532 63.6691M29.4149 70.5288C29.4149 71.985 30.5806 73.1649 32.0192 73.1649C33.4579 73.1649 34.6236 71.985 34.6236 70.5288M58.304 99.6113H56.2947M58.304 101.312H56.2947M61.2408 96.8795C61.2408 95.4233 62.4064 94.2434 63.8451 94.2434C65.2838 94.2434 66.4494 95.4233 66.4494 96.8795M66.3444 103.938C66.3444 105.394 65.1788 106.574 63.7401 106.574C62.3014 106.574 61.1358 105.394 61.1358 103.938M68.3957 97.4925C69.8344 97.4925 71 98.6724 71 100.129C71 101.585 69.8344 102.765 68.3957 102.765M58.304 32.8043H56.2947M58.304 34.505H56.2947M61.2408 30.0725C61.2408 28.6162 62.4064 27.4364 63.8451 27.4364C65.2838 27.4364 66.4494 28.6162 66.4494 30.0725M66.3444 37.1341C66.3444 38.5904 65.1788 39.7702 63.7401 39.7702C62.3014 39.7702 61.1358 38.5904 61.1358 37.1341M68.3957 30.6855C69.8344 30.6855 71 31.8654 71 33.3216C71 34.7779 69.8344 35.9578 68.3957 35.9578M34.8091 -19.3729L35.8102 -18.4906C36.2793 -18.076 36.9934 -18.1257 37.3994 -18.6004L37.4729 -18.6855C37.8825 -19.1603 37.8335 -19.8831 37.3644 -20.2941L36.6118 -20.9567M39.5277 -24.1491L40.5288 -23.2668C40.9978 -22.8523 41.7119 -22.9019 42.118 -23.3767L42.1915 -23.4617C42.601 -23.9365 42.552 -24.6593 42.083 -25.0703L41.3304 -25.7329M35.4322 -39.112L36.4333 -39.9943C36.9023 -40.4088 37.6164 -40.3592 38.0225 -39.8844L38.096 -39.7994C38.5055 -39.3246 38.4565 -38.6018 37.9875 -38.1908L37.2349 -37.5282M40.1507 -34.3393L41.1519 -35.2216C41.6209 -35.6361 42.335 -35.5865 42.7411 -35.1117L42.8146 -35.0267C43.2241 -34.5519 43.1751 -33.8291 42.7061 -33.4181L41.9535 -32.7555M29.1209 -19.3729L28.1198 -18.4906C27.6507 -18.076 26.9366 -18.1257 26.5306 -18.6004L26.4571 -18.6855C26.0475 -19.1603 26.0965 -19.8831 26.5656 -20.2941L27.3182 -20.9567M24.4058 -24.1491L23.4047 -23.2668C22.9356 -22.8523 22.2216 -22.9019 21.8155 -23.3767L21.742 -23.4617C21.3324 -23.9365 21.3814 -24.6593 21.8505 -25.0703L22.6031 -25.7329M28.4978 -39.112L27.4967 -39.9943C27.0276 -40.4088 26.3136 -40.3592 25.9075 -39.8844L25.834 -39.7994C25.4244 -39.3246 25.4734 -38.6018 25.9425 -38.1908L26.6951 -37.5282M23.7827 -34.3393L22.7816 -35.2216C22.3126 -35.6361 21.5985 -35.5865 21.1924 -35.1117L21.1189 -35.0267C20.7094 -34.5519 20.7584 -33.8291 21.2274 -33.4181L21.98 -32.7555M34.5921 54.0493L36.0797 55.3603C36.7798 55.9768 37.8405 55.9024 38.4495 55.1938L38.558 55.0698C39.1671 54.3611 39.0936 53.2875 38.3935 52.671L37.2734 51.6825M39.4962 49.0818L40.9838 50.3927C41.6839 51.0093 42.7446 50.9348 43.3536 50.2262L43.4621 50.1022C44.0712 49.3936 43.9977 48.32 43.2976 47.7035L42.1775 46.7149M44.4423 44.0752L45.93 45.3862C46.63 46.0027 47.6907 45.9283 48.2997 45.2197L48.4082 45.0957C49.0173 44.387 48.9438 43.3134 48.2437 42.6969L47.1236 41.7084M49.4759 38.9837L50.9636 40.2946C51.6636 40.9111 52.7243 40.8367 53.3334 40.1281L53.4419 40.0041C54.0509 39.2955 53.9774 38.2219 53.2773 37.6053L52.1572 36.6168M34.8126 13.1821L36.3003 11.8711C37.0004 11.2546 38.061 11.329 38.6701 12.0376L38.7786 12.1616C39.3877 12.8703 39.3141 13.9439 38.614 14.5604L37.4939 15.5489M39.7167 18.1496L41.2044 16.8387C41.9045 16.2221 42.9651 16.2965 43.5742 17.0052L43.6827 17.1292C44.2917 17.8378 44.2182 18.9114 43.5182 19.528L42.398 20.5165M44.6628 23.1562L46.1505 21.8452C46.8505 21.2287 47.9112 21.3031 48.5203 22.0117L48.6288 22.1357C49.2378 22.8444 49.1643 23.918 48.4642 24.5345L47.3441 25.523M49.6964 28.2478L51.1841 26.9368C51.8842 26.3203 52.9448 26.3947 53.5539 27.1033L53.6624 27.2273C54.2715 27.936 54.198 29.0095 53.4979 29.6261L52.3777 30.6146M29.3414 54.0493L27.8537 55.3603C27.1537 55.9768 26.093 55.9024 25.484 55.1938L25.3754 55.0698C24.7664 54.3611 24.8399 53.2875 25.54 52.671L26.6601 51.6825M24.4338 49.0818L22.9461 50.3927C22.2461 51.0093 21.1854 50.9348 20.5764 50.2262L20.4678 50.1022C19.8588 49.3936 19.9323 48.32 20.6324 47.7035L21.7525 46.7149M19.4912 44.0752L18.0035 45.3862C17.3035 46.0027 16.2428 45.9283 15.6338 45.2197L15.5252 45.0957C14.9162 44.387 14.9897 43.3134 15.6898 42.6969L16.8099 41.7084M14.4576 38.9837L12.9699 40.2946C12.2698 40.9111 11.2092 40.8367 10.6001 40.1281L10.4916 40.0041C9.88255 39.2955 9.95606 38.2219 10.6561 37.6053L11.7763 36.6168M29.1209 13.1821L27.6332 11.8711C26.9331 11.2546 25.8725 11.329 25.2634 12.0376L25.1549 12.1616C24.5458 12.8703 24.6193 13.9439 25.3194 14.5604L26.4396 15.5489M24.2133 18.1496L22.7256 16.8387C22.0255 16.2221 20.9649 16.2965 20.3558 17.0052L20.2473 17.1292C19.6382 17.8378 19.7118 18.9114 20.4118 19.528L21.532 20.5165M19.2707 23.1562L17.783 21.8452C17.0829 21.2287 16.0223 21.3031 15.4132 22.0117L15.3047 22.1357C14.6956 22.8444 14.7692 23.918 15.4692 24.5345L16.5894 25.523M14.2371 28.2478L12.7494 26.9368C12.0493 26.3203 10.9887 26.3947 10.3796 27.1033L10.2711 27.2273C9.66203 27.936 9.73554 29.0095 10.4356 29.6261L11.5558 30.6146M29.6565 -20.1205L41.2114 -31.8201M27.3427 -22.4625L38.9011 -34.1586M25.0324 -24.801L36.5908 -36.4971M22.7221 -27.1395L34.277 -38.8392M29.6565 -38.8392L41.2114 -27.1395M27.3427 -36.4971L38.9011 -24.801M25.0324 -34.1586L36.5908 -22.4625M22.7221 -31.8201L34.277 -20.1205M13.0539 31.2063L34.3715 52.7844M15.4237 28.8076L36.7413 50.3857M17.7935 26.4088L39.1111 47.9904M20.1598 24.0136L41.4809 45.5917M22.5296 21.6149L43.8472 43.193M24.8994 19.2161L46.217 40.7978M27.2657 16.8209L48.5868 38.399M29.6355 14.4222L50.953 36.0003M50.953 31.2063L29.6355 52.7844M48.5868 28.8076L27.2657 50.3857M46.217 26.4088L24.8994 47.9904M43.8472 24.0136L22.5296 45.5917M41.4809 21.6149L20.1598 43.193M39.1111 19.2161L17.7935 40.7978M36.7413 16.8209L15.4237 38.399M34.3715 14.4222L13.0539 36.0003M48.2437 109.706L47.1236 108.717M49.4759 105.993L50.9636 107.304C51.6636 107.92 52.7243 107.846 53.3334 107.137L53.4419 107.013C54.0509 106.304 53.9774 105.231 53.2773 104.614L52.1572 103.626M34.8126 80.1946L36.3003 78.8836C37.0004 78.2671 38.061 78.3415 38.6701 79.0501L38.7786 79.1742C39.3877 79.8828 39.3141 80.9564 38.614 81.5729L37.4939 82.5615M39.7167 85.1586L41.2044 83.8476C41.9045 83.2311 42.9651 83.3055 43.5742 84.0142L43.6827 84.1382C44.2917 84.8468 44.2182 85.9204 43.5182 86.5369L42.398 87.5255M44.6628 90.1652L46.1505 88.8542C46.8505 88.2377 47.9112 88.3121 48.5203 89.0207L48.6288 89.1447C49.2378 89.8534 49.1643 90.9269 48.4642 91.5435L47.3441 92.532M49.6964 95.2603L51.1841 93.9493C51.8842 93.3328 52.9448 93.4072 53.5539 94.1158L53.6624 94.2398C54.2715 94.9485 54.198 96.0221 53.4979 96.6386L52.3777 97.6271M15.6898 109.706L16.8099 108.717M14.4576 105.993L12.9699 107.304C12.2698 107.92 11.2092 107.846 10.6001 107.137L10.4916 107.013C9.88255 106.304 9.95606 105.231 10.6561 104.614L11.7763 103.626M29.1209 80.1946L27.6332 78.8836C26.9331 78.2671 25.8725 78.3415 25.2634 79.0501L25.1549 79.1742C24.5458 79.8828 24.6193 80.9564 25.3194 81.5729L26.4396 82.5615M24.2133 85.1586L22.7256 83.8476C22.0255 83.2311 20.9649 83.3055 20.3558 84.0142L20.2473 84.1382C19.6382 84.8468 19.7118 85.9204 20.4118 86.5369L21.532 87.5255M19.2707 90.1652L17.783 88.8542C17.0829 88.2377 16.0223 88.3121 15.4132 89.0207L15.3047 89.1447C14.6956 89.8534 14.7692 90.9269 15.4692 91.5435L16.5894 92.532M14.2371 95.2603L12.7494 93.9493C12.0493 93.3328 10.9887 93.4072 10.3796 94.1158L10.2711 94.2398C9.66203 94.9485 9.73554 96.0221 10.4356 96.6386L11.5558 97.6271M10.6467 100.407L31.9654 78.8279L53.2841 100.407M22.4911 88.4184L43.8087 110M24.8609 86.0232L46.1785 107.601M27.2307 83.6244L48.5483 105.202M29.597 81.2257L50.9181 102.807M41.4424 88.4184L20.1213 110M39.0726 86.0232L17.755 107.601M36.7028 83.6244L15.3852 105.202M34.3365 81.2257L13.0154 102.807M32.8068 6.53503V8.56882M31.1266 6.53503V8.56882M32.8068 57.9185V59.9523M31.1266 57.9185V59.9523M32.8068 74.979V77.0128M31.1266 74.979V77.0128M32.8068 -5.39848V-3.36468M31.1266 -5.39848V-3.36467M20.4084 -29.4799L31.965 -41.1777L43.5216 -29.4799L31.965 -17.7821L20.4084 -29.4799ZM10.6852 33.6051L32.0039 12.026L53.3226 33.6051L32.0039 55.1843L10.6852 33.6051ZM47.9007 -29.4816C47.9007 -28.5923 47.3616 -27.8694 46.2065 -27.8694C45.0513 -27.8694 43.7177 -29.4816 43.7177 -29.4816C43.7177 -29.4816 45.0513 -31.0938 46.2065 -31.0938C47.3616 -31.0938 47.9007 -30.3709 47.9007 -29.4816ZM16.0328 -29.4816C16.0328 -28.5923 16.5719 -27.8694 17.727 -27.8694C18.8821 -27.8694 20.2158 -29.4816 20.2158 -29.4816C20.2158 -29.4816 18.8821 -31.0938 17.727 -31.0938C16.5719 -31.0938 16.0328 -30.3709 16.0328 -29.4816Z" stroke="black" stroke-linecap="round" stroke-linejoin="round"/>
</g>
<defs>
<clipPath id="clip0_1122_31829">
<rect width="64" height="64" fill="white"/>
</clipPath>
</defs>
</svg>
