<svg width="178" height="101" viewBox="0 0 178 101" fill="none" xmlns="http://www.w3.org/2000/svg">
<g clip-path="url(#clip0_753_18241)">
<path d="M88.52 68.02L49.85 34.34L88.52 0.660034L127.2 34.34L88.52 68.02Z" stroke="#231815" stroke-miterlimit="10" stroke-linecap="round"/>
<path d="M101.18 56.9901L62.5 23.3101" stroke="#231815" stroke-miterlimit="10" stroke-linecap="round"/>
<path d="M75.87 56.9901L114.54 23.3101" stroke="#231815" stroke-miterlimit="10" stroke-linecap="round"/>
<path d="M113.92 45.91L75.24 12.23" stroke="#231815" stroke-miterlimit="10" stroke-linecap="round"/>
<path d="M63.12 45.91L101.8 12.23" stroke="#231815" stroke-miterlimit="10" stroke-linecap="round"/>
<path d="M104.83 9.21006L111.43 3.46006C114.53 0.760059 119.24 1.08006 121.94 4.19006L122.42 4.74006C125.12 7.84006 124.8 12.5501 121.69 15.2501L116.72 19.5801" stroke="#231815" stroke-linecap="round" stroke-linejoin="round"/>
<path d="M170.32 74.15L173.33 76.7C177.65 80.34 178.76 91.17 169.37 97.18C156.08 105.69 142.98 93.19 142.98 93.19L104.3 59.51" stroke="#231815" stroke-miterlimit="10" stroke-linecap="round"/>
<path d="M169.044 74.7563L169.786 73.9042C173.757 69.3435 173.28 62.4268 168.719 58.4553L154.096 45.7216C149.536 41.75 142.619 42.2276 138.648 46.7883L137.905 47.6405C133.934 52.2011 134.412 59.1178 138.972 63.0893L153.595 75.8231C158.156 79.7946 165.072 79.317 169.044 74.7563Z" stroke="#231815" stroke-linecap="round" stroke-linejoin="round"/>
<path d="M152.91 44.9401L143.97 67.4401" stroke="#231815" stroke-linecap="round" stroke-linejoin="round"/>
<path d="M136.9 60.5301L161.18 52.0601" stroke="#231815" stroke-linecap="round" stroke-linejoin="round"/>
<path d="M162.77 53.91L154.06 76.03" stroke="#231815" stroke-linecap="round" stroke-linejoin="round"/>
<path d="M146.52 69.5L170.81 61.1" stroke="#231815" stroke-linecap="round" stroke-linejoin="round"/>
<path d="M72.21 9.21006L65.61 3.46006C62.51 0.760059 57.8 1.08006 55.1 4.19006L54.62 4.74006C51.92 7.84006 52.24 12.5501 55.35 15.2501L60.32 19.5801" stroke="#231815" stroke-linecap="round" stroke-linejoin="round"/>
<path d="M6.73 74.15L3.72 76.7C-0.600003 80.34 -1.71 91.17 7.68 97.18C20.97 105.69 34.07 93.19 34.07 93.19L72.75 59.51" stroke="#231815" stroke-miterlimit="10" stroke-linecap="round"/>
<path d="M39.1377 47.6359L38.3956 46.7837C34.4241 42.223 27.5074 41.7454 22.9467 45.7169L8.32402 58.4507C3.76336 62.4222 3.28576 69.3389 7.25727 73.8995L7.99936 74.7517C11.9709 79.3124 18.8876 79.79 23.4482 75.8185L38.0709 63.0847C42.6316 59.1132 43.1092 52.1965 39.1377 47.6359Z" stroke="#231815" stroke-linecap="round" stroke-linejoin="round"/>
<path d="M24.13 44.9401L33.07 67.4401" stroke="#231815" stroke-linecap="round" stroke-linejoin="round"/>
<path d="M40.14 60.5301L15.86 52.0601" stroke="#231815" stroke-linecap="round" stroke-linejoin="round"/>
<path d="M14.27 53.91L22.98 76.03" stroke="#231815" stroke-linecap="round" stroke-linejoin="round"/>
<path d="M30.52 69.5L6.23001 61.1" stroke="#231815" stroke-linecap="round" stroke-linejoin="round"/>
</g>
<defs>
<clipPath id="clip0_753_18241">
<rect width="177.04" height="100.65" fill="white"/>
</clipPath>
</defs>
</svg>
