<svg width="64" height="64" viewBox="0 0 64 64" fill="none" xmlns="http://www.w3.org/2000/svg">
<path d="M27.4805 35.1138L31.1333 28.9712M29.0826 27.5L35.2622 31.1309M28.9087 32.8691L35.0883 36.5M33.1016 35.317L36.7545 29.1744M27.1265 30.776C23.6171 30.0996 18.8444 29.4869 15.5883 29.4869C8.48709 29.4869 6 30.6911 6 32.1775C6 33.6638 8.48709 34.868 15.5883 34.868C18.8657 34.868 23.6232 34.2978 27.1235 33.6365M36.8735 30.776C40.3829 30.0996 45.1556 29.4869 48.4117 29.4869C55.5129 29.4869 58 30.6911 58 32.1775C58 33.6638 55.5129 34.868 48.4117 34.868C45.1343 34.868 40.3768 34.2978 36.8765 33.6365" stroke="black" stroke-linecap="round" stroke-linejoin="round"/>
</svg>
