<svg width="64" height="64" viewBox="0 0 64 64" fill="none" xmlns="http://www.w3.org/2000/svg">
<g clip-path="url(#clip0_1122_31831)">
<path d="M28.3487 -37.5073C28.1019 -37.3834 28.0023 -37.0829 28.1262 -36.8361C28.2502 -36.5893 28.5507 -36.4897 28.7974 -36.6136L28.3487 -37.5073ZM35.6476 -40.0532C35.8944 -40.1771 35.994 -40.4776 35.8701 -40.7244C35.7462 -40.9711 35.4457 -41.0707 35.1989 -40.9468L35.6476 -40.0532ZM32.476 -38.2301C32.1999 -38.2301 31.976 -38.0063 31.976 -37.7301C31.976 -37.454 32.1999 -37.2301 32.476 -37.2301V-38.2301ZM35.4233 -37.2301C35.6994 -37.2301 35.9233 -37.454 35.9233 -37.7301C35.9233 -38.0063 35.6994 -38.2301 35.4233 -38.2301V-37.2301ZM31.5203 -39.3342C31.7965 -39.3342 32.0203 -39.558 32.0203 -39.8342C32.0203 -40.1103 31.7965 -40.3342 31.5203 -40.3342V-39.3342ZM28.5731 -40.3342C28.2969 -40.3342 28.0731 -40.1103 28.0731 -39.8342C28.0731 -39.558 28.2969 -39.3342 28.5731 -39.3342V-40.3342ZM28.3487 -1.4761C28.1019 -1.35219 28.0023 -1.05168 28.1262 -0.804901C28.2502 -0.55812 28.5507 -0.458513 28.7974 -0.582423L28.3487 -1.4761ZM35.6476 -4.02194C35.8944 -4.14585 35.994 -4.44636 35.8701 -4.69314C35.7462 -4.93992 35.4457 -5.03953 35.1989 -4.91562L35.6476 -4.02194ZM32.476 -2.19889C32.1999 -2.19889 31.976 -1.97504 31.976 -1.69889C31.976 -1.42275 32.1999 -1.19889 32.476 -1.19889V-2.19889ZM35.4233 -1.19889C35.6994 -1.19889 35.9233 -1.42275 35.9233 -1.69889C35.9233 -1.97504 35.6994 -2.19889 35.4233 -2.19889V-1.19889ZM31.5203 -3.30294C31.7965 -3.30294 32.0203 -3.5268 32.0203 -3.80294C32.0203 -4.07908 31.7965 -4.30294 31.5203 -4.30294V-3.30294ZM28.5731 -4.30294C28.2969 -4.30294 28.0731 -4.07908 28.0731 -3.80294C28.0731 -3.5268 28.2969 -3.30294 28.5731 -3.30294V-4.30294ZM28.3088 -6.28543C28.062 -6.16163 27.9622 -5.86117 28.086 -5.61433C28.2098 -5.3675 28.5103 -5.26776 28.7571 -5.39156L28.3088 -6.28543ZM35.6073 -8.82727C35.8542 -8.95107 35.9539 -9.25153 35.8301 -9.49837C35.7063 -9.7452 35.4058 -9.84494 35.159 -9.72114L35.6073 -8.82727ZM32.4359 -7.00433C32.1597 -7.00433 31.9359 -6.78047 31.9359 -6.50433C31.9359 -6.22819 32.1597 -6.00433 32.4359 -6.00433V-7.00433ZM35.3832 -6.00433C35.6593 -6.00433 35.8832 -6.22819 35.8832 -6.50433C35.8832 -6.78047 35.6593 -7.00433 35.3832 -7.00433V-6.00433ZM31.4802 -8.10837C31.7564 -8.10837 31.9802 -8.33223 31.9802 -8.60837C31.9802 -8.88451 31.7564 -9.10837 31.4802 -9.10837V-8.10837ZM28.533 -9.10837C28.2568 -9.10837 28.033 -8.88451 28.033 -8.60837C28.033 -8.33223 28.2568 -8.10837 28.533 -8.10837V-9.10837ZM28.3489 3.32924C28.1021 3.45304 28.0023 3.7535 28.1261 4.00034C28.2499 4.24718 28.5504 4.34692 28.7972 4.22311L28.3489 3.32924ZM35.6474 0.787397C35.8943 0.663597 35.994 0.363136 35.8702 0.1163C35.7464 -0.130536 35.446 -0.230276 35.1991 -0.106475L35.6474 0.787397ZM32.476 2.61034C32.1999 2.61034 31.976 2.8342 31.976 3.11034C31.976 3.38648 32.1999 3.61034 32.476 3.61034V2.61034ZM35.4233 3.61034C35.6994 3.61034 35.9233 3.38648 35.9233 3.11034C35.9233 2.8342 35.6994 2.61034 35.4233 2.61034V3.61034ZM31.5203 1.5063C31.7965 1.5063 32.0203 1.28244 32.0203 1.0063C32.0203 0.730154 31.7965 0.506297 31.5203 0.506297V1.5063ZM28.5731 0.506297C28.2969 0.506297 28.0731 0.730154 28.0731 1.0063C28.0731 1.28244 28.2969 1.5063 28.5731 1.5063V0.506297ZM28.3487 8.13857C28.1019 8.26248 28.0023 8.56299 28.1262 8.80977C28.2502 9.05655 28.5507 9.15616 28.7974 9.03225L28.3487 8.13857ZM35.6476 5.59273C35.8944 5.46882 35.994 5.16832 35.8701 4.92154C35.7462 4.67476 35.4457 4.57515 35.1989 4.69906L35.6476 5.59273ZM32.476 7.41577C32.1999 7.41577 31.976 7.63963 31.976 7.91577C31.976 8.19191 32.1999 8.41577 32.476 8.41577V7.41577ZM35.4233 8.41577C35.6994 8.41577 35.9233 8.19191 35.9233 7.91577C35.9233 7.63963 35.6994 7.41577 35.4233 7.41577V8.41577ZM31.5203 6.31553C31.7965 6.31553 32.0203 6.09168 32.0203 5.81553C32.0203 5.53939 31.7965 5.31553 31.5203 5.31553V6.31553ZM28.5731 5.31553C28.2969 5.31553 28.0731 5.53939 28.0731 5.81553C28.0731 6.09168 28.2969 6.31553 28.5731 6.31553V5.31553ZM27.5262 -25.9299C27.8024 -25.9299 28.0262 -26.1538 28.0262 -26.4299C28.0262 -26.7061 27.8024 -26.9299 27.5262 -26.9299V-25.9299ZM27.5262 -30.8305C27.8024 -30.8305 28.0262 -31.0543 28.0262 -31.3305C28.0262 -31.6066 27.8024 -31.8305 27.5262 -31.8305V-30.8305ZM36.4701 -26.9299C36.194 -26.9299 35.9701 -26.7061 35.9701 -26.4299C35.9701 -26.1538 36.194 -25.9299 36.4701 -25.9299V-26.9299ZM36.4701 -31.8305C36.194 -31.8305 35.9701 -31.6066 35.9701 -31.3305C35.9701 -31.0543 36.194 -30.8305 36.4701 -30.8305V-31.8305ZM34.2334 -28.4494C34.4377 -28.2636 34.7539 -28.2787 34.9397 -28.483C35.1255 -28.6873 35.1104 -29.0035 34.9061 -29.1893L34.2334 -28.4494ZM31.3825 -32.3929C31.1782 -32.5787 30.862 -32.5636 30.6762 -32.3593C30.4904 -32.155 30.5055 -31.8388 30.7098 -31.653L31.3825 -32.3929ZM31.7824 -26.861C31.578 -26.6754 31.5627 -26.3591 31.7484 -26.1547C31.934 -25.9503 32.2502 -25.935 32.4547 -26.1206L31.7824 -26.861ZM36.3977 -29.7009C36.6022 -29.8866 36.6174 -30.2028 36.4318 -30.4072C36.2462 -30.6117 35.9299 -30.6269 35.7255 -30.4413L36.3977 -29.7009ZM29.7666 -29.311C29.5623 -29.4968 29.2461 -29.4818 29.0603 -29.2774C28.8745 -29.0731 28.8896 -28.7569 29.0939 -28.5711L29.7666 -29.311ZM32.6175 -25.3675C32.8218 -25.1818 33.138 -25.1968 33.3238 -25.4011C33.5096 -25.6054 33.4945 -25.9217 33.2902 -26.1074L32.6175 -25.3675ZM32.2139 -30.8994C32.4184 -31.0851 32.4336 -31.4013 32.248 -31.6057C32.0623 -31.8102 31.7461 -31.8254 31.5417 -31.6398L32.2139 -30.8994ZM27.5986 -28.0595C27.3942 -27.8739 27.3789 -27.5576 27.5646 -27.3532C27.7502 -27.1488 28.0664 -27.1335 28.2709 -27.3192L27.5986 -28.0595ZM33.3736 10.4802C33.3736 10.2041 33.1497 9.9802 32.8736 9.9802C32.5975 9.9802 32.3736 10.2041 32.3736 10.4802H33.3736ZM32.3736 12.6641C32.3736 12.9403 32.5975 13.1641 32.8736 13.1641C33.1497 13.1641 33.3736 12.9403 33.3736 12.6641H32.3736ZM31.6227 10.4802C31.6227 10.2041 31.3989 9.98019 31.1227 9.98019C30.8466 9.98019 30.6227 10.2041 30.6227 10.4802H31.6227ZM30.6227 12.6641C30.6227 12.9403 30.8466 13.1641 31.1227 13.1641C31.3989 13.1641 31.6227 12.9403 31.6227 12.6641H30.6227ZM28.3489 61.2037C28.1021 61.3275 28.0023 61.628 28.1261 61.8748C28.2499 62.1216 28.5504 62.2214 28.7972 62.0976L28.3489 61.2037ZM35.6474 58.6619C35.8943 58.538 35.994 58.2376 35.8702 57.9908C35.7464 57.7439 35.446 57.6442 35.1991 57.768L35.6474 58.6619ZM32.476 60.4848C32.1999 60.4848 31.976 60.7086 31.976 60.9848C31.976 61.2609 32.1999 61.4848 32.476 61.4848V60.4848ZM35.4233 61.4848C35.6994 61.4848 35.9233 61.2609 35.9233 60.9848C35.9233 60.7086 35.6994 60.4848 35.4233 60.4848V61.4848ZM31.5203 59.3807C31.7965 59.3807 32.0203 59.1569 32.0203 58.8807C32.0203 58.6046 31.7965 58.3807 31.5203 58.3807V59.3807ZM28.5731 58.3807C28.2969 58.3807 28.0731 58.6046 28.0731 58.8807C28.0731 59.1569 28.2969 59.3807 28.5731 59.3807V58.3807ZM28.3086 56.3984C28.0618 56.5223 27.9622 56.8228 28.0861 57.0695C28.21 57.3163 28.5105 57.4159 28.7573 57.292L28.3086 56.3984ZM35.6075 53.8525C35.8543 53.7286 35.9539 53.4281 35.83 53.1813C35.7061 52.9345 35.4056 52.8349 35.1588 52.9588L35.6075 53.8525ZM32.4359 55.6755C32.1597 55.6755 31.9359 55.8994 31.9359 56.1755C31.9359 56.4517 32.1597 56.6755 32.4359 56.6755V55.6755ZM35.3832 56.6755C35.6593 56.6755 35.8832 56.4517 35.8832 56.1755C35.8832 55.8994 35.6593 55.6755 35.3832 55.6755V56.6755ZM31.4802 54.5715C31.7564 54.5715 31.9802 54.3476 31.9802 54.0715C31.9802 53.7954 31.7564 53.5715 31.4802 53.5715V54.5715ZM28.533 53.5715C28.2568 53.5715 28.033 53.7954 28.033 54.0715C28.033 54.3476 28.2568 54.5715 28.533 54.5715V53.5715ZM28.3487 66.013C28.1019 66.1369 28.0023 66.4374 28.1262 66.6842C28.2502 66.931 28.5507 67.0306 28.7974 66.9067L28.3487 66.013ZM35.6476 63.4672C35.8944 63.3433 35.994 63.0427 35.8701 62.796C35.7462 62.5492 35.4457 62.4496 35.1989 62.5735L35.6476 63.4672ZM32.476 65.2902C32.1999 65.2902 31.976 65.5141 31.976 65.7902C31.976 66.0664 32.1999 66.2902 32.476 66.2902V65.2902ZM35.4233 66.2902C35.6994 66.2902 35.9233 66.0664 35.9233 65.7902C35.9233 65.5141 35.6994 65.2902 35.4233 65.2902V66.2902ZM31.5203 64.19C31.7965 64.19 32.0203 63.9661 32.0203 63.69C32.0203 63.4138 31.7965 63.19 31.5203 63.19V64.19ZM28.5731 63.19C28.2969 63.19 28.0731 63.4138 28.0731 63.69C28.0731 63.9661 28.2969 64.19 28.5731 64.19V63.19ZM28.3487 104.053C28.1019 104.177 28.0023 104.478 28.1262 104.724C28.2502 104.971 28.5507 105.071 28.7974 104.947L28.3487 104.053ZM35.6476 101.507C35.8944 101.383 35.994 101.083 35.8701 100.836C35.7462 100.589 35.4457 100.49 35.1989 100.614L35.6476 101.507ZM32.476 103.33C32.1999 103.33 31.976 103.554 31.976 103.83C31.976 104.106 32.1999 104.33 32.476 104.33V103.33ZM35.4233 104.33C35.6994 104.33 35.9233 104.106 35.9233 103.83C35.9233 103.554 35.6994 103.33 35.4233 103.33V104.33ZM31.5203 102.23C31.7965 102.23 32.0203 102.006 32.0203 101.73C32.0203 101.454 31.7965 101.23 31.5203 101.23V102.23ZM28.5731 101.23C28.2969 101.23 28.0731 101.454 28.0731 101.73C28.0731 102.006 28.2969 102.23 28.5731 102.23V101.23ZM28.3489 70.8183C28.1021 70.9421 28.0023 71.2426 28.1261 71.4894C28.2499 71.7363 28.5504 71.836 28.7972 71.7122L28.3489 70.8183ZM35.6474 68.2765C35.8943 68.1527 35.994 67.8522 35.8702 67.6054C35.7464 67.3586 35.446 67.2588 35.1991 67.3826L35.6474 68.2765ZM32.476 70.0995C32.1999 70.0995 31.976 70.3233 31.976 70.5995C31.976 70.8756 32.1999 71.0995 32.476 71.0995V70.0995ZM35.4233 71.0995C35.6994 71.0995 35.9233 70.8756 35.9233 70.5995C35.9233 70.3233 35.6994 70.0995 35.4233 70.0995V71.0995ZM31.5203 68.9954C31.7965 68.9954 32.0203 68.7716 32.0203 68.4954C32.0203 68.2193 31.7965 67.9954 31.5203 67.9954V68.9954ZM28.5731 67.9954C28.2969 67.9954 28.0731 68.2193 28.0731 68.4954C28.0731 68.7716 28.2969 68.9954 28.5731 68.9954V67.9954ZM33.3736 73.1601C33.3736 72.8839 33.1497 72.6601 32.8736 72.6601C32.5975 72.6601 32.3736 72.8839 32.3736 73.1601H33.3736ZM32.3736 75.344C32.3736 75.6202 32.5975 75.844 32.8736 75.844C33.1497 75.844 33.3736 75.6202 33.3736 75.344H32.3736ZM31.6227 73.1601C31.6227 72.8839 31.3989 72.6601 31.1227 72.6601C30.8466 72.6601 30.6227 72.8839 30.6227 73.1601H31.6227ZM30.6227 75.344C30.6227 75.6202 30.8466 75.844 31.1227 75.844C31.3989 75.844 31.6227 75.6202 31.6227 75.344H30.6227ZM33.3736 86.4844C33.3736 86.2083 33.1497 85.9844 32.8736 85.9844C32.5975 85.9844 32.3736 86.2083 32.3736 86.4844H33.3736ZM32.3736 88.6683C32.3736 88.9445 32.5975 89.1683 32.8736 89.1683C33.1497 89.1683 33.3736 88.9445 33.3736 88.6683H32.3736ZM31.6227 86.4844C31.6227 86.2083 31.3989 85.9844 31.1227 85.9844C30.8466 85.9844 30.6227 86.2083 30.6227 86.4844H31.6227ZM30.6227 88.6683C30.6227 88.9445 30.8466 89.1683 31.1227 89.1683C31.3989 89.1683 31.6227 88.9445 31.6227 88.6683H30.6227ZM33.3736 49.7645C33.3736 49.4884 33.1497 49.2645 32.8736 49.2645C32.5975 49.2645 32.3736 49.4884 32.3736 49.7645H33.3736ZM32.3736 51.9484C32.3736 52.2246 32.5975 52.4484 32.8736 52.4484C33.1497 52.4484 33.3736 52.2246 33.3736 51.9484H32.3736ZM31.6227 49.7645C31.6227 49.4883 31.3989 49.2645 31.1227 49.2645C30.8466 49.2645 30.6227 49.4883 30.6227 49.7645H31.6227ZM30.6227 51.9484C30.6227 52.2246 30.8466 52.4484 31.1227 52.4484C31.3989 52.4484 31.6227 52.2246 31.6227 51.9484H30.6227ZM33.3736 -23.9835C33.3736 -24.2596 33.1497 -24.4835 32.8736 -24.4835C32.5975 -24.4835 32.3736 -24.2596 32.3736 -23.9835H33.3736ZM32.3736 -21.7995C32.3736 -21.5234 32.5975 -21.2995 32.8736 -21.2995C33.1497 -21.2995 33.3736 -21.5234 33.3736 -21.7995H32.3736ZM31.6227 -23.9835C31.6227 -24.2596 31.3989 -24.4835 31.1227 -24.4835C30.8466 -24.4835 30.6227 -24.2596 30.6227 -23.9835H31.6227ZM30.6227 -21.7995C30.6227 -21.5234 30.8466 -21.2995 31.1227 -21.2995C31.3989 -21.2995 31.6227 -21.5234 31.6227 -21.7995H30.6227ZM33.3736 -35.7745C33.3736 -36.0506 33.1497 -36.2745 32.8736 -36.2745C32.5975 -36.2745 32.3736 -36.0506 32.3736 -35.7745H33.3736ZM32.3736 -33.5905C32.3736 -33.3144 32.5975 -33.0905 32.8736 -33.0905C33.1497 -33.0905 33.3736 -33.3144 33.3736 -33.5905H32.3736ZM31.6227 -35.7745C31.6227 -36.0506 31.3989 -36.2745 31.1227 -36.2745C30.8466 -36.2745 30.6227 -36.0506 30.6227 -35.7745H31.6227ZM30.6227 -33.5905C30.6227 -33.3144 30.8466 -33.0905 31.1227 -33.0905C31.3989 -33.0905 31.6227 -33.3144 31.6227 -33.5905H30.6227ZM27.5262 91.2457C27.8024 91.2457 28.0262 91.0219 28.0262 90.7457C28.0262 90.4696 27.8024 90.2457 27.5262 90.2457V91.2457ZM27.5262 96.1463C27.8024 96.1463 28.0262 95.9224 28.0262 95.6463C28.0262 95.3701 27.8024 95.1463 27.5262 95.1463V96.1463ZM36.4701 90.2457C36.194 90.2457 35.9701 90.4696 35.9701 90.7457C35.9701 91.0219 36.194 91.2457 36.4701 91.2457V90.2457ZM36.4701 95.1463C36.194 95.1463 35.9701 95.3701 35.9701 95.6463C35.9701 95.9224 36.194 96.1463 36.4701 96.1463V95.1463ZM34.9061 93.5089C35.1104 93.3231 35.1255 93.0069 34.9397 92.8026C34.7539 92.5983 34.4377 92.5832 34.2334 92.769L34.9061 93.5089ZM30.7098 95.9726C30.5055 96.1584 30.4904 96.4746 30.6762 96.6789C30.862 96.8832 31.1782 96.8983 31.3825 96.7125L30.7098 95.9726ZM32.4547 90.4364C32.2502 90.2508 31.934 90.2661 31.7484 90.4705C31.5627 90.6749 31.578 90.9911 31.7824 91.1768L32.4547 90.4364ZM35.7255 94.7571C35.9299 94.9427 36.2462 94.9275 36.4318 94.723C36.6174 94.5186 36.6022 94.2024 36.3977 94.0167L35.7255 94.7571ZM29.0939 92.8869C28.8896 93.0727 28.8745 93.3889 29.0603 93.5932C29.2461 93.7976 29.5623 93.8126 29.7666 93.6268L29.0939 92.8869ZM33.2902 90.4232C33.4945 90.2375 33.5096 89.9212 33.3238 89.7169C33.138 89.5126 32.8218 89.4976 32.6175 89.6833L33.2902 90.4232ZM31.5417 95.9594C31.7461 96.145 32.0623 96.1298 32.248 95.9253C32.4336 95.7209 32.4184 95.4047 32.2139 95.219L31.5417 95.9594ZM28.2709 91.6388C28.0664 91.4531 27.7502 91.4684 27.5646 91.6728C27.3789 91.8773 27.3942 92.1935 27.5986 92.3791L28.2709 91.6388ZM32.3736 100.136C32.3736 100.412 32.5975 100.636 32.8736 100.636C33.1497 100.636 33.3736 100.412 33.3736 100.136H32.3736ZM33.3736 97.952C33.3736 97.6758 33.1497 97.452 32.8736 97.452C32.5975 97.452 32.3736 97.6758 32.3736 97.952H33.3736ZM30.6227 100.136C30.6227 100.412 30.8466 100.636 31.1227 100.636C31.3989 100.636 31.6227 100.412 31.6227 100.136H30.6227ZM31.6227 97.952C31.6227 97.6758 31.3989 97.452 31.1227 97.452C30.8466 97.452 30.6227 97.6758 30.6227 97.952H31.6227ZM36.6085 77.1665C36.6085 77.4426 36.8323 77.6665 37.1085 77.6665C37.3846 77.6665 37.6085 77.4426 37.6085 77.1665H36.6085ZM42.0361 77.1665C42.0361 77.4426 42.26 77.6665 42.5361 77.6665C42.8123 77.6665 43.0361 77.4426 43.0361 77.1665H42.0361ZM42.9267 84.7456C42.9267 84.4695 42.7028 84.2456 42.4267 84.2456C42.1505 84.2456 41.9267 84.4695 41.9267 84.7456H42.9267ZM37.499 84.7456C37.499 84.4695 37.2752 84.2456 36.999 84.2456C36.7229 84.2456 36.499 84.4695 36.499 84.7456H37.499ZM44.5642 77.3247C44.288 77.3247 44.0642 77.5486 44.0642 77.8247C44.0642 78.1009 44.288 78.3247 44.5642 78.3247V77.3247ZM44.5642 82.9862C44.288 82.9862 44.0642 83.2101 44.0642 83.4862C44.0642 83.7624 44.288 83.9862 44.5642 83.9862V82.9862ZM35.5066 81.716C35.3022 81.9016 35.287 82.2178 35.4726 82.4222C35.6583 82.6267 35.9745 82.6418 36.1789 82.4562L35.5066 81.716ZM40.3007 78.7123C40.5051 78.5266 40.5203 78.2104 40.3347 78.006C40.149 77.8016 39.8328 77.7864 39.6284 77.9721L40.3007 78.7123ZM39.2213 76.3933C39.0443 76.1813 38.729 76.1529 38.517 76.3299C38.305 76.5069 38.2766 76.8222 38.4536 77.0342L39.2213 76.3933ZM42.0429 81.3336C42.2198 81.5455 42.5351 81.5739 42.7471 81.3969C42.9591 81.22 42.9875 80.9047 42.8105 80.6927L42.0429 81.3336ZM37.8023 80.4226C37.6254 80.2106 37.3101 80.1822 37.0981 80.3592C36.8861 80.5361 36.8577 80.8514 37.0347 81.0634L37.8023 80.4226ZM40.6239 85.3628C40.8009 85.5748 41.1162 85.6032 41.3282 85.4262C41.5402 85.2492 41.5686 84.9339 41.3916 84.7219L40.6239 85.3628ZM39.5226 83.2759C39.3182 83.4616 39.303 83.7778 39.4886 83.9822C39.6743 84.1866 39.9905 84.2018 40.1949 84.0161L39.5226 83.2759ZM44.3167 80.2722C44.5211 80.0866 44.5363 79.7704 44.3507 79.566C44.165 79.3615 43.8488 79.3464 43.6444 79.532L44.3167 80.2722ZM26.6578 77.1665C26.6578 77.4426 26.8817 77.6665 27.1578 77.6665C27.4339 77.6665 27.6578 77.4426 27.6578 77.1665H26.6578ZM21.2302 77.1665C21.2302 77.4426 21.454 77.6665 21.7302 77.6665C22.0063 77.6665 22.2302 77.4426 22.2302 77.1665H21.2302ZM22.3396 84.7456C22.3396 84.4695 22.1157 84.2456 21.8396 84.2456C21.5635 84.2456 21.3396 84.4695 21.3396 84.7456H22.3396ZM27.7672 84.7456C27.7672 84.4695 27.5434 84.2456 27.2672 84.2456C26.9911 84.2456 26.7672 84.4695 26.7672 84.7456H27.7672ZM19.7021 78.3247C19.9782 78.3247 20.2021 78.1009 20.2021 77.8247C20.2021 77.5486 19.9782 77.3247 19.7021 77.3247V78.3247ZM19.7021 83.9862C19.9782 83.9862 20.2021 83.7624 20.2021 83.4862C20.2021 83.2101 19.9782 82.9862 19.7021 82.9862V83.9862ZM27.7299 81.716C27.5255 81.9016 27.5103 82.2178 27.6959 82.4222C27.8816 82.6267 28.1978 82.6418 28.4022 82.4562L27.7299 81.716ZM32.524 78.7123C32.7284 78.5266 32.7436 78.2104 32.558 78.006C32.3723 77.8016 32.0561 77.7864 31.8517 77.9721L32.524 78.7123ZM31.4446 76.3933C31.2676 76.1813 30.9523 76.1529 30.7403 76.3299C30.5283 76.5069 30.4999 76.8222 30.6769 77.0342L31.4446 76.3933ZM34.2662 81.3335C34.4431 81.5455 34.7584 81.5739 34.9704 81.3969C35.1824 81.22 35.2108 80.9047 35.0338 80.6927L34.2662 81.3335ZM30.022 80.4226C29.845 80.2106 29.5297 80.1822 29.3177 80.3592C29.1058 80.5361 29.0774 80.8514 29.2543 81.0634L30.022 80.4226ZM32.8436 85.3628C33.0206 85.5748 33.3359 85.6032 33.5478 85.4262C33.7598 85.2492 33.7882 84.9339 33.6112 84.7219L32.8436 85.3628ZM31.7422 83.2759C31.5378 83.4616 31.5226 83.7778 31.7083 83.9822C31.894 84.1866 32.2102 84.2018 32.4146 84.0161L31.7422 83.2759ZM36.5364 80.2722C36.7408 80.0866 36.756 79.7704 36.5703 79.566C36.3847 79.3615 36.0684 79.3464 35.864 79.532L36.5364 80.2722ZM19.8073 81.716C19.6029 81.9016 19.5877 82.2178 19.7734 82.4222C19.959 82.6267 20.2752 82.6418 20.4796 82.4562L19.8073 81.716ZM24.6014 78.7123C24.8058 78.5266 24.821 78.2104 24.6354 78.006C24.4497 77.8016 24.1335 77.7864 23.9291 77.9721L24.6014 78.7123ZM23.522 76.3933C23.345 76.1813 23.0297 76.1529 22.8177 76.3299C22.6057 76.5069 22.5773 76.8222 22.7543 77.0342L23.522 76.3933ZM26.3436 81.3336C26.5205 81.5455 26.8358 81.5739 27.0478 81.3969C27.2598 81.22 27.2882 80.9047 27.1112 80.6927L26.3436 81.3336ZM22.1031 80.4226C21.9261 80.2106 21.6108 80.1822 21.3988 80.3592C21.1868 80.5361 21.1584 80.8514 21.3354 81.0634L22.1031 80.4226ZM24.9246 85.3628C25.1016 85.5748 25.4169 85.6032 25.6289 85.4262C25.8409 85.2492 25.8693 84.9339 25.6923 84.7219L24.9246 85.3628ZM23.8196 83.2759C23.6152 83.4616 23.6 83.7778 23.7857 83.9822C23.9714 84.1866 24.2876 84.2018 24.492 84.0161L23.8196 83.2759ZM28.6138 80.2722C28.8182 80.0866 28.8334 79.7704 28.6477 79.566C28.4621 79.3615 28.1458 79.3464 27.9414 79.532L28.6138 80.2722ZM36.2437 -19.6841C36.2437 -19.4079 36.4676 -19.1841 36.7437 -19.1841C37.0199 -19.1841 37.2437 -19.4079 37.2437 -19.6841H36.2437ZM41.6713 -19.6841C41.6713 -19.4079 41.8952 -19.1841 42.1713 -19.1841C42.4475 -19.1841 42.6713 -19.4079 42.6713 -19.6841H41.6713ZM42.5619 -12.105C42.5619 -12.3811 42.3381 -12.605 42.0619 -12.605C41.7858 -12.605 41.5619 -12.3811 41.5619 -12.105H42.5619ZM37.1343 -12.105C37.1343 -12.3811 36.9104 -12.605 36.6343 -12.605C36.3581 -12.605 36.1343 -12.3811 36.1343 -12.105H37.1343ZM44.1994 -19.5258C43.9233 -19.5258 43.6994 -19.302 43.6994 -19.0258C43.6994 -18.7497 43.9233 -18.5258 44.1994 -18.5258V-19.5258ZM44.1994 -13.8643C43.9233 -13.8643 43.6994 -13.6405 43.6994 -13.3643C43.6994 -13.0882 43.9233 -12.8643 44.1994 -12.8643V-13.8643ZM35.1418 -15.1346C34.9374 -14.9489 34.9222 -14.6327 35.1079 -14.4283C35.2935 -14.2239 35.6098 -14.2087 35.8142 -14.3944L35.1418 -15.1346ZM39.936 -18.1383C40.1404 -18.3239 40.1556 -18.6402 39.9699 -18.8446C39.7842 -19.049 39.468 -19.0642 39.2636 -18.8785L39.936 -18.1383ZM38.8565 -20.4573C38.6795 -20.6693 38.3642 -20.6976 38.1522 -20.5207C37.9403 -20.3437 37.9119 -20.0284 38.0888 -19.8164L38.8565 -20.4573ZM41.6781 -15.517C41.8551 -15.305 42.1704 -15.2766 42.3823 -15.4536C42.5943 -15.6306 42.6227 -15.9459 42.4457 -16.1579L41.6781 -15.517ZM37.4376 -16.428C37.2606 -16.64 36.9453 -16.6684 36.7333 -16.4914C36.5213 -16.3144 36.493 -15.9991 36.6699 -15.7872L37.4376 -16.428ZM40.2592 -11.4878C40.4361 -11.2758 40.7514 -11.2474 40.9634 -11.4244C41.1754 -11.6013 41.2038 -11.9166 41.0268 -12.1286L40.2592 -11.4878ZM39.1578 -13.5747C38.9534 -13.389 38.9382 -13.0728 39.1239 -12.8684C39.3096 -12.664 39.6258 -12.6488 39.8302 -12.8344L39.1578 -13.5747ZM43.952 -16.5783C44.1564 -16.764 44.1716 -17.0802 43.9859 -17.2846C43.8002 -17.489 43.484 -17.5042 43.2796 -17.3186L43.952 -16.5783ZM26.293 -19.6841C26.293 -19.4079 26.5169 -19.1841 26.793 -19.1841C27.0692 -19.1841 27.293 -19.4079 27.293 -19.6841H26.293ZM20.8654 -19.6841C20.8654 -19.4079 21.0893 -19.1841 21.3654 -19.1841C21.6416 -19.1841 21.8654 -19.4079 21.8654 -19.6841H20.8654ZM21.9748 -12.105C21.9748 -12.3811 21.751 -12.605 21.4748 -12.605C21.1987 -12.605 20.9748 -12.3811 20.9748 -12.105H21.9748ZM27.4025 -12.105C27.4025 -12.3811 27.1786 -12.605 26.9025 -12.605C26.6263 -12.605 26.4025 -12.3811 26.4025 -12.105H27.4025ZM19.3373 -18.5258C19.6135 -18.5258 19.8373 -18.7497 19.8373 -19.0258C19.8373 -19.302 19.6135 -19.5258 19.3373 -19.5258V-18.5258ZM19.3373 -12.8643C19.6135 -12.8643 19.8373 -13.0882 19.8373 -13.3643C19.8373 -13.6405 19.6135 -13.8643 19.3373 -13.8643V-12.8643ZM27.3651 -15.1346C27.1607 -14.9489 27.1455 -14.6327 27.3312 -14.4283C27.5169 -14.2239 27.8331 -14.2087 28.0375 -14.3944L27.3651 -15.1346ZM32.1593 -18.1383C32.3637 -18.3239 32.3789 -18.6402 32.1932 -18.8446C32.0075 -19.049 31.6913 -19.0642 31.4869 -18.8785L32.1593 -18.1383ZM31.0798 -20.4573C30.9028 -20.6693 30.5875 -20.6976 30.3756 -20.5207C30.1636 -20.3437 30.1352 -20.0284 30.3122 -19.8164L31.0798 -20.4573ZM33.9014 -15.517C34.0784 -15.305 34.3937 -15.2766 34.6057 -15.4536C34.8176 -15.6306 34.846 -15.9459 34.6691 -16.1579L33.9014 -15.517ZM29.6572 -16.428C29.4803 -16.64 29.165 -16.6684 28.953 -16.4914C28.741 -16.3144 28.7126 -15.9991 28.8896 -15.7872L29.6572 -16.428ZM32.4788 -11.4878C32.6558 -11.2758 32.9711 -11.2474 33.1831 -11.4244C33.3951 -11.6013 33.4235 -11.9166 33.2465 -12.1286L32.4788 -11.4878ZM31.3775 -13.5747C31.1731 -13.389 31.1579 -13.0728 31.3436 -12.8684C31.5292 -12.664 31.8454 -12.6488 32.0498 -12.8344L31.3775 -13.5747ZM36.1716 -16.5783C36.376 -16.764 36.3912 -17.0802 36.2056 -17.2846C36.0199 -17.489 35.7037 -17.5042 35.4993 -17.3186L36.1716 -16.5783ZM19.4425 -15.1346C19.2381 -14.9489 19.2229 -14.6327 19.4086 -14.4283C19.5943 -14.2239 19.9105 -14.2087 20.1149 -14.3944L19.4425 -15.1346ZM24.2367 -18.1383C24.4411 -18.3239 24.4563 -18.6402 24.2706 -18.8446C24.0849 -19.049 23.7687 -19.0642 23.5643 -18.8785L24.2367 -18.1383ZM23.1572 -20.4573C22.9802 -20.6693 22.6649 -20.6976 22.453 -20.5207C22.241 -20.3437 22.2126 -20.0284 22.3896 -19.8164L23.1572 -20.4573ZM25.9788 -15.517C26.1558 -15.305 26.4711 -15.2766 26.6831 -15.4536C26.895 -15.6306 26.9234 -15.9459 26.7465 -16.1579L25.9788 -15.517ZM21.7383 -16.428C21.5613 -16.64 21.246 -16.6684 21.034 -16.4914C20.8221 -16.3144 20.7937 -15.9991 20.9706 -15.7872L21.7383 -16.428ZM24.5599 -11.4878C24.7369 -11.2758 25.0522 -11.2474 25.2641 -11.4244C25.4761 -11.6013 25.5045 -11.9166 25.3275 -12.1286L24.5599 -11.4878ZM23.4549 -13.5747C23.2505 -13.389 23.2353 -13.0728 23.421 -12.8684C23.6066 -12.664 23.9228 -12.6488 24.1272 -12.8344L23.4549 -13.5747ZM28.249 -16.5783C28.4534 -16.764 28.4686 -17.0802 28.283 -17.2846C28.0973 -17.489 27.7811 -17.5042 27.5767 -17.3186L28.249 -16.5783ZM14.1833 31.4369L13.8395 31.0738L13.4561 31.4369L13.8395 31.7999L14.1833 31.4369ZM31.9982 14.5703L32.3419 14.2072L31.9982 13.8818L31.6544 14.2072L31.9982 14.5703ZM49.8131 31.4369L50.1569 31.7999L50.5403 31.4369L50.1568 31.0738L49.8131 31.4369ZM31.9982 48.3073L31.6544 48.6703L31.9982 48.9959L32.342 48.6703L31.9982 48.3073ZM29.1084 45.5319C28.9079 45.7218 28.8992 46.0382 29.089 46.2388C29.2789 46.4393 29.5953 46.448 29.7959 46.2582L29.1084 45.5319ZM47.6144 29.3916C47.815 29.2018 47.8236 28.8853 47.6338 28.6848C47.444 28.4842 47.1275 28.4755 46.927 28.6654L47.6144 29.3916ZM26.566 43.1235C26.3655 43.3134 26.3568 43.6299 26.5467 43.8304C26.7365 44.0309 27.053 44.0396 27.2535 43.8497L26.566 43.1235ZM45.0684 26.9831C45.2689 26.7933 45.2776 26.4768 45.0878 26.2763C44.8979 26.0758 44.5814 26.0671 44.3809 26.257L45.0684 26.9831ZM24.0199 40.7151C23.8194 40.905 23.8108 41.2215 24.0007 41.422C24.1906 41.6225 24.507 41.6311 24.7075 41.4412L24.0199 40.7151ZM42.5224 24.5709C42.7229 24.381 42.7316 24.0645 42.5417 23.864C42.3518 23.6635 42.0353 23.6549 41.8348 23.8448L42.5224 24.5709ZM21.474 38.3029C21.2734 38.4927 21.2648 38.8092 21.4546 39.0097C21.6445 39.2103 21.9609 39.2189 22.1615 39.0291L21.474 38.3029ZM39.9764 22.1625C40.1769 21.9726 40.1855 21.6562 39.9957 21.4556C39.8058 21.2551 39.4894 21.2465 39.2889 21.4363L39.9764 22.1625ZM18.9316 35.8945C18.7311 36.0843 18.7224 36.4008 18.9122 36.6013C19.1021 36.8018 19.4186 36.8105 19.6191 36.6206L18.9316 35.8945ZM37.434 19.7541C37.6345 19.5642 37.6432 19.2477 37.4533 19.0472C37.2635 18.8467 36.947 18.838 36.7465 19.0279L37.434 19.7541ZM16.3855 33.4861C16.185 33.676 16.1764 33.9924 16.3663 34.1929C16.5561 34.3934 16.8726 34.402 17.0731 34.2122L16.3855 33.4861ZM34.888 17.3418C35.0885 17.1519 35.0971 16.8355 34.9073 16.635C34.7174 16.4344 34.4009 16.4258 34.2004 16.6157L34.888 17.3418ZM29.7959 16.6157C29.5954 16.4258 29.2789 16.4345 29.0891 16.635C28.8992 16.8355 28.9079 17.152 29.1084 17.3418L29.7959 16.6157ZM46.9269 34.2122C47.1275 34.4021 47.4439 34.3934 47.6338 34.1929C47.8236 33.9924 47.815 33.6759 47.6145 33.486L46.9269 34.2122ZM27.2535 19.0279C27.053 18.838 26.7365 18.8467 26.5467 19.0472C26.3568 19.2477 26.3655 19.5642 26.566 19.7541L27.2535 19.0279ZM44.3809 36.6206C44.5814 36.8105 44.8979 36.8018 45.0878 36.6013C45.2776 36.4008 45.2689 36.0843 45.0684 35.8945L44.3809 36.6206ZM24.7075 21.4363C24.507 21.2465 24.1905 21.2551 24.0007 21.4556C23.8108 21.6562 23.8195 21.9726 24.02 22.1625L24.7075 21.4363ZM41.8349 39.0291C42.0354 39.2189 42.3519 39.2103 42.5417 39.0097C42.7316 38.8092 42.7229 38.4927 42.5224 38.3029L41.8349 39.0291ZM22.1615 23.8448C21.961 23.6549 21.6445 23.6635 21.4547 23.864C21.2648 24.0645 21.2734 24.381 21.4739 24.5709L22.1615 23.8448ZM39.2888 41.4412C39.4893 41.6311 39.8058 41.6225 39.9957 41.422C40.1855 41.2215 40.1769 40.905 39.9764 40.7151L39.2888 41.4412ZM19.6191 26.257C19.4186 26.0671 19.1021 26.0758 18.9122 26.2763C18.7224 26.4768 18.7311 26.7933 18.9316 26.9831L19.6191 26.257ZM36.7465 43.8497C36.947 44.0396 37.2635 44.0309 37.4533 43.8304C37.6432 43.6299 37.6345 43.3134 37.434 43.1235L36.7465 43.8497ZM17.0731 28.6654C16.8725 28.4755 16.5561 28.4842 16.3662 28.6847C16.1764 28.8852 16.185 29.2017 16.3855 29.3916L17.0731 28.6654ZM34.2004 46.2581C34.401 46.448 34.7174 46.4393 34.9073 46.2388C35.0971 46.0383 35.0885 45.7218 34.888 45.532L34.2004 46.2581ZM34.5107 16.1209C34.3101 16.3106 34.3012 16.627 34.491 16.8277C34.6807 17.0283 34.9972 17.0372 35.1978 16.8474L34.5107 16.1209ZM41.6899 10.0198L42.0334 10.3831L42.0335 10.3831L41.6899 10.0198ZM44.2541 10.1492L44.6315 9.82112L44.6307 9.82021L44.2541 10.1492ZM44.1301 12.8239L44.4737 13.1872L44.4746 13.1863L44.1301 12.8239ZM37.2135 18.6777C37.0129 18.8674 37.0041 19.1839 37.1939 19.3845C37.3836 19.5851 37.7001 19.5939 37.9007 19.4042L37.2135 18.6777ZM39.6976 20.9301C39.497 21.1198 39.4881 21.4363 39.6779 21.6369C39.8676 21.8376 40.1841 21.8464 40.3847 21.6567L39.6976 20.9301ZM46.8768 14.8291L47.2203 15.1923L47.2204 15.1923L46.8768 14.8291ZM49.441 14.9584L49.8184 14.6304L49.8176 14.6294L49.441 14.9584ZM49.317 17.6332L49.6606 17.9964L49.6615 17.9956L49.317 17.6332ZM42.4004 23.4869C42.1998 23.6767 42.191 23.9931 42.3808 24.1938C42.5705 24.3944 42.887 24.4032 43.0876 24.2134L42.4004 23.4869ZM44.8626 25.8382C44.662 26.028 44.6531 26.3444 44.8429 26.5451C45.0326 26.7457 45.3491 26.7545 45.5497 26.5648L44.8626 25.8382ZM52.0418 19.7372L52.3853 20.1005L52.3854 20.1005L52.0418 19.7372ZM54.606 19.8666L54.9834 19.5385L54.9826 19.5376L54.606 19.8666ZM54.482 22.5413L54.8256 22.9046L54.8265 22.9037L54.482 22.5413ZM47.5654 28.3951C47.3648 28.5848 47.356 28.9013 47.5458 29.1019C47.7355 29.3025 48.052 29.3113 48.2526 29.1216L47.5654 28.3951ZM35.1978 46.0302C34.9972 45.8404 34.6807 45.8493 34.491 46.0499C34.3012 46.2506 34.3101 46.567 34.5107 46.7567L35.1978 46.0302ZM41.6899 52.8578L42.0335 52.4945L42.0334 52.4945L41.6899 52.8578ZM44.2541 52.7284L44.6307 53.0574L44.6315 53.0565L44.2541 52.7284ZM44.1301 50.0537L44.4746 49.6913L44.4737 49.6904L44.1301 50.0537ZM37.9007 43.4734C37.7001 43.2836 37.3836 43.2925 37.1939 43.4931C37.0041 43.6937 37.0129 44.0102 37.2135 44.1999L37.9007 43.4734ZM40.3847 41.2172C40.1841 41.0274 39.8676 41.0363 39.6779 41.2369C39.4881 41.4375 39.497 41.754 39.6976 41.9437L40.3847 41.2172ZM46.8768 48.0447L47.2204 47.6815L47.2203 47.6815L46.8768 48.0447ZM49.441 47.9154L49.8176 48.2444L49.8184 48.2434L49.441 47.9154ZM49.317 45.2406L49.6615 44.8782L49.6606 44.8774L49.317 45.2406ZM43.0876 38.6604C42.887 38.4706 42.5705 38.4794 42.3808 38.68C42.191 38.8807 42.1998 39.1971 42.4004 39.3869L43.0876 38.6604ZM45.5497 36.309C45.3491 36.1192 45.0326 36.1281 44.8429 36.3287C44.6531 36.5293 44.662 36.8458 44.8626 37.0355L45.5497 36.309ZM52.0418 43.1366L52.3854 42.7733L52.3853 42.7733L52.0418 43.1366ZM54.606 43.0072L54.9826 43.3362L54.9834 43.3353L54.606 43.0072ZM54.482 40.3325L54.8265 39.9701L54.8256 39.9692L54.482 40.3325ZM48.2526 33.7522C48.052 33.5624 47.7355 33.5713 47.5458 33.7719C47.356 33.9725 47.3648 34.2889 47.5654 34.4787L48.2526 33.7522ZM28.8022 16.8474C29.0028 17.0372 29.3193 17.0283 29.509 16.8277C29.6988 16.627 29.6899 16.3106 29.4893 16.1209L28.8022 16.8474ZM22.3101 10.0198L21.9665 10.3831L21.9666 10.3831L22.3101 10.0198ZM19.7459 10.1492L19.3693 9.82021L19.3685 9.82112L19.7459 10.1492ZM19.8699 12.8239L19.5254 13.1863L19.5263 13.1872L19.8699 12.8239ZM26.0993 19.4042C26.2999 19.5939 26.6164 19.5851 26.8061 19.3845C26.9959 19.1839 26.9871 18.8674 26.7865 18.6777L26.0993 19.4042ZM23.6117 21.6567C23.8123 21.8464 24.1288 21.8376 24.3185 21.6369C24.5082 21.4363 24.4994 21.1198 24.2988 20.9301L23.6117 21.6567ZM17.1196 14.8291L16.776 15.1923L16.776 15.1923L17.1196 14.8291ZM14.5553 14.9584L14.1788 14.6294L14.178 14.6304L14.5553 14.9584ZM14.6793 17.6332L14.3349 17.9956L14.3358 17.9964L14.6793 17.6332ZM20.9088 24.2134C21.1094 24.4032 21.4258 24.3944 21.6156 24.1938C21.8053 23.9931 21.7965 23.6767 21.5959 23.4869L20.9088 24.2134ZM18.4467 26.5648C18.6473 26.7545 18.9637 26.7457 19.1535 26.5451C19.3432 26.3444 19.3344 26.028 19.1338 25.8382L18.4467 26.5648ZM11.9546 19.7372L11.611 20.1005L11.611 20.1005L11.9546 19.7372ZM9.39032 19.8666L9.01379 19.5376L9.01299 19.5385L9.39032 19.8666ZM9.51434 22.5413L9.16985 22.9037L9.17076 22.9046L9.51434 22.5413ZM15.7437 29.1216C15.9444 29.3113 16.2608 29.3025 16.4506 29.1019C16.6403 28.9013 16.6315 28.5848 16.4309 28.3951L15.7437 29.1216ZM29.4893 46.7567C29.6899 46.567 29.6988 46.2506 29.509 46.0499C29.3193 45.8493 29.0028 45.8404 28.8022 46.0302L29.4893 46.7567ZM22.3101 52.8578L21.9666 52.4945L21.9665 52.4945L22.3101 52.8578ZM19.7459 52.7284L19.3685 53.0565L19.3693 53.0574L19.7459 52.7284ZM19.8699 50.0537L19.5263 49.6904L19.5254 49.6913L19.8699 50.0537ZM26.7865 44.1999C26.9871 44.0102 26.9959 43.6937 26.8061 43.4931C26.6164 43.2925 26.2999 43.2836 26.0993 43.4734L26.7865 44.1999ZM24.2988 41.9437C24.4994 41.754 24.5082 41.4375 24.3185 41.2369C24.1288 41.0363 23.8123 41.0274 23.6117 41.2172L24.2988 41.9437ZM17.1196 48.0447L16.776 47.6815L16.776 47.6815L17.1196 48.0447ZM14.5553 47.9154L14.178 48.2434L14.1788 48.2444L14.5553 47.9154ZM14.6793 45.2406L14.3358 44.8774L14.3349 44.8782L14.6793 45.2406ZM21.5959 39.3869C21.7965 39.1971 21.8053 38.8807 21.6156 38.68C21.4258 38.4794 21.1094 38.4706 20.9088 38.6604L21.5959 39.3869ZM19.1338 37.0355C19.3344 36.8458 19.3432 36.5293 19.1535 36.3287C18.9637 36.1281 18.6473 36.1192 18.4467 36.309L19.1338 37.0355ZM11.9546 43.1366L11.611 42.7733L11.611 42.7733L11.9546 43.1366ZM9.39032 43.0072L9.01299 43.3353L9.01379 43.3362L9.39032 43.0072ZM9.51434 40.3325L9.17076 39.9692L9.16985 39.9701L9.51434 40.3325ZM16.4309 34.4787C16.6315 34.2889 16.6403 33.9725 16.4506 33.7719C16.2608 33.5713 15.9444 33.5624 15.7437 33.7522L16.4309 34.4787ZM49.4884 29.0459C49.2123 29.0459 48.9884 29.2698 48.9884 29.5459C48.9884 29.8221 49.2123 30.0459 49.4884 30.0459V29.0459ZM49.4884 32.8355C49.2123 32.8355 48.9884 33.0593 48.9884 33.3355C48.9884 33.6116 49.2123 33.8355 49.4884 33.8355V32.8355ZM14.5116 30.0459C14.7877 30.0459 15.0116 29.8221 15.0116 29.5459C15.0116 29.2698 14.7877 29.0459 14.5116 29.0459V30.0459ZM14.5116 33.8355C14.7877 33.8355 15.0116 33.6116 15.0116 33.3355C15.0116 33.0593 14.7877 32.8355 14.5116 32.8355V33.8355ZM28.7974 -36.6136L35.6476 -40.0532L35.1989 -40.9468L28.3487 -37.5073L28.7974 -36.6136ZM32.476 -37.2301H35.4233V-38.2301H32.476V-37.2301ZM31.5203 -40.3342H28.5731V-39.3342H31.5203V-40.3342ZM28.7974 -0.582423L35.6476 -4.02194L35.1989 -4.91562L28.3487 -1.4761L28.7974 -0.582423ZM32.476 -1.19889H35.4233V-2.19889H32.476V-1.19889ZM31.5203 -4.30294H28.5731V-3.30294H31.5203V-4.30294ZM28.7571 -5.39156L35.6073 -8.82727L35.159 -9.72114L28.3088 -6.28543L28.7571 -5.39156ZM32.4359 -6.00433H35.3832V-7.00433H32.4359V-6.00433ZM31.4802 -9.10837H28.533V-8.10837H31.4802V-9.10837ZM28.7972 4.22311L35.6474 0.787397L35.1991 -0.106475L28.3489 3.32924L28.7972 4.22311ZM32.476 3.61034H35.4233V2.61034H32.476V3.61034ZM31.5203 0.506297H28.5731V1.5063H31.5203V0.506297ZM28.7974 9.03225L35.6476 5.59273L35.1989 4.69906L28.3487 8.13857L28.7974 9.03225ZM32.476 8.41577H35.4233V7.41577H32.476V8.41577ZM31.5203 5.31553H28.5731V6.31553H31.5203V5.31553ZM27.5262 -26.9299H27.4387V-25.9299H27.5262V-26.9299ZM27.4387 -26.9299C26.3994 -26.9299 25.5714 -27.7583 25.5714 -28.7661H24.5714C24.5714 -27.1942 25.859 -25.9299 27.4387 -25.9299V-26.9299ZM25.5714 -28.7661V-28.9944H24.5714V-28.7661H25.5714ZM25.5714 -28.9944C25.5714 -30.0016 26.4025 -30.8305 27.4387 -30.8305V-31.8305C25.8631 -31.8305 24.5714 -30.5667 24.5714 -28.9944H25.5714ZM27.4387 -30.8305H27.5262V-31.8305H27.4387V-30.8305ZM36.4701 -25.9299H36.5577V-26.9299H36.4701V-25.9299ZM36.5577 -25.9299C38.1374 -25.9299 39.425 -27.1942 39.425 -28.7661H38.425C38.425 -27.7583 37.597 -26.9299 36.5577 -26.9299V-25.9299ZM39.425 -28.7661V-28.9944H38.425V-28.7661H39.425ZM39.425 -28.9944C39.425 -30.5667 38.1332 -31.8305 36.5577 -31.8305V-30.8305C37.5938 -30.8305 38.425 -30.0016 38.425 -28.9944H39.425ZM36.5577 -31.8305H36.4701V-30.8305H36.5577V-31.8305ZM34.9061 -29.1893L31.3825 -32.3929L30.7098 -31.653L34.2334 -28.4494L34.9061 -29.1893ZM32.4547 -26.1206L36.3977 -29.7009L35.7255 -30.4413L31.7824 -26.861L32.4547 -26.1206ZM29.0939 -28.5711L32.6175 -25.3675L33.2902 -26.1074L29.7666 -29.311L29.0939 -28.5711ZM31.5417 -31.6398L27.5986 -28.0595L28.2709 -27.3192L32.2139 -30.8994L31.5417 -31.6398ZM32.3736 10.4802V12.6641H33.3736V10.4802H32.3736ZM30.6227 10.4802V12.6641H31.6227V10.4802H30.6227ZM28.7972 62.0976L35.6474 58.6619L35.1991 57.768L28.3489 61.2037L28.7972 62.0976ZM32.476 61.4848H35.4233V60.4848H32.476V61.4848ZM31.5203 58.3807H28.5731V59.3807H31.5203V58.3807ZM28.7573 57.292L35.6075 53.8525L35.1588 52.9588L28.3086 56.3984L28.7573 57.292ZM32.4359 56.6755H35.3832V55.6755H32.4359V56.6755ZM31.4802 53.5715H28.533V54.5715H31.4802V53.5715ZM28.7974 66.9067L35.6476 63.4672L35.1989 62.5735L28.3487 66.013L28.7974 66.9067ZM32.476 66.2902H35.4233V65.2902H32.476V66.2902ZM31.5203 63.19H28.5731V64.19H31.5203V63.19ZM28.7974 104.947L35.6476 101.507L35.1989 100.614L28.3487 104.053L28.7974 104.947ZM32.476 104.33H35.4233V103.33H32.476V104.33ZM31.5203 101.23H28.5731V102.23H31.5203V101.23ZM28.7972 71.7122L35.6474 68.2765L35.1991 67.3826L28.3489 70.8183L28.7972 71.7122ZM32.476 71.0995H35.4233V70.0995H32.476V71.0995ZM31.5203 67.9954H28.5731V68.9954H31.5203V67.9954ZM32.3736 73.1601V75.344H33.3736V73.1601H32.3736ZM30.6227 73.1601V75.344H31.6227V73.1601H30.6227ZM32.3736 86.4844V88.6683H33.3736V86.4844H32.3736ZM30.6227 86.4844V88.6683H31.6227V86.4844H30.6227ZM32.3736 49.7645V51.9484H33.3736V49.7645H32.3736ZM30.6227 49.7645V51.9484H31.6227V49.7645H30.6227ZM32.3736 -23.9835V-21.7995H33.3736V-23.9835H32.3736ZM30.6227 -23.9835V-21.7995H31.6227V-23.9835H30.6227ZM32.3736 -35.7745V-33.5905H33.3736V-35.7745H32.3736ZM30.6227 -35.7745V-33.5905H31.6227V-35.7745H30.6227ZM27.5262 90.2457H27.4387V91.2457H27.5262V90.2457ZM27.4387 90.2457C25.859 90.2457 24.5714 91.51 24.5714 93.0819H25.5714C25.5714 92.0741 26.3994 91.2457 27.4387 91.2457V90.2457ZM24.5714 93.0819V93.3101H25.5714V93.0819H24.5714ZM24.5714 93.3101C24.5714 94.8825 25.8631 96.1463 27.4387 96.1463V95.1463C26.4025 95.1463 25.5714 94.3174 25.5714 93.3101H24.5714ZM27.4387 96.1463H27.5262V95.1463H27.4387V96.1463ZM36.4701 91.2457H36.5577V90.2457H36.4701V91.2457ZM36.5577 91.2457C37.597 91.2457 38.425 92.0741 38.425 93.0819H39.425C39.425 91.51 38.1374 90.2457 36.5577 90.2457V91.2457ZM38.425 93.0819V93.3101H39.425V93.0819H38.425ZM38.425 93.3101C38.425 94.3174 37.5938 95.1463 36.5577 95.1463V96.1463C38.1332 96.1463 39.425 94.8825 39.425 93.3101H38.425ZM36.5577 95.1463H36.4701V96.1463H36.5577V95.1463ZM34.2334 92.769L30.7098 95.9726L31.3825 96.7125L34.9061 93.5089L34.2334 92.769ZM31.7824 91.1768L35.7255 94.7571L36.3977 94.0167L32.4547 90.4364L31.7824 91.1768ZM29.7666 93.6268L33.2902 90.4232L32.6175 89.6833L29.0939 92.8869L29.7666 93.6268ZM32.2139 95.219L28.2709 91.6388L27.5986 92.3791L31.5417 95.9594L32.2139 95.219ZM33.3736 100.136V97.952H32.3736V100.136H33.3736ZM31.6227 100.136V97.952H30.6227V100.136H31.6227ZM37.6085 77.1665C37.6085 75.8588 38.6189 74.8357 39.8223 74.8357V73.8357C38.0273 73.8357 36.6085 75.3467 36.6085 77.1665H37.6085ZM39.8223 74.8357C41.0256 74.8357 42.0361 75.8588 42.0361 77.1665H43.0361C43.0361 75.3467 41.6173 73.8357 39.8223 73.8357V74.8357ZM41.9267 84.7456C41.9267 86.0533 40.9162 87.0764 39.7129 87.0764V88.0764C41.5078 88.0764 42.9267 86.5654 42.9267 84.7456H41.9267ZM39.7129 87.0764C38.5095 87.0764 37.499 86.0533 37.499 84.7456H36.499C36.499 86.5654 37.9179 88.0764 39.7129 88.0764V87.0764ZM44.5642 78.3247C45.7675 78.3247 46.778 79.3478 46.778 80.6555H47.778C47.778 78.8357 46.3592 77.3247 44.5642 77.3247V78.3247ZM46.778 80.6555C46.778 81.9632 45.7675 82.9862 44.5642 82.9862V83.9862C46.3592 83.9862 47.778 82.4753 47.778 80.6555H46.778ZM36.1789 82.4562L40.3007 78.7123L39.6284 77.9721L35.5066 81.716L36.1789 82.4562ZM38.4536 77.0342L42.0429 81.3336L42.8105 80.6927L39.2213 76.3933L38.4536 77.0342ZM37.0347 81.0634L40.6239 85.3628L41.3916 84.7219L37.8023 80.4226L37.0347 81.0634ZM40.1949 84.0161L44.3167 80.2722L43.6444 79.532L39.5226 83.2759L40.1949 84.0161ZM27.6578 77.1665C27.6578 75.3467 26.239 73.8357 24.444 73.8357V74.8357C25.6473 74.8357 26.6578 75.8588 26.6578 77.1665H27.6578ZM24.444 73.8357C22.649 73.8357 21.2302 75.3467 21.2302 77.1665H22.2302C22.2302 75.8588 23.2406 74.8357 24.444 74.8357V73.8357ZM21.3396 84.7456C21.3396 86.5654 22.7584 88.0764 24.5534 88.0764V87.0764C23.3501 87.0764 22.3396 86.0533 22.3396 84.7456H21.3396ZM24.5534 88.0764C26.3484 88.0764 27.7672 86.5654 27.7672 84.7456H26.7672C26.7672 86.0533 25.7568 87.0764 24.5534 87.0764V88.0764ZM19.7021 77.3247C17.9071 77.3247 16.4883 78.8357 16.4883 80.6555H17.4883C17.4883 79.3478 18.4987 78.3247 19.7021 78.3247V77.3247ZM16.4883 80.6555C16.4883 82.4753 17.9071 83.9862 19.7021 83.9862V82.9862C18.4987 82.9862 17.4883 81.9632 17.4883 80.6555H16.4883ZM28.4022 82.4562L32.524 78.7123L31.8517 77.9721L27.7299 81.716L28.4022 82.4562ZM30.6769 77.0342L34.2662 81.3335L35.0338 80.6927L31.4446 76.3933L30.6769 77.0342ZM29.2543 81.0634L32.8436 85.3628L33.6112 84.7219L30.022 80.4226L29.2543 81.0634ZM32.4146 84.0161L36.5364 80.2722L35.864 79.532L31.7422 83.2759L32.4146 84.0161ZM20.4796 82.4562L24.6014 78.7123L23.9291 77.9721L19.8073 81.716L20.4796 82.4562ZM22.7543 77.0342L26.3436 81.3336L27.1112 80.6927L23.522 76.3933L22.7543 77.0342ZM21.3354 81.0634L24.9246 85.3628L25.6923 84.7219L22.1031 80.4226L21.3354 81.0634ZM24.492 84.0161L28.6138 80.2722L27.9414 79.532L23.8196 83.2759L24.492 84.0161ZM37.2437 -19.6841C37.2437 -20.9918 38.2542 -22.0148 39.4575 -22.0148V-23.0148C37.6626 -23.0148 36.2437 -21.5039 36.2437 -19.6841H37.2437ZM39.4575 -22.0148C40.6609 -22.0148 41.6713 -20.9918 41.6713 -19.6841H42.6713C42.6713 -21.5039 41.2525 -23.0148 39.4575 -23.0148V-22.0148ZM41.5619 -12.105C41.5619 -10.7973 40.5515 -9.77421 39.3481 -9.77421V-8.77421C41.1431 -8.77421 42.5619 -10.2851 42.5619 -12.105H41.5619ZM39.3481 -9.77421C38.1447 -9.77421 37.1343 -10.7972 37.1343 -12.105H36.1343C36.1343 -10.2851 37.5531 -8.77421 39.3481 -8.77421V-9.77421ZM44.1994 -18.5258C45.4028 -18.5258 46.4132 -17.5028 46.4132 -16.1951H47.4132C47.4132 -18.0149 45.9944 -19.5258 44.1994 -19.5258V-18.5258ZM46.4132 -16.1951C46.4132 -14.8874 45.4028 -13.8643 44.1994 -13.8643V-12.8643C45.9944 -12.8643 47.4132 -14.3753 47.4132 -16.1951H46.4132ZM35.8142 -14.3944L39.936 -18.1383L39.2636 -18.8785L35.1418 -15.1346L35.8142 -14.3944ZM38.0888 -19.8164L41.6781 -15.517L42.4457 -16.1579L38.8565 -20.4573L38.0888 -19.8164ZM36.6699 -15.7872L40.2592 -11.4878L41.0268 -12.1286L37.4376 -16.428L36.6699 -15.7872ZM39.8302 -12.8344L43.952 -16.5783L43.2796 -17.3186L39.1578 -13.5747L39.8302 -12.8344ZM27.293 -19.6841C27.293 -21.5039 25.8742 -23.0148 24.0792 -23.0148V-22.0148C25.2826 -22.0148 26.293 -20.9918 26.293 -19.6841H27.293ZM24.0792 -23.0148C22.2843 -23.0148 20.8654 -21.5039 20.8654 -19.6841H21.8654C21.8654 -20.9918 22.8759 -22.0148 24.0792 -22.0148V-23.0148ZM20.9748 -12.105C20.9748 -10.2851 22.3937 -8.77421 24.1887 -8.77421V-9.77421C22.9853 -9.77421 21.9748 -10.7973 21.9748 -12.105H20.9748ZM24.1887 -8.77421C25.9836 -8.77421 27.4025 -10.2851 27.4025 -12.105H26.4025C26.4025 -10.7973 25.392 -9.77421 24.1887 -9.77421V-8.77421ZM19.3373 -19.5258C17.5424 -19.5258 16.1235 -18.0149 16.1235 -16.1951H17.1235C17.1235 -17.5028 18.134 -18.5258 19.3373 -18.5258V-19.5258ZM16.1235 -16.1951C16.1235 -14.3753 17.5424 -12.8643 19.3373 -12.8643V-13.8643C18.134 -13.8643 17.1235 -14.8874 17.1235 -16.1951H16.1235ZM28.0375 -14.3944L32.1593 -18.1383L31.4869 -18.8785L27.3651 -15.1346L28.0375 -14.3944ZM30.3122 -19.8164L33.9014 -15.517L34.6691 -16.1579L31.0798 -20.4573L30.3122 -19.8164ZM28.8896 -15.7872L32.4788 -11.4878L33.2465 -12.1286L29.6572 -16.428L28.8896 -15.7872ZM32.0498 -12.8344L36.1716 -16.5783L35.4993 -17.3186L31.3775 -13.5747L32.0498 -12.8344ZM20.1149 -14.3944L24.2367 -18.1383L23.5643 -18.8785L19.4425 -15.1346L20.1149 -14.3944ZM22.3896 -19.8164L25.9788 -15.517L26.7465 -16.1579L23.1572 -20.4573L22.3896 -19.8164ZM20.9706 -15.7872L24.5599 -11.4878L25.3275 -12.1286L21.7383 -16.428L20.9706 -15.7872ZM24.1272 -12.8344L28.249 -16.5783L27.5767 -17.3186L23.4549 -13.5747L24.1272 -12.8344ZM14.527 31.8L32.3419 14.9334L31.6544 14.2072L13.8395 31.0738L14.527 31.8ZM31.6544 14.9334L49.4693 31.8L50.1568 31.0738L32.3419 14.2072L31.6544 14.9334ZM49.4693 31.0738L31.6544 47.9442L32.342 48.6703L50.1569 31.7999L49.4693 31.0738ZM32.342 47.9442L14.5271 31.0738L13.8395 31.7999L31.6544 48.6703L32.342 47.9442ZM29.7959 46.2582L47.6144 29.3916L46.927 28.6654L29.1084 45.5319L29.7959 46.2582ZM27.2535 43.8497L45.0684 26.9831L44.3809 26.257L26.566 43.1235L27.2535 43.8497ZM24.7075 41.4412L42.5224 24.5709L41.8348 23.8448L24.0199 40.7151L24.7075 41.4412ZM22.1615 39.0291L39.9764 22.1625L39.2889 21.4363L21.474 38.3029L22.1615 39.0291ZM19.6191 36.6206L37.434 19.7541L36.7465 19.0279L18.9316 35.8945L19.6191 36.6206ZM17.0731 34.2122L34.888 17.3418L34.2004 16.6157L16.3855 33.4861L17.0731 34.2122ZM29.1084 17.3418L46.9269 34.2122L47.6145 33.486L29.7959 16.6157L29.1084 17.3418ZM26.566 19.7541L44.3809 36.6206L45.0684 35.8945L27.2535 19.0279L26.566 19.7541ZM24.02 22.1625L41.8349 39.0291L42.5224 38.3029L24.7075 21.4363L24.02 22.1625ZM21.4739 24.5709L39.2888 41.4412L39.9764 40.7151L22.1615 23.8448L21.4739 24.5709ZM18.9316 26.9831L36.7465 43.8497L37.434 43.1235L19.6191 26.257L18.9316 26.9831ZM16.3855 29.3916L34.2004 46.2581L34.888 45.532L17.0731 28.6654L16.3855 29.3916ZM35.1978 16.8474L42.0334 10.3831L41.3463 9.65653L34.5107 16.1209L35.1978 16.8474ZM42.0335 10.3831C42.5688 9.8767 43.3872 9.91689 43.8776 10.4781L44.6307 9.82021C43.7714 8.83673 42.2992 8.75517 41.3463 9.65658L42.0335 10.3831ZM43.8768 10.4772C44.3764 11.0518 44.3319 11.9422 43.7856 12.4615L44.4746 13.1863C45.4092 12.2979 45.4815 10.7989 44.6315 9.82112L43.8768 10.4772ZM43.7865 12.4607L37.2135 18.6777L37.9007 19.4042L44.4737 13.1872L43.7865 12.4607ZM40.3847 21.6567L47.2203 15.1923L46.5332 14.4658L39.6976 20.9301L40.3847 21.6567ZM47.2204 15.1923C47.7557 14.6859 48.5741 14.7261 49.0645 15.2874L49.8176 14.6294C48.9583 13.646 47.4861 13.5644 46.5332 14.4658L47.2204 15.1923ZM49.0637 15.2865C49.5633 15.8611 49.5188 16.7515 48.9725 17.2708L49.6615 17.9956C50.5961 17.1071 50.6684 15.6081 49.8184 14.6304L49.0637 15.2865ZM48.9734 17.2699L42.4004 23.4869L43.0876 24.2134L49.6606 17.9964L48.9734 17.2699ZM45.5497 26.5648L52.3853 20.1005L51.6982 19.3739L44.8626 25.8382L45.5497 26.5648ZM52.3854 20.1005C52.9207 19.5941 53.7391 19.6343 54.2295 20.1955L54.9826 19.5376C54.1233 18.5541 52.6511 18.4726 51.6982 19.374L52.3854 20.1005ZM54.2287 20.1946C54.7283 20.7692 54.6838 21.6596 54.1375 22.1789L54.8265 22.9037C55.7611 22.0153 55.8334 20.5163 54.9834 19.5385L54.2287 20.1946ZM54.1384 22.1781L47.5654 28.3951L48.2526 29.1216L54.8256 22.9046L54.1384 22.1781ZM34.5107 46.7567L41.3463 53.2211L42.0334 52.4945L35.1978 46.0302L34.5107 46.7567ZM41.3463 53.221C42.2992 54.1224 43.7714 54.0409 44.6307 53.0574L43.8776 52.3994C43.3872 52.9607 42.5688 53.0009 42.0335 52.4945L41.3463 53.221ZM44.6315 53.0565C45.4815 52.0787 45.4092 50.5797 44.4746 49.6913L43.7856 50.416C44.3319 50.9353 44.3764 51.8258 43.8768 52.4004L44.6315 53.0565ZM44.4737 49.6904L37.9007 43.4734L37.2135 44.1999L43.7865 50.4169L44.4737 49.6904ZM39.6976 41.9437L46.5332 48.408L47.2203 47.6815L40.3847 41.2172L39.6976 41.9437ZM46.5332 48.408C47.4861 49.3094 48.9583 49.2278 49.8176 48.2444L49.0645 47.5864C48.5741 48.1477 47.7557 48.1879 47.2204 47.6815L46.5332 48.408ZM49.8184 48.2434C50.6684 47.2657 50.5961 45.7667 49.6615 44.8782L48.9725 45.603C49.5188 46.1223 49.5633 47.0127 49.0637 47.5873L49.8184 48.2434ZM49.6606 44.8774L43.0876 38.6604L42.4004 39.3869L48.9734 45.6039L49.6606 44.8774ZM44.8626 37.0355L51.6982 43.4999L52.3853 42.7733L45.5497 36.309L44.8626 37.0355ZM51.6982 43.4998C52.6511 44.4012 54.1233 44.3197 54.9826 43.3362L54.2295 42.6782C53.7391 43.2395 52.9207 43.2797 52.3854 42.7733L51.6982 43.4998ZM54.9834 43.3353C55.8334 42.3575 55.7611 40.8585 54.8265 39.9701L54.1375 40.6948C54.6838 41.2141 54.7283 42.1046 54.2287 42.6792L54.9834 43.3353ZM54.8256 39.9692L48.2526 33.7522L47.5654 34.4787L54.1384 40.6957L54.8256 39.9692ZM29.4893 16.1209L22.6537 9.65653L21.9666 10.3831L28.8022 16.8474L29.4893 16.1209ZM22.6537 9.65658C21.7008 8.75517 20.2286 8.83673 19.3693 9.82021L20.1224 10.4781C20.6128 9.91689 21.4312 9.8767 21.9665 10.3831L22.6537 9.65658ZM19.3685 9.82112C18.5185 10.7989 18.5908 12.2979 19.5254 13.1863L20.2144 12.4615C19.6681 11.9422 19.6237 11.0518 20.1232 10.4772L19.3685 9.82112ZM19.5263 13.1872L26.0993 19.4042L26.7865 18.6777L20.2135 12.4607L19.5263 13.1872ZM24.2988 20.9301L17.4631 14.4658L16.776 15.1923L23.6117 21.6567L24.2988 20.9301ZM17.4632 14.4658C16.5103 13.5644 15.038 13.646 14.1788 14.6294L14.9319 15.2874C15.4222 14.7261 16.2407 14.6859 16.776 15.1923L17.4632 14.4658ZM14.178 14.6304C13.3279 15.6081 13.4002 17.1071 14.3349 17.9956L15.0238 17.2708C14.4776 16.7515 14.4331 15.8611 14.9327 15.2865L14.178 14.6304ZM14.3358 17.9964L20.9088 24.2134L21.5959 23.4869L15.0229 17.2699L14.3358 17.9964ZM19.1338 25.8382L12.2981 19.3739L11.611 20.1005L18.4467 26.5648L19.1338 25.8382ZM12.2982 19.374C11.3453 18.4726 9.87304 18.5541 9.01379 19.5376L9.76686 20.1955C10.2572 19.6343 11.0757 19.5941 11.611 20.1005L12.2982 19.374ZM9.01299 19.5385C8.16293 20.5163 8.23521 22.0153 9.16985 22.9037L9.85883 22.1789C9.31254 21.6596 9.2681 20.7692 9.76766 20.1946L9.01299 19.5385ZM9.17076 22.9046L15.7437 29.1216L16.4309 28.3951L9.85792 22.1781L9.17076 22.9046ZM28.8022 46.0302L21.9666 52.4945L22.6537 53.2211L29.4893 46.7567L28.8022 46.0302ZM21.9665 52.4945C21.4312 53.0009 20.6128 52.9607 20.1224 52.3994L19.3693 53.0574C20.2286 54.0409 21.7008 54.1224 22.6537 53.221L21.9665 52.4945ZM20.1232 52.4004C19.6237 51.8258 19.6681 50.9353 20.2144 50.416L19.5254 49.6913C18.5908 50.5797 18.5185 52.0787 19.3685 53.0565L20.1232 52.4004ZM20.2135 50.4169L26.7865 44.1999L26.0993 43.4734L19.5263 49.6904L20.2135 50.4169ZM23.6117 41.2172L16.776 47.6815L17.4631 48.408L24.2988 41.9437L23.6117 41.2172ZM16.776 47.6815C16.2407 48.1879 15.4222 48.1477 14.9319 47.5864L14.1788 48.2444C15.0381 49.2278 16.5103 49.3094 17.4632 48.408L16.776 47.6815ZM14.9327 47.5873C14.4331 47.0127 14.4776 46.1223 15.0238 45.603L14.3349 44.8782C13.4002 45.7667 13.3279 47.2657 14.178 48.2434L14.9327 47.5873ZM15.0229 45.6039L21.5959 39.3869L20.9088 38.6604L14.3358 44.8774L15.0229 45.6039ZM18.4467 36.309L11.611 42.7733L12.2981 43.4999L19.1338 37.0355L18.4467 36.309ZM11.611 42.7733C11.0757 43.2797 10.2572 43.2395 9.76686 42.6782L9.01379 43.3362C9.87304 44.3197 11.3453 44.4012 12.2982 43.4998L11.611 42.7733ZM9.76766 42.6792C9.2681 42.1046 9.31254 41.2141 9.85883 40.6948L9.16985 39.9701C8.23521 40.8585 8.16293 42.3575 9.01299 43.3353L9.76766 42.6792ZM9.85792 40.6957L16.4309 34.4787L15.7437 33.7522L9.17076 39.9692L9.85792 40.6957ZM49.4884 30.0459H59.6835V29.0459H49.4884V30.0459ZM59.6835 30.0459C60.3908 30.0459 61 30.6504 61 31.4407H62C62 30.1383 60.9824 29.0459 59.6835 29.0459V30.0459ZM61 31.4407C61 32.231 60.3908 32.8355 59.6835 32.8355V33.8355C60.9824 33.8355 62 32.7431 62 31.4407H61ZM59.6835 32.8355H49.4884V33.8355H59.6835V32.8355ZM14.5116 29.0459H4.31651V30.0459H14.5116V29.0459ZM4.31651 29.0459C3.0176 29.0459 2 30.1383 2 31.4407H3C3 30.6504 3.60923 30.0459 4.31651 30.0459V29.0459ZM2 31.4407C2 32.7431 3.0176 33.8355 4.31651 33.8355V32.8355C3.60923 32.8355 3 32.231 3 31.4407H2ZM4.31651 33.8355H14.5116V32.8355H4.31651V33.8355Z" fill="black"/>
</g>
<defs>
<clipPath id="clip0_1122_31831">
<rect width="64" height="64" fill="white"/>
</clipPath>
</defs>
</svg>
