<svg width="64" height="64" viewBox="0 0 64 64" fill="none" xmlns="http://www.w3.org/2000/svg">
<path d="M32.0017 38.1975L31.6706 38.5721L32.0018 38.8649L32.333 38.5721L32.0017 38.1975ZM18.5991 26.3487L18.2679 25.9741L17.8442 26.3487L18.2679 26.7234L18.5991 26.3487ZM32.0017 14.5L32.333 14.1254L32.0018 13.8326L31.6706 14.1254L32.0017 14.5ZM45.4009 26.3487L45.7321 26.7233L46.1557 26.3487L45.7321 25.9742L45.4009 26.3487ZM36.0537 34.6917C36.2606 34.8746 36.5766 34.8552 36.7595 34.6483C36.9425 34.4415 36.923 34.1255 36.7162 33.9425L36.0537 34.6917ZM23.317 22.0938C23.1101 21.9109 22.7941 21.9303 22.6112 22.1371C22.4283 22.344 22.4477 22.66 22.6546 22.8429L23.317 22.0938ZM27.2839 33.9425C27.077 34.1254 27.0575 34.4414 27.2404 34.6483C27.4233 34.8552 27.7393 34.8746 27.9462 34.6917L27.2839 33.9425ZM41.3489 22.843C41.5557 22.6601 41.5752 22.3441 41.3923 22.1372C41.2094 21.9303 40.8934 21.9109 40.6865 22.0938L41.3489 22.843ZM40.4717 30.7937C40.6786 30.9766 40.9946 30.9572 41.1775 30.7503C41.3604 30.5434 41.3409 30.2274 41.134 30.0445L40.4717 30.7937ZM27.7314 18.1958C27.5245 18.0129 27.2085 18.0323 27.0256 18.2392C26.8427 18.4461 26.8621 18.7621 27.069 18.945L27.7314 18.1958ZM22.8694 30.0445C22.6626 30.2274 22.6431 30.5434 22.826 30.7503C23.0089 30.9572 23.3249 30.9766 23.5318 30.7937L22.8694 30.0445ZM36.9344 18.945C37.1413 18.7621 37.1608 18.4461 36.9779 18.2392C36.795 18.0323 36.479 18.0129 36.2721 18.1958L36.9344 18.945ZM37.3219 17.1334C37.1151 17.3164 37.0957 17.6324 37.2787 17.8392C37.4616 18.046 37.7776 18.0654 37.9844 17.8824L37.3219 17.1334ZM39.9401 15.4851L39.6089 15.1105L39.6088 15.1105L39.9401 15.4851ZM43.5818 15.7419L43.2018 16.0668L43.2026 16.0678L43.5818 15.7419ZM43.7481 15.9354L44.1276 15.6098L44.1273 15.6094L43.7481 15.9354ZM43.4952 19.6328L43.1645 19.2577L43.1639 19.2583L43.4952 19.6328ZM41.4418 20.7816C41.2349 20.9646 41.2156 21.2806 41.3986 21.4874C41.5815 21.6942 41.8975 21.7136 42.1043 21.5306L41.4418 20.7816ZM60.6681 39.975C60.4587 39.7949 60.143 39.8187 59.963 40.028C59.7829 40.2374 59.8066 40.553 60.016 40.7331L60.6681 39.975ZM61.385 41.2512L61.059 41.6302L61.06 41.6311L61.385 41.2512ZM60.0129 48.4561L59.7404 48.0368L59.7403 48.0369L60.0129 48.4561ZM50.8687 47.0524L51.2166 46.6933L51.2084 46.6853L51.1999 46.6778L50.8687 47.0524ZM37.7972 34.829C37.5903 34.6461 37.2743 34.6656 37.0914 34.8725C36.9085 35.0794 36.928 35.3953 37.1349 35.5782L37.7972 34.829ZM60.1615 40.2664L60.541 40.5919H60.541L60.1615 40.2664ZM59.9043 40.5662L59.5248 40.2407H59.5248L59.9043 40.5662ZM54.5513 40.9415L54.8825 40.5669L54.5513 40.9415ZM49.4845 36.4617L49.1533 36.8363L49.4845 36.4617ZM49.1149 31.0267L49.4944 31.3523L49.1149 31.0267ZM49.372 30.7269L48.9925 30.4014L49.372 30.7269ZM54.7251 30.3517L55.0563 29.9771L54.7251 30.3517ZM59.7918 34.8314L59.4607 35.206L59.7918 34.8314ZM54.7785 30.2602C54.8792 30.003 54.7523 29.713 54.4952 29.6123C54.2381 29.5116 53.948 29.6384 53.8473 29.8956L54.7785 30.2602ZM50.7496 37.8076C50.6489 38.0648 50.7758 38.3548 51.0329 38.4555C51.2901 38.5562 51.5801 38.4294 51.6808 38.1722L50.7496 37.8076ZM48.5985 35.0912C48.3382 35.1834 48.2019 35.4691 48.2941 35.7294C48.3863 35.9897 48.6721 36.126 48.9324 36.0338L48.5985 35.0912ZM57.3454 33.054C57.6057 32.9618 57.742 32.6761 57.6498 32.4158C57.5576 32.1555 57.2719 32.0192 57.0116 32.1114L57.3454 33.054ZM58.1956 33.4143C58.2954 33.1569 58.1677 32.8672 57.9102 32.7674C57.6528 32.6675 57.3631 32.7953 57.2633 33.0528L58.1956 33.4143ZM54.2452 40.8347C54.1454 41.0921 54.2732 41.3818 54.5306 41.4816C54.7881 41.5815 55.0777 41.4537 55.1776 41.1962L54.2452 40.8347ZM51.9331 38.2464C51.6726 38.3379 51.5355 38.6233 51.627 38.8838C51.7185 39.1444 52.0039 39.2814 52.2644 39.1899L51.9331 38.2464ZM60.6809 36.2348C60.9415 36.1433 61.0785 35.8579 60.9871 35.5974C60.8956 35.3368 60.6102 35.1998 60.3496 35.2912L60.6809 36.2348ZM26.019 17.8824C26.2259 18.0654 26.5419 18.046 26.7248 17.8392C26.9078 17.6324 26.8884 17.3164 26.6816 17.1334L26.019 17.8824ZM24.0634 15.4851L24.3947 15.1105L24.3946 15.1105L24.0634 15.4851ZM20.4217 15.7419L20.8008 16.0678L20.8017 16.0668L20.4217 15.7419ZM20.2554 15.9354L19.8762 15.6094L19.8759 15.6098L20.2554 15.9354ZM20.5083 19.6328L20.8396 19.2583L20.8389 19.2577L20.5083 19.6328ZM21.8991 21.5306C22.106 21.7136 22.422 21.6942 22.6049 21.4874C22.7879 21.2806 22.7685 20.9646 22.5617 20.7816L21.8991 21.5306ZM3.98401 40.7331C4.19336 40.553 4.2171 40.2374 4.03703 40.028C3.85695 39.8186 3.54126 39.7949 3.33191 39.975L3.98401 40.7331ZM2.61499 41.2512L2.94003 41.6311L2.94104 41.6302L2.61499 41.2512ZM3.98714 48.4561L4.25967 48.0369L4.25958 48.0368L3.98714 48.4561ZM13.1313 47.0524L12.8001 46.6778L12.7916 46.6853L12.7834 46.6933L13.1313 47.0524ZM26.8651 35.5782C27.072 35.3953 27.0914 35.0794 26.9086 34.8725C26.7257 34.6656 26.4097 34.6461 26.2028 34.829L26.8651 35.5782ZM14.6312 30.7276L14.2516 31.0531V31.0531L14.6312 30.7276ZM14.8883 31.0274L15.2678 30.7019V30.7019L14.8883 31.0274ZM14.5187 36.4624L14.8499 36.8369L14.5187 36.4624ZM9.45189 40.9421L9.1207 40.5676L9.45189 40.9421ZM4.09885 40.5669L4.47837 40.2413V40.2413L4.09885 40.5669ZM3.84171 40.2671L3.46219 40.5926V40.5926L3.84171 40.2671ZM4.21134 34.8321L4.54253 35.2067L4.21134 34.8321ZM9.27812 30.3523L8.94693 29.9777L9.27812 30.3523ZM10.1561 29.8956C10.0555 29.6384 9.76539 29.5116 9.50826 29.6123C9.25112 29.713 9.12428 30.003 9.22495 30.2602L10.1561 29.8956ZM12.3227 38.1722C12.4233 38.4294 12.7134 38.5562 12.9705 38.4555C13.2277 38.3548 13.3545 38.0648 13.2538 37.8076L12.3227 38.1722ZM15.0711 36.0338C15.3314 36.126 15.6171 35.9897 15.7093 35.7294C15.8015 35.4691 15.6652 35.1834 15.405 35.0912L15.0711 36.0338ZM6.99191 32.1114C6.73161 32.0192 6.44587 32.1555 6.35367 32.4158C6.26148 32.6761 6.39775 32.9618 6.65805 33.054L6.99191 32.1114ZM6.74021 33.0528C6.64036 32.7953 6.3507 32.6675 6.09325 32.7674C5.83579 32.8672 5.70802 33.1569 5.80787 33.4143L6.74021 33.0528ZM8.82589 41.1962C8.92574 41.4537 9.2154 41.5815 9.47286 41.4816C9.73032 41.3818 9.85808 41.0921 9.75823 40.8347L8.82589 41.1962ZM11.739 39.1899C11.9996 39.2814 12.285 39.1444 12.3764 38.8838C12.4679 38.6233 12.3309 38.3379 12.0703 38.2464L11.739 39.1899ZM3.65382 35.2912C3.39327 35.1998 3.10789 35.3368 3.01641 35.5974C2.92493 35.8579 3.06198 36.1433 3.32253 36.2348L3.65382 35.2912ZM32.3329 37.8229L18.9302 25.9741L18.2679 26.7234L31.6706 38.5721L32.3329 37.8229ZM18.9302 26.7234L32.3329 14.8746L31.6706 14.1254L18.2679 25.9741L18.9302 26.7234ZM31.6705 14.8746L45.0697 26.7233L45.7321 25.9742L32.333 14.1254L31.6705 14.8746ZM45.0697 25.9742L31.6705 37.8229L32.333 38.5721L45.7321 26.7233L45.0697 25.9742ZM36.7162 33.9425L23.317 22.0938L22.6546 22.8429L36.0537 34.6917L36.7162 33.9425ZM27.9462 34.6917L41.3489 22.843L40.6865 22.0938L27.2839 33.9425L27.9462 34.6917ZM41.134 30.0445L27.7314 18.1958L27.069 18.945L40.4717 30.7937L41.134 30.0445ZM23.5318 30.7937L36.9344 18.945L36.2721 18.1958L22.8694 30.0445L23.5318 30.7937ZM37.9844 17.8824L40.2713 15.8596L39.6088 15.1105L37.3219 17.1334L37.9844 17.8824ZM40.2713 15.8596C41.1359 15.095 42.4476 15.1848 43.2018 16.0668L43.9618 15.4169C42.8449 14.1107 40.8925 13.9754 39.6089 15.1105L40.2713 15.8596ZM43.2026 16.0678L43.3689 16.2613L44.1273 15.6094L43.961 15.4159L43.2026 16.0678ZM43.3686 16.2609C44.1272 17.1452 44.0357 18.4898 43.1645 19.2577L43.8258 20.0079C45.1099 18.8761 45.2402 16.9067 44.1276 15.6098L43.3686 16.2609ZM43.1639 19.2583L41.4418 20.7816L42.1043 21.5306L43.8264 20.0073L43.1639 19.2583ZM60.016 40.7331L61.059 41.6302L61.7111 40.8721L60.6681 39.975L60.016 40.7331ZM61.06 41.6311C61.6551 42.1402 62.0953 43.2363 61.9824 44.4963C61.8721 45.7269 61.2331 47.0668 59.7404 48.0368L60.2853 48.8753C62.0463 47.731 62.8418 46.1088 62.9784 44.5856C63.1123 43.0919 62.6118 41.6426 61.71 40.8712L61.06 41.6311ZM59.7403 48.0369C57.6238 49.4129 55.5259 49.1021 53.9091 48.4166C53.0991 48.0732 52.4217 47.6393 51.9459 47.2898C51.7087 47.1155 51.5234 46.9635 51.3986 46.8563C51.3363 46.8027 51.2892 46.7605 51.2585 46.7323C51.2431 46.7183 51.2319 46.7077 51.2249 46.7011C51.2213 46.6978 51.2189 46.6954 51.2175 46.6941C51.2168 46.6935 51.2164 46.6931 51.2162 46.6929C51.2162 46.6929 51.2162 46.6928 51.2162 46.6929C51.2163 46.6929 51.2164 46.693 51.2164 46.693C51.2165 46.6932 51.2166 46.6933 50.8687 47.0524C50.5208 47.4115 50.521 47.4117 50.5211 47.4118C50.5212 47.4119 50.5214 47.4121 50.5216 47.4123C50.5219 47.4126 50.5224 47.413 50.5228 47.4135C50.5238 47.4144 50.525 47.4156 50.5265 47.417C50.5295 47.4199 50.5337 47.4238 50.5389 47.4287C50.5493 47.4386 50.5641 47.4524 50.5831 47.4698C50.6211 47.5046 50.6761 47.5539 50.7469 47.6147C50.8883 47.7363 51.0936 47.9045 51.3539 48.0957C51.8731 48.4771 52.6183 48.9555 53.5187 49.3373C55.3228 50.1021 57.797 50.4931 60.2854 48.8753L59.7403 48.0369ZM51.1999 46.6778L37.7972 34.829L37.1349 35.5782L50.5375 47.427L51.1999 46.6778ZM59.782 39.9409L59.5248 40.2407L60.2839 40.8917L60.541 40.5919L59.782 39.9409ZM59.5248 40.2407C58.3297 41.6341 56.2529 41.7786 54.8825 40.5669L54.2201 41.3161C56.0102 42.8988 58.7267 42.7073 60.2839 40.8917L59.5248 40.2407ZM54.8825 40.5669L49.8157 36.0871L49.1533 36.8363L54.2201 41.3161L54.8825 40.5669ZM49.8157 36.0871C48.4408 34.8715 48.2955 32.7501 49.4944 31.3523L48.7354 30.7012C47.182 32.5123 47.3677 35.2575 49.1533 36.8363L49.8157 36.0871ZM49.4944 31.3523L49.7516 31.0525L48.9925 30.4014L48.7354 30.7012L49.4944 31.3523ZM49.7516 31.0525C50.9466 29.6591 53.0234 29.5146 54.3939 30.7263L55.0563 29.9771C53.2661 28.3944 50.5497 28.5859 48.9925 30.4014L49.7516 31.0525ZM54.3939 30.7263L59.4607 35.206L60.123 34.4569L55.0563 29.9771L54.3939 30.7263ZM59.4607 35.206C60.8355 36.4216 60.9808 38.5431 59.782 39.9409L60.541 40.5919C62.0944 38.7808 61.9087 36.0357 60.123 34.4569L59.4607 35.206ZM53.8473 29.8956L50.7496 37.8076L51.6808 38.1722L54.7785 30.2602L53.8473 29.8956ZM48.9324 36.0338L57.3454 33.054L57.0116 32.1114L48.5985 35.0912L48.9324 36.0338ZM57.2633 33.0528L54.2452 40.8347L55.1776 41.1962L58.1956 33.4143L57.2633 33.0528ZM52.2644 39.1899L60.6809 36.2348L60.3496 35.2912L51.9331 38.2464L52.2644 39.1899ZM26.6816 17.1334L24.3947 15.1105L23.7321 15.8596L26.019 17.8824L26.6816 17.1334ZM24.3946 15.1105C23.111 13.9754 21.1586 14.1107 20.0417 15.4169L20.8017 16.0668C21.5558 15.1848 22.8675 15.095 23.7322 15.8596L24.3946 15.1105ZM20.0425 15.4159L19.8762 15.6094L20.6345 16.2613L20.8008 16.0678L20.0425 15.4159ZM19.8759 15.6098C18.7633 16.9067 18.8936 18.8761 20.1777 20.0079L20.8389 19.2577C19.9678 18.4898 19.8763 17.1452 20.6349 16.2609L19.8759 15.6098ZM20.177 20.0073L21.8991 21.5306L22.5617 20.7816L20.8396 19.2583L20.177 20.0073ZM3.33191 39.975L2.28894 40.8721L2.94104 41.6302L3.98401 40.7331L3.33191 39.975ZM2.28996 40.8712C1.38824 41.6426 0.887695 43.0919 1.02161 44.5856C1.15817 46.1088 1.95375 47.731 3.71469 48.8753L4.25958 48.0368C2.76688 47.0668 2.12794 45.7269 2.01762 44.4963C1.90466 43.2363 2.34486 42.1402 2.94003 41.6311L2.28996 40.8712ZM3.7146 48.8753C6.20303 50.4931 8.67721 50.1021 10.4813 49.3373C11.3817 48.9555 12.1269 48.4771 12.6461 48.0957C12.9064 47.9045 13.1117 47.7363 13.2532 47.6147C13.3239 47.5539 13.3789 47.5046 13.4169 47.4698C13.4359 47.4524 13.4507 47.4386 13.4611 47.4287C13.4663 47.4238 13.4705 47.4199 13.4735 47.417C13.475 47.4156 13.4762 47.4144 13.4772 47.4135C13.4777 47.413 13.4781 47.4126 13.4784 47.4123C13.4786 47.4121 13.4788 47.4119 13.4789 47.4118C13.479 47.4117 13.4792 47.4115 13.1313 47.0524C12.7834 46.6933 12.7835 46.6932 12.7836 46.693C12.7836 46.693 12.7837 46.6929 12.7838 46.6929C12.7838 46.6928 12.7838 46.6929 12.7838 46.6929C12.7836 46.6931 12.7832 46.6935 12.7825 46.6941C12.7811 46.6954 12.7787 46.6978 12.7752 46.7011C12.7681 46.7077 12.7569 46.7183 12.7415 46.7323C12.7108 46.7605 12.6637 46.8027 12.6014 46.8563C12.4766 46.9635 12.2913 47.1155 12.0541 47.2898C11.5783 47.6393 10.9009 48.0732 10.0909 48.4166C8.47414 49.1021 6.37624 49.4129 4.25967 48.0369L3.7146 48.8753ZM13.4625 47.427L26.8651 35.5782L26.2028 34.829L12.8001 46.6778L13.4625 47.427ZM14.2516 31.0531L14.5088 31.3529L15.2678 30.7019L15.0107 30.4021L14.2516 31.0531ZM14.5088 31.3529C15.7077 32.7507 15.5624 34.8722 14.1875 36.0878L14.8499 36.8369C16.6355 35.2582 16.8212 32.513 15.2678 30.7019L14.5088 31.3529ZM14.1875 36.0878L9.1207 40.5676L9.78308 41.3167L14.8499 36.8369L14.1875 36.0878ZM9.1207 40.5676C7.75027 41.7792 5.67347 41.6347 4.47837 40.2413L3.71933 40.8924C5.27649 42.7079 7.99297 42.8994 9.78308 41.3167L9.1207 40.5676ZM4.47837 40.2413L4.22124 39.9415L3.46219 40.5926L3.71933 40.8924L4.47837 40.2413ZM4.22124 39.9415C3.02235 38.5437 3.16766 36.4223 4.54253 35.2067L3.88015 34.4575C2.09448 36.0363 1.90881 38.7815 3.46219 40.5926L4.22124 39.9415ZM4.54253 35.2067L9.60931 30.7269L8.94693 29.9777L3.88015 34.4575L4.54253 35.2067ZM9.60931 30.7269C10.9797 29.5152 13.0565 29.6597 14.2516 31.0531L15.0107 30.4021C13.4535 28.5866 10.737 28.395 8.94693 29.9777L9.60931 30.7269ZM9.22495 30.2602L12.3227 38.1722L13.2538 37.8076L10.1561 29.8956L9.22495 30.2602ZM15.405 35.0912L6.99191 32.1114L6.65805 33.054L15.0711 36.0338L15.405 35.0912ZM5.80787 33.4143L8.82589 41.1962L9.75823 40.8347L6.74021 33.0528L5.80787 33.4143ZM12.0703 38.2464L3.65382 35.2912L3.32253 36.2348L11.739 39.1899L12.0703 38.2464Z" fill="black"/>
</svg>
