<svg width="64" height="64" viewBox="0 0 64 64" fill="none" xmlns="http://www.w3.org/2000/svg">
<path d="M24.3241 20.4235H24.1765C21.9303 20.4235 20.1111 18.4742 20.1111 16.0669V15.6413C20.1111 13.2381 21.9303 11.2847 24.1765 11.2847H24.3241M39.6759 20.4235H39.8235C42.0697 20.4235 43.8889 18.4742 43.8889 16.0669V15.6413C43.8889 13.2381 42.0697 11.2847 39.8235 11.2847H39.6759M36.4125 15.9656L30.3603 10M32.2075 20.31L38.9778 13.6353M27.5875 15.7427L33.6397 21.7082M31.7925 11.3982L25.0223 18.0729M24.3241 52.7153H24.1765C21.9303 52.7153 20.1111 50.766 20.1111 48.3587V47.9331C20.1111 45.5299 21.9303 43.5765 24.1765 43.5765H24.3241M39.6759 52.7153H39.8235C42.0697 52.7153 43.8889 50.766 43.8889 48.3587V47.9331C43.8889 45.5299 42.0697 43.5765 39.8235 43.5765H39.6759M36.4125 48.2614L30.3603 42.2958M32.2075 52.6059L38.9778 45.9311M27.5875 48.0344L33.6397 54M31.7925 43.694L25.0223 50.3688M40.5417 25.6636C40.5417 23.0496 42.6282 20.9341 45.1975 20.9341C47.7668 20.9341 49.8533 23.0537 49.8533 25.6636M49.6778 38.3404C49.6778 40.9544 47.5912 43.0699 45.0219 43.0699C42.4527 43.0699 40.3661 40.9504 40.3661 38.3404M53.3442 26.7619C55.9174 26.7619 58 28.8815 58 31.4914C58 34.1013 55.9135 36.2209 53.3442 36.2209M38.3713 33.8946L45.4488 27.6332M43.5139 24.9058L49.6778 32.0952M41.0763 31.6454L47.2401 38.8349M45.2653 36.5005L52.3428 30.2391M23.4583 25.6636C23.4583 23.0496 21.3718 20.9341 18.8025 20.9341C16.2292 20.9341 14.1467 23.0537 14.1467 25.6636M14.3222 38.3404C14.3222 40.9544 16.4088 43.0699 18.9781 43.0699C21.5513 43.0699 23.6339 40.9504 23.6339 38.3404M10.6558 26.7619C8.08255 26.7619 6 28.8815 6 31.4914C6 34.1054 8.08654 36.2209 10.6558 36.2209M25.0143 33.8946L32.0918 27.6332M30.1568 24.9058L36.3207 32.0952M27.7192 31.6454L33.8831 38.8349M31.9082 36.5005L38.9857 30.2391M11.4138 33.8946L18.4913 27.6332M16.5564 24.9058L22.7203 32.0952M14.1148 31.6454L20.2787 38.8349M18.3038 36.5005L25.3813 30.2391" stroke="black" stroke-linecap="round" stroke-linejoin="round"/>
</svg>
