<svg width="64" height="64" viewBox="0 0 64 64" fill="none" xmlns="http://www.w3.org/2000/svg">
<path d="M32.0017 25.8025L31.6706 25.4279L32.0018 25.1351L32.333 25.4279L32.0017 25.8025ZM18.5991 37.6513L18.2679 38.0259L17.8442 37.6513L18.2679 37.2766L18.5991 37.6513ZM32.0017 49.5L32.333 49.8746L32.0018 50.1674L31.6706 49.8746L32.0017 49.5ZM45.4009 37.6513L45.7321 37.2767L46.1557 37.6513L45.7321 38.0258L45.4009 37.6513ZM36.0537 29.3083C36.2606 29.1254 36.5766 29.1448 36.7595 29.3517C36.9425 29.5585 36.923 29.8745 36.7162 30.0575L36.0537 29.3083ZM23.317 41.9062C23.1101 42.0891 22.7941 42.0697 22.6112 41.8629C22.4283 41.656 22.4477 41.34 22.6546 41.1571L23.317 41.9062ZM27.2839 30.0575C27.077 29.8746 27.0575 29.5586 27.2404 29.3517C27.4233 29.1448 27.7393 29.1254 27.9462 29.3083L27.2839 30.0575ZM41.3489 41.157C41.5557 41.3399 41.5752 41.6559 41.3923 41.8628C41.2094 42.0697 40.8934 42.0891 40.6865 41.9062L41.3489 41.157ZM40.4717 33.2063C40.6786 33.0234 40.9946 33.0428 41.1775 33.2497C41.3604 33.4566 41.3409 33.7726 41.134 33.9555L40.4717 33.2063ZM27.7314 45.8042C27.5245 45.9871 27.2085 45.9677 27.0256 45.7608C26.8427 45.5539 26.8621 45.2379 27.069 45.055L27.7314 45.8042ZM22.8694 33.9555C22.6626 33.7726 22.6431 33.4566 22.826 33.2497C23.0089 33.0428 23.3249 33.0234 23.5318 33.2063L22.8694 33.9555ZM36.9344 45.055C37.1413 45.2379 37.1608 45.5539 36.9779 45.7608C36.795 45.9677 36.479 45.9871 36.2721 45.8042L36.9344 45.055ZM37.3219 46.8666C37.1151 46.6836 37.0957 46.3676 37.2787 46.1608C37.4616 45.954 37.7776 45.9346 37.9844 46.1176L37.3219 46.8666ZM39.9401 48.5149L39.6088 48.8895L39.6088 48.8895L39.9401 48.5149ZM43.5818 48.2581L43.2018 47.9332L43.2026 47.9322L43.5818 48.2581ZM43.7481 48.0646L44.1276 48.3902L44.1273 48.3906L43.7481 48.0646ZM43.4952 44.3672L43.1645 44.7423L43.1639 44.7417L43.4952 44.3672ZM41.4418 43.2184C41.2349 43.0354 41.2156 42.7194 41.3986 42.5126C41.5815 42.3058 41.8975 42.2864 42.1043 42.4694L41.4418 43.2184ZM60.6681 24.025C60.4587 24.2051 60.143 24.1814 59.963 23.972C59.7829 23.7626 59.8066 23.447 60.016 23.2669L60.6681 24.025ZM61.385 22.7488L61.059 22.3698L61.06 22.3689L61.385 22.7488ZM60.0129 15.5439L59.7404 15.9632L59.7403 15.9631L60.0129 15.5439ZM50.8687 16.9476L51.2166 17.3067L51.2084 17.3147L51.1999 17.3222L50.8687 16.9476ZM37.7972 29.171C37.5903 29.3539 37.2743 29.3344 37.0914 29.1275C36.9085 28.9206 36.928 28.6047 37.1349 28.4218L37.7972 29.171ZM60.1615 23.7336L60.541 23.4081L60.1615 23.7336ZM59.9043 23.4338L59.5248 23.7593H59.5248L59.9043 23.4338ZM54.5513 23.0585L54.2201 22.6839L54.5513 23.0585ZM49.4845 27.5383L49.8157 27.9129L49.4845 27.5383ZM49.1149 32.9733L49.4944 32.6477L49.1149 32.9733ZM49.372 33.2731L48.9925 33.5986L49.372 33.2731ZM54.7251 33.6483L54.3939 33.2737L54.7251 33.6483ZM59.7918 29.1686L60.123 29.5431L59.7918 29.1686ZM54.7785 33.7398C54.8792 33.997 54.7523 34.287 54.4952 34.3877C54.2381 34.4884 53.948 34.3616 53.8473 34.1044L54.7785 33.7398ZM50.7496 26.1924C50.6489 25.9352 50.7758 25.6452 51.0329 25.5445C51.2901 25.4438 51.5801 25.5706 51.6808 25.8278L50.7496 26.1924ZM48.5985 28.9088C48.3382 28.8166 48.2019 28.5309 48.2941 28.2706C48.3863 28.0103 48.6721 27.874 48.9324 27.9662L48.5985 28.9088ZM57.3454 30.946C57.6057 31.0382 57.742 31.3239 57.6498 31.5842C57.5576 31.8445 57.2719 31.9808 57.0116 31.8886L57.3454 30.946ZM58.1956 30.5857C58.2954 30.8431 58.1677 31.1328 57.9102 31.2326C57.6528 31.3325 57.3631 31.2047 57.2633 30.9472L58.1956 30.5857ZM54.2452 23.1653C54.1454 22.9079 54.2731 22.6182 54.5306 22.5184C54.7881 22.4185 55.0777 22.5463 55.1776 22.8038L54.2452 23.1653ZM51.9331 25.7536C51.6726 25.6621 51.5355 25.3767 51.627 25.1162C51.7185 24.8556 52.0039 24.7186 52.2644 24.8101L51.9331 25.7536ZM60.6809 27.7652C60.9415 27.8567 61.0785 28.1421 60.9871 28.4026C60.8956 28.6632 60.6102 28.8002 60.3496 28.7088L60.6809 27.7652ZM26.019 46.1176C26.2259 45.9346 26.5419 45.954 26.7248 46.1608C26.9078 46.3676 26.8884 46.6836 26.6816 46.8666L26.019 46.1176ZM24.0634 48.5149L24.3947 48.8895L24.3946 48.8895L24.0634 48.5149ZM20.4217 48.2581L20.8008 47.9322L20.8017 47.9332L20.4217 48.2581ZM20.2554 48.0646L19.8762 48.3906L19.8759 48.3902L20.2554 48.0646ZM20.5083 44.3672L20.8396 44.7417L20.8389 44.7423L20.5083 44.3672ZM21.8991 42.4694C22.106 42.2864 22.422 42.3058 22.6049 42.5126C22.7879 42.7194 22.7685 43.0354 22.5617 43.2184L21.8991 42.4694ZM3.984 23.2669C4.19336 23.447 4.21709 23.7626 4.03702 23.972C3.85695 24.1814 3.54126 24.2051 3.33191 24.025L3.984 23.2669ZM2.61499 22.7488L2.94002 22.3689L2.94104 22.3698L2.61499 22.7488ZM3.98713 15.5439L4.25967 15.9631L4.25958 15.9632L3.98713 15.5439ZM13.1313 16.9476L12.8001 17.3222L12.7916 17.3147L12.7834 17.3067L13.1313 16.9476ZM26.8651 28.4218C27.072 28.6047 27.0914 28.9206 26.9085 29.1275C26.7256 29.3344 26.4097 29.3539 26.2028 29.171L26.8651 28.4218ZM14.6312 33.2724L14.2516 32.9469L14.6312 33.2724ZM14.8883 32.9726L15.2678 33.2981L14.8883 32.9726ZM14.5187 27.5376L14.1875 27.9122L14.5187 27.5376ZM9.45189 23.0579L9.78308 22.6833L9.45189 23.0579ZM4.09885 23.4331L4.47837 23.7587V23.7587L4.09885 23.4331ZM3.84171 23.7329L3.46218 23.4074V23.4074L3.84171 23.7329ZM4.21134 29.1679L4.54253 28.7933L4.21134 29.1679ZM9.27812 33.6477L8.94693 34.0223L9.27812 33.6477ZM10.1561 34.1044C10.0555 34.3616 9.76539 34.4884 9.50825 34.3877C9.25111 34.287 9.12428 33.997 9.22495 33.7398L10.1561 34.1044ZM12.3227 25.8278C12.4233 25.5706 12.7134 25.4438 12.9705 25.5445C13.2277 25.6452 13.3545 25.9352 13.2538 26.1924L12.3227 25.8278ZM15.0711 27.9662C15.3314 27.874 15.6171 28.0103 15.7093 28.2706C15.8015 28.5309 15.6652 28.8166 15.4049 28.9088L15.0711 27.9662ZM6.99191 31.8886C6.73161 31.9808 6.44586 31.8445 6.35367 31.5842C6.26147 31.3239 6.39775 31.0382 6.65805 30.946L6.99191 31.8886ZM6.74021 30.9472C6.64036 31.2047 6.3507 31.3325 6.09324 31.2326C5.83578 31.1328 5.70802 30.8431 5.80787 30.5857L6.74021 30.9472ZM8.82589 22.8038C8.92574 22.5463 9.2154 22.4185 9.47285 22.5184C9.73031 22.6182 9.85808 22.9079 9.75823 23.1653L8.82589 22.8038ZM11.739 24.8101C11.9996 24.7186 12.285 24.8556 12.3764 25.1162C12.4679 25.3767 12.3309 25.6621 12.0703 25.7536L11.739 24.8101ZM3.65382 28.7088C3.39327 28.8002 3.10789 28.6632 3.01641 28.4026C2.92493 28.1421 3.06198 27.8567 3.32253 27.7652L3.65382 28.7088ZM32.3329 26.1771L18.9302 38.0259L18.2679 37.2766L31.6706 25.4279L32.3329 26.1771ZM18.9302 37.2766L32.3329 49.1254L31.6706 49.8746L18.2679 38.0259L18.9302 37.2766ZM31.6705 49.1254L45.0697 37.2767L45.7321 38.0258L32.333 49.8746L31.6705 49.1254ZM45.0697 38.0258L31.6705 26.1771L32.333 25.4279L45.7321 37.2767L45.0697 38.0258ZM36.7162 30.0575L23.317 41.9062L22.6546 41.1571L36.0537 29.3083L36.7162 30.0575ZM27.9462 29.3083L41.3489 41.157L40.6865 41.9062L27.2839 30.0575L27.9462 29.3083ZM41.134 33.9555L27.7314 45.8042L27.069 45.055L40.4717 33.2063L41.134 33.9555ZM23.5318 33.2063L36.9344 45.055L36.2721 45.8042L22.8694 33.9555L23.5318 33.2063ZM37.9844 46.1176L40.2713 48.1404L39.6088 48.8895L37.3219 46.8666L37.9844 46.1176ZM40.2713 48.1404C41.1359 48.905 42.4476 48.8152 43.2018 47.9332L43.9618 48.5831C42.8449 49.8893 40.8925 50.0246 39.6088 48.8895L40.2713 48.1404ZM43.2026 47.9322L43.3689 47.7387L44.1273 48.3906L43.961 48.5841L43.2026 47.9322ZM43.3686 47.7391C44.1272 46.8548 44.0357 45.5102 43.1645 44.7423L43.8258 43.9921C45.1099 45.1239 45.2402 47.0933 44.1276 48.3902L43.3686 47.7391ZM43.1639 44.7417L41.4418 43.2184L42.1043 42.4694L43.8264 43.9927L43.1639 44.7417ZM60.016 23.2669L61.059 22.3698L61.7111 23.1279L60.6681 24.025L60.016 23.2669ZM61.06 22.3689C61.6551 21.8598 62.0953 20.7637 61.9824 19.5037C61.8721 18.2731 61.2331 16.9332 59.7404 15.9632L60.2853 15.1247C62.0463 16.269 62.8418 17.8912 62.9784 19.4144C63.1123 20.9081 62.6118 22.3574 61.71 23.1288L61.06 22.3689ZM59.7403 15.9631C57.6238 14.5871 55.5259 14.8979 53.9091 15.5834C53.0991 15.9268 52.4217 16.3607 51.9459 16.7102C51.7087 16.8845 51.5234 17.0365 51.3986 17.1437C51.3363 17.1973 51.2892 17.2395 51.2585 17.2677C51.2431 17.2817 51.2319 17.2923 51.2249 17.2989C51.2213 17.3022 51.2189 17.3046 51.2175 17.3059C51.2168 17.3065 51.2164 17.3069 51.2162 17.3071C51.2162 17.3071 51.2162 17.3072 51.2162 17.3071C51.2163 17.3071 51.2164 17.307 51.2164 17.307C51.2165 17.3068 51.2166 17.3067 50.8687 16.9476C50.5208 16.5885 50.521 16.5883 50.5211 16.5882C50.5212 16.5881 50.5214 16.5879 50.5216 16.5877C50.5219 16.5874 50.5223 16.587 50.5228 16.5865C50.5238 16.5856 50.525 16.5844 50.5265 16.583C50.5295 16.5801 50.5337 16.5762 50.5389 16.5713C50.5493 16.5614 50.5641 16.5476 50.5831 16.5302C50.6211 16.4954 50.6761 16.4461 50.7469 16.3853C50.8883 16.2637 51.0936 16.0955 51.3539 15.9043C51.8731 15.5229 52.6183 15.0445 53.5187 14.6627C55.3228 13.8979 57.797 13.5069 60.2854 15.1247L59.7403 15.9631ZM51.1999 17.3222L37.7972 29.171L37.1349 28.4218L50.5375 16.573L51.1999 17.3222ZM59.782 24.0591L59.5248 23.7593L60.2839 23.1083L60.541 23.4081L59.782 24.0591ZM59.5248 23.7593C58.3297 22.3659 56.2529 22.2214 54.8825 23.4331L54.2201 22.6839C56.0102 21.1012 58.7267 21.2927 60.2839 23.1083L59.5248 23.7593ZM54.8825 23.4331L49.8157 27.9129L49.1533 27.1637L54.2201 22.6839L54.8825 23.4331ZM49.8157 27.9129C48.4408 29.1285 48.2955 31.2499 49.4944 32.6477L48.7354 33.2988C47.182 31.4877 47.3677 28.7425 49.1533 27.1637L49.8157 27.9129ZM49.4944 32.6477L49.7515 32.9475L48.9925 33.5986L48.7354 33.2988L49.4944 32.6477ZM49.7515 32.9475C50.9466 34.3409 53.0234 34.4854 54.3939 33.2737L55.0563 34.0229C53.2661 35.6056 50.5497 35.4141 48.9925 33.5986L49.7515 32.9475ZM54.3939 33.2737L59.4607 28.794L60.123 29.5431L55.0563 34.0229L54.3939 33.2737ZM59.4607 28.794C60.8355 27.5784 60.9808 25.4569 59.782 24.0591L60.541 23.4081C62.0944 25.2192 61.9087 27.9643 60.123 29.5431L59.4607 28.794ZM53.8473 34.1044L50.7496 26.1924L51.6808 25.8278L54.7785 33.7398L53.8473 34.1044ZM48.9324 27.9662L57.3454 30.946L57.0116 31.8886L48.5985 28.9088L48.9324 27.9662ZM57.2633 30.9472L54.2452 23.1653L55.1776 22.8038L58.1956 30.5857L57.2633 30.9472ZM52.2644 24.8101L60.6809 27.7652L60.3496 28.7088L51.9331 25.7536L52.2644 24.8101ZM26.6816 46.8666L24.3947 48.8895L23.7321 48.1404L26.019 46.1176L26.6816 46.8666ZM24.3946 48.8895C23.111 50.0246 21.1586 49.8893 20.0417 48.5831L20.8017 47.9332C21.5558 48.8152 22.8675 48.905 23.7322 48.1404L24.3946 48.8895ZM20.0425 48.5841L19.8762 48.3906L20.6345 47.7387L20.8008 47.9322L20.0425 48.5841ZM19.8759 48.3902C18.7633 47.0933 18.8936 45.1239 20.1777 43.9921L20.8389 44.7423C19.9678 45.5102 19.8763 46.8548 20.6348 47.7391L19.8759 48.3902ZM20.177 43.9927L21.8991 42.4694L22.5617 43.2184L20.8396 44.7417L20.177 43.9927ZM3.33191 24.025L2.28894 23.1279L2.94104 22.3698L3.984 23.2669L3.33191 24.025ZM2.28996 23.1288C1.38824 22.3574 0.887691 20.9081 1.02161 19.4144C1.15817 17.8912 1.95375 16.269 3.71469 15.1247L4.25958 15.9632C2.76688 16.9332 2.12794 18.2731 2.01762 19.5037C1.90465 20.7637 2.34486 21.8598 2.94002 22.3689L2.28996 23.1288ZM3.7146 15.1247C6.20303 13.5069 8.6772 13.8979 10.4813 14.6627C11.3817 15.0445 12.1269 15.5229 12.6461 15.9043C12.9064 16.0955 13.1117 16.2637 13.2531 16.3853C13.3239 16.4461 13.3789 16.4954 13.4169 16.5302C13.4359 16.5476 13.4507 16.5614 13.4611 16.5713C13.4663 16.5762 13.4705 16.5801 13.4735 16.583C13.475 16.5844 13.4762 16.5856 13.4772 16.5865C13.4776 16.587 13.4781 16.5874 13.4784 16.5877C13.4786 16.5879 13.4788 16.5881 13.4789 16.5882C13.479 16.5883 13.4792 16.5885 13.1313 16.9476C12.7834 17.3067 12.7835 17.3068 12.7836 17.307C12.7836 17.307 12.7837 17.3071 12.7838 17.3071C12.7838 17.3072 12.7838 17.3071 12.7838 17.3071C12.7836 17.3069 12.7832 17.3065 12.7825 17.3059C12.7811 17.3046 12.7787 17.3022 12.7751 17.2989C12.7681 17.2923 12.7569 17.2817 12.7415 17.2677C12.7108 17.2395 12.6637 17.1973 12.6014 17.1437C12.4766 17.0365 12.2913 16.8845 12.0541 16.7102C11.5783 16.3607 10.9009 15.9268 10.0909 15.5834C8.47414 14.8979 6.37624 14.5871 4.25967 15.9631L3.7146 15.1247ZM13.4625 16.573L26.8651 28.4218L26.2028 29.171L12.8001 17.3222L13.4625 16.573ZM14.2516 32.9469L14.5088 32.6471L15.2678 33.2981L15.0107 33.5979L14.2516 32.9469ZM14.5088 32.6471C15.7077 31.2493 15.5624 29.1278 14.1875 27.9122L14.8499 27.1631C16.6355 28.7418 16.8212 31.487 15.2678 33.2981L14.5088 32.6471ZM14.1875 27.9122L9.1207 23.4324L9.78308 22.6833L14.8499 27.1631L14.1875 27.9122ZM9.1207 23.4324C7.75026 22.2208 5.67347 22.3653 4.47837 23.7587L3.71932 23.1076C5.27649 21.2921 7.99297 21.1006 9.78308 22.6833L9.1207 23.4324ZM4.47837 23.7587L4.22123 24.0585L3.46218 23.4074L3.71932 23.1076L4.47837 23.7587ZM4.22123 24.0585C3.02235 25.4563 3.16766 27.5777 4.54253 28.7933L3.88015 29.5425C2.09447 27.9637 1.90881 25.2185 3.46218 23.4074L4.22123 24.0585ZM4.54253 28.7933L9.60931 33.2731L8.94693 34.0223L3.88015 29.5425L4.54253 28.7933ZM9.60931 33.2731C10.9797 34.4848 13.0565 34.3403 14.2516 32.9469L15.0107 33.5979C13.4535 35.4134 10.737 35.605 8.94693 34.0223L9.60931 33.2731ZM9.22495 33.7398L12.3227 25.8278L13.2538 26.1924L10.1561 34.1044L9.22495 33.7398ZM15.4049 28.9088L6.99191 31.8886L6.65805 30.946L15.0711 27.9662L15.4049 28.9088ZM5.80787 30.5857L8.82589 22.8038L9.75823 23.1653L6.74021 30.9472L5.80787 30.5857ZM12.0703 25.7536L3.65382 28.7088L3.32253 27.7652L11.739 24.8101L12.0703 25.7536Z" fill="black"/>
</svg>
