<svg width="64" height="64" viewBox="0 0 64 64" fill="none" xmlns="http://www.w3.org/2000/svg">
<g clip-path="url(#clip0_1122_31827)">
<path d="M27.7334 65.301L36.2666 61.2097M32.5952 64.5081H36.2666M31.4048 62.0026H27.7334M33.0905 57.5217V60.1223M30.9095 57.5217V60.1223M44.6407 45.5288L46.1265 46.8156C46.8217 47.4227 48.0212 47.1871 48.8027 46.29L48.9391 46.1314C49.7206 45.2343 49.7887 44.0201 49.0935 43.413L47.9758 42.4434M32.3908 2.63642L36.5801 -1.3189M33.354 3.5924L37.5434 -0.362926M34.031 0.742573L30.0644 -3.43476M34.9943 -0.217953L31.0276 -4.39528M32.8497 5.37751L28.883 1.20018M33.8129 4.417L29.8463 0.239666M26.4566 1.25908L30.646 -2.69625M27.4154 2.21959L31.6047 -1.73574M32.3908 -8.44122L36.5801 -12.3965M33.354 -7.48523L37.5434 -11.4406M32.8497 -5.70012L28.883 -9.87746M33.8129 -6.66064L29.8463 -10.838M32.3908 13.8681L36.5801 9.91277M33.354 14.8241L37.5434 10.8688M34.031 11.9743L30.0644 7.79691M34.9943 11.0137L31.0276 6.8364M32.8497 16.6092L28.883 12.4319M33.8129 15.6487L29.8463 11.4714M26.4566 12.4908L30.646 8.53542M27.4154 13.4513L31.6047 9.49593M28.2196 52.6648L47.117 33.8214M24.4392 48.8952L43.3366 30.0564M20.6634 45.1301L39.5562 26.2868M16.883 41.3606L35.7758 22.5173M28.2196 22.5173L47.117 41.3606M24.4392 26.2868L43.3366 45.1301M20.6634 30.0564L39.5562 48.8952M16.883 33.8214L35.7758 52.6648M36.6619 21.4118L56.4544 1.67591C57.0406 1.09144 58.231 1.33157 59.1171 2.21053C59.9985 3.08949 60.2394 4.28107 59.6532 4.86554L39.8607 24.6014M37.3253 52.9864L60.3802 75.9754C61.0618 76.655 62.334 76.4964 63.2155 75.6129C64.097 74.734 64.2606 73.4653 63.579 72.7857L40.5241 49.7968M43.941 29.1457L57.9629 15.1639C58.381 14.7471 59.4306 15.1277 60.3166 16.0066C61.1981 16.8856 61.5798 17.9367 61.1617 18.3535L47.1397 32.3354M19.3548 45.5288L17.869 46.8156C17.1738 47.4227 15.9742 47.1871 15.1927 46.29L15.0564 46.1314C14.2749 45.2343 14.2067 44.0201 14.9019 43.413L16.0197 42.4434M27.3336 21.4118L7.54103 1.67591C6.95488 1.09144 5.76442 1.33157 4.87839 2.21053C3.99691 3.08949 3.75609 4.28107 4.34223 4.86554L24.1348 24.6014M26.6747 52.9864L3.61978 75.9754C2.93821 76.655 1.66597 76.4964 0.78448 75.6129C-0.0970064 74.734 -0.260581 73.4653 0.42098 72.7857L23.4759 49.7968M20.0545 29.1457L6.0325 15.1639C5.61448 14.7471 4.56487 15.1277 3.67884 16.0066C2.79736 16.8856 2.41568 17.9367 2.83371 18.3535L16.8557 32.3354M13.1024 37.5917L31.9976 18.7507L50.8927 37.5917L31.9976 56.4327L13.1024 37.5917ZM50.9156 37.5955C50.9156 37.5955 52.4605 35.5567 54.5006 35.593C55.8228 35.6201 56.3499 36.5716 56.5544 37.2421C56.6862 37.6635 56.7043 38.1392 56.5998 38.5742C56.4317 39.2764 55.9319 40.2596 54.4597 40.2641C52.1697 40.2777 50.9156 37.5955 50.9156 37.5955ZM13.0844 37.5955C13.0844 37.5955 11.5395 35.5567 9.49938 35.593C8.17715 35.6201 7.65007 36.5716 7.44561 37.2421C7.31384 37.6635 7.29566 38.1392 7.40017 38.5742C7.56829 39.2764 8.0681 40.2596 9.54027 40.2641C11.8303 40.2777 13.0844 37.5955 13.0844 37.5955Z" stroke="black" stroke-linecap="round" stroke-linejoin="round"/>
</g>
<defs>
<clipPath id="clip0_1122_31827">
<rect width="64" height="64" fill="white"/>
</clipPath>
</defs>
</svg>
