<svg width="27" height="22" viewBox="0 0 27 22" fill="none" xmlns="http://www.w3.org/2000/svg">
<path d="M6.42188 21.9336C5.39062 21.9336 4.60547 21.668 4.06641 21.1367C3.53516 20.6055 3.26953 19.8242 3.26953 18.793V4.34375C3.26953 3.30469 3.53516 2.51953 4.06641 1.98828C4.60547 1.45703 5.39062 1.19141 6.42188 1.19141H20.8477C21.8867 1.19141 22.6719 1.46094 23.2031 2C23.7422 2.53906 24.0117 3.32031 24.0117 4.34375V18.793C24.0117 19.8164 23.7422 20.5938 23.2031 21.125C22.6719 21.6641 21.8867 21.9336 20.8477 21.9336H6.42188ZM6.45703 21.0664H20.8242C21.5586 21.0664 22.1289 20.8711 22.5352 20.4805C22.9414 20.0898 23.1445 19.5117 23.1445 18.7461V4.39062C23.1445 3.61719 22.9414 3.03516 22.5352 2.64453C22.1289 2.25391 21.5586 2.05859 20.8242 2.05859H6.45703C5.69141 2.05859 5.11328 2.25391 4.72266 2.64453C4.33203 3.03516 4.13672 3.61719 4.13672 4.39062V18.7461C4.13672 19.5117 4.33203 20.0898 4.72266 20.4805C5.11328 20.8711 5.69141 21.0664 6.45703 21.0664ZM8.90625 11.082C8.79688 11.082 8.69922 11.043 8.61328 10.9648C8.53516 10.8789 8.49609 10.7812 8.49609 10.6719C8.49609 10.5625 8.53516 10.4688 8.61328 10.3906C8.69922 10.3047 8.79688 10.2617 8.90625 10.2617L9.92578 10.2734L11.8945 10.2969L8.15625 6.65234C8.07812 6.56641 8.03906 6.46484 8.03906 6.34766C8.03906 6.23047 8.07812 6.12891 8.15625 6.04297C8.24219 5.95703 8.34375 5.91406 8.46094 5.91406C8.58594 5.91406 8.69141 5.95703 8.77734 6.04297L12.4336 9.78125L12.3867 7.66016V6.78125C12.3867 6.67188 12.4258 6.57813 12.5039 6.5C12.5898 6.41406 12.6914 6.37109 12.8086 6.37109C12.918 6.37109 13.0117 6.41406 13.0898 6.5C13.168 6.57813 13.207 6.67188 13.207 6.78125V10.6367C13.207 10.7852 13.168 10.8984 13.0898 10.9766C13.0117 11.0469 12.9062 11.082 12.7734 11.082H8.90625ZM14.4844 16.6602C14.375 16.6602 14.2812 16.6211 14.2031 16.543C14.125 16.4648 14.0859 16.3711 14.0859 16.2617V12.3945C14.0859 12.2539 14.125 12.1484 14.2031 12.0781C14.2812 12 14.3867 11.9609 14.5195 11.9609H18.375C18.4922 11.9609 18.5898 12 18.668 12.0781C18.7461 12.1562 18.7852 12.2539 18.7852 12.3711C18.7852 12.4805 18.7461 12.5781 18.668 12.6641C18.5898 12.7422 18.4922 12.7812 18.375 12.7812L17.3672 12.7695L15.3984 12.7461L19.125 16.3906C19.2109 16.4766 19.25 16.5781 19.2422 16.6953C19.2422 16.8125 19.2031 16.9141 19.125 17C19.0469 17.0859 18.9492 17.1289 18.832 17.1289C18.7148 17.1289 18.6094 17.082 18.5156 16.9883L14.8594 13.2617L14.8945 15.3828V16.2617C14.8945 16.3711 14.8555 16.4648 14.7773 16.543C14.6992 16.6211 14.6016 16.6602 14.4844 16.6602Z" fill="#FF3B30"/>
</svg>
