<svg width="64" height="64" viewBox="0 0 64 64" fill="none" xmlns="http://www.w3.org/2000/svg">
<path d="M27.7622 29.5645L44.342 22.5684M36.3674 17.1424L25.559 32.2885M44.4755 41.7383L36.8199 29.1482M49.2973 32.1789L31.998 27.7753M36.2339 34.5377L19.6541 41.5266M27.6287 46.9526L38.3926 31.916M19.5206 22.3639L27.1762 34.9467M14.6988 31.916L31.998 36.3196M47.784 37.1302C49.7498 37.9774 51.2557 39.752 51.6267 41.9939C52.2127 45.5066 49.8018 48.8294 46.2262 49.4136C42.658 49.9905 39.2827 47.6171 38.6893 44.0972M47.784 26.8698C49.7498 26.0226 51.2557 24.248 51.6267 22.0061C52.2127 18.4934 49.8018 15.1706 46.2262 14.5864C42.658 14.0095 39.2827 16.3829 38.6893 19.9028M48.8151 26.3659C50.6994 25.3581 53.051 25.285 55.0761 26.3659C58.2585 28.0674 59.4306 31.989 57.7022 35.122C55.9737 38.2549 51.9901 39.4087 48.8077 37.7072M16.2121 37.1302C14.2463 37.9774 12.7404 39.752 12.3694 41.9939C11.7834 45.5066 14.1943 48.8294 17.7699 49.4136C21.3381 49.9905 24.7134 47.6171 25.3068 44.0972M16.2121 26.8698C14.2463 26.0226 12.7404 24.248 12.3694 22.0061C11.7834 18.4934 14.1943 15.1706 17.7699 14.5864C21.3381 14.0095 24.7134 16.3829 25.3068 19.9028M15.1809 26.3659C13.2967 25.3581 10.9451 25.285 8.91997 26.3659C5.74497 28.0747 4.56547 31.989 6.30134 35.122C8.02978 38.2549 12.0134 39.4087 15.1958 37.7072" stroke="black" stroke-miterlimit="10" stroke-linecap="round"/>
</svg>
