<svg width="172" height="31" viewBox="0 0 172 31" fill="none" xmlns="http://www.w3.org/2000/svg">
<g clip-path="url(#clip0_753_18380)">
<path d="M70.89 25.6L82.86 5.34998" stroke="#231815" stroke-linecap="round" stroke-linejoin="round"/>
<path d="M76.14 0.5L96.39 12.47" stroke="#231815" stroke-linecap="round" stroke-linejoin="round"/>
<path d="M75.5701 18.2L95.8201 30.17" stroke="#231815" stroke-linecap="round" stroke-linejoin="round"/>
<path d="M89.3101 26.27L101.28 6.02002" stroke="#231815" stroke-linecap="round" stroke-linejoin="round"/>
<path d="M69.73 11.3C58.23 9.07005 42.59 7.05005 31.92 7.05005C8.65 7.05005 0.5 11.02 0.5 15.92C0.5 20.82 8.65 24.7901 31.92 24.7901C42.66 24.7901 58.25 22.91 69.72 20.73" stroke="#231815" stroke-linecap="round" stroke-linejoin="round"/>
<path d="M101.67 11.3C113.17 9.07005 128.81 7.05005 139.48 7.05005C162.75 7.05005 170.9 11.02 170.9 15.92C170.9 20.82 162.75 24.7901 139.48 24.7901C128.74 24.7901 113.15 22.91 101.68 20.73" stroke="#231815" stroke-linecap="round" stroke-linejoin="round"/>
</g>
<defs>
<clipPath id="clip0_753_18380">
<rect width="171.4" height="30.68" fill="white"/>
</clipPath>
</defs>
</svg>
