<svg width="64" height="64" viewBox="0 0 64 64" fill="none" xmlns="http://www.w3.org/2000/svg">
<path d="M39.6425 33.8367C42.691 33.1565 46.8421 32.5318 49.6677 32.5318C55.8371 32.5318 58 33.7502 58 35.2529C58 36.7557 55.8371 37.974 49.6677 37.974C46.818 37.974 42.685 37.3989 39.6425 36.731M24.3575 29.9283C21.309 30.6085 17.1579 31.2331 14.3323 31.2331C8.1629 31.2331 6 30.0148 6 28.5121C6 27.0093 8.1629 25.791 14.3323 25.791C17.182 25.791 21.315 26.3661 24.3575 27.034M36.5276 42L36.5397 27.4545M41.5162 26.9907L27.3458 26.9784M36.377 36.5887L22.2067 36.5764M26.7795 36.5455L26.7916 22" stroke="black" stroke-linecap="round" stroke-linejoin="round"/>
</svg>
