<svg width="249" height="589" viewBox="0 0 249 589" fill="none" xmlns="http://www.w3.org/2000/svg">
<g clip-path="url(#clip0_755_1446)">
<path d="M110.133 14.7057L138.867 0.770752" stroke="#231815" stroke-miterlimit="10" stroke-linecap="round"/>
<path d="M126.505 11.9927H138.867" stroke="#231815" stroke-miterlimit="10" stroke-linecap="round"/>
<path d="M122.496 3.46832H110.133" stroke="#231815" stroke-miterlimit="10" stroke-linecap="round"/>
<path d="M110.133 160.684L138.867 146.749" stroke="#231815" stroke-miterlimit="10" stroke-linecap="round"/>
<path d="M126.505 157.971H138.867" stroke="#231815" stroke-miterlimit="10" stroke-linecap="round"/>
<path d="M122.496 149.447H110.133" stroke="#231815" stroke-miterlimit="10" stroke-linecap="round"/>
<path d="M109.965 141.2L138.699 127.28" stroke="#231815" stroke-miterlimit="10" stroke-linecap="round"/>
<path d="M126.336 138.502H138.699" stroke="#231815" stroke-miterlimit="10" stroke-linecap="round"/>
<path d="M122.327 129.978H109.965" stroke="#231815" stroke-miterlimit="10" stroke-linecap="round"/>
<path d="M110.133 180.153L138.867 166.233" stroke="#231815" stroke-miterlimit="10" stroke-linecap="round"/>
<path d="M126.505 177.455H138.867" stroke="#231815" stroke-miterlimit="10" stroke-linecap="round"/>
<path d="M122.496 168.931H110.133" stroke="#231815" stroke-miterlimit="10" stroke-linecap="round"/>
<path d="M110.133 199.637L138.867 185.702" stroke="#231815" stroke-miterlimit="10" stroke-linecap="round"/>
<path d="M126.505 196.924H138.867" stroke="#231815" stroke-miterlimit="10" stroke-linecap="round"/>
<path d="M122.496 188.415H110.133" stroke="#231815" stroke-miterlimit="10" stroke-linecap="round"/>
<path d="M105.742 57.7747H105.375C99.8817 57.7747 95.4446 53.5356 95.4446 48.31V47.3851C95.4446 42.1595 99.897 37.9204 105.375 37.9204H105.742" stroke="#231815" stroke-linecap="round" stroke-linejoin="round"/>
<path d="M143.259 57.7747H143.626C149.119 57.7747 153.556 53.5356 153.556 48.31V47.3851C153.556 42.1595 149.103 37.9204 143.626 37.9204H143.259" stroke="#231815" stroke-linecap="round" stroke-linejoin="round"/>
<path d="M135.287 48.0942L120.507 35.1149" stroke="#231815" stroke-linecap="round" stroke-linejoin="round"/>
<path d="M125.005 57.528L141.545 43.0227" stroke="#231815" stroke-linecap="round" stroke-linejoin="round"/>
<path d="M113.729 47.601L128.509 60.5802" stroke="#231815" stroke-linecap="round" stroke-linejoin="round"/>
<path d="M123.995 38.1671L107.456 52.6724" stroke="#231815" stroke-linecap="round" stroke-linejoin="round"/>
<path d="M128.172 207.314V216.162" stroke="#231815" stroke-linecap="round" stroke-linejoin="round"/>
<path d="M120.828 207.314V216.162" stroke="#231815" stroke-linecap="round" stroke-linejoin="round"/>
<path d="M110.133 414.628L138.867 400.708" stroke="#231815" stroke-miterlimit="10" stroke-linecap="round"/>
<path d="M126.505 411.93H138.867" stroke="#231815" stroke-miterlimit="10" stroke-linecap="round"/>
<path d="M122.496 403.406H110.133" stroke="#231815" stroke-miterlimit="10" stroke-linecap="round"/>
<path d="M109.965 395.159L138.699 381.224" stroke="#231815" stroke-miterlimit="10" stroke-linecap="round"/>
<path d="M126.336 392.446H138.699" stroke="#231815" stroke-miterlimit="10" stroke-linecap="round"/>
<path d="M122.327 383.921H109.965" stroke="#231815" stroke-miterlimit="10" stroke-linecap="round"/>
<path d="M110.133 434.112L138.867 420.177" stroke="#231815" stroke-miterlimit="10" stroke-linecap="round"/>
<path d="M126.505 431.399H138.867" stroke="#231815" stroke-miterlimit="10" stroke-linecap="round"/>
<path d="M122.496 422.89H110.133" stroke="#231815" stroke-miterlimit="10" stroke-linecap="round"/>
<path d="M110.133 588.229L138.867 574.294" stroke="#231815" stroke-miterlimit="10" stroke-linecap="round"/>
<path d="M126.505 585.516H138.867" stroke="#231815" stroke-miterlimit="10" stroke-linecap="round"/>
<path d="M122.496 577.007H110.133" stroke="#231815" stroke-miterlimit="10" stroke-linecap="round"/>
<path d="M110.133 453.581L138.867 439.661" stroke="#231815" stroke-miterlimit="10" stroke-linecap="round"/>
<path d="M126.505 450.883H138.867" stroke="#231815" stroke-miterlimit="10" stroke-linecap="round"/>
<path d="M122.496 442.359H110.133" stroke="#231815" stroke-miterlimit="10" stroke-linecap="round"/>
<path d="M128.172 461.257V470.106" stroke="#231815" stroke-linecap="round" stroke-linejoin="round"/>
<path d="M120.828 461.257V470.106" stroke="#231815" stroke-linecap="round" stroke-linejoin="round"/>
<path d="M128.172 515.24V524.088" stroke="#231815" stroke-linecap="round" stroke-linejoin="round"/>
<path d="M120.828 515.24V524.088" stroke="#231815" stroke-linecap="round" stroke-linejoin="round"/>
<path d="M128.172 366.472V375.32" stroke="#231815" stroke-linecap="round" stroke-linejoin="round"/>
<path d="M120.828 366.472V375.32" stroke="#231815" stroke-linecap="round" stroke-linejoin="round"/>
<path d="M128.172 67.6865V76.5346" stroke="#231815" stroke-linecap="round" stroke-linejoin="round"/>
<path d="M120.828 67.6865V76.5346" stroke="#231815" stroke-linecap="round" stroke-linejoin="round"/>
<path d="M128.172 19.916V28.7641" stroke="#231815" stroke-linecap="round" stroke-linejoin="round"/>
<path d="M120.828 19.916V28.7641" stroke="#231815" stroke-linecap="round" stroke-linejoin="round"/>
<path d="M105.742 532.505H105.375C99.8817 532.505 95.4446 536.744 95.4446 541.969V542.894C95.4446 548.12 99.897 552.359 105.375 552.359H105.742" stroke="#231815" stroke-linecap="round" stroke-linejoin="round"/>
<path d="M143.259 532.505H143.626C149.119 532.505 153.556 536.744 153.556 541.969V542.894C153.556 548.12 149.103 552.359 143.626 552.359H143.259" stroke="#231815" stroke-linecap="round" stroke-linejoin="round"/>
<path d="M135.287 542.201L120.507 555.18" stroke="#231815" stroke-linecap="round" stroke-linejoin="round"/>
<path d="M125.005 532.751L141.545 547.257" stroke="#231815" stroke-linecap="round" stroke-linejoin="round"/>
<path d="M113.729 542.679L128.509 529.699" stroke="#231815" stroke-linecap="round" stroke-linejoin="round"/>
<path d="M123.995 552.128L107.456 537.623" stroke="#231815" stroke-linecap="round" stroke-linejoin="round"/>
<path d="M128.172 570.549V561.7" stroke="#231815" stroke-linecap="round" stroke-linejoin="round"/>
<path d="M120.828 570.549V561.7" stroke="#231815" stroke-linecap="round" stroke-linejoin="round"/>
<path d="M145.936 477.489C145.936 471.154 151.031 466.021 157.32 466.021C163.608 466.021 168.703 471.154 168.703 477.489" stroke="#231815" stroke-linecap="round" stroke-linejoin="round"/>
<path d="M168.244 508.196C168.244 514.531 163.149 519.664 156.861 519.664C150.572 519.664 145.477 514.531 145.477 508.196" stroke="#231815" stroke-linecap="round" stroke-linejoin="round"/>
<path d="M177.21 480.156C183.499 480.156 188.594 485.289 188.594 491.625C188.594 497.96 183.499 503.093 177.21 503.093" stroke="#231815" stroke-linecap="round" stroke-linejoin="round"/>
<path d="M140.627 497.421L157.916 482.252" stroke="#231815" stroke-linecap="round" stroke-linejoin="round"/>
<path d="M153.188 475.655L168.244 493.074" stroke="#231815" stroke-linecap="round" stroke-linejoin="round"/>
<path d="M147.237 491.979L162.292 509.398" stroke="#231815" stroke-linecap="round" stroke-linejoin="round"/>
<path d="M157.473 503.741L174.762 488.573" stroke="#231815" stroke-linecap="round" stroke-linejoin="round"/>
<path d="M104.196 477.489C104.196 471.154 99.1013 466.021 92.8128 466.021C86.5243 466.021 81.4292 471.154 81.4292 477.489" stroke="#231815" stroke-linecap="round" stroke-linejoin="round"/>
<path d="M81.8882 508.196C81.8882 514.531 86.9832 519.664 93.2717 519.664C99.5602 519.664 104.655 514.531 104.655 508.196" stroke="#231815" stroke-linecap="round" stroke-linejoin="round"/>
<path d="M72.9221 480.156C66.6336 480.156 61.5386 485.289 61.5386 491.625C61.5386 497.96 66.6336 503.093 72.9221 503.093" stroke="#231815" stroke-linecap="round" stroke-linejoin="round"/>
<path d="M108.006 497.421L125.296 482.252" stroke="#231815" stroke-linecap="round" stroke-linejoin="round"/>
<path d="M120.568 475.655L135.624 493.074" stroke="#231815" stroke-linecap="round" stroke-linejoin="round"/>
<path d="M114.601 491.979L129.656 509.398" stroke="#231815" stroke-linecap="round" stroke-linejoin="round"/>
<path d="M124.837 503.741L142.126 488.573" stroke="#231815" stroke-linecap="round" stroke-linejoin="round"/>
<path d="M74.7734 497.421L92.063 482.252" stroke="#231815" stroke-linecap="round" stroke-linejoin="round"/>
<path d="M87.3352 475.655L102.391 493.074" stroke="#231815" stroke-linecap="round" stroke-linejoin="round"/>
<path d="M81.3833 491.979L96.439 509.398" stroke="#231815" stroke-linecap="round" stroke-linejoin="round"/>
<path d="M91.604 503.741L108.894 488.573" stroke="#231815" stroke-linecap="round" stroke-linejoin="round"/>
<path d="M144.406 85.1052C144.406 78.7697 149.501 73.6366 155.79 73.6366C162.078 73.6366 167.173 78.7697 167.173 85.1052" stroke="#231815" stroke-linecap="round" stroke-linejoin="round"/>
<path d="M166.714 115.812C166.714 122.147 161.619 127.28 155.331 127.28C149.042 127.28 143.947 122.147 143.947 115.812" stroke="#231815" stroke-linecap="round" stroke-linejoin="round"/>
<path d="M175.68 87.772C181.969 87.772 187.064 92.9051 187.064 99.2406C187.064 105.576 181.969 110.709 175.68 110.709" stroke="#231815" stroke-linecap="round" stroke-linejoin="round"/>
<path d="M139.097 105.037L156.386 89.8684" stroke="#231815" stroke-linecap="round" stroke-linejoin="round"/>
<path d="M151.658 83.2709L166.714 100.69" stroke="#231815" stroke-linecap="round" stroke-linejoin="round"/>
<path d="M145.707 99.5951L160.762 117.014" stroke="#231815" stroke-linecap="round" stroke-linejoin="round"/>
<path d="M155.943 111.357L173.232 96.1885" stroke="#231815" stroke-linecap="round" stroke-linejoin="round"/>
<path d="M102.666 85.1052C102.666 78.7697 97.5712 73.6366 91.2827 73.6366C84.9942 73.6366 79.8992 78.7697 79.8992 85.1052" stroke="#231815" stroke-linecap="round" stroke-linejoin="round"/>
<path d="M80.3582 115.812C80.3582 122.147 85.4532 127.28 91.7417 127.28C98.0302 127.28 103.125 122.147 103.125 115.812" stroke="#231815" stroke-linecap="round" stroke-linejoin="round"/>
<path d="M71.3921 87.772C65.1036 87.772 60.0085 92.9051 60.0085 99.2406C60.0085 105.576 65.1036 110.709 71.3921 110.709" stroke="#231815" stroke-linecap="round" stroke-linejoin="round"/>
<path d="M106.476 105.037L123.766 89.8684" stroke="#231815" stroke-linecap="round" stroke-linejoin="round"/>
<path d="M119.038 83.2709L134.094 100.69" stroke="#231815" stroke-linecap="round" stroke-linejoin="round"/>
<path d="M113.071 99.5951L128.126 117.014" stroke="#231815" stroke-linecap="round" stroke-linejoin="round"/>
<path d="M123.307 111.357L140.596 96.1885" stroke="#231815" stroke-linecap="round" stroke-linejoin="round"/>
<path d="M73.2434 105.037L90.5329 89.8684" stroke="#231815" stroke-linecap="round" stroke-linejoin="round"/>
<path d="M85.8052 83.2709L100.861 100.69" stroke="#231815" stroke-linecap="round" stroke-linejoin="round"/>
<path d="M79.8533 99.5951L94.9089 117.014" stroke="#231815" stroke-linecap="round" stroke-linejoin="round"/>
<path d="M90.074 111.357L107.364 96.1885" stroke="#231815" stroke-linecap="round" stroke-linejoin="round"/>
<path d="M49.7725 292.219L124.5 223.885L199.228 292.219L124.5 360.568L49.7725 292.219Z" stroke="#231815" stroke-miterlimit="10" stroke-linecap="round"/>
<path d="M113.82 350.795L188.563 282.461" stroke="#231815" stroke-miterlimit="10" stroke-linecap="round"/>
<path d="M103.156 341.037L177.883 272.703" stroke="#231815" stroke-miterlimit="10" stroke-linecap="round"/>
<path d="M92.4761 331.28L167.204 262.931" stroke="#231815" stroke-miterlimit="10" stroke-linecap="round"/>
<path d="M81.7964 321.507L156.524 253.173" stroke="#231815" stroke-miterlimit="10" stroke-linecap="round"/>
<path d="M71.1318 311.749L145.859 243.415" stroke="#231815" stroke-miterlimit="10" stroke-linecap="round"/>
<path d="M60.4521 301.992L135.18 233.642" stroke="#231815" stroke-miterlimit="10" stroke-linecap="round"/>
<path d="M113.82 233.642L188.563 301.992" stroke="#231815" stroke-miterlimit="10" stroke-linecap="round"/>
<path d="M103.156 243.415L177.883 311.749" stroke="#231815" stroke-miterlimit="10" stroke-linecap="round"/>
<path d="M92.4761 253.173L167.204 321.507" stroke="#231815" stroke-miterlimit="10" stroke-linecap="round"/>
<path d="M81.7964 262.931L156.524 331.28" stroke="#231815" stroke-miterlimit="10" stroke-linecap="round"/>
<path d="M71.1318 272.703L145.859 341.037" stroke="#231815" stroke-miterlimit="10" stroke-linecap="round"/>
<path d="M60.4521 282.461L135.18 350.795" stroke="#231815" stroke-miterlimit="10" stroke-linecap="round"/>
<path d="M136.48 231.638L165.154 205.449C168.275 202.597 173.079 202.843 175.91 205.973C178.74 209.117 178.496 213.958 175.39 216.809L147.818 241.997" stroke="#231815" stroke-linecap="round" stroke-linejoin="round"/>
<path d="M158.238 251.123L186.911 224.933C190.032 222.081 194.837 222.328 197.667 225.457C200.498 228.602 200.253 233.442 197.147 236.294L169.575 261.482" stroke="#231815" stroke-linecap="round" stroke-linejoin="round"/>
<path d="M179.903 271.008L208.576 244.818C211.697 241.966 216.502 242.213 219.332 245.342C222.163 248.487 221.918 253.327 218.812 256.179L191.241 281.367" stroke="#231815" stroke-linecap="round" stroke-linejoin="round"/>
<path d="M136.48 352.814L165.154 379.004C168.275 381.856 173.079 381.609 175.91 378.48C178.74 375.335 178.496 370.495 175.39 367.643L147.818 342.455" stroke="#231815" stroke-linecap="round" stroke-linejoin="round"/>
<path d="M158.238 333.315L186.911 359.504C190.032 362.356 194.837 362.109 197.667 358.98C200.498 355.836 200.253 350.995 197.147 348.144L169.575 322.956" stroke="#231815" stroke-linecap="round" stroke-linejoin="round"/>
<path d="M179.903 313.429L208.576 339.619C211.697 342.471 216.502 342.224 219.332 339.095C222.163 335.95 221.918 331.11 218.812 328.258L191.241 303.071" stroke="#231815" stroke-linecap="round" stroke-linejoin="round"/>
<path d="M112.535 231.638L83.862 205.449C80.7407 202.597 75.9363 202.843 73.1057 205.973C70.2751 209.117 70.5199 213.958 73.6259 216.809L101.197 241.997" stroke="#231815" stroke-linecap="round" stroke-linejoin="round"/>
<path d="M90.7626 251.123L62.0895 224.933C58.9682 222.081 54.1638 222.328 51.3333 225.457C48.5027 228.602 48.7475 233.442 51.8535 236.294L79.4249 261.482" stroke="#231815" stroke-linecap="round" stroke-linejoin="round"/>
<path d="M69.0971 271.008L40.424 244.818C37.3027 241.966 32.4983 242.213 29.6677 245.342C26.8371 248.487 27.0819 253.327 30.1879 256.179L57.7594 281.367" stroke="#231815" stroke-linecap="round" stroke-linejoin="round"/>
<path d="M112.535 352.814L83.862 379.004C80.7407 381.856 75.9363 381.609 73.1057 378.48C70.2751 375.335 70.5199 370.495 73.6259 367.643L101.197 342.455" stroke="#231815" stroke-linecap="round" stroke-linejoin="round"/>
<path d="M90.7626 333.315L62.0895 359.504C58.9682 362.356 54.1638 362.109 51.3333 358.98C48.5027 355.836 48.7475 350.995 51.8535 348.144L79.4249 322.956" stroke="#231815" stroke-linecap="round" stroke-linejoin="round"/>
<path d="M69.0971 313.429L40.424 339.619C37.3027 342.471 32.4983 342.224 29.6677 339.095C26.8371 335.95 27.0819 331.11 30.1879 328.258L57.7594 303.071" stroke="#231815" stroke-linecap="round" stroke-linejoin="round"/>
<path d="M197.866 284.557H240.631C244.838 284.557 248.25 287.995 248.25 292.234C248.25 296.473 244.838 299.911 240.631 299.911H197.866" stroke="#231815" stroke-linecap="round" stroke-linejoin="round"/>
<path d="M51.1496 284.557H8.38478C4.17714 284.557 0.765137 287.995 0.765137 292.234C0.765137 296.473 4.17714 299.911 8.38478 299.911H51.1496" stroke="#231815" stroke-linecap="round" stroke-linejoin="round"/>
</g>
<defs>
<clipPath id="clip0_755_1446">
<rect width="249" height="589" fill="white"/>
</clipPath>
</defs>
</svg>
