<svg width="64" height="64" viewBox="0 0 64 64" fill="none" xmlns="http://www.w3.org/2000/svg">
<path d="M14.1373 32L13.7824 31.6478L13.4328 32L13.7824 32.3522L14.1373 32ZM32.0017 14L32.3565 13.6478L32.0017 13.2902L31.6468 13.6478L32.0017 14ZM49.866 32L50.2209 32.3522L50.5705 32L50.2209 31.6478L49.866 32ZM32.0017 50L31.6468 50.3522L32.0017 50.7098L32.3565 50.3522L32.0017 50ZM20.4456 25.6486C20.2511 25.4526 19.9345 25.4514 19.7385 25.6459C19.5425 25.8404 19.5413 26.157 19.7358 26.353L20.4456 25.6486ZM37.5998 44.3526C37.7943 44.5486 38.1109 44.5498 38.3069 44.3553C38.5029 44.1608 38.5041 43.8442 38.3095 43.6482L37.5998 44.3526ZM26.4002 19.6487C26.2057 19.4527 25.8891 19.4515 25.6931 19.6461C25.4971 19.8406 25.4959 20.1572 25.6905 20.3532L26.4002 19.6487ZM43.5544 38.3527C43.7489 38.5487 44.0655 38.5499 44.2615 38.3554C44.4575 38.1609 44.4587 37.8443 44.2642 37.6483L43.5544 38.3527ZM44.2642 26.353C44.4587 26.157 44.4575 25.8404 44.2615 25.6459C44.0655 25.4514 43.7489 25.4526 43.5544 25.6486L44.2642 26.353ZM25.6905 43.6482C25.4959 43.8442 25.4971 44.1608 25.6931 44.3553C25.8891 44.5498 26.2057 44.5486 26.4002 44.3526L25.6905 43.6482ZM38.3095 20.3532C38.5041 20.1572 38.5029 19.8406 38.3069 19.6461C38.1109 19.4515 37.7943 19.4527 37.5998 19.6487L38.3095 20.3532ZM19.7358 37.6483C19.5413 37.8443 19.5425 38.1609 19.7385 38.3554C19.9345 38.5499 20.2511 38.5487 20.4456 38.3527L19.7358 37.6483ZM38.8991 19.1994C38.7046 19.3954 38.7058 19.712 38.9018 19.9065C39.0978 20.101 39.4144 20.0998 39.6089 19.9038L38.8991 19.1994ZM40.8685 17.9248L41.2234 18.277V18.277L40.8685 17.9248ZM45.9813 17.9248L46.3362 17.5726L46.3357 17.5721L45.9813 17.9248ZM45.9813 23.0764L46.3362 23.4286L46.3367 23.4281L45.9813 23.0764ZM44.0119 24.351C43.8174 24.547 43.8186 24.8636 44.0145 25.0581C44.2105 25.2526 44.5271 25.2514 44.7217 25.0554L44.0119 24.351ZM39.6089 44.0975C39.4144 43.9015 39.0978 43.9003 38.9018 44.0948C38.7058 44.2893 38.7046 44.6059 38.8991 44.8019L39.6089 44.0975ZM40.8685 46.0765L41.2234 45.7243L40.8685 46.0765ZM45.9813 46.0765L46.3357 46.4292L46.3362 46.4287L45.9813 46.0765ZM45.9813 40.9249L46.3367 40.5732L46.3362 40.5727L45.9813 40.9249ZM44.7217 38.9459C44.5271 38.7499 44.2105 38.7487 44.0145 38.9432C43.8186 39.1377 43.8174 39.4543 44.0119 39.6503L44.7217 38.9459ZM24.3911 19.9038C24.5856 20.0998 24.9022 20.101 25.0982 19.9065C25.2942 19.712 25.2954 19.3954 25.1009 19.1994L24.3911 19.9038ZM23.1315 17.9248L22.7766 18.277L23.1315 17.9248ZM18.0187 17.9248L17.6643 17.5721L17.6638 17.5726L18.0187 17.9248ZM18.0187 23.0764L17.6633 23.4281L17.6638 23.4286L18.0187 23.0764ZM19.2783 25.0554C19.4729 25.2514 19.7895 25.2526 19.9854 25.0581C20.1814 24.8636 20.1826 24.547 19.9881 24.351L19.2783 25.0554ZM25.1009 44.8019C25.2954 44.6059 25.2942 44.2893 25.0982 44.0948C24.9022 43.9003 24.5856 43.9015 24.3911 44.0975L25.1009 44.8019ZM23.1315 46.0765L22.7766 45.7243L23.1315 46.0765ZM18.0187 46.0765L17.6638 46.4287L17.6643 46.4292L18.0187 46.0765ZM18.0187 40.9249L17.6638 40.5727L17.6633 40.5732L18.0187 40.9249ZM19.9881 39.6503C20.1826 39.4543 20.1814 39.1377 19.9854 38.9432C19.7895 38.7487 19.4729 38.7499 19.2783 38.9459L19.9881 39.6503ZM14.136 32.0007L13.7122 32.2659C13.8036 32.4119 13.9637 32.5007 14.136 32.5007V32.0007ZM6.64756 31.0788L7.12569 31.2251L7.1258 31.2247L6.64756 31.0788ZM6.58989 32.8644L7.07643 32.7492L7.07629 32.7486L6.58989 32.8644ZM14.1399 32.0007L14.571 32.254C14.6618 32.0994 14.6629 31.908 14.5739 31.7523C14.4848 31.5967 14.3192 31.5007 14.1399 31.5007V32.0007ZM49.864 32.0007V32.5007C50.0363 32.5007 50.1964 32.4119 50.2878 32.2659L49.864 32.0007ZM57.3524 31.0788L56.8742 31.2247L56.8743 31.2251L57.3524 31.0788ZM57.4101 32.8644L56.9237 32.7486L56.9236 32.7492L57.4101 32.8644ZM49.8601 32.0007V31.5007C49.6808 31.5007 49.5152 31.5967 49.4261 31.7523C49.3371 31.908 49.3382 32.0994 49.429 32.254L49.8601 32.0007ZM14.4922 32.3522L32.3565 14.3522L31.6468 13.6478L13.7824 31.6478L14.4922 32.3522ZM31.6468 14.3522L49.5111 32.3522L50.2209 31.6478L32.3565 13.6478L31.6468 14.3522ZM49.5111 31.6478L31.6468 49.6478L32.3565 50.3522L50.2209 32.3522L49.5111 31.6478ZM32.3565 49.6478L14.4922 31.6478L13.7824 32.3522L31.6468 50.3522L32.3565 49.6478ZM19.7358 26.353L37.5998 44.3526L38.3095 43.6482L20.4456 25.6486L19.7358 26.353ZM25.6905 20.3532L43.5544 38.3527L44.2642 37.6483L26.4002 19.6487L25.6905 20.3532ZM43.5544 25.6486L25.6905 43.6482L26.4002 44.3526L44.2642 26.353L43.5544 25.6486ZM37.5998 19.6487L19.7358 37.6483L20.4456 38.3527L38.3095 20.3532L37.5998 19.6487ZM39.6089 19.9038L41.2234 18.277L40.5137 17.5726L38.8991 19.1994L39.6089 19.9038ZM41.2234 18.277C42.4384 17.0528 44.4074 17.0521 45.6269 18.2775L46.3357 17.5721C44.7259 15.9544 42.1203 15.9537 40.5137 17.5726L41.2234 18.277ZM45.6264 18.277C46.8435 19.5033 46.8442 21.4938 45.626 22.7247L46.3367 23.4281C47.9401 21.8082 47.9408 19.1893 46.3362 17.5726L45.6264 18.277ZM45.6264 22.7242L44.0119 24.351L44.7217 25.0554L46.3362 23.4286L45.6264 22.7242ZM38.8991 44.8019L40.5137 46.4287L41.2234 45.7243L39.6089 44.0975L38.8991 44.8019ZM40.5137 46.4287C42.1203 48.0476 44.7259 48.0469 46.3357 46.4292L45.6269 45.7238C44.4074 46.9492 42.4384 46.9485 41.2234 45.7243L40.5137 46.4287ZM46.3362 46.4287C47.9408 44.812 47.9401 42.1932 46.3367 40.5732L45.626 41.2767C46.8442 42.5075 46.8435 44.498 45.6264 45.7243L46.3362 46.4287ZM46.3362 40.5727L44.7217 38.9459L44.0119 39.6503L45.6264 41.2771L46.3362 40.5727ZM25.1009 19.1994L23.4863 17.5726L22.7766 18.277L24.3911 19.9038L25.1009 19.1994ZM23.4863 17.5726C21.8797 15.9537 19.2741 15.9544 17.6643 17.5721L18.3731 18.2775C19.5926 17.0521 21.5616 17.0528 22.7766 18.277L23.4863 17.5726ZM17.6638 17.5726C16.0592 19.1893 16.0599 21.8082 17.6633 23.4281L18.374 22.7247C17.1558 21.4938 17.1565 19.5033 18.3736 18.277L17.6638 17.5726ZM17.6638 23.4286L19.2783 25.0554L19.9881 24.351L18.3736 22.7242L17.6638 23.4286ZM24.3911 44.0975L22.7766 45.7243L23.4863 46.4287L25.1009 44.8019L24.3911 44.0975ZM22.7766 45.7243C21.5616 46.9485 19.5926 46.9492 18.3731 45.7238L17.6643 46.4292C19.2741 48.0469 21.8797 48.0476 23.4863 46.4287L22.7766 45.7243ZM18.3736 45.7243C17.1565 44.498 17.1558 42.5075 18.374 41.2767L17.6633 40.5732C16.0599 42.1932 16.0592 44.812 17.6638 46.4287L18.3736 45.7243ZM18.3736 41.2771L19.9881 39.6503L19.2783 38.9459L17.6638 40.5727L18.3736 41.2771ZM14.136 32.0007C14.5599 31.7355 14.5598 31.7353 14.5597 31.7352C14.5597 31.7351 14.5596 31.7349 14.5595 31.7348C14.5593 31.7345 14.5591 31.7342 14.5589 31.7338C14.5584 31.7331 14.5578 31.7322 14.5571 31.731C14.5557 31.7288 14.5538 31.7258 14.5515 31.7221C14.5467 31.7147 14.5401 31.7044 14.5315 31.6914C14.5145 31.6653 14.4899 31.6284 14.458 31.5822C14.3943 31.4898 14.3013 31.3599 14.1813 31.2049C13.9418 30.8957 13.5914 30.4827 13.147 30.0682C12.2704 29.2507 10.9628 28.3671 9.37693 28.3671V29.3671C10.5897 29.3671 11.6616 30.0503 12.4649 30.7995C12.8605 31.1685 13.1751 31.5389 13.3907 31.8172C13.4982 31.956 13.5802 32.0709 13.6347 32.1498C13.6619 32.1893 13.6821 32.2197 13.6952 32.2396C13.7017 32.2495 13.7064 32.2568 13.7092 32.2612C13.7106 32.2634 13.7116 32.265 13.7121 32.2657C13.7123 32.2661 13.7125 32.2663 13.7125 32.2664C13.7125 32.2664 13.7125 32.2663 13.7124 32.2663C13.7124 32.2662 13.7123 32.2661 13.7123 32.2661C13.7122 32.266 13.7122 32.2659 14.136 32.0007ZM9.37693 28.3671C8.35674 28.3671 7.61522 28.7559 7.09722 29.289C6.59234 29.8085 6.31834 30.4444 6.16931 30.9329L7.1258 31.2247C7.24972 30.8185 7.462 30.3485 7.81438 29.9859C8.15364 29.6368 8.64033 29.3671 9.37693 29.3671V28.3671ZM6.16943 30.9325C5.97077 31.582 5.94421 32.3115 6.1035 32.9803L7.07629 32.7486C6.95879 32.2553 6.97837 31.7067 7.12569 31.2251L6.16943 30.9325ZM6.10336 32.9797C6.22646 33.4994 6.47801 34.1628 7.00186 34.701C7.53941 35.2534 8.3258 35.6342 9.43075 35.6342V34.6342C8.57902 34.6342 8.05645 34.3508 7.71849 34.0036C7.36683 33.6422 7.17629 33.1707 7.07643 32.7492L6.10336 32.9797ZM9.43075 35.6342C11.0508 35.6342 12.3464 34.7515 13.2064 33.9287C13.6412 33.5127 13.9795 33.0982 14.2093 32.7877C14.3244 32.6321 14.4131 32.5016 14.4738 32.4087C14.5042 32.3622 14.5276 32.325 14.5438 32.2988C14.5519 32.2856 14.5583 32.2752 14.5628 32.2677C14.5651 32.2639 14.5669 32.2609 14.5683 32.2586C14.5689 32.2574 14.5695 32.2565 14.57 32.2557C14.5702 32.2553 14.5704 32.255 14.5705 32.2547C14.5706 32.2546 14.5707 32.2544 14.5708 32.2543C14.5709 32.2541 14.571 32.254 14.1399 32.0007C13.7088 31.7474 13.7089 31.7472 13.709 31.7471C13.709 31.7471 13.709 31.747 13.7091 31.7469C13.7091 31.7468 13.7091 31.7468 13.7091 31.7468C13.7092 31.7468 13.709 31.7469 13.7088 31.7473C13.7084 31.748 13.7075 31.7495 13.7062 31.7517C13.7036 31.756 13.6993 31.7632 13.6932 31.773C13.6811 31.7926 13.6621 31.8227 13.6365 31.8619C13.5853 31.9404 13.5077 32.0547 13.4055 32.1928C13.2004 32.4699 12.8991 32.8388 12.5151 33.2062C11.7374 33.9502 10.6785 34.6342 9.43075 34.6342V35.6342ZM14.1399 31.5007H14.136V32.5007H14.1399V31.5007ZM49.864 32.0007C50.2878 32.2659 50.2878 32.266 50.2877 32.2661C50.2877 32.2661 50.2876 32.2662 50.2876 32.2663C50.2875 32.2663 50.2875 32.2664 50.2875 32.2664C50.2875 32.2663 50.2877 32.2661 50.2879 32.2657C50.2884 32.265 50.2894 32.2634 50.2908 32.2612C50.2936 32.2568 50.2983 32.2495 50.3048 32.2396C50.3179 32.2197 50.3381 32.1893 50.3653 32.1498C50.4198 32.0709 50.5018 31.956 50.6093 31.8172C50.8249 31.5389 51.1395 31.1685 51.5351 30.7995C52.3384 30.0503 53.4103 29.3671 54.6231 29.3671V28.3671C53.0372 28.3671 51.7296 29.2507 50.853 30.0682C50.4086 30.4827 50.0582 30.8957 49.8187 31.2049C49.6987 31.3599 49.6057 31.4898 49.542 31.5822C49.5101 31.6284 49.4855 31.6653 49.4685 31.6914C49.4599 31.7044 49.4533 31.7147 49.4485 31.7221C49.4462 31.7258 49.4443 31.7288 49.4429 31.731C49.4422 31.7322 49.4416 31.7331 49.4411 31.7338C49.4409 31.7342 49.4407 31.7345 49.4405 31.7348C49.4404 31.7349 49.4403 31.7351 49.4403 31.7352C49.4402 31.7353 49.4401 31.7355 49.864 32.0007ZM54.6231 29.3671C55.3597 29.3671 55.8464 29.6368 56.1856 29.9859C56.538 30.3485 56.7503 30.8185 56.8742 31.2247L57.8307 30.9329C57.6817 30.4444 57.4077 29.8085 56.9028 29.289C56.3848 28.7559 55.6433 28.3671 54.6231 28.3671V29.3671ZM56.8743 31.2251C57.0216 31.7067 57.0412 32.2553 56.9237 32.7486L57.8965 32.9803C58.0558 32.3115 58.0292 31.582 57.8306 30.9325L56.8743 31.2251ZM56.9236 32.7492C56.8237 33.1707 56.6332 33.6422 56.2815 34.0036C55.9436 34.3508 55.421 34.6342 54.5692 34.6342V35.6342C55.6742 35.6342 56.4606 35.2534 56.9981 34.701C57.522 34.1628 57.7735 33.4994 57.8966 32.9797L56.9236 32.7492ZM54.5692 34.6342C53.3215 34.6342 52.2626 33.9502 51.4849 33.2062C51.1009 32.8388 50.7996 32.4699 50.5945 32.1928C50.4923 32.0547 50.4147 31.9404 50.3635 31.8619C50.3379 31.8227 50.3189 31.7926 50.3068 31.773C50.3007 31.7632 50.2964 31.756 50.2938 31.7517C50.2925 31.7495 50.2916 31.748 50.2912 31.7473C50.291 31.7469 50.2908 31.7468 50.2909 31.7468C50.2909 31.7468 50.2909 31.7468 50.2909 31.7469C50.291 31.747 50.291 31.7471 50.291 31.7471C50.2911 31.7472 50.2912 31.7474 49.8601 32.0007C49.429 32.254 49.4291 32.2541 49.4292 32.2543C49.4293 32.2544 49.4294 32.2546 49.4295 32.2547C49.4296 32.255 49.4298 32.2553 49.43 32.2557C49.4305 32.2565 49.4311 32.2574 49.4317 32.2586C49.4331 32.2609 49.4349 32.2639 49.4372 32.2677C49.4417 32.2752 49.4481 32.2856 49.4562 32.2988C49.4724 32.325 49.4958 32.3622 49.5262 32.4087C49.5869 32.5016 49.6756 32.6321 49.7907 32.7877C50.0205 33.0982 50.3588 33.5127 50.7936 33.9287C51.6536 34.7515 52.9492 35.6342 54.5692 35.6342V34.6342ZM49.8601 32.5007H49.864V31.5007H49.8601V32.5007Z" fill="black"/>
</svg>
