<svg width="64" height="64" viewBox="0 0 64 64" fill="none" xmlns="http://www.w3.org/2000/svg">
<path d="M38.0933 19.4915L29.7357 11.5M32.2865 25.3114L41.6359 16.3698M25.9067 19.1929L34.2643 27.1845M31.719 13.373L22.3696 22.3146M38.0933 44.8125L29.7357 36.821M32.2865 50.627L41.6359 41.6854M25.9067 44.5085L34.2643 52.5M31.719 38.6886L22.3696 47.6302M47.2444 44.6388C44.4401 47.9233 40.5615 50.285 36.1485 51.2079M34.0936 12.4772C39.4156 13.0256 44.1151 15.6423 47.3491 19.4915M42.6055 32.0597L56.3569 24.6002M58.3457 32.0597L44.5889 24.6002M44.5889 39.4052L58.3457 31.9457M56.3624 39.4052L42.6055 31.9457M16.7556 19.0463C19.5599 15.7618 23.4385 13.4002 27.8515 12.4772M29.9064 51.2025C24.5844 50.6541 19.8849 48.0373 16.6509 44.1882M21.4 31.6254L7.64314 39.0849M5.65977 31.6254L19.4166 39.0849M19.4166 24.2799L5.65977 31.7394M7.64314 24.2799L21.4 31.7394M58.5 32C58.5 38.0117 54.9061 42.8852 50.4729 42.8852C46.0396 42.8852 42.4457 38.0117 42.4457 32C42.4457 25.9883 46.0396 21.1148 50.4729 21.1148C54.9061 21.1148 58.5 25.9883 58.5 32ZM21.5543 31.6851C21.5543 37.6968 17.9604 42.5703 13.5271 42.5703C9.09387 42.5703 5.5 37.6968 5.5 31.6851C5.5 25.6734 9.09387 20.7999 13.5271 20.7999C17.9604 20.7999 21.5543 25.6734 21.5543 31.6851Z" stroke="black" stroke-linecap="round" stroke-linejoin="round"/>
</svg>
