<svg width="88" height="34" viewBox="0 0 88 34" fill="none" xmlns="http://www.w3.org/2000/svg">
<g clip-path="url(#clip0_753_18390)">
<path d="M56.34 19.64C61.4 18.54 68.29 17.53 72.98 17.53C83.22 17.53 86.81 19.5 86.81 21.93C86.81 24.36 83.22 26.33 72.98 26.33C68.25 26.33 61.39 25.4 56.34 24.32" stroke="#231815" stroke-linecap="round" stroke-linejoin="round"/>
<path d="M30.97 13.32C25.91 14.42 19.02 15.43 14.33 15.43C4.09 15.43 0.5 13.46 0.5 11.03C0.5 8.6 4.09 6.63 14.33 6.63C19.06 6.63 25.92 7.56001 30.97 8.64001" stroke="#231815" stroke-linecap="round" stroke-linejoin="round"/>
<path d="M51.17 32.8399L51.19 9.31995" stroke="#231815" stroke-linecap="round" stroke-linejoin="round"/>
<path d="M59.4501 8.57005L35.9301 8.55005" stroke="#231815" stroke-linecap="round" stroke-linejoin="round"/>
<path d="M50.92 24.0899L27.4 24.0699" stroke="#231815" stroke-linecap="round" stroke-linejoin="round"/>
<path d="M34.99 24.02L35.01 0.5" stroke="#231815" stroke-linecap="round" stroke-linejoin="round"/>
</g>
<defs>
<clipPath id="clip0_753_18390">
<rect width="87.32" height="33.34" fill="white"/>
</clipPath>
</defs>
</svg>
